<?xml version="1.0" standalone="no"?>
<!DOCTYPE svg PUBLIC "-//W3C//DTD SVG 1.1//EN" "http://www.w3.org/Graphics/SVG/1.1/DTD/svg11.dtd" >
<svg xmlns="http://www.w3.org/2000/svg">
<metadata></metadata>
<defs>
<font id="verb_regularregular" horiz-adv-x="600" >
<font-face units-per-em="1000" ascent="800" descent="-200" />
<missing-glyph horiz-adv-x="282" />
<glyph unicode="&#xfb01;" horiz-adv-x="598" d="M33 461v64h73v72q0 132 115 132q52 0 126 -27l-24 -62q-61 17 -86 17q-49 0 -49 -56v-76h141v-64h-141v-461h-82v461h-73zM430 629v97h92v-97h-92zM434 0v525h82v-525h-82z" />
<glyph unicode="&#xfb02;" horiz-adv-x="607" d="M33 461v64h73v72q0 132 115 132q52 0 126 -27l-24 -62q-61 17 -86 17q-49 0 -49 -56v-76h141v-64h-141v-461h-82v461h-73zM438 0v729h83v-729h-83z" />
<glyph unicode="&#xfb03;" horiz-adv-x="951" d="M33 461v64h73v72q0 132 118 132q63 0 155 -35l-27 -61q-75 24 -115 24q-49 0 -49 -56v-76h136v-64h-136v-461h-82v461h-73zM386 461v64h74v72q0 132 114 132q49 0 127 -27l-25 -62q-58 17 -85 17q-50 0 -50 -56v-76h142v-64h-142v-461h-81v461h-74zM784 629v97h92v-97 h-92zM787 0v525h83v-525h-83z" />
<glyph unicode="&#xfb04;" horiz-adv-x="960" d="M33 461v64h73v72q0 132 118 132q63 0 155 -35l-27 -61q-75 24 -115 24q-49 0 -49 -56v-76h136v-64h-136v-461h-82v461h-73zM386 461v64h74v72q0 132 114 132q49 0 127 -27l-25 -62q-58 17 -85 17q-50 0 -50 -56v-76h142v-64h-142v-461h-81v461h-74zM792 0v729h83v-729 h-83z" />
<glyph horiz-adv-x="1000" />
<glyph horiz-adv-x="1000" />
<glyph unicode="&#xd;" horiz-adv-x="1000" />
<glyph unicode=" "  horiz-adv-x="282" />
<glyph unicode="&#x09;" horiz-adv-x="282" />
<glyph unicode="&#xa0;" horiz-adv-x="282" />
<glyph unicode="!" horiz-adv-x="265" d="M83 700h100l-25 -491h-51zM85 0v115h96v-115h-96z" />
<glyph unicode="&#x22;" horiz-adv-x="408" d="M66 700h88l-15 -259h-57zM255 700h88l-16 -259h-56z" />
<glyph unicode="#" horiz-adv-x="752" d="M49 179v66h144l33 209h-135v66h146l28 180h68l-28 -180h193l28 180h68l-28 -180h135v-66h-145l-33 -209h136v-66h-146l-28 -179h-68l28 179h-193l-28 -179h-69l28 179h-134zM262 245h193l33 209h-193z" />
<glyph unicode="$" horiz-adv-x="615" d="M48 74l41 64q90 -53 189 -70v258l-12 4q-44 14 -73 27t-62 35.5t-50 56t-17 76.5q0 83 60 133t154 53v90h64v-94q106 -13 198 -62l-40 -64q-78 39 -158 51v-237q45 -14 78.5 -28.5t70 -39t56.5 -62t20 -84.5q0 -88 -64.5 -138.5t-160.5 -53.5v-89h-64v93q-122 15 -230 81 zM154 530q0 -44 30.5 -68t93.5 -46v221q-54 -3 -89 -30t-35 -77zM342 63q58 2 97.5 31t39.5 81q0 46 -34.5 75t-102.5 54v-241z" />
<glyph unicode="%" horiz-adv-x="995" d="M45 523q0 90 49 139t131 49q83 0 132.5 -49t49.5 -139t-49.5 -138.5t-132.5 -48.5q-82 0 -131 48.5t-49 138.5zM114 523q0 -63 29 -96t82 -33q54 0 83 33t29 96t-29.5 97t-82.5 34t-82 -34t-29 -97zM277 0l368 700h71l-368 -700h-71zM587 176q0 90 48.5 139t131.5 49 q84 0 133 -49t49 -139t-49 -138.5t-133 -48.5q-83 0 -131.5 48.5t-48.5 138.5zM656 176q0 -62 29.5 -95.5t81.5 -33.5q54 0 83 33t29 96t-29.5 97t-82.5 34q-52 0 -81.5 -34t-29.5 -97z" />
<glyph unicode="&#x26;" horiz-adv-x="699" d="M71 172q0 66 39 112t109 93q-30 31 -48 53.5t-33.5 57.5t-15.5 70q0 74 53.5 113.5t123.5 39.5q71 0 118.5 -40t47.5 -108q0 -58 -35.5 -102.5t-100.5 -91.5l172 -175q46 81 58 175h85q-16 -126 -88 -231l137 -138h-103l-80 81q-90 -92 -219 -92q-95 0 -157.5 50 t-62.5 133zM154 178q0 -45 34.5 -83.5t104.5 -38.5q94 0 165 78l-189 193q-56 -40 -85.5 -73.5t-29.5 -75.5zM201 556q0 -26 13.5 -53.5t28 -44t38.5 -40.5q51 34 78.5 66.5t27.5 74.5q0 37 -22.5 62t-66.5 25q-46 0 -71.5 -26t-25.5 -64z" />
<glyph unicode="'" horiz-adv-x="219" d="M66 700h88l-15 -259h-57z" />
<glyph unicode="(" horiz-adv-x="312" d="M81 43v610q0 37 2 55.5t10.5 41t27 35.5t51 27t83.5 27l24 -55q-57 -19 -79.5 -33.5t-27.5 -31t-5 -58.5v-626q0 -42 5 -58.5t27.5 -31t79.5 -33.5l-24 -55q-51 13 -83.5 27t-51 27t-27 35.5t-10.5 41t-2 55.5z" />
<glyph unicode=")" horiz-adv-x="312" d="M32 -88q44 15 65.5 24t33 24.5t13 28.5t1.5 46v626q0 33 -1.5 46t-13 28.5t-33 24.5t-65.5 24l25 55q51 -13 83.5 -27t51 -27t27 -35.5t10.5 -41t2 -55.5v-610q0 -37 -2 -55.5t-10.5 -41t-27 -35.5t-51 -27t-83.5 -27z" />
<glyph unicode="*" horiz-adv-x="483" d="M60 449l148 60l-148 61l38 65l127 -99l-21 156h75l-21 -155l126 97l38 -65l-147 -60l147 -61l-38 -64l-125 95l20 -153h-75l21 155l-127 -97z" />
<glyph unicode="+" horiz-adv-x="615" d="M56 300v66h217v194h67v-194h218v-66h-218v-193h-67v193h-217z" />
<glyph unicode="," horiz-adv-x="246" d="M68 -103l50 103h-44v120h94l11 -127l-83 -128z" />
<glyph unicode="-" horiz-adv-x="435" d="M76 249v72h284v-72h-284z" />
<glyph unicode="." horiz-adv-x="244" d="M74 0v120h96v-120h-96z" />
<glyph unicode="/" horiz-adv-x="449" d="M24 -90l333 880h68l-333 -880h-68z" />
<glyph unicode="0" horiz-adv-x="657" d="M65 350q0 174 67.5 267.5t196.5 93.5t196 -93.5t67 -267.5q0 -175 -67 -268t-196 -93q-130 0 -197 93t-67 268zM152 350q0 -291 177 -291q175 0 175 291t-175 291q-177 0 -177 -291z" />
<glyph unicode="1" horiz-adv-x="369" d="M24 607l169 93h79v-700h-86v613l-125 -65z" />
<glyph unicode="2" horiz-adv-x="584" d="M51 0v55q0 41 12.5 77.5t28.5 61t49 53.5t54.5 44.5t64.5 44.5q2 1 3 2t3 2.5t3.5 2.5t3.5 2q43 29 63.5 44t47.5 40t38.5 49t11.5 51q0 48 -36.5 78t-99.5 30q-97 0 -186 -63l-42 59q113 78 234 78q99 0 158 -49.5t59 -130.5q0 -24 -6.5 -47.5t-13.5 -40.5t-26.5 -38.5 t-29.5 -32.5t-38.5 -32.5t-38 -28t-44.5 -29.5t-42 -28q-71 -47 -102.5 -84t-31.5 -96h374v-74h-471z" />
<glyph unicode="3" horiz-adv-x="592" d="M39 61l40 63q101 -61 200 -61q72 0 119 36.5t47 97.5q0 39 -21 69t-55.5 46t-71 24t-74.5 8h-31v75h36q75 0 130.5 31.5t55.5 89.5q0 45 -35 71t-94 26q-89 0 -176 -58l-38 57q103 75 225 75q97 0 150.5 -47.5t53.5 -116.5q0 -51 -33 -94.5t-101 -66.5q73 -18 119.5 -69 t46.5 -120q0 -86 -62.5 -147t-180.5 -61q-75 0 -142 23t-108 49z" />
<glyph unicode="4" horiz-adv-x="631" d="M35 155v64l337 481h112v-472h107v-73h-107v-155h-87v155h-362zM126 228h271v393z" />
<glyph unicode="5" horiz-adv-x="580" d="M49 60l40 65q91 -61 178 -61q71 0 121 43.5t50 112.5q0 64 -44 108t-120 44q-71 0 -149 -44l-46 27l38 345h381v-74h-312l-18 -208q56 27 123 27q107 0 171 -65t64 -160t-65.5 -163t-183.5 -68q-111 0 -228 71z" />
<glyph unicode="6" horiz-adv-x="616" d="M62 281q0 102 30 185.5t81.5 136t117 80.5t137.5 28q24 0 47 -2.5t35 -5.5l11 -3l-20 -70q-32 8 -71 8q-96 0 -173.5 -67t-99.5 -201q72 77 186 77q104 0 164 -63.5t60 -157.5q0 -99 -67 -168t-177 -69q-85 0 -146 44t-87.5 108t-27.5 140zM150 274q0 -90 45 -151 t127 -61q75 0 117 48.5t42 113.5q0 63 -39.5 109t-114.5 46q-63 0 -110.5 -30.5t-66.5 -67.5v-7z" />
<glyph unicode="7" horiz-adv-x="509" d="M32 626v74h453v-65q-10 -13 -27.5 -36.5t-62 -95.5t-78.5 -143.5t-62 -171t-28 -188.5h-91q0 80 25 172.5t55 160t73.5 142t61 100t36.5 51.5h-355z" />
<glyph unicode="8" horiz-adv-x="629" d="M55 181q0 126 169 197q-128 58 -128 164q0 77 60.5 123t157.5 46t157.5 -46t60.5 -123q0 -106 -128 -164q170 -71 170 -197q0 -89 -73 -140.5t-187 -51.5t-186.5 51.5t-72.5 140.5zM143 184q0 -57 49 -91.5t122 -34.5t122 34.5t49 91.5t-46.5 94t-124.5 66 q-36 -13 -63 -26.5t-53.5 -32.5t-40.5 -45t-14 -56zM181 535q0 -79 133 -125q133 47 133 125q0 45 -37.5 76.5t-95.5 31.5q-57 0 -95 -32t-38 -76z" />
<glyph unicode="9" horiz-adv-x="617" d="M50 474q0 99 67 168t178 69q65 0 116 -25t81.5 -67t46.5 -93t16 -107q1 -201 -106.5 -315.5t-259.5 -114.5q-24 0 -47 2.5t-34 5.5l-12 3l21 70q31 -8 70 -8q96 0 174 67t100 202q-71 -79 -187 -79q-104 0 -164 63.5t-60 158.5zM137 475q0 -62 39 -108t115 -46 q63 0 111 31.5t66 68.5v4q0 91 -45 152t-127 61q-75 0 -117 -48.5t-42 -114.5z" />
<glyph unicode=":" horiz-adv-x="251" d="M77 0v120h97v-120h-97zM77 341v120h97v-120h-97z" />
<glyph unicode=";" horiz-adv-x="264" d="M77 -103l50 103h-44v120h94l11 -127l-83 -128zM83 341v120h95v-120h-95z" />
<glyph unicode="&#x3c;" horiz-adv-x="615" d="M42 303v62l501 210v-78l-410 -164l410 -163v-77z" />
<glyph unicode="=" horiz-adv-x="615" d="M56 211v66h502v-66h-502zM56 391v66h502v-66h-502z" />
<glyph unicode="&#x3e;" horiz-adv-x="615" d="M70 93v77l411 163l-411 164v78l502 -210v-62z" />
<glyph unicode="?" horiz-adv-x="514" d="M37 637q109 74 224 74q86 0 146 -44.5t60 -125.5q0 -147 -218 -204l-6 -128h-60l-7 176q103 22 154.5 54.5t51.5 91.5q0 49 -37 77.5t-94 28.5q-76 0 -173 -58zM165 0v115h96v-115h-96z" />
<glyph unicode="@" horiz-adv-x="970" d="M58 253q0 188 120.5 310.5t321.5 122.5q200 0 309 -119t110 -313q0 -121 -49.5 -198.5t-140.5 -77.5q-64 0 -92.5 35t-33.5 82q-79 -72 -168 -72q-61 0 -104.5 36t-43.5 111q0 74 44.5 112.5t109.5 38.5q18 0 42.5 -3t42.5 -6.5t43.5 -9t32.5 -6.5v55q0 52 -20.5 75 t-74.5 23q-67 0 -162 -41l-28 52q113 45 199 45q153 0 153 -150v-204q0 -29 1.5 -45.5t7.5 -37.5t21 -31t40 -10q49 0 92 55.5t43 172.5q0 172 -95.5 279.5t-279.5 107.5q-124 0 -215 -54t-135 -141t-44 -194q0 -167 102 -278t268 -111q54 0 102 11t69 23l21 11l27 -35 q-8 -6 -24.5 -15t-73.5 -23.5t-121 -14.5q-186 0 -301.5 123t-115.5 309zM356 173q0 -48 26 -71t68 -23q78 0 152 72v103q-8 1 -37 7t-54.5 9.5t-46.5 3.5q-56 0 -82 -28.5t-26 -72.5z" />
<glyph unicode="A" horiz-adv-x="686" d="M25 0l271 700h94l271 -700h-94l-62 171h-324l-62 -171h-94zM206 242h273l-136 378z" />
<glyph unicode="B" horiz-adv-x="675" d="M96 0v700h244q116 0 179 -44.5t63 -126.5q0 -68 -39 -109.5t-82 -48.5q25 -3 49.5 -14t50.5 -31t42.5 -56t16.5 -83q0 -89 -59 -138t-173 -49h-292zM183 70h196q77 0 116.5 35.5t39.5 94.5q0 134 -193 134h-159v-264zM183 401h152q73 0 117.5 29t44.5 87q0 52 -39 82.5 t-118 30.5h-157v-229z" />
<glyph unicode="C" horiz-adv-x="647" d="M63 350q0 179 78 270t197 91q117 0 269 -103l-45 -62q-40 26 -66 40.5t-70 30.5t-81 16q-86 0 -139.5 -75.5t-53.5 -207.5t53.5 -207.5t139.5 -75.5q37 0 81 16t70 30.5t66 40.5l45 -62q-152 -103 -269 -103q-119 0 -197 90.5t-78 270.5z" />
<glyph unicode="D" horiz-adv-x="705" d="M96 0v700h217q330 0 330 -350t-330 -350h-217zM183 75h124q128 0 187.5 65.5t59.5 209.5q0 143 -60 209t-187 66h-124v-550z" />
<glyph unicode="E" d="M96 0v700h444v-75h-357v-238h295v-74h-295v-238h363v-75h-450z" />
<glyph unicode="F" horiz-adv-x="572" d="M96 0v700h444v-75h-357v-238h285v-74h-285v-313h-87z" />
<glyph unicode="G" horiz-adv-x="704" d="M63 350q0 179 78.5 270t198.5 91q126 0 280 -109l-46 -63q-98 63 -150 80q-42 14 -78 14q-87 0 -140.5 -75.5t-53.5 -207.5t53 -209t141 -77q90 0 202 100v146h-192v72h276v-382h-84v82q-106 -93 -215 -93q-116 0 -193 91t-77 270z" />
<glyph unicode="H" horiz-adv-x="714" d="M96 0v700h87v-296h349v296h86v-700h-86v330h-349v-330h-87z" />
<glyph unicode="I" horiz-adv-x="278" d="M96 0v700h87v-700h-87z" />
<glyph unicode="J" horiz-adv-x="278" d="M-21 -81q47 15 69 24t34 24.5t13.5 28.5t1.5 46v658h86v-655q0 -26 -0.5 -38t-2.5 -31.5t-6 -28.5t-12.5 -22.5t-21 -21t-31 -17.5t-43 -17.5t-57.5 -16.5z" />
<glyph unicode="K" horiz-adv-x="657" d="M96 0v700h87v-394l329 394h102l-285 -337l315 -363h-105l-261 303l-95 -113v-190h-87z" />
<glyph unicode="L" horiz-adv-x="555" d="M96 0v700h87v-625h346v-75h-433z" />
<glyph unicode="M" horiz-adv-x="844" d="M96 0v700h90l236 -489l235 489h91v-700h-86v558l-212 -441h-55l-212 438v-555h-87z" />
<glyph unicode="N" horiz-adv-x="730" d="M96 0v700h89l363 -573v573h86v-700h-89l-362 572v-572h-87z" />
<glyph unicode="O" horiz-adv-x="740" d="M62 350q0 77 17 140.5t52.5 114t96 78.5t141.5 28q108 0 179 -50t100 -128.5t29 -182.5q0 -77 -17 -140.5t-52.5 -114t-96.5 -78.5t-142 -28t-141.5 28t-96 78.5t-52.5 114t-17 140.5zM151 350q0 -130 51.5 -208t166.5 -78q116 0 167.5 77.5t51.5 208.5t-51.5 208.5 t-167.5 77.5q-115 0 -166.5 -78t-51.5 -208z" />
<glyph unicode="P" horiz-adv-x="646" d="M96 0v700h251q261 0 261 -214t-261 -214h-164v-272h-87zM183 345h165q171 0 171 141q0 140 -171 140h-165v-281z" />
<glyph unicode="Q" horiz-adv-x="740" d="M62 350q0 77 17 140.5t52.5 114t96 78.5t141.5 28q108 0 179 -50t100 -128.5t29 -182.5q0 -134 -52 -227.5t-161 -122.5l118 -94l-59 -60l-154 143q-81 0 -141.5 28t-96 78.5t-52.5 114t-17 140.5zM151 350q0 -130 51.5 -208t166.5 -78q116 0 167.5 77.5t51.5 208.5 t-51.5 208.5t-167.5 77.5q-115 0 -166.5 -78t-51.5 -208z" />
<glyph unicode="R" horiz-adv-x="686" d="M96 0v700h272q262 0 262 -202q0 -172 -190 -197l191 -301h-95l-183 297h-170v-297h-87zM183 368h182q177 0 177 130q0 131 -172 131h-187v-261z" />
<glyph unicode="S" horiz-adv-x="613" d="M47 74l40 64q133 -75 242 -75q62 0 105 29t43 83q0 64 -81 105q-33 16 -132 50q-44 14 -73 27t-62 35.5t-50 56t-17 76.5q0 86 63.5 136t161.5 50q61 0 130 -19t121 -47l-40 -64q-46 24 -105 40t-103 16q-59 0 -98.5 -27t-39.5 -80q0 -15 4.5 -28.5t10 -23t19.5 -19 t22.5 -15t29.5 -14t31.5 -12t37.5 -12t38 -12.5q47 -16 77.5 -29.5t68 -38.5t56.5 -61.5t19 -83.5q0 -91 -68.5 -141.5t-168.5 -50.5q-73 0 -149 25.5t-133 59.5z" />
<glyph unicode="T" horiz-adv-x="576" d="M25 625v75h526v-75h-220v-625h-86v625h-220z" />
<glyph unicode="U" horiz-adv-x="704" d="M90 256v444h87v-447q0 -43 7.5 -74.5t26 -59t54 -41.5t88.5 -14q100 0 138 50t38 139v447h86v-444q0 -267 -262 -267q-263 0 -263 267z" />
<glyph unicode="V" horiz-adv-x="683" d="M24 700h98l219 -610l221 610h97l-270 -700h-94z" />
<glyph unicode="W" horiz-adv-x="942" d="M33 700h97l147 -597l154 597h80l154 -596l148 596h96l-194 -700h-92l-152 578l-152 -578h-92z" />
<glyph unicode="X" horiz-adv-x="624" d="M22 0l241 348l-229 352h100l178 -297l179 297h99l-230 -352l242 -348h-103l-187 289l-187 -289h-103z" />
<glyph unicode="Y" horiz-adv-x="635" d="M18 700h98l202 -355l201 355h98l-257 -423v-277h-86v278z" />
<glyph unicode="Z" horiz-adv-x="621" d="M42 0v69l417 556h-394v75h502v-68l-417 -557h422v-75h-530z" />
<glyph unicode="[" horiz-adv-x="342" d="M88 -144v983h220v-58h-133v-867h133v-58h-220z" />
<glyph unicode="\" horiz-adv-x="449" d="M24 790h68l333 -880h-68z" />
<glyph unicode="]" horiz-adv-x="342" d="M34 -86h134v867h-134v58h220v-983h-220v58z" />
<glyph unicode="^" horiz-adv-x="615" d="M74 347l191 353h84l191 -353h-93l-140 281l-142 -281h-91z" />
<glyph unicode="_" horiz-adv-x="707" d="M75 -83h556v-63h-556v63z" />
<glyph unicode="`" horiz-adv-x="214" d="M-11 729h112l124 -130h-70z" />
<glyph unicode="a" horiz-adv-x="577" d="M46 157q0 84 52 127.5t130 43.5q27 0 62 -5t78.5 -13.5t48.5 -9.5v59q0 58 -24 84t-86 26q-61 0 -195 -44l-30 61q139 50 236 50q90 0 136 -41t46 -133v-362h-83v70q-88 -81 -195 -81q-72 0 -124 42t-52 126zM131 161q0 -103 111 -103q91 0 175 77v115q-118 23 -158 23 q-67 0 -97.5 -31t-30.5 -81z" />
<glyph unicode="b" horiz-adv-x="603" d="M81 0v729h83v-272q88 79 185 79q89 0 144.5 -68t55.5 -206t-55.5 -205.5t-144.5 -67.5q-100 0 -185 79v-68h-83zM164 142q75 -84 169 -84q64 0 98 53.5t34 150.5t-34 151t-98 54q-95 0 -169 -85v-240z" />
<glyph unicode="c" horiz-adv-x="522" d="M53 263q0 130 66.5 201.5t161.5 71.5q83 0 203 -69l-38 -62q-1 1 -16 9.5t-23.5 13t-25.5 12.5t-30.5 12.5t-30.5 8t-32 3.5q-65 0 -107 -55t-42 -146t42 -146.5t107 -55.5q18 0 37.5 4.5t38.5 12.5t32 14t30 16t20 11l38 -61q-120 -69 -203 -69q-95 0 -161.5 72 t-66.5 202z" />
<glyph unicode="d" horiz-adv-x="603" d="M54 262q0 138 55.5 206t144.5 68q97 0 185 -79v272h83v-729h-83v68q-85 -79 -185 -79q-89 0 -144.5 67.5t-55.5 205.5zM138 262q0 -97 34 -150.5t98 -53.5q92 0 169 84v240q-76 85 -169 85q-64 0 -98 -54t-34 -151z" />
<glyph unicode="e" horiz-adv-x="575" d="M53 262q0 130 67.5 202t176.5 72q107 0 165 -62.5t58 -164.5q0 -17 -2 -34t-4 -25l-1 -9h-375q5 -86 46 -136t105 -50q76 0 196 71l38 -55q-40 -24 -63 -36t-76 -29t-100 -17q-100 0 -165.5 71t-65.5 202zM139 295h298q4 177 -141 177q-68 0 -109 -47t-48 -130z" />
<glyph unicode="f" horiz-adv-x="352" d="M33 461v64h74v72q0 72 30.5 102t86.5 30q66 0 155 -35l-30 -61q-72 24 -111 24q-50 0 -50 -56v-76h142v-64h-142v-461h-81v461h-74z" />
<glyph unicode="g" horiz-adv-x="603" d="M54 262q0 138 55.5 206t144.5 68q97 0 185 -79v68h83v-555q0 -184 -200 -184q-110 0 -245 38l18 70q133 -39 216 -39q65 0 96.5 26t31.5 86v101q-85 -79 -185 -79q-89 0 -144.5 67.5t-55.5 205.5zM138 262q0 -97 34 -150.5t98 -53.5q92 0 169 84v240q-76 85 -169 85 q-64 0 -98 -54t-34 -151z" />
<glyph unicode="h" horiz-adv-x="607" d="M81 0v729h83v-278q41 31 99 58t117 27q150 0 150 -162v-374h-83v359q0 109 -91 109q-49 0 -103.5 -28t-88.5 -58v-382h-83z" />
<glyph unicode="i" horiz-adv-x="245" d="M77 629v97h92v-97h-92zM80 0v525h83v-525h-83z" />
<glyph unicode="j" horiz-adv-x="245" d="M-36 -150q31 10 49.5 16.5t33 16t21 15t10 20t4 24.5t0.5 34v549h83v-545q0 -30 -0.5 -43.5t-3.5 -34.5t-9.5 -30.5t-18.5 -23.5t-31 -22.5t-46 -18.5t-64 -20zM77 629v97h92v-97h-92z" />
<glyph unicode="k" horiz-adv-x="526" d="M81 0v729h83v-479l221 275h94l-177 -212l210 -313h-89l-171 253l-88 -105v-148h-83z" />
<glyph unicode="l" horiz-adv-x="254" d="M86 0v729h82v-729h-82z" />
<glyph unicode="m" horiz-adv-x="920" d="M81 0v525h83v-77q98 88 193 88q110 0 138 -98q36 36 90.5 67t112.5 31q145 0 145 -162v-374h-83v359q0 109 -86 109q-45 0 -92 -28.5t-80 -64.5v-375h-82v359q0 109 -87 109q-80 0 -169 -89v-379h-83z" />
<glyph unicode="n" horiz-adv-x="607" d="M81 0v525h83v-74q41 31 99 58t117 27q150 0 150 -162v-374h-83v359q0 109 -91 109q-49 0 -103.5 -28t-88.5 -58v-382h-83z" />
<glyph unicode="o" d="M53 262q0 129 64.5 201.5t183.5 72.5t183 -72.5t64 -201.5t-64 -201t-183 -72q-120 0 -184 72t-64 201zM138 262q0 -206 163 -206q162 0 162 206q0 98 -39.5 152.5t-122.5 54.5t-123 -54.5t-40 -152.5z" />
<glyph unicode="p" horiz-adv-x="603" d="M81 -204v729h83v-68q88 79 185 79q89 0 144.5 -68t55.5 -206t-55.5 -205.5t-144.5 -67.5q-100 0 -185 79v-272h-83zM164 142q75 -84 169 -84q64 0 98 53.5t34 150.5t-34 151t-98 54q-95 0 -169 -85v-240z" />
<glyph unicode="q" horiz-adv-x="603" d="M54 262q0 138 55.5 206t144.5 68q97 0 185 -79v68h83v-729h-83v272q-85 -79 -185 -79q-89 0 -144.5 67.5t-55.5 205.5zM138 262q0 -97 34 -150.5t98 -53.5q92 0 169 84v240q-76 85 -169 85q-64 0 -98 -54t-34 -151z" />
<glyph unicode="r" horiz-adv-x="387" d="M81 0v525h83v-112q5 12 15.5 28t33.5 40.5t62.5 38.5t87.5 11v-79q-50 0 -89 -17t-59 -41t-32.5 -48.5t-15.5 -41.5l-3 -17v-287h-83z" />
<glyph unicode="s" horiz-adv-x="512" d="M44 53l37 61q110 -58 193 -58q46 0 79 20t33 56q0 54 -91 84q-18 6 -53 16l-12 3q-37 10 -62.5 20t-54 28t-43.5 45.5t-15 63.5q0 67 50.5 105.5t133.5 38.5q99 0 207 -53l-36 -58q-94 44 -169 44q-47 0 -75.5 -19.5t-28.5 -53.5q0 -17 9.5 -31.5t19.5 -22.5t33 -17 t33 -12t35 -9l12 -3q93 -25 141.5 -63t48.5 -103q0 -71 -54.5 -108.5t-136.5 -37.5q-119 0 -234 64z" />
<glyph unicode="t" horiz-adv-x="383" d="M34 461v64h74v132l81 20v-152h145v-64h-145v-344q0 -55 50 -55q39 0 100 27l31 -63q-81 -37 -145 -37q-117 0 -117 132v340h-74z" />
<glyph unicode="u" horiz-adv-x="607" d="M77 150v375h83v-359q0 -109 91 -109q48 0 103 27.5t89 58.5v382h83v-525h-83v73q-113 -84 -217 -84q-149 0 -149 161z" />
<glyph unicode="v" horiz-adv-x="557" d="M27 525h91l161 -440l161 440h91l-212 -525h-80z" />
<glyph unicode="w" horiz-adv-x="813" d="M32 525h88l121 -439l128 439h76l128 -439l121 439h88l-166 -525h-81l-128 425l-129 -425h-82z" />
<glyph unicode="x" horiz-adv-x="575" d="M19 0l219 263l-208 262h98l160 -213l158 213h99l-209 -261l220 -264h-102l-167 218l-166 -218h-102z" />
<glyph unicode="y" horiz-adv-x="557" d="M27 525h90l161 -427l161 427h91l-294 -729h-91l92 207z" />
<glyph unicode="z" horiz-adv-x="513" d="M43 0v64l320 391h-310v70h413v-64l-318 -391h318v-70h-423z" />
<glyph unicode="{" horiz-adv-x="394" d="M27 312v71q114 0 97 123l-12 93q-16 115 42.5 177.5t188.5 62.5h18v-57h-18q-165 0 -144 -170l12 -91q19 -145 -106 -174q125 -27 106 -172l-12 -91q-21 -170 144 -170h18v-57h-18q-131 0 -189 62t-42 178l13 93q9 66 -17 94t-81 28z" />
<glyph unicode="|" horiz-adv-x="243" d="M89 -123v941h66v-941h-66z" />
<glyph unicode="}" horiz-adv-x="394" d="M33 -86h19q165 0 142 170l-12 91q-19 145 106 172q-125 29 -106 174l12 91q23 170 -142 170h-19v57h19q130 0 188 -62.5t42 -177.5l-13 -93q-16 -123 97 -123v-71q-113 0 -96 -122l13 -93q16 -116 -42.5 -178t-188.5 -62h-19v57z" />
<glyph unicode="~" horiz-adv-x="615" d="M33 229q54 117 154 117q51 0 127.5 -37t116.5 -37q56 0 94 67l56 -22q-55 -118 -155 -118q-50 0 -126.5 37t-116.5 37q-27 0 -49 -13.5t-45 -53.5z" />
<glyph unicode="&#xa1;" horiz-adv-x="265" d="M83 0l23 491h52l25 -491h-100zM85 584v116h96v-116h-96z" />
<glyph unicode="&#xa2;" horiz-adv-x="559" d="M61 351q0 125 61.5 195.5t151.5 76.5v77h65v-81q62 -13 164 -71l-39 -61q-4 2 -22 12.5t-31 17.5t-33.5 15.5t-38.5 13.5v-392q41 11 125 60l39 -61q-105 -60 -164 -71v-82h-65v77q-90 6 -151.5 77.5t-61.5 196.5zM147 351q0 -83 35 -137t92 -63v399q-57 -9 -92 -62.5 t-35 -136.5z" />
<glyph unicode="&#xa3;" horiz-adv-x="557" d="M62 0v61q5 3 12.5 9.5t27.5 27t36 42t29.5 54.5t15.5 65h-110v58h103q-8 30 -32 67.5t-41.5 75.5t-17.5 81q0 77 53 123.5t143 46.5q93 0 223 -70l-41 -60q-107 56 -172 56q-57 0 -89 -31t-32 -76q0 -42 41 -108t50 -105h164v-58h-160q-5 -58 -35.5 -108.5t-58.5 -76.5 h321v-74h-430z" />
<glyph unicode="&#xa5;" horiz-adv-x="669" d="M35 700h98l202 -355l201 355h98l-211 -346h148v-57h-182l-12 -20v-52h194v-57h-194v-168h-86v168h-194v57h194v54l-11 18h-183v57h148z" />
<glyph unicode="&#xa6;" horiz-adv-x="245" d="M90 -123v413h66v-413h-66zM90 405v413h66v-413h-66z" />
<glyph unicode="&#xa7;" horiz-adv-x="550" d="M58 327q0 86 98 119q-78 42 -78 120q0 68 51 106.5t134 38.5q97 0 207 -53l-36 -58q-92 44 -168 44q-47 0 -77 -19.5t-30 -53.5q0 -21 11.5 -37t36 -27t40 -16t45.5 -12l12 -3q189 -48 189 -164q0 -87 -99 -120q78 -43 78 -120q0 -67 -51 -105.5t-134 -38.5 q-101 0 -207 53l36 58q96 -45 170 -45q46 0 75 20t29 54q0 12 -4.5 22t-9.5 17.5t-17 15t-19 11.5t-23.5 9.5t-23 7.5t-24 6.5t-21.5 5.5q-93 25 -141.5 63t-48.5 101zM138 334q0 -18 10 -33t22 -24.5t36 -19t37.5 -14t41.5 -11.5q7 -2 11 -3l14 -4q46 5 74.5 25.5 t28.5 53.5q0 22 -12.5 39.5t-38 29.5t-45.5 18.5t-52 15.5q-7 2 -11 3l-14 3q-46 -5 -74 -25.5t-28 -53.5z" />
<glyph unicode="&#xa8;" horiz-adv-x="231" d="M-10 609v93h83v-93h-83zM159 609v93h82v-93h-82z" />
<glyph unicode="&#xa9;" horiz-adv-x="836" d="M62 350q0 157 95 259t262 102t261.5 -102t94.5 -259t-94.5 -259t-261.5 -102t-262 102t-95 259zM102 350q0 -141 84 -232t232 -91q149 0 233.5 91t84.5 232t-84.5 232t-233.5 91q-148 0 -232 -91t-84 -232zM238 349q0 104 50 161t124 57q79 0 167 -62l-31 -36 q-69 54 -134 54q-56 0 -90 -47.5t-34 -126.5q0 -78 34 -125t90 -47q64 0 134 52l31 -35q-88 -62 -167 -62q-74 0 -124 57t-50 160z" />
<glyph unicode="&#xaa;" horiz-adv-x="424" d="M55 480q0 50 33 76.5t84 26.5q28 0 116 -17v31q0 32 -15 46.5t-51 14.5t-123 -26l-21 45q92 30 153 30q120 0 120 -109v-213h-63v41q-52 -48 -122 -48q-46 0 -78.5 26.5t-32.5 75.5zM120 484q0 -55 64 -55q56 0 104 42v60q-71 13 -93 13q-75 0 -75 -60z" />
<glyph unicode="&#xab;" horiz-adv-x="686" d="M38 252v54l305 222v-83l-231 -166l231 -165v-83zM318 252v54l305 222v-83l-231 -166l231 -165v-83z" />
<glyph unicode="&#xac;" horiz-adv-x="615" d="M17 300v66h577v-276h-74v210h-503z" />
<glyph unicode="&#xad;" horiz-adv-x="435" d="M76 249v72h284v-72h-284z" />
<glyph unicode="&#xae;" horiz-adv-x="514" d="M59 500q0 87 53 143.5t145 56.5t144.5 -56.5t52.5 -143.5t-52.5 -143.5t-144.5 -56.5t-145 56.5t-53 143.5zM95 500q0 -74 41.5 -120.5t120.5 -46.5t120 46.5t41 120.5t-41 120.5t-120 46.5t-120.5 -46.5t-41.5 -120.5zM183 402v201h93q31 0 49.5 -16t18.5 -42 q0 -20 -14 -35.5t-36 -20.5l47 -87h-37l-44 85h-44v-85h-33zM216 518h59q35 0 35 27q0 28 -33 28h-61v-55z" />
<glyph unicode="&#xaf;" horiz-adv-x="292" d="M0 624v55h292v-55h-292z" />
<glyph unicode="&#xb0;" horiz-adv-x="437" d="M52 534q0 68 49 117t118 49q68 0 117 -49t49 -117q0 -69 -49 -118t-117 -49q-69 0 -118 49t-49 118zM107 534q0 -46 32.5 -79t79.5 -33q46 0 79 33t33 79t-33 79t-79 33t-79 -33t-33 -79z" />
<glyph unicode="&#xb1;" horiz-adv-x="615" d="M56 0v60h502v-60h-502zM56 302v66h215v162h68v-162h219v-66h-219v-162h-68v162h-215z" />
<glyph unicode="&#xb2;" horiz-adv-x="392" d="M39 385v36q0 31 10.5 56.5t34.5 48t41.5 35t52.5 34.5t52 34t32.5 31t15.5 39q0 26 -21 42t-59 16q-59 0 -116 -39l-31 43q77 51 154 51q65 0 102.5 -30.5t37.5 -80.5q0 -27 -10 -49.5t-34 -43.5t-40 -31.5t-51 -31.5q-9 -5 -13 -8q-43 -26 -62.5 -46.5t-19.5 -50.5h231 v-55h-307z" />
<glyph unicode="&#xb3;" horiz-adv-x="394" d="M30 425l31 45q65 -37 127 -37q42 0 69 19.5t27 52.5q0 41 -41 60t-93 19h-21v56h24q45 0 78.5 16t33.5 49q0 24 -20 38t-54 14q-53 0 -113 -35l-27 41q62 49 149 49q63 0 97 -29t34 -71q0 -30 -20.5 -55.5t-60.5 -39.5q45 -12 73 -42t28 -70q0 -52 -39.5 -89.5 t-115.5 -37.5q-82 0 -166 47z" />
<glyph unicode="&#xb4;" horiz-adv-x="214" d="M-11 599l122 130h114l-167 -130h-69z" />
<glyph unicode="&#xb5;" horiz-adv-x="607" d="M88 -204v729h83v-359q0 -109 90 -109q48 0 103.5 28t89.5 58v382h82v-525h-82v73q-116 -84 -218 -84q-37 0 -65 11v-204h-83z" />
<glyph unicode="&#xb6;" horiz-adv-x="644" d="M39 484q0 107 64 161.5t186 54.5h73v-885h-75v454q-114 0 -181 55.5t-67 159.5zM472 -186v886h75v-886h-75z" />
<glyph unicode="&#xb7;" horiz-adv-x="248" d="M76 224v121h96v-121h-96z" />
<glyph unicode="&#xb8;" horiz-adv-x="173" d="M-4 -153l21 50q29 -14 51 -14q56 0 56 46q0 16 -8 34.5t-16 28.5l-7 10h43q40 -42 40 -91q0 -39 -28 -61t-73 -22q-41 0 -79 19z" />
<glyph unicode="&#xb9;" horiz-adv-x="258" d="M20 747l111 58h61v-420h-66v357l-78 -39z" />
<glyph unicode="&#xba;" horiz-adv-x="431" d="M55 542q0 78 41.5 121.5t118.5 43.5t118.5 -43.5t41.5 -121.5q0 -77 -41.5 -120.5t-118.5 -43.5t-118.5 43.5t-41.5 120.5zM119 542q0 -114 96 -114t96 114q0 115 -96 115t-96 -115z" />
<glyph unicode="&#xbb;" horiz-adv-x="686" d="M62 31v83l231 165l-231 166v83l306 -222v-54zM342 31v83l231 165l-231 166v83l306 -222v-54z" />
<glyph unicode="&#xbc;" horiz-adv-x="817" d="M32 642l111 58h61v-420h-66v357l-78 -39zM162 0l333 700h70l-333 -700h-70zM411 89v47l209 284h87v-277h68v-54h-68v-89h-67v89h-229zM480 143h160v222z" />
<glyph unicode="&#xbd;" horiz-adv-x="840" d="M32 642l111 58h61v-420h-66v357l-78 -39zM162 0l333 700h70l-333 -700h-70zM477 0v36q0 31 10.5 56.5t35 48t41.5 34.5t53 35t52 34t32 30.5t16 39.5q0 25 -21.5 41.5t-58.5 16.5q-60 0 -117 -39l-31 43q77 51 155 51q64 0 101.5 -30.5t37.5 -80.5q0 -27 -10 -49.5 t-34 -43.5t-40 -31.5t-51 -31.5q-4 -3 -7 -4.5t-6 -3.5q-42 -25 -61.5 -46t-19.5 -51h230v-55h-307z" />
<glyph unicode="&#xbe;" horiz-adv-x="929" d="M45 320l31 45q63 -37 127 -37q42 0 69 19.5t27 52.5q0 41 -41.5 60t-93.5 19h-21v56h24q45 0 79 16.5t34 48.5q0 24 -20 38t-55 14q-52 0 -112 -35l-28 41q11 9 28 18.5t51.5 20t69.5 10.5q63 0 97.5 -29t34.5 -71q0 -30 -20.5 -55.5t-60.5 -39.5q44 -12 72 -42t28 -70 q0 -53 -39 -90t-116 -37q-84 0 -165 47zM275 0l333 700h70l-333 -700h-70zM523 89v47l209 284h87v-277h67v-54h-67v-89h-66v89h-230zM593 143h160v222z" />
<glyph unicode="&#xbf;" horiz-adv-x="512" d="M46 159q0 147 219 203l6 129h60l7 -176q-103 -23 -154 -55.5t-51 -90.5q0 -50 36.5 -78t94.5 -28q77 0 173 58l40 -58q-106 -74 -224 -74q-86 0 -146.5 44.5t-60.5 125.5zM253 584v116h96v-116h-96z" />
<glyph unicode="&#xc0;" horiz-adv-x="686" d="M25 0l271 700h94l271 -700h-94l-62 171h-324l-62 -171h-94zM186 880h112l124 -130h-70zM206 242h273l-136 378z" />
<glyph unicode="&#xc1;" horiz-adv-x="686" d="M25 0l271 700h94l271 -700h-94l-62 171h-324l-62 -171h-94zM206 242h273l-136 378zM265 750l122 130h113l-165 -130h-70z" />
<glyph unicode="&#xc2;" horiz-adv-x="686" d="M25 0l271 700h94l271 -700h-94l-62 171h-324l-62 -171h-94zM196 750l98 130h97l100 -130h-63l-85 85l-84 -85h-63zM206 242h273l-136 378z" />
<glyph unicode="&#xc3;" horiz-adv-x="686" d="M25 0l271 700h94l271 -700h-94l-62 171h-324l-62 -171h-94zM185 780q15 29 25.5 44t28 27.5t39.5 12.5q28 0 70.5 -24.5t56.5 -24.5q24 0 50 46l45 -19q-21 -43 -41.5 -64t-51.5 -21q-27 0 -69.5 24.5t-56.5 24.5q-25 0 -50 -46zM206 242h273l-136 378z" />
<glyph unicode="&#xc4;" horiz-adv-x="686" d="M25 0l271 700h94l271 -700h-94l-62 171h-324l-62 -171h-94zM206 242h273l-136 378zM218 761v93h83v-93h-83zM386 761v93h83v-93h-83z" />
<glyph unicode="&#xc5;" horiz-adv-x="686" d="M25 0l271 700h94l271 -700h-94l-62 171h-324l-62 -171h-94zM206 242h273l-136 378zM241 843q0 44 30 74.5t73 30.5t73.5 -30.5t30.5 -74.5q0 -43 -30.5 -73t-73.5 -30t-73 30t-30 73zM288 843q0 -23 16 -39.5t40 -16.5t40.5 16.5t16.5 39.5q0 24 -16.5 40.5t-40.5 16.5 t-40 -16.5t-16 -40.5z" />
<glyph unicode="&#xc6;" horiz-adv-x="1007" d="M-9 0l481 700h472v-75h-357v-238h296v-74h-296v-238h364v-75h-450v171h-294l-114 -171h-102zM256 244h245v366z" />
<glyph unicode="&#xc7;" horiz-adv-x="647" d="M63 350q0 179 78 270t197 91q117 0 269 -103l-45 -62q-40 26 -66 40.5t-70 30.5t-81 16q-86 0 -139.5 -75.5t-53.5 -207.5t53.5 -207.5t139.5 -75.5q37 0 81 16t70 30.5t66 40.5l45 -62q-135 -91 -239 -101q32 -43 32 -80q0 -39 -28.5 -61t-73.5 -22q-42 0 -79 19l20 50 q31 -14 51 -14q56 0 56 46q0 27 -21 60q-114 5 -188 95.5t-74 265.5z" />
<glyph unicode="&#xc8;" d="M96 0v700h444v-75h-357v-238h295v-74h-295v-238h363v-75h-450zM164 880h113l123 -130h-70z" />
<glyph unicode="&#xc9;" d="M96 0v700h444v-75h-357v-238h295v-74h-295v-238h363v-75h-450zM243 750l123 130h113l-167 -130h-69z" />
<glyph unicode="&#xca;" d="M96 0v700h444v-75h-357v-238h295v-74h-295v-238h363v-75h-450zM174 750l99 130h95l100 -130h-62l-85 85l-85 -85h-62z" />
<glyph unicode="&#xcb;" d="M96 0v700h444v-75h-357v-238h295v-74h-295v-238h363v-75h-450zM195 760v93h83v-93h-83zM364 760v93h82v-93h-82z" />
<glyph unicode="&#xcc;" horiz-adv-x="278" d="M-18 880h113l123 -130h-69zM97 0v700h86v-700h-86z" />
<glyph unicode="&#xcd;" horiz-adv-x="278" d="M61 750l122 130h114l-167 -130h-69zM95 0v700h87v-700h-87z" />
<glyph unicode="&#xce;" horiz-adv-x="278" d="M-8 750l99 130h96l100 -130h-63l-85 85l-84 -85h-63zM96 0v700h86v-700h-86z" />
<glyph unicode="&#xcf;" horiz-adv-x="278" d="M14 759v93h83v-93h-83zM96 0v700h86v-700h-86zM182 759v93h82v-93h-82z" />
<glyph unicode="&#xd0;" horiz-adv-x="712" d="M28 314v72h75v314h215q330 0 330 -350t-330 -350h-215v314h-75zM189 75h125q127 0 186.5 65.5t59.5 209.5q0 143 -59.5 209t-186.5 66h-125v-239h168v-72h-168v-239z" />
<glyph unicode="&#xd1;" horiz-adv-x="730" d="M96 0v700h89l363 -573v573h86v-700h-89l-362 572v-572h-87zM214 782q21 42 41 63t52 21q27 0 69.5 -24t56.5 -24q13 0 24 9t26 37l45 -20q-20 -41 -40.5 -62.5t-52.5 -21.5q-27 0 -69.5 24t-56.5 24q-13 0 -24 -9t-26 -37z" />
<glyph unicode="&#xd2;" horiz-adv-x="740" d="M62 350q0 77 17 140.5t52.5 114t96 78.5t141.5 28q108 0 179 -50t100 -128.5t29 -182.5q0 -77 -17 -140.5t-52.5 -114t-96.5 -78.5t-142 -28t-141.5 28t-96 78.5t-52.5 114t-17 140.5zM151 350q0 -130 51.5 -208t166.5 -78q116 0 167.5 77.5t51.5 208.5t-51.5 208.5 t-167.5 77.5q-115 0 -166.5 -78t-51.5 -208zM212 880h113l123 -130h-69z" />
<glyph unicode="&#xd3;" horiz-adv-x="740" d="M62 350q0 77 17 140.5t52.5 114t96 78.5t141.5 28q108 0 179 -50t100 -128.5t29 -182.5q0 -77 -17 -140.5t-52.5 -114t-96.5 -78.5t-142 -28t-141.5 28t-96 78.5t-52.5 114t-17 140.5zM151 350q0 -130 51.5 -208t166.5 -78q116 0 167.5 77.5t51.5 208.5t-51.5 208.5 t-167.5 77.5q-115 0 -166.5 -78t-51.5 -208zM291 750l122 130h114l-166 -130h-70z" />
<glyph unicode="&#xd4;" horiz-adv-x="740" d="M62 350q0 77 17 140.5t52.5 114t96 78.5t141.5 28q108 0 179 -50t100 -128.5t29 -182.5q0 -77 -17 -140.5t-52.5 -114t-96.5 -78.5t-142 -28t-141.5 28t-96 78.5t-52.5 114t-17 140.5zM151 350q0 -130 51.5 -208t166.5 -78q116 0 167.5 77.5t51.5 208.5t-51.5 208.5 t-167.5 77.5q-115 0 -166.5 -78t-51.5 -208zM222 750l100 130h95l100 -130h-63l-85 85l-84 -85h-63z" />
<glyph unicode="&#xd5;" horiz-adv-x="740" d="M62 350q0 77 17 140.5t52.5 114t96 78.5t141.5 28q108 0 179 -50t100 -128.5t29 -182.5q0 -77 -17 -140.5t-52.5 -114t-96.5 -78.5t-142 -28t-141.5 28t-96 78.5t-52.5 114t-17 140.5zM151 350q0 -130 51.5 -208t166.5 -78q116 0 167.5 77.5t51.5 208.5t-51.5 208.5 t-167.5 77.5q-115 0 -166.5 -78t-51.5 -208zM212 780q22 42 42 63t51 21q27 0 69.5 -24.5t56.5 -24.5q25 0 50 46l45 -19q-20 -42 -40.5 -63.5t-52.5 -21.5q-27 0 -69.5 24.5t-56.5 24.5q-25 0 -50 -46z" />
<glyph unicode="&#xd6;" horiz-adv-x="740" d="M62 350q0 77 17 140.5t52.5 114t96 78.5t141.5 28q108 0 179 -50t100 -128.5t29 -182.5q0 -77 -17 -140.5t-52.5 -114t-96.5 -78.5t-142 -28t-141.5 28t-96 78.5t-52.5 114t-17 140.5zM151 350q0 -130 51.5 -208t166.5 -78q116 0 167.5 77.5t51.5 208.5t-51.5 208.5 t-167.5 77.5q-115 0 -166.5 -78t-51.5 -208zM244 760v93h83v-93h-83zM413 760v93h82v-93h-82z" />
<glyph unicode="&#xd7;" horiz-adv-x="615" d="M105 472l48 48l154 -140l152 138l49 -48l-150 -136l151 -136l-48 -47l-154 138l-151 -137l-49 48l149 135z" />
<glyph unicode="&#xd8;" horiz-adv-x="738" d="M62 350q0 77 17 140.5t52 114t96 78.5t142 28q115 0 191 -58l35 47h71l-65 -87q76 -95 76 -263q0 -77 -17 -140.5t-52.5 -114t-96.5 -78.5t-142 -28q-117 0 -191 58l-35 -47h-70l65 87q-76 93 -76 263zM151 350q0 -122 40 -191l320 428q-54 49 -142 49q-79 0 -129 -39.5 t-69.5 -101t-19.5 -145.5zM227 113q54 -49 142 -49q116 0 167.5 78t51.5 208q0 119 -41 191z" />
<glyph unicode="&#xd9;" horiz-adv-x="704" d="M90 256v444h87v-447q0 -43 7.5 -74.5t26 -59t54 -41.5t88.5 -14q100 0 138 50t38 139v447h86v-444q0 -267 -262 -267q-263 0 -263 267zM196 880h113l123 -130h-69z" />
<glyph unicode="&#xda;" horiz-adv-x="704" d="M90 256v444h87v-447q0 -43 7.5 -74.5t26 -59t54 -41.5t88.5 -14q100 0 138 50t38 139v447h86v-444q0 -267 -262 -267q-263 0 -263 267zM275 750l122 130h114l-167 -130h-69z" />
<glyph unicode="&#xdb;" horiz-adv-x="704" d="M90 256v444h87v-447q0 -43 7.5 -74.5t26 -59t54 -41.5t88.5 -14q100 0 138 50t38 139v447h86v-444q0 -267 -262 -267q-263 0 -263 267zM206 750l99 130h96l100 -130h-63l-85 85l-85 -85h-62z" />
<glyph unicode="&#xdc;" horiz-adv-x="704" d="M90 256v444h87v-447q0 -43 7.5 -74.5t26 -59t54 -41.5t88.5 -14q100 0 138 50t38 139v447h86v-444q0 -267 -262 -267q-263 0 -263 267zM227 760v93h82v-93h-82zM396 760v93h82v-93h-82z" />
<glyph unicode="&#xdd;" horiz-adv-x="635" d="M18 700h98l202 -355l201 355h98l-257 -423v-277h-86v278zM240 750l122 130h113l-166 -130h-69z" />
<glyph unicode="&#xde;" horiz-adv-x="657" d="M96 0v700h87v-125h164q261 0 261 -213q0 -215 -261 -215h-164v-147h-87zM183 220h158q178 0 178 142q0 139 -178 139h-158v-281z" />
<glyph unicode="&#xdf;" horiz-adv-x="644" d="M81 0v486q0 225 248 225t248 -224v-4l-53 -45q-68 34 -127 34q-38 0 -63 -20.5t-25 -54.5q0 -10 2.5 -18.5t5 -15t9.5 -13t11 -10.5t14 -9.5t14.5 -7.5t17 -6.5t16.5 -5.5t17.5 -5t16.5 -5q81 -25 124 -63.5t43 -102.5q0 -71 -48 -108.5t-123 -37.5q-107 0 -211 64l34 58 q97 -58 168 -58q40 0 68.5 20.5t28.5 57.5q0 19 -9.5 34.5t-19 24.5t-33.5 19.5t-33.5 13.5t-38.5 12q-34 11 -55.5 20.5t-48 27.5t-39.5 45.5t-13 63.5q0 67 45.5 105.5t118.5 38.5q48 0 102 -17q-8 68 -48.5 96.5t-115.5 28.5q-84 0 -124.5 -36t-40.5 -124v-484h-83z" />
<glyph unicode="&#xe0;" horiz-adv-x="577" d="M46 157q0 84 52 127.5t130 43.5q27 0 62 -5t78.5 -13.5t48.5 -9.5v59q0 58 -24 84t-86 26q-61 0 -195 -44l-30 61q139 50 236 50q90 0 136 -41t46 -133v-362h-83v70q-88 -81 -195 -81q-72 0 -124 42t-52 126zM131 161q0 -103 111 -103q91 0 175 77v115q-118 23 -158 23 q-67 0 -97.5 -31t-30.5 -81zM135 729h112l123 -130h-70z" />
<glyph unicode="&#xe1;" horiz-adv-x="577" d="M46 157q0 84 52 127.5t130 43.5q27 0 62 -5t78.5 -13.5t48.5 -9.5v59q0 58 -24 84t-86 26q-61 0 -195 -44l-30 61q139 50 236 50q90 0 136 -41t46 -133v-362h-83v70q-88 -81 -195 -81q-72 0 -124 42t-52 126zM131 161q0 -103 111 -103q91 0 175 77v115q-118 23 -158 23 q-67 0 -97.5 -31t-30.5 -81zM213 599l123 130h113l-166 -130h-70z" />
<glyph unicode="&#xe2;" horiz-adv-x="576" d="M46 157q0 84 52 127.5t130 43.5q27 0 62 -5t78.5 -13.5t48.5 -9.5v59q0 58 -24 84t-86 26q-61 0 -195 -44l-30 61q139 50 236 50q90 0 136 -41t46 -133v-362h-83v70q-88 -81 -195 -81q-72 0 -124 42t-52 126zM131 161q0 -103 111 -103q91 0 175 77v115q-118 23 -158 23 q-67 0 -97.5 -31t-30.5 -81zM144 599l99 130h97l99 -130h-63l-85 85l-84 -85h-63z" />
<glyph unicode="&#xe3;" horiz-adv-x="577" d="M46 157q0 84 52 127.5t130 43.5q27 0 62 -5t78.5 -13.5t48.5 -9.5v59q0 58 -24 84t-86 26q-61 0 -195 -44l-30 61q139 50 236 50q90 0 136 -41t46 -133v-362h-83v70q-88 -81 -195 -81q-72 0 -124 42t-52 126zM131 161q0 -103 111 -103q91 0 175 77v115q-118 23 -158 23 q-67 0 -97.5 -31t-30.5 -81zM134 629q22 42 42 63t51 21q27 0 69.5 -24.5t56.5 -24.5q25 0 50 46l45 -19q-20 -42 -40.5 -63.5t-52.5 -21.5q-27 0 -69.5 24.5t-56.5 24.5q-25 0 -50 -46z" />
<glyph unicode="&#xe4;" horiz-adv-x="577" d="M46 157q0 84 52 127.5t130 43.5q27 0 62 -5t78.5 -13.5t48.5 -9.5v59q0 58 -24 84t-86 26q-61 0 -195 -44l-30 61q139 50 236 50q90 0 136 -41t46 -133v-362h-83v70q-88 -81 -195 -81q-72 0 -124 42t-52 126zM131 161q0 -103 111 -103q91 0 175 77v115q-118 23 -158 23 q-67 0 -97.5 -31t-30.5 -81zM166 609v93h83v-93h-83zM334 609v93h82v-93h-82z" />
<glyph unicode="&#xe5;" horiz-adv-x="577" d="M46 157q0 84 52 127.5t130 43.5q27 0 62 -5t78.5 -13.5t48.5 -9.5v59q0 58 -24 84t-86 26q-61 0 -195 -44l-30 61q139 50 236 50q90 0 136 -41t46 -133v-362h-83v70q-88 -81 -195 -81q-72 0 -124 42t-52 126zM131 161q0 -103 111 -103q91 0 175 77v115q-118 23 -158 23 q-67 0 -97.5 -31t-30.5 -81zM188 692q0 44 30 74.5t73 30.5t73.5 -30.5t30.5 -74.5q0 -43 -30.5 -73t-73.5 -30t-73 30t-30 73zM235 692q0 -23 16 -39.5t40 -16.5t40.5 16.5t16.5 39.5q0 24 -16.5 40.5t-40.5 16.5t-40 -16.5t-16 -40.5z" />
<glyph unicode="&#xe6;" horiz-adv-x="921" d="M46 157q0 84 52 127.5t130 43.5q48 0 172 -31q5 46 16 81q-3 47 -27.5 69t-81.5 22q-61 0 -195 -44l-30 61q139 50 236 50q113 0 155 -65q67 65 170 65q108 0 166 -62.5t58 -164.5q0 -17 -2 -34t-4 -25l-2 -9h-375q5 -86 46 -136t105 -50q75 0 197 71l37 -55 q-38 -23 -62 -35.5t-76.5 -29.5t-100.5 -17q-126 0 -189 103q-100 -103 -219 -103q-72 0 -124 42t-52 126zM131 161q0 -103 111 -103q90 0 176 81q-18 50 -19 106q-106 28 -140 28q-67 0 -97.5 -31t-30.5 -81zM485 295h298q4 177 -141 177q-68 0 -109 -47t-48 -130z" />
<glyph unicode="&#xe7;" horiz-adv-x="523" d="M53 263q0 130 66.5 201.5t161.5 71.5q83 0 203 -69l-38 -62q-1 1 -16 9.5t-23.5 13t-25.5 12.5t-30.5 12.5t-30.5 8t-32 3.5q-65 0 -107 -55t-42 -146t42 -146.5t107 -55.5q18 0 37.5 4.5t38.5 12.5t32 14t30 16t20 11l38 -61q-110 -62 -183 -68q30 -40 30 -79t-28 -61 t-73 -22q-42 0 -79 19l21 50q28 -14 51 -14q56 0 56 46q0 29 -22 61q-87 9 -145.5 80t-58.5 193z" />
<glyph unicode="&#xe8;" horiz-adv-x="575" d="M53 262q0 130 67.5 202t176.5 72q107 0 165 -62.5t58 -164.5q0 -17 -2 -34t-4 -25l-1 -9h-375q5 -86 46 -136t105 -50q76 0 196 71l38 -55q-40 -24 -63 -36t-76 -29t-100 -17q-100 0 -165.5 71t-65.5 202zM139 295h298q4 177 -141 177q-68 0 -109 -47t-48 -130zM140 729 h113l122 -130h-69z" />
<glyph unicode="&#xe9;" horiz-adv-x="575" d="M53 262q0 130 67.5 202t176.5 72q107 0 165 -62.5t58 -164.5q0 -17 -2 -34t-4 -25l-1 -9h-375q5 -86 46 -136t105 -50q76 0 196 71l38 -55q-40 -24 -63 -36t-76 -29t-100 -17q-100 0 -165.5 71t-65.5 202zM139 295h298q4 177 -141 177q-68 0 -109 -47t-48 -130zM219 599 l122 130h114l-166 -130h-70z" />
<glyph unicode="&#xea;" horiz-adv-x="575" d="M53 262q0 130 67.5 202t176.5 72q107 0 165 -62.5t58 -164.5q0 -17 -2 -34t-4 -25l-1 -9h-375q5 -86 46 -136t105 -50q76 0 196 71l38 -55q-40 -24 -63 -36t-76 -29t-100 -17q-100 0 -165.5 71t-65.5 202zM139 295h298q4 177 -141 177q-68 0 -109 -47t-48 -130zM150 599 l99 130h96l100 -130h-63l-85 85l-84 -85h-63z" />
<glyph unicode="&#xeb;" horiz-adv-x="575" d="M53 262q0 130 67.5 202t176.5 72q107 0 165 -62.5t58 -164.5q0 -17 -2 -34t-4 -25l-1 -9h-375q5 -86 46 -136t105 -50q76 0 196 71l38 -55q-40 -24 -63 -36t-76 -29t-100 -17q-100 0 -165.5 71t-65.5 202zM139 295h298q4 177 -141 177q-68 0 -109 -47t-48 -130zM172 609 v93h83v-93h-83zM340 609v93h82v-93h-82z" />
<glyph unicode="&#xec;" horiz-adv-x="245" d="M-35 729h112l124 -130h-70zM81 0v525h83v-525h-83z" />
<glyph unicode="&#xed;" horiz-adv-x="245" d="M45 599l122 130h114l-167 -130h-69zM81 0v525h83v-525h-83z" />
<glyph unicode="&#xee;" horiz-adv-x="245" d="M-25 599l100 130h95l100 -130h-63l-85 85l-84 -85h-63zM81 0v525h83v-525h-83z" />
<glyph unicode="&#xef;" horiz-adv-x="245" d="M-3 609v93h83v-93h-83zM81 0v525h83v-525h-83zM166 609v93h82v-93h-82z" />
<glyph unicode="&#xf0;" horiz-adv-x="610" d="M54 232q0 110 64 177t167 67q36 0 68 -8t51.5 -20t33.5 -23.5t20 -19.5l6 -8q-17 67 -58 125.5t-104 87.5l-65 -53h-84l87 72q-20 3 -42 3q-19 0 -38 -2t-28 -4l-10 -3l-14 65q37 12 92 12q54 0 107 -16l56 45h86l-86 -70q90 -49 141 -148.5t51 -228.5q0 -154 -69 -223.5 t-181 -69.5q-116 0 -183.5 66t-67.5 177zM141 232q0 -80 42.5 -128t122.5 -48q78 0 121 47t43 130q0 82 -42 129t-122 47t-122.5 -48.5t-42.5 -128.5z" />
<glyph unicode="&#xf1;" horiz-adv-x="607" d="M81 0v525h83v-74q41 31 99 58t117 27q150 0 150 -162v-374h-83v359q0 109 -91 109q-49 0 -103.5 -28t-88.5 -58v-382h-83zM147 621q22 43 42 63.5t51 20.5q28 0 70.5 -24t56.5 -24q13 0 23.5 9t26.5 37l45 -20q-22 -42 -42 -63t-51 -21q-28 0 -70.5 24t-56.5 24 q-13 0 -23.5 -9t-26.5 -37z" />
<glyph unicode="&#xf2;" d="M53 262q0 129 64.5 201.5t183.5 72.5t183 -72.5t64 -201.5t-64 -201t-183 -72q-120 0 -184 72t-64 201zM138 262q0 -206 163 -206q162 0 162 206q0 98 -39.5 152.5t-122.5 54.5t-123 -54.5t-40 -152.5zM143 729h113l123 -130h-69z" />
<glyph unicode="&#xf3;" d="M53 262q0 129 64.5 201.5t183.5 72.5t183 -72.5t64 -201.5t-64 -201t-183 -72q-120 0 -184 72t-64 201zM138 262q0 -206 163 -206q162 0 162 206q0 98 -39.5 152.5t-122.5 54.5t-123 -54.5t-40 -152.5zM222 599l123 130h113l-166 -130h-70z" />
<glyph unicode="&#xf4;" d="M53 262q0 129 64.5 201.5t183.5 72.5t183 -72.5t64 -201.5t-64 -201t-183 -72q-120 0 -184 72t-64 201zM138 262q0 -206 163 -206q162 0 162 206q0 98 -39.5 152.5t-122.5 54.5t-123 -54.5t-40 -152.5zM154 599l99 130h95l100 -130h-62l-85 85l-85 -85h-62z" />
<glyph unicode="&#xf5;" d="M53 262q0 129 64.5 201.5t183.5 72.5t183 -72.5t64 -201.5t-64 -201t-183 -72q-120 0 -184 72t-64 201zM138 262q0 -206 163 -206q162 0 162 206q0 98 -39.5 152.5t-122.5 54.5t-123 -54.5t-40 -152.5zM145 624q19 43 37.5 64t50.5 21q23 0 52.5 -12.5t49 -22.5t41 -4 t36.5 37l45 -15q-11 -22 -17 -33t-17.5 -26t-24.5 -21t-30 -6q-25 0 -69 20.5t-60 20.5t-27 -7t-24 -31z" />
<glyph unicode="&#xf6;" d="M53 262q0 129 64.5 201.5t183.5 72.5t183 -72.5t64 -201.5t-64 -201t-183 -72q-120 0 -184 72t-64 201zM138 262q0 -206 163 -206q162 0 162 206q0 98 -39.5 152.5t-122.5 54.5t-123 -54.5t-40 -152.5zM175 609v93h83v-93h-83zM344 609v93h82v-93h-82z" />
<glyph unicode="&#xf7;" horiz-adv-x="615" d="M56 300v66h502v-66h-502zM249 163q0 23 17.5 39t41.5 16t41 -16t17 -39q0 -22 -17.5 -38t-40.5 -16q-24 0 -41.5 16t-17.5 38zM249 504q0 22 17.5 38t41.5 16q23 0 40.5 -16t17.5 -38t-17.5 -38.5t-40.5 -16.5q-24 0 -41.5 16.5t-17.5 38.5z" />
<glyph unicode="&#xf8;" horiz-adv-x="598" d="M52 262q0 129 64 201.5t183 72.5q89 0 148 -42l25 31h62l-50 -64q62 -73 62 -199q0 -129 -64 -201t-183 -72q-91 0 -149 41l-24 -30h-63l50 64q-61 72 -61 198zM137 262q0 -84 27 -132l238 305q-40 34 -103 34q-83 0 -122.5 -54.5t-39.5 -152.5zM196 89q39 -33 103 -33 q83 0 123 54.5t40 151.5q0 82 -28 134z" />
<glyph unicode="&#xf9;" horiz-adv-x="607" d="M77 150v375h83v-359q0 -109 91 -109q48 0 103 27.5t89 58.5v382h83v-525h-83v73q-113 -84 -217 -84q-149 0 -149 161zM144 729h112l124 -130h-70z" />
<glyph unicode="&#xfa;" horiz-adv-x="607" d="M77 150v375h83v-359q0 -109 91 -109q48 0 103 27.5t89 58.5v382h83v-525h-83v73q-113 -84 -217 -84q-149 0 -149 161zM223 599l122 130h113l-165 -130h-70z" />
<glyph unicode="&#xfb;" horiz-adv-x="607" d="M77 150v375h83v-359q0 -109 91 -109q48 0 103 27.5t89 58.5v382h83v-525h-83v73q-113 -84 -217 -84q-149 0 -149 161zM154 599l98 130h97l100 -130h-63l-85 85l-84 -85h-63z" />
<glyph unicode="&#xfc;" horiz-adv-x="607" d="M77 150v375h83v-359q0 -109 91 -109q48 0 103 27.5t89 58.5v382h83v-525h-83v73q-113 -84 -217 -84q-149 0 -149 161zM176 609v93h83v-93h-83zM344 609v93h83v-93h-83z" />
<glyph unicode="&#xfd;" horiz-adv-x="557" d="M27 525h90l161 -427l161 427h91l-294 -729h-91l92 207zM200 599l123 130h113l-166 -130h-70z" />
<glyph unicode="&#xfe;" horiz-adv-x="603" d="M81 -204v933h83v-272q88 79 185 79q89 0 144.5 -68t55.5 -206t-55.5 -205.5t-144.5 -67.5q-100 0 -185 79v-272h-83zM164 142q75 -84 169 -84q64 0 98 53.5t34 150.5t-34 151t-98 54q-95 0 -169 -85v-240z" />
<glyph unicode="&#xff;" horiz-adv-x="557" d="M27 525h90l161 -427l161 427h91l-294 -729h-91l92 207zM153 609v93h83v-93h-83zM322 609v93h82v-93h-82z" />
<glyph unicode="&#x152;" horiz-adv-x="1095" d="M62 350q0 77 17 140.5t52.5 114t96 78.5t141.5 28q143 0 222 -87v76h443v-75h-357v-238h295v-74h-295v-238h363v-75h-449v76q-79 -87 -222 -87q-81 0 -141.5 28t-96 78.5t-52.5 114t-17 140.5zM151 350q0 -130 51.5 -208t166.5 -78q116 0 167.5 77.5t51.5 208.5 t-51.5 208.5t-167.5 77.5q-115 0 -166.5 -78t-51.5 -208z" />
<glyph unicode="&#x153;" horiz-adv-x="985" d="M53 262q0 129 64.5 201.5t183.5 72.5q141 0 206 -104q64 104 201 104q107 0 165 -62.5t58 -164.5q0 -17 -1.5 -34t-3.5 -25l-1 -9h-375q5 -86 45 -136t104 -50q77 0 197 71l38 -55q-40 -24 -63 -36t-76 -29t-100 -17q-126 0 -189 102q-62 -102 -205 -102q-120 0 -184 72 t-64 201zM138 262q0 -206 163 -206q162 0 162 206q0 98 -39.5 152.5t-122.5 54.5t-123 -54.5t-40 -152.5zM551 295h297q1 90 -36 133.5t-105 43.5t-109 -47t-47 -130z" />
<glyph unicode="&#x178;" horiz-adv-x="635" d="M18 700h98l202 -355l201 355h98l-257 -423v-277h-86v278zM192 760v93h83v-93h-83zM361 760v93h82v-93h-82z" />
<glyph unicode="&#x2c6;" horiz-adv-x="270" d="M-12 599l99 130h95l100 -130h-62l-85 85l-85 -85h-62z" />
<glyph unicode="&#x2dc;" horiz-adv-x="288" d="M-13 629q22 42 42 63t51 21q27 0 69.5 -24.5t56.5 -24.5q25 0 50 46l45 -19q-20 -42 -40.5 -63.5t-52.5 -21.5q-27 0 -69.5 24.5t-56.5 24.5q-25 0 -50 -46z" />
<glyph unicode="&#x2000;" horiz-adv-x="474" />
<glyph unicode="&#x2001;" horiz-adv-x="948" />
<glyph unicode="&#x2002;" horiz-adv-x="474" />
<glyph unicode="&#x2003;" horiz-adv-x="948" />
<glyph unicode="&#x2004;" horiz-adv-x="316" />
<glyph unicode="&#x2005;" horiz-adv-x="237" />
<glyph unicode="&#x2006;" horiz-adv-x="158" />
<glyph unicode="&#x2007;" horiz-adv-x="158" />
<glyph unicode="&#x2008;" horiz-adv-x="118" />
<glyph unicode="&#x2009;" horiz-adv-x="189" />
<glyph unicode="&#x200a;" horiz-adv-x="52" />
<glyph unicode="&#x2010;" horiz-adv-x="435" d="M76 249v72h284v-72h-284z" />
<glyph unicode="&#x2011;" horiz-adv-x="435" d="M76 249v72h284v-72h-284z" />
<glyph unicode="&#x2012;" horiz-adv-x="435" d="M76 249v72h284v-72h-284z" />
<glyph unicode="&#x2013;" horiz-adv-x="567" d="M76 249v71h415v-71h-415z" />
<glyph unicode="&#x2014;" horiz-adv-x="671" d="M76 249v71h519v-71h-519z" />
<glyph unicode="&#x2018;" horiz-adv-x="238" d="M61 592l82 128l29 -32l-50 -103h44v-120h-94z" />
<glyph unicode="&#x2019;" horiz-adv-x="229" d="M65 476l50 103h-44v121h94l11 -128l-83 -127z" />
<glyph unicode="&#x201a;" horiz-adv-x="246" d="M68 -103l50 103h-44v120h94l11 -127l-83 -128z" />
<glyph unicode="&#x201c;" horiz-adv-x="423" d="M61 592l82 128l29 -32l-50 -103h44v-120h-94zM244 592l84 128l28 -32l-50 -103h44v-120h-95z" />
<glyph unicode="&#x201d;" horiz-adv-x="414" d="M65 476l50 103h-44v121h94l11 -128l-83 -127zM248 476l50 103h-44v121h95l11 -128l-83 -127z" />
<glyph unicode="&#x201e;" horiz-adv-x="430" d="M68 -103l50 103h-44v120h94l11 -127l-83 -128zM251 -103l50 103h-44v120h95l11 -127l-83 -128z" />
<glyph unicode="&#x2022;" horiz-adv-x="435" d="M89 284q0 54 37.5 92t91.5 38q53 0 91 -38t38 -92t-37.5 -91t-91.5 -37t-91.5 37t-37.5 91z" />
<glyph unicode="&#x2026;" horiz-adv-x="653" d="M74 0v120h96v-120h-96zM278 0v120h96v-120h-96zM482 0v120h97v-120h-97z" />
<glyph unicode="&#x202f;" horiz-adv-x="189" />
<glyph unicode="&#x2039;" horiz-adv-x="405" d="M38 252v54l305 222v-83l-231 -166l231 -165v-83z" />
<glyph unicode="&#x203a;" horiz-adv-x="405" d="M62 31v83l231 165l-231 166v83l306 -222v-54z" />
<glyph unicode="&#x205f;" horiz-adv-x="237" />
<glyph unicode="&#x20ac;" horiz-adv-x="714" d="M52 239v53h62q-2 36 -2 58q0 35 2 52h-62v53h68q22 127 94.5 191.5t172.5 64.5q117 0 269 -103l-45 -62q-136 87 -217 87q-67 0 -115.5 -46.5t-67.5 -131.5h284v-53h-292q-2 -34 -2 -52q0 -31 3 -58h291v-53h-282q19 -82 67 -127t114 -45q81 0 217 87l45 -62 q-152 -103 -269 -103q-99 0 -171 62.5t-95 187.5h-69z" />
<glyph unicode="&#x2122;" horiz-adv-x="655" d="M68 662v38h208v-38h-82v-186h-46v186h-80zM313 476v224h50l80 -142l81 142h49v-224h-47v156l-68 -119h-29l-69 121v-158h-47z" />
<glyph unicode="&#xe000;" horiz-adv-x="525" d="M0 0v525h525v-525h-525z" />
</font>
</defs>
</svg>
