<?xml version="1.0" standalone="no"?>
<!DOCTYPE svg PUBLIC "-//W3C//DTD SVG 1.1//EN" "http://www.w3.org/Graphics/SVG/1.1/DTD/svg11.dtd" >
<svg xmlns="http://www.w3.org/2000/svg">
<metadata></metadata>
<defs>
<font id="verb_blackitalic" horiz-adv-x="630" >
<font-face units-per-em="1000" ascent="800" descent="-200" />
<missing-glyph horiz-adv-x="264" />
<glyph unicode="&#xfb01;" horiz-adv-x="683" d="M-106 -95q89 28 110 50.5t34 95.5l63 340h-70l23 134h71q17 105 59.5 154.5t128.5 49.5q74 0 165 -48l-61 -115q-39 13 -61 13q-36 0 -45 -46l-2 -8h122l-23 -134h-123l-58 -325q-22 -120 -42 -160q-32 -67 -120 -102q-50 -21 -132 -38zM397 0l93 525h184l-93 -525h-184z M497 582l25 144h191l-24 -144h-192z" />
<glyph unicode="&#xfb02;" horiz-adv-x="684" d="M-106 -95q89 28 110 50.5t34 95.5l63 340h-70l23 134h71q17 105 59.5 154.5t128.5 49.5q74 0 165 -48l-61 -115q-39 13 -61 13q-36 0 -45 -46l-2 -8h122l-23 -134h-123l-58 -325q-22 -120 -42 -160q-32 -67 -120 -102q-50 -21 -132 -38zM398 0l129 729h184l-129 -729 h-184z" />
<glyph unicode="&#xfb03;" horiz-adv-x="1076" d="M-106 -95q89 28 110 50.5t34 95.5l63 340h-70l23 134h71q17 105 59.5 154.5t129.5 49.5q99 0 204 -59l-66 -110q-62 19 -96 19q-36 0 -45 -46l-2 -8h105l-24 -134h-105l-58 -325q-22 -120 -42 -160q-32 -67 -120 -102q-50 -21 -132 -38zM287 -95q32 10 52 17t36 17 t23.5 17.5t15 24t10.5 29.5t8 41l62 340h-69l22 134h71q17 105 60 154.5t129 49.5q74 0 165 -48l-61 -115q-41 13 -62 13q-36 0 -44 -46l-2 -8h122l-24 -134h-122l-59 -325q-22 -120 -42 -160q-32 -67 -120 -102q-50 -21 -132 -38zM790 0l93 525h185l-93 -525h-185zM890 582 l25 144h191l-24 -144h-192z" />
<glyph unicode="&#xfb04;" horiz-adv-x="1078" d="M-106 -95q89 28 110 50.5t34 95.5l63 340h-70l23 134h71q17 105 59.5 154.5t129.5 49.5q99 0 204 -59l-66 -110q-62 19 -96 19q-36 0 -45 -46l-2 -8h105l-24 -134h-105l-58 -325q-22 -120 -42 -160q-32 -67 -120 -102q-50 -21 -132 -38zM287 -95q32 10 52 17t36 17 t23.5 17.5t15 24t10.5 29.5t8 41l62 340h-69l22 134h71q17 105 60 154.5t129 49.5q74 0 165 -48l-61 -115q-41 13 -62 13q-36 0 -44 -46l-2 -8h122l-24 -134h-122l-59 -325q-22 -120 -42 -160q-32 -67 -120 -102q-50 -21 -132 -38zM791 0l129 729h184l-129 -729h-184z" />
<glyph horiz-adv-x="1000" />
<glyph horiz-adv-x="1000" />
<glyph unicode="&#xd;" horiz-adv-x="1000" />
<glyph unicode=" "  horiz-adv-x="264" />
<glyph unicode="&#x09;" horiz-adv-x="264" />
<glyph unicode="&#xa0;" horiz-adv-x="264" />
<glyph unicode="!" horiz-adv-x="292" d="M2 0l29 177h185l-29 -177h-185zM80 237l25 463h225l-139 -463h-111z" />
<glyph unicode="&#x22;" horiz-adv-x="453" d="M77 418l20 282h173l-79 -282h-114zM300 418l20 282h173l-80 -282h-113z" />
<glyph unicode="#" horiz-adv-x="728" d="M5 144l22 137h123l45 138h-101l23 138h123l47 143h143l-47 -143h114l47 143h142l-47 -143h101l-23 -138h-123l-45 -138h102l-23 -137h-124l-47 -144h-142l47 144h-114l-47 -144h-142l47 144h-101zM293 281h114l45 138h-114z" />
<glyph unicode="$" horiz-adv-x="675" d="M-6 103l100 129q145 -85 240 -85q37 0 61.5 13.5t24.5 35.5q0 23 -26.5 36.5t-82.5 29t-89 30.5q-144 64 -144 194q0 94 71 158.5t200 66.5l16 90h131l-19 -105q96 -23 204 -83l-100 -128q-44 26 -106 47t-106 21q-36 0 -60 -12.5t-24 -36.5q0 -22 23 -34t78.5 -27.5 t93.5 -32.5q147 -64 147 -192q0 -96 -73 -161t-202 -68l-15 -89h-131l18 102q-128 29 -230 101z" />
<glyph unicode="%" horiz-adv-x="1016" d="M63 494q0 90 58 153.5t161 63.5q87 0 139.5 -43.5t52.5 -114.5q0 -90 -58 -153.5t-161 -63.5q-87 0 -139.5 43.5t-52.5 114.5zM199 508q0 -66 61 -66q37 0 57.5 32t20.5 65q0 66 -62 66q-37 0 -57 -32t-20 -65zM206 0l479 700h142l-481 -700h-140zM560 147 q0 90 57.5 153.5t160.5 63.5q87 0 139.5 -43.5t52.5 -114.5q0 -90 -57.5 -153.5t-160.5 -63.5q-87 0 -139.5 43.5t-52.5 114.5zM695 161q0 -66 62 -66q37 0 57.5 32t20.5 65q0 66 -62 66q-37 0 -57.5 -32.5t-20.5 -64.5z" />
<glyph unicode="&#x26;" horiz-adv-x="734" d="M20 171q0 68 46 117t127 93q-61 75 -61 143q0 80 65.5 133.5t169.5 53.5q98 0 155 -46.5t57 -113.5q0 -59 -45 -106.5t-124 -95.5l71 -84q37 52 57 104h185q-35 -119 -136 -227l122 -142h-193l-42 49q-103 -60 -216 -60q-108 0 -173 50.5t-65 131.5zM201 176 q0 -23 18 -37.5t51 -14.5q50 0 108 39l-94 110q-83 -54 -83 -97zM297 517q0 -28 29 -69q84 46 84 90q0 17 -11.5 31t-35.5 14q-30 0 -48 -20.5t-18 -45.5z" />
<glyph unicode="'" horiz-adv-x="230" d="M77 418l20 282h173l-79 -282h-114z" />
<glyph unicode="(" horiz-adv-x="342" d="M15 125l80 445q9 51 15 76.5t19.5 57t30.5 47t48 34t73 30.5t104 24l31 -106q-71 -24 -91 -44t-29 -69l-98 -544q-12 -48 -0.5 -74.5t62.5 -48.5l-47 -96q-108 24 -156 58.5t-52.5 85t10.5 124.5z" />
<glyph unicode=")" horiz-adv-x="343" d="M-58 -38q71 24 91.5 44.5t29.5 69.5l99 544q9 53 -1.5 77t-60.5 46l46 96q108 -24 156 -58.5t52 -85.5t-10 -125l-80 -445q-9 -50 -15 -76t-19 -57t-30.5 -46.5t-48.5 -34t-73 -30.5t-104 -24z" />
<glyph unicode="*" horiz-adv-x="479" d="M65 501l165 3l-153 61l97 116l85 -142l-25 164l148 -27l-79 -145l127 104l52 -141l-156 -5l144 -59l-97 -117l-83 134l23 -156l-148 26l79 145l-128 -103z" />
<glyph unicode="+" horiz-adv-x="652" d="M61 265l23 137h190l31 174h139l-31 -174h190l-23 -137h-191l-30 -174h-139l30 174h-189z" />
<glyph unicode="," horiz-adv-x="277" d="M-28 -116l103 116h-82l33 194h184l-26 -219l-175 -152z" />
<glyph unicode="-" horiz-adv-x="430" d="M31 211l25 147h337l-25 -147h-337z" />
<glyph unicode="." horiz-adv-x="274" d="M-6 0l33 194h184l-32 -194h-185z" />
<glyph unicode="/" horiz-adv-x="502" d="M-47 -90l473 880h142l-472 -880h-143z" />
<glyph unicode="0" horiz-adv-x="703" d="M40 294q0 35 6 74.5t19 88.5t39 92.5t62 80.5t92 59t124 22q66 0 118 -17.5t85 -46.5t54.5 -69.5t30.5 -82.5t9 -90q0 -43 -7.5 -91.5t-31 -108.5t-59 -106.5t-99 -78.5t-144.5 -32q-82 0 -142 26t-93 71t-48 97t-15 112zM231 277q0 -30 4.5 -52.5t15 -44t32.5 -33 t55 -11.5q41 0 72.5 35t47 86t22.5 93.5t7 71.5q-1 64 -23 102.5t-84 38.5q-41 0 -73 -35t-47 -86t-22 -94t-7 -71z" />
<glyph unicode="1" horiz-adv-x="437" d="M40 585l223 115h182l-123 -700h-192l93 512l-125 -59z" />
<glyph unicode="2" horiz-adv-x="628" d="M-27 0l13 78q8 46 28 86.5t42.5 68t60.5 56.5t64 45t71 41q20 11 48 26t42.5 23t33 19t27 18t17.5 15.5t12.5 17t3.5 17.5q-1 19 -20 30.5t-54 11.5q-76 0 -194 -66l-69 132q147 92 291 92q116 0 177.5 -55t61.5 -136q0 -41 -18 -79t-41 -63t-66 -53.5t-69 -42.5t-75 -38 q-70 -34 -93.5 -50.5t-28.5 -35.5h324l-25 -158h-564z" />
<glyph unicode="3" horiz-adv-x="631" d="M-28 103l94 117q120 -71 211 -71q52 0 81 19t29 49q0 23 -13.5 38t-40 21.5t-51.5 8.5t-62 2h-30l26 159h35q161 0 161 66q0 41 -63 41q-75 0 -191 -59l-60 129q134 88 290 88q111 0 166.5 -45.5t55.5 -117.5q0 -108 -137 -171q49 -18 78.5 -61.5t29.5 -102.5 q0 -38 -14.5 -75t-45 -71.5t-88 -56t-134.5 -21.5q-174 0 -327 114z" />
<glyph unicode="4" horiz-adv-x="699" d="M-16 122l22 131l383 447h255l-74 -420h104l-26 -158h-106l-21 -122h-192l21 122h-366zM215 280h163l43 246z" />
<glyph unicode="5" horiz-adv-x="623" d="M-21 103l106 119q90 -70 175 -70q53 0 89.5 23.5t36.5 64.5q0 33 -23.5 53t-70.5 20q-52 0 -126 -39l-105 70l99 356h474l-26 -158h-310l-19 -82q39 7 70 7q113 0 173.5 -62.5t60.5 -155.5q0 -106 -80.5 -183t-221.5 -77q-164 0 -302 114z" />
<glyph unicode="6" horiz-adv-x="655" d="M32 266q0 189 136.5 317t348.5 128q41 0 75.5 -5.5t49.5 -10.5l14 -5l-68 -139q-28 5 -64 5q-84 0 -154.5 -33.5t-108.5 -105.5q56 37 138 37q100 0 161 -57.5t61 -151.5q0 -107 -78.5 -181.5t-213.5 -74.5q-140 0 -218.5 79.5t-78.5 197.5zM225 251q0 -47 26 -77t73 -30 q51 0 78 28.5t27 63.5t-23 56t-71 21q-63 0 -110 -49v-13z" />
<glyph unicode="7" horiz-adv-x="544" d="M31 0q15 84 62.5 180t108.5 176t95 120.5t58 65.5h-294l25 158h515l-24 -148q-12 -12 -32.5 -33.5t-74 -87t-96.5 -128.5t-85 -147.5t-55 -155.5h-203z" />
<glyph unicode="8" horiz-adv-x="665" d="M5 181q0 132 186 209q-78 58 -78 137q0 81 71.5 132.5t200.5 51.5q121 0 188 -46t67 -121q0 -99 -134 -169q117 -63 117 -172q0 -96 -86.5 -155t-239.5 -59q-140 0 -216 51t-76 141zM201 202q0 -31 26 -50.5t73 -19.5q55 0 91.5 24.5t36.5 59.5q0 51 -88 94 q-65 -22 -102 -46.5t-37 -61.5zM297 506q0 -35 55 -63q48 15 73 31.5t25 43.5q0 21 -17 38t-50 17q-37 0 -61.5 -20.5t-24.5 -46.5z" />
<glyph unicode="9" horiz-adv-x="656" d="M17 10l68 139q28 -5 65 -5q85 0 155 33t108 106q-56 -37 -139 -37q-100 0 -161 57.5t-61 151.5q0 107 78.5 181.5t214.5 74.5q140 0 218 -79.5t78 -197.5q0 -189 -136.5 -317t-348.5 -128q-41 0 -75.5 5t-48.5 10zM244 464q0 -35 23.5 -56t71.5 -21q64 0 109 50 q0 2 0.5 6t0.5 6q0 47 -26.5 77t-73.5 30q-51 0 -78 -28.5t-27 -63.5z" />
<glyph unicode=":" horiz-adv-x="289" d="M0 0l32 194h185l-33 -194h-184zM53 298l33 194h184l-33 -194h-184z" />
<glyph unicode=";" horiz-adv-x="294" d="M-21 -116l103 116h-82l33 194h184l-26 -219l-175 -152zM55 298l31 194h185l-33 -194h-183z" />
<glyph unicode="&#x3c;" horiz-adv-x="652" d="M49 272l20 123l553 202l-25 -159l-341 -113l298 -113l-23 -142z" />
<glyph unicode="=" horiz-adv-x="652" d="M44 168l22 137h519l-23 -137h-518zM78 364l23 137h518l-23 -137h-518z" />
<glyph unicode="&#x3e;" horiz-adv-x="652" d="M41 70l25 159l340 112l-296 114l22 142l482 -202l-20 -123z" />
<glyph unicode="?" horiz-adv-x="557" d="M79 0l29 177h185l-29 -177h-185zM83 640q130 71 256 71q105 0 165 -50t60 -131q0 -98 -77 -153t-196 -76l-22 -64h-112l18 166q103 17 149.5 39.5t46.5 57.5q0 23 -17.5 38t-54.5 15q-62 0 -156 -50z" />
<glyph unicode="@" horiz-adv-x="946" d="M23 194q0 209 143.5 350.5t377.5 141.5q82 0 148 -20.5t108.5 -54t70 -79t38 -93t8.5 -97.5q-2 -39 -8.5 -81.5t-25 -97.5t-45.5 -97t-74 -71.5t-106 -29.5q-41 0 -69 12.5t-41 33t-17.5 39t-4.5 38.5q-74 -66 -164 -66q-63 0 -102 39.5t-39 102.5q0 76 53.5 118 t134.5 42q42 0 154 -21l6 35q7 39 -7 55t-55 16q-72 0 -175 -38l-31 94q127 44 230 44q104 0 143 -45t22 -139l-25 -140q-16 -68 -11 -104t42 -36q60 0 106 91.5t49 205.5q3 49 -10 96t-45.5 91.5t-99 72t-158.5 27.5q-107 0 -195 -35.5t-145.5 -96t-89 -139.5t-31.5 -168 q0 -142 80 -227t224 -85q51 0 99 10t70 20l23 11l30 -47q-11 -6 -30 -14.5t-78 -22.5t-117 -14q-167 0 -264 103.5t-97 269.5zM358 180q0 -58 60 -58q58 0 122 52l12 64q-75 15 -105 15q-45 0 -67 -20t-22 -53z" />
<glyph unicode="A" horiz-adv-x="717" d="M-54 0l379 700h212l132 -700h-203l-14 117h-231l-54 -117h-221zM291 266h144l-29 246z" />
<glyph unicode="B" horiz-adv-x="701" d="M8 0l123 700h296q120 0 187 -42.5t67 -119.5q0 -67 -49.5 -112t-100.5 -52q45 -8 87 -48.5t42 -111.5q0 -104 -70.5 -159t-201.5 -55h-380zM223 146h115q133 0 133 90q0 63 -108 63h-110zM275 434h100q48 0 79 17.5t31 54.5q0 48 -89 48h-98z" />
<glyph unicode="C" horiz-adv-x="660" d="M36 270q0 206 98 323.5t253 117.5q46 0 88 -8.5t85.5 -28t68.5 -32.5t71 -40l-102 -136q-63 37 -105.5 54.5t-82.5 17.5q-83 0 -130 -74.5t-47 -177.5q0 -125 92 -125q70 0 209 68l80 -151q-188 -89 -336 -89q-113 0 -177.5 71.5t-64.5 209.5z" />
<glyph unicode="D" horiz-adv-x="732" d="M8 0l123 700h240q95 0 163.5 -22t107 -62.5t56 -90t17.5 -110.5q0 -41 -7 -86.5t-32 -106.5t-65 -108t-114 -80.5t-171 -33.5h-318zM227 162h71q62 0 108 24.5t69.5 64t34.5 80t11 81.5q0 68 -42 97t-130 29h-53z" />
<glyph unicode="E" horiz-adv-x="622" d="M8 0l122 700h522l-27 -162h-330l-22 -109h269l-27 -158h-268l-22 -109h335l-26 -162h-526z" />
<glyph unicode="F" horiz-adv-x="597" d="M8 0l122 700h522l-27 -162h-330l-22 -109h260l-26 -159h-260l-48 -270h-191z" />
<glyph unicode="G" horiz-adv-x="716" d="M36 268q0 208 99 325.5t255 117.5q62 0 127 -19t103.5 -38t98.5 -53l-103 -136q-44 24 -70.5 37t-63.5 24.5t-69 11.5q-84 0 -132 -75t-48 -177q0 -135 98 -135q67 0 149 69l8 44h-145l25 150h324l-72 -414h-179l10 59q-89 -70 -181 -70q-105 0 -169.5 72t-64.5 207z" />
<glyph unicode="H" horiz-adv-x="734" d="M8 0l123 700h192l-45 -254h229l45 254h192l-123 -700h-192l50 288h-229l-50 -288h-192z" />
<glyph unicode="I" horiz-adv-x="313" d="M8 0l123 700h192l-123 -700h-192z" />
<glyph unicode="J" horiz-adv-x="313" d="M-120 -46q85 24 107.5 43t31.5 67l113 636h191l-110 -625q-18 -102 -38 -138q-34 -64 -134 -100q-48 -17 -118 -32z" />
<glyph unicode="K" horiz-adv-x="711" d="M8 0l123 700h192l-48 -270l265 270h246l-336 -330l219 -370h-211l-139 241l-93 -91l-26 -150h-192z" />
<glyph unicode="L" horiz-adv-x="578" d="M8 0l123 700h192l-97 -542h318l-26 -158h-510z" />
<glyph unicode="M" horiz-adv-x="860" d="M8 0l123 700h195l102 -369l246 369h195l-123 -700h-192l66 376l-171 -259h-100l-79 284l-70 -401h-192z" />
<glyph unicode="N" horiz-adv-x="750" d="M8 0l123 700h194l169 -419l74 419h192l-123 -700h-194l-170 419l-73 -419h-192z" />
<glyph unicode="O" horiz-adv-x="778" d="M36 302q0 44 8.5 92t34 106.5t65 103.5t108 76t155.5 31q169 0 261 -82t92 -232q0 -44 -8.5 -92t-34 -106.5t-65 -103.5t-108 -76t-155.5 -31q-170 0 -261.5 82t-91.5 232zM234 307q0 -156 148 -156q48 0 85 24.5t56.5 63t29 77.5t9.5 76q0 156 -148 156q-48 0 -85 -24.5 t-56.5 -63t-29 -77.5t-9.5 -76z" />
<glyph unicode="P" horiz-adv-x="681" d="M8 0l123 700h277q290 0 290 -211q0 -42 -15 -84t-46 -82.5t-89.5 -65.5t-135.5 -25h-171l-41 -232h-192zM267 388h109q62 0 93.5 26t31.5 69q0 59 -97 59h-108z" />
<glyph unicode="Q" horiz-adv-x="778" d="M36 302q0 44 8.5 92t34 106.5t65 103.5t108 76t155.5 31q169 0 261 -82t92 -232q0 -43 -9.5 -91.5t-31 -103.5t-65.5 -104t-103 -77l90 -83l-136 -118l-144 169q-157 7 -241 88t-84 225zM234 307q0 -156 148 -156q48 0 85 24.5t56.5 63t29 77.5t9.5 76q0 156 -148 156 q-48 0 -85 -24.5t-56.5 -63t-29 -77.5t-9.5 -76z" />
<glyph unicode="R" horiz-adv-x="712" d="M8 0l123 700h310q281 0 281 -200q0 -35 -11.5 -71t-35 -71.5t-66 -62t-98.5 -36.5l123 -259h-197l-112 254h-80l-45 -254h-192zM269 403h133q59 0 91 24t32 67q0 34 -26.5 45.5t-75.5 11.5h-125z" />
<glyph unicode="S" horiz-adv-x="655" d="M-17 103l99 129q148 -85 240 -85q38 0 62.5 13.5t24.5 35.5q0 23 -26.5 36.5t-83 29t-88.5 30.5q-145 65 -145 194q0 96 73.5 160.5t205.5 64.5q151 0 324 -98l-99 -128q-44 26 -106 47t-106 21q-36 0 -60 -12.5t-24 -36.5q0 -22 23 -34t78.5 -27.5t93.5 -32.5 q147 -64 147 -192q0 -98 -76 -163.5t-209 -65.5q-96 0 -188.5 33.5t-159.5 80.5z" />
<glyph unicode="T" horiz-adv-x="604" d="M53 538l27 162h583l-27 -162h-195l-97 -538h-192l97 538h-196z" />
<glyph unicode="U" horiz-adv-x="723" d="M56 326l65 374h194l-75 -418q-11 -62 8 -96t85 -34q67 0 97.5 34t41.5 96l75 418h192l-76 -426q-11 -64 -31 -111.5t-56.5 -89t-98.5 -63t-147 -21.5q-80 0 -137 17t-87.5 47.5t-46.5 72.5t-13.5 92.5t10.5 107.5z" />
<glyph unicode="V" horiz-adv-x="716" d="M64 700h216l56 -465l214 465h238l-378 -700h-212z" />
<glyph unicode="W" horiz-adv-x="981" d="M73 700h215l13 -413l177 413h158l27 -406l154 406h229l-316 -700h-187l-31 423l-182 -423h-186z" />
<glyph unicode="X" horiz-adv-x="674" d="M-62 0l290 355l-155 345h211l74 -225l149 225h235l-277 -345l166 -355h-214l-81 221l-155 -221h-243z" />
<glyph unicode="Y" horiz-adv-x="674" d="M62 700h204l85 -258l175 258h224l-322 -422l-49 -278h-191l49 278z" />
<glyph unicode="Z" horiz-adv-x="646" d="M-27 0l23 146l396 392h-301l26 162h562l-23 -146l-397 -392h328l-26 -162h-588z" />
<glyph unicode="[" horiz-adv-x="372" d="M-24 -143l173 982h305l-17 -104h-114l-138 -774h114l-18 -104h-305z" />
<glyph unicode="\" horiz-adv-x="489" d="M101 790h128l177 -880h-128z" />
<glyph unicode="]" horiz-adv-x="372" d="M-67 -143l18 104h114l138 774h-114l17 104h306l-173 -982h-306z" />
<glyph unicode="^" horiz-adv-x="652" d="M50 313l251 387h189l119 -387h-190l-45 196l-113 -196h-211z" />
<glyph unicode="_" horiz-adv-x="710" d="M-39 -194l21 129h614l-21 -129h-614z" />
<glyph unicode="`" horiz-adv-x="254" d="M102 729h189l102 -143h-142z" />
<glyph unicode="a" horiz-adv-x="638" d="M16 189q0 155 71 251t185 96q36 0 70.5 -12t51.5 -22.5t41 -29.5l9 53h185l-93 -525h-185l9 52q-89 -63 -180 -63q-70 0 -117 48t-47 152zM205 210q0 -35 15 -55t43 -20q52 0 123 61l25 141q-45 52 -93 52q-52 0 -82.5 -52.5t-30.5 -126.5z" />
<glyph unicode="b" horiz-adv-x="635" d="M-5 0l129 729h185l-46 -256q87 63 176 63q72 0 120 -48t48 -152q0 -155 -70.5 -251t-183.5 -96q-86 0 -164 62l-9 -51h-185zM213 186q45 -50 94 -50q51 0 81.5 52.5t30.5 126.5t-62 74q-49 0 -119 -58z" />
<glyph unicode="c" horiz-adv-x="525" d="M15 210q0 157 80 241.5t190 84.5q18 0 35.5 -1.5t35.5 -5t30.5 -6t30.5 -9.5t26 -9.5t27.5 -11.5t23 -10.5t23.5 -11.5l20 -10l-81 -128q-89 46 -129 46q-55 0 -88.5 -48.5t-33.5 -104.5q0 -80 73 -80q39 0 139 43l59 -141q-148 -59 -241 -59q-99 0 -159.5 55.5 t-60.5 165.5z" />
<glyph unicode="d" horiz-adv-x="638" d="M16 189q0 155 71 251t185 96q36 0 70.5 -12t51.5 -22.5t41 -29.5l45 257h185l-129 -729h-185l9 52q-89 -63 -180 -63q-70 0 -117 48t-47 152zM205 210q0 -35 15 -55t43 -20q52 0 123 61l25 141q-45 52 -93 52q-52 0 -82.5 -52.5t-30.5 -126.5z" />
<glyph unicode="e" horiz-adv-x="575" d="M14 215q0 141 85 231t234 90q101 0 163.5 -43t62.5 -116q0 -44 -17.5 -75.5t-44.5 -50t-69.5 -29t-83 -13.5t-94.5 -3h-49v-1q0 -81 76 -81q64 0 192 56l54 -126q-158 -65 -283 -65q-226 0 -226 226zM218 301h38q60 0 94 16t34 46q0 20 -15.5 32t-40.5 12 q-40 0 -67.5 -30t-42.5 -76z" />
<glyph unicode="f" horiz-adv-x="401" d="M-106 -95l40.5 13.5t31 12.5t23 12t16.5 14.5t12 16t8.5 20.5t6.5 25t6 32l63 340h-70l23 134h71q16 105 59 154.5t130 49.5q96 0 204 -59l-81 -111q-52 19 -81 19q-38 0 -46 -53h121l-23 -134h-123l-59 -325q-22 -121 -42 -161q-33 -67 -122 -102q-50 -20 -129 -37z" />
<glyph unicode="g" horiz-adv-x="635" d="M-30 -169l58 142q128 -40 214 -40q55 0 78.5 18.5t30.5 55.5l8 45q-91 -63 -179 -63q-70 0 -117 48t-47 152q0 155 71 251t185 96q80 0 162 -63l9 52h184l-90 -509q-23 -132 -86 -181t-190 -49q-143 0 -291 45zM204 210q0 -35 15.5 -55t43.5 -20q51 0 121 58l26 146 q-45 50 -93 50q-51 0 -82 -52.5t-31 -126.5z" />
<glyph unicode="h" horiz-adv-x="631" d="M-5 0l129 729h185l-46 -257q102 64 186 64q89 0 125.5 -51t20.5 -141l-61 -344h-185l58 324q12 70 -39 70q-62 0 -128 -55l-60 -339h-185z" />
<glyph unicode="i" horiz-adv-x="282" d="M-5 0l93 525h185l-93 -525h-185zM95 582l25 144h191l-24 -144h-192z" />
<glyph unicode="j" horiz-adv-x="282" d="M-141 -95q63 20 89 34t35 29t15 51l90 506h185l-88 -490q-5 -30 -7.5 -43t-8.5 -37.5t-11 -34.5t-14 -29t-19 -27.5t-25.5 -22.5t-34.5 -22t-44 -18.5t-55 -18.5t-68 -16zM96 582l24 144h192l-24 -144h-192z" />
<glyph unicode="k" horiz-adv-x="592" d="M-5 0l129 729h185l-64 -360l148 156h224l-220 -214l157 -311h-188l-94 190l-71 -69l-21 -121h-185z" />
<glyph unicode="l" horiz-adv-x="283" d="M-4 0l129 729h184l-129 -729h-184z" />
<glyph unicode="m" horiz-adv-x="935" d="M-5 0l93 525h185l-11 -58q86 69 168 69q115 0 139 -89q32 33 85.5 61t103.5 28q87 0 121.5 -49t19.5 -138l-61 -349h-185l58 324q8 31 1 50.5t-36 19.5q-49 0 -108 -55l-60 -339h-184l58 324q8 31 1 50.5t-36 19.5q-50 0 -107 -55l-60 -339h-185z" />
<glyph unicode="n" horiz-adv-x="631" d="M-5 0l93 525h185l-10 -53q102 64 186 64q89 0 125.5 -51t20.5 -141l-61 -344h-185l58 324q12 70 -39 70q-62 0 -128 -55l-60 -339h-185z" />
<glyph unicode="o" d="M16 233q0 130 77.5 216.5t221.5 86.5q133 0 209 -64t76 -180q0 -129 -77.5 -216t-221.5 -87q-133 0 -209 64t-76 180zM201 231q0 -102 95 -102q56 0 87 49t31 116q0 102 -95 102q-56 0 -87 -49t-31 -116z" />
<glyph unicode="p" horiz-adv-x="635" d="M-41 -204l129 729h185l-9 -52q89 63 175 63q72 0 120.5 -48t48.5 -152q0 -155 -71 -251t-184 -96q-86 0 -164 62l-45 -255h-185zM213 187q44 -51 95 -51t81 52.5t30 126.5t-62 74q-49 0 -119 -58z" />
<glyph unicode="q" horiz-adv-x="638" d="M16 189q0 155 71 251t185 96q36 0 70.5 -12t51.5 -22.5t41 -29.5l9 53h185l-129 -729h-185l45 256q-89 -63 -180 -63q-70 0 -117 48t-47 152zM205 210q0 -35 15 -55t43 -20q52 0 123 61l25 141q-45 52 -93 52q-52 0 -82.5 -52.5t-30.5 -126.5z" />
<glyph unicode="r" horiz-adv-x="439" d="M-5 0l93 525h185l-20 -108q10 17 24.5 33.5t40.5 38t64.5 33.5t83.5 9l-29 -173q-48 0 -89 -19.5t-64.5 -47t-40.5 -54.5t-23 -47l-7 -19l-33 -171h-185z" />
<glyph unicode="s" horiz-adv-x="545" d="M-22 75l83 120q46 -26 106 -46.5t103 -20.5q46 0 46 22q0 7 -5 12t-17.5 9.5t-24.5 8t-34 9t-37 10.5q-73 22 -116.5 57.5t-43.5 102.5q0 77 60.5 127t168.5 50q70 0 142.5 -20.5t122.5 -48.5l-82 -116q-103 48 -176 48q-48 0 -48 -23q0 -5 2 -8.5t7.5 -7t11.5 -6 t17 -5.5t21 -6t27 -7.5t31 -8.5q35 -10 59.5 -21t50.5 -29t39.5 -46t13.5 -64q0 -80 -63.5 -129t-175.5 -49q-157 0 -289 86z" />
<glyph unicode="t" horiz-adv-x="438" d="M32 391l23 134h70l24 132l187 20l-27 -152h140l-23 -134h-141l-35 -196q-8 -46 29 -46q28 0 74 19l45 -142q-111 -37 -188 -37q-88 0 -124 58t-17 164l32 180h-69z" />
<glyph unicode="u" d="M23 181l60 344h185l-58 -324q-14 -70 40 -70q28 0 64 15.5t63 38.5l60 340h185l-93 -525h-185l9 53q-97 -64 -186 -64q-88 0 -124 51t-20 141z" />
<glyph unicode="v" horiz-adv-x="592" d="M38 525h191l40 -323l155 323h206l-298 -525h-182z" />
<glyph unicode="w" horiz-adv-x="848" d="M44 525h190l11 -316l142 316h149l27 -310l118 310h201l-252 -525h-172l-34 296l-141 -296h-172z" />
<glyph unicode="x" horiz-adv-x="612" d="M-62 0l247 262l-142 263h193l69 -155l122 155h223l-236 -262l154 -263h-197l-73 158l-125 -158h-235z" />
<glyph unicode="y" horiz-adv-x="594" d="M-6 -93q8 3 28.5 10t27 9.5t22.5 8.5t23 10.5t18 11.5t19.5 15t17.5 18l-111 535h191l43 -309l152 309h205l-290 -525q-18 -32 -24 -42.5t-25 -39t-32 -40.5t-37.5 -33.5t-49.5 -33t-60.5 -24.5t-77.5 -21z" />
<glyph unicode="z" horiz-adv-x="575" d="M-27 0l21 126l289 248h-232l25 151h509l-21 -126l-289 -248h242l-25 -151h-519z" />
<glyph unicode="{" horiz-adv-x="392" d="M1 296l18 104q62 0 86 29t27 77l5 102q5 123 77 177t207 54h52l-17 -100h-18q-99 0 -107 -111l-4 -87q-5 -99 -47 -142.5t-127 -53.5q76 -17 103.5 -65.5t-1.5 -139.5l-14 -46q-8 -24 -10.5 -45.5t0.5 -43.5t20.5 -35t47.5 -13h18l-17 -100h-18q-58 0 -106.5 14t-85 44 t-47.5 76.5t6 110.5l27 88q18 46 1.5 76t-76.5 30z" />
<glyph unicode="|" horiz-adv-x="243" d="M-20 -123l166 941h133l-166 -941h-133z" />
<glyph unicode="}" horiz-adv-x="392" d="M-64 -143l18 100h18q99 0 107 111l4 87q4 99 46.5 142t129.5 54q-77 17 -105 65.5t0 139.5l15 46q7 24 10 45.5t-0.5 43.5t-20 35t-46.5 13h-19l16 100h18q59 0 107.5 -14t84.5 -44t47 -76.5t-6 -110.5l-27 -88q-8 -31 -7 -54.5t21.5 -37.5t61.5 -14l-18 -104 q-63 0 -87.5 -29t-26.5 -77l-3 -102q-5 -123 -77.5 -177t-207.5 -54h-53z" />
<glyph unicode="~" horiz-adv-x="652" d="M3 211q46 85 94 129t113 44q53 0 126.5 -37.5t107.5 -37.5q23 0 43 13.5t49 56.5l104 -45q-46 -85 -94 -129t-113 -44q-53 0 -127 37.5t-108 37.5q-22 0 -42 -14t-50 -56z" />
<glyph unicode="&#xa1;" horiz-adv-x="293" d="M-20 0l140 463h111l-26 -463h-225zM94 523l29 177h185l-29 -177h-185z" />
<glyph unicode="&#xa2;" horiz-adv-x="572" d="M42 298q0 157 80 241.5t190 84.5h8l14 76h132l-18 -101q54 -18 129 -60l-81 -124q-92 52 -142 52q-54 0 -88 -48.5t-34 -104.5q0 -80 73 -80q46 0 153 42l58 -137q-91 -36 -158 -51l-15 -88h-132l14 79q-84 9 -133.5 64t-49.5 155z" />
<glyph unicode="&#xa3;" horiz-adv-x="597" d="M-9 0l21 128q5 1 12.5 3t28.5 11t38.5 21t35.5 33.5t25 46.5h-108l19 106h81q-3 9 -12.5 35t-14.5 40.5t-9.5 39.5t-4.5 48q0 92 60.5 145.5t169.5 53.5q141 0 287 -111l-94 -110q-93 63 -157 63q-37 0 -57 -17t-20 -45q0 -24 19.5 -70.5t24.5 -71.5h160l-19 -106h-148 q-22 -57 -70 -85h266l-25 -158h-509z" />
<glyph unicode="&#xa5;" horiz-adv-x="732" d="M69 130l17 104h172l8 44h-171l17 104h111l-130 318h203l85 -257l174 257h225l-242 -318h109l-18 -104h-172l-8 -44h173l-19 -104h-172l-22 -130h-192l23 130h-171z" />
<glyph unicode="&#xa6;" horiz-adv-x="246" d="M-18 -123l73 413h133l-73 -413h-133zM75 405l73 413h133l-73 -413h-133z" />
<glyph unicode="&#xa7;" horiz-adv-x="592" d="M8 -3l82 116q107 -48 176 -48q48 0 48 23q0 7 -5.5 12.5t-18 10t-24.5 7.5t-33 8.5t-35 9.5q-31 9 -55.5 19.5t-52 29t-42.5 46.5t-15 64q0 96 105 138q-42 42 -42 102q0 76 60 126t169 50q71 0 144 -21t122 -48l-82 -116q-101 48 -174 48q-50 0 -50 -23q0 -7 5 -12 t17.5 -9.5t23 -7.5t33 -9l37.5 -10q72 -21 117.5 -57t45.5 -102q0 -95 -104 -138q42 -42 42 -102q0 -76 -60.5 -126t-168.5 -50q-70 0 -142.5 20.5t-122.5 48.5zM213 324q0 -6 3 -11t9.5 -9.5t12.5 -7.5t19 -7t20 -6t23.5 -6.5t24.5 -6.5q34 5 47 18.5t13 26.5q0 5 -2 9 t-6 7.5t-8 6.5t-11.5 6t-14 5t-16.5 5t-17 5t-19 5t-19 5q-32 -5 -45.5 -19t-13.5 -26z" />
<glyph unicode="&#xa8;" horiz-adv-x="264" d="M63 596l23 137h144l-22 -137h-145zM260 596l24 137h144l-25 -137h-143z" />
<glyph unicode="&#xa9;" horiz-adv-x="780" d="M42 313q0 167 102.5 282.5t279.5 115.5q152 0 241 -89.5t89 -234.5q0 -108 -43 -197t-132 -145t-208 -56q-151 0 -240 90t-89 234zM81 314q0 -127 78.5 -207t215.5 -80q156 0 248 103.5t92 255.5q0 127 -78.5 207t-215.5 80q-156 0 -248 -103.5t-92 -255.5zM213 302 q-5 122 54.5 193.5t147.5 71.5q78 0 160 -67l-32 -33q-67 56 -129 56q-66 0 -110 -62t-40 -155q5 -129 94 -129q71 0 149 54l26 -37q-93 -62 -173 -62q-62 0 -103 44.5t-44 125.5z" />
<glyph unicode="&#xaa;" horiz-adv-x="432" d="M65 503q0 91 44.5 147.5t115.5 56.5q53 0 103 -36l5 29h124l-56 -315h-124l5 28q-55 -35 -111 -35q-45 0 -75.5 30t-30.5 95zM192 514q0 -38 34 -38q31 0 73 32l13 74q-25 27 -54 27q-30 0 -48 -27.5t-18 -67.5z" />
<glyph unicode="&#xab;" horiz-adv-x="685" d="M9 211l18 109l338 206l-30 -182l-164 -92l129 -90l-27 -157zM322 211l18 109l337 206l-29 -182l-164 -92l129 -90l-27 -157z" />
<glyph unicode="&#xac;" horiz-adv-x="652" d="M17 265l23 137h593l-56 -312h-145l31 175h-446z" />
<glyph unicode="&#xad;" horiz-adv-x="430" d="M31 211l25 147h337l-25 -147h-337z" />
<glyph unicode="&#xae;" horiz-adv-x="460" d="M67 480q0 92 56.5 156t155.5 64q84 0 133 -49.5t49 -130.5q0 -92 -56.5 -156t-154.5 -64q-84 0 -133.5 49.5t-49.5 130.5zM101 481q0 -65 40.5 -106.5t110.5 -41.5q81 0 129 53.5t48 132.5q0 65 -41 106.5t-112 41.5q-81 0 -128 -53.5t-47 -132.5zM174 402l35 201h89 q28 0 44.5 -15t16.5 -37q0 -24 -17 -41t-45 -22l33 -86h-34l-31 85h-43l-15 -85h-33zM227 518h52q22 0 34.5 9.5t12.5 23.5q0 22 -29 22h-60z" />
<glyph unicode="&#xaf;" horiz-adv-x="321" d="M111 611l18 105h315l-18 -105h-315z" />
<glyph unicode="&#xb0;" horiz-adv-x="410" d="M59 518q0 76 54 130t130 54t129.5 -54t53.5 -130t-53.5 -130t-129.5 -54t-130 54t-54 130zM163 518q0 -33 23.5 -56t56.5 -23q32 0 55.5 23t23.5 56t-23.5 56.5t-55.5 23.5q-33 0 -56.5 -23.5t-23.5 -56.5z" />
<glyph unicode="&#xb1;" horiz-adv-x="652" d="M14 0l18 116h519l-18 -116h-519zM65 290l22 137h190l22 124h141l-22 -124h188l-22 -137h-190l-22 -123h-141l22 123h-188z" />
<glyph unicode="&#xb2;" horiz-adv-x="423" d="M38 385l8 49q6 35 22 63t42.5 50t47.5 35t54 31q18 10 40.5 21t33.5 16.5t21.5 12t14.5 12t4 11.5q-2 21 -41 21q-47 0 -123 -40l-48 88q101 57 187 57q76 0 115.5 -35t39.5 -85q0 -30 -14.5 -55.5t-43 -46t-51 -32.5t-58.5 -28q-71 -31 -75 -40h202l-17 -105h-361z" />
<glyph unicode="&#xb3;" horiz-adv-x="408" d="M29 451l62 77q80 -44 136 -44q62 0 62 32q0 22 -27 28.5t-77 6.5h-18l15 105h23q101 0 101 29q0 22 -36 22q-44 0 -123 -36l-42 86q90 55 187 55q72 0 108 -28.5t36 -72.5q0 -64 -84 -100q31 -12 49.5 -38t18.5 -59q0 -52 -42.5 -94t-135.5 -42q-112 0 -213 73z" />
<glyph unicode="&#xb4;" horiz-adv-x="255" d="M66 586l149 143h209l-199 -143h-159z" />
<glyph unicode="&#xb5;" horiz-adv-x="635" d="M-34 -204l129 729h184l-61 -345q-3 -49 43 -49q62 0 127 54l60 340h185l-93 -525h-185l9 52q-93 -60 -180 -63l-34 -193h-184z" />
<glyph unicode="&#xb6;" horiz-adv-x="756" d="M48 403q0 75 27 133.5t73.5 93t102.5 52.5t118 18h168l-156 -885h-154l68 376q-109 0 -178 52t-69 160zM448 -186l156 886h153l-156 -886h-153z" />
<glyph unicode="&#xb7;" horiz-adv-x="280" d="M29 188l33 194h184l-32 -194h-185z" />
<glyph unicode="&#xb8;" horiz-adv-x="188" d="M-42 -167l49 86q21 -11 45 -11q49 0 49 39q0 12 -4.5 25.5t-8.5 21.5l-4 8h79q25 -36 25 -81q0 -56 -38 -83.5t-95 -27.5q-59 0 -97 23z" />
<glyph unicode="&#xb9;" horiz-adv-x="264" d="M44 734l143 71h122l-74 -420h-129l56 296l-77 -34z" />
<glyph unicode="&#xba;" horiz-adv-x="414" d="M62 517q0 81 51 135.5t146 54.5q81 0 128.5 -37t47.5 -102q0 -81 -51.5 -135.5t-147.5 -54.5q-80 0 -127 37t-47 102zM184 526q0 -55 56 -55q36 0 53.5 28.5t17.5 59.5q0 55 -55 55q-36 0 -54 -29t-18 -59z" />
<glyph unicode="&#xbb;" horiz-adv-x="683" d="M-4 5l29 183l165 91l-128 90l25 157l265 -206l-18 -109zM308 5l31 183l164 91l-129 90l26 157l263 -206l-17 -109z" />
<glyph unicode="&#xbc;" horiz-adv-x="932" d="M77 629l143 71h121l-74 -420h-128l55 296l-77 -34zM140 0l446 700h138l-446 -700h-138zM432 69l14 87l238 264h169l-43 -246h65l-16 -105h-67l-12 -69h-128l12 69h-232zM588 174h94l23 135z" />
<glyph unicode="&#xbd;" horiz-adv-x="946" d="M77 629l143 71h121l-74 -420h-128l55 296l-77 -34zM140 0l446 700h138l-446 -700h-138zM489 0l9 49q6 35 21.5 63t42 50t47.5 35t54 31l41 20.5l33 16.5t21 12t15 12t4 11q0 22 -41 22q-47 0 -123 -40l-47 88q98 57 186 57q76 0 115.5 -35t39.5 -85q0 -30 -14.5 -55.5 t-43 -46t-51 -32.5t-58.5 -28q-69 -31 -74 -40h201l-16 -105h-362z" />
<glyph unicode="&#xbe;" horiz-adv-x="1019" d="M31 346l62 77q80 -44 136 -44q62 0 62 32q0 22 -27 28.5t-77 6.5h-18l15 105h23q101 0 101 29q0 22 -36 22q-44 0 -123 -36l-42 86q90 55 187 55q72 0 108 -28.5t36 -72.5q0 -64 -84 -100q31 -12 49.5 -38t18.5 -59q0 -52 -42.5 -94t-135.5 -42q-112 0 -213 73zM230 0 l446 700h139l-447 -700h-138zM523 69l14 87l237 264h171l-44 -246h65l-16 -105h-67l-12 -69h-129l12 69h-231zM680 174h92l23 133z" />
<glyph unicode="&#xbf;" horiz-adv-x="556" d="M12 170q0 98 77 153t197 76l22 64h112l-19 -166q-103 -17 -149.5 -39.5t-46.5 -57.5q0 -23 18.5 -38t54.5 -15q63 0 155 50l60 -137q-130 -71 -257 -71q-105 0 -164.5 50t-59.5 131zM283 523l30 177h184l-29 -177h-185z" />
<glyph unicode="&#xc0;" horiz-adv-x="717" d="M-54 0l379 700h212l132 -700h-203l-14 117h-231l-54 -117h-221zM262 880h188l101 -143h-141zM291 266h144l-29 246z" />
<glyph unicode="&#xc1;" horiz-adv-x="717" d="M-54 0l379 700h212l132 -700h-203l-14 117h-231l-54 -117h-221zM291 266h144l-29 246zM326 737l149 143h209l-199 -143h-159z" />
<glyph unicode="&#xc2;" horiz-adv-x="717" d="M-54 0l379 700h212l132 -700h-203l-14 117h-231l-54 -117h-221zM245 737l134 143h170l83 -143h-116l-58 67l-82 -67h-131zM291 266h144l-29 246z" />
<glyph unicode="&#xc3;" horiz-adv-x="717" d="M-54 0l379 700h212l132 -700h-203l-14 117h-231l-54 -117h-221zM249 787q21 31 29.5 42t27 30.5t37.5 26.5t42 7q30 0 75 -23.5t59 -23.5q24 0 61 47l73 -48q-21 -31 -29.5 -42t-27 -30.5t-37.5 -26.5t-42 -7q-30 0 -74.5 23.5t-58.5 23.5q-25 0 -62 -48zM291 266h144 l-29 246z" />
<glyph unicode="&#xc4;" horiz-adv-x="717" d="M-54 0l379 700h212l132 -700h-203l-14 117h-231l-54 -117h-221zM269 747l24 137h143l-22 -137h-145zM291 266h144l-29 246zM466 747l24 137h144l-24 -137h-144z" />
<glyph unicode="&#xc5;" horiz-adv-x="717" d="M-54 0l379 700h212l132 -700h-203l-14 117h-231l-54 -117h-221zM291 266h144l-29 246zM341 845q0 48 34.5 82.5t82.5 34.5q49 0 83.5 -34.5t34.5 -82.5q0 -49 -34.5 -83.5t-83.5 -34.5q-48 0 -82.5 34.5t-34.5 83.5zM425 845q0 -14 9.5 -24t23.5 -10t24 10t10 24 t-10 23.5t-24 9.5t-23.5 -10t-9.5 -23z" />
<glyph unicode="&#xc6;" horiz-adv-x="1087" d="M-92 0l590 700h619l-26 -162h-330l-22 -109h269l-27 -158h-268l-22 -109h335l-27 -162h-526l20 117h-246l-94 -117h-245zM370 271h150l43 240z" />
<glyph unicode="&#xc7;" horiz-adv-x="661" d="M37 270q0 206 98 323.5t253 117.5q46 0 88 -8.5t85.5 -28t68.5 -32.5t71 -40l-102 -136q-63 37 -105.5 54.5t-83.5 17.5q-82 0 -129 -74.5t-47 -177.5q0 -125 92 -125q70 0 209 68l80 -151q-158 -76 -281 -86q19 -38 19 -71q0 -56 -38 -83.5t-94 -27.5q-59 0 -97 23 l49 86q21 -11 44 -11q50 0 50 39q0 19 -11 43q-103 7 -161 78t-58 202z" />
<glyph unicode="&#xc8;" horiz-adv-x="622" d="M8 0l123 700h521l-26 -162h-330l-22 -109h269l-27 -158h-268l-22 -109h335l-27 -162h-526zM224 880h189l102 -143h-141z" />
<glyph unicode="&#xc9;" horiz-adv-x="622" d="M8 0l123 700h521l-26 -162h-330l-22 -109h269l-27 -158h-268l-22 -109h335l-27 -162h-526zM281 737l149 143h208l-198 -143h-159z" />
<glyph unicode="&#xca;" horiz-adv-x="622" d="M8 0l123 700h521l-26 -162h-330l-22 -109h269l-27 -158h-268l-22 -109h335l-27 -162h-526zM207 737l136 143h168l83 -143h-114l-59 67l-82 -67h-132z" />
<glyph unicode="&#xcb;" horiz-adv-x="622" d="M8 0l123 700h521l-26 -162h-330l-22 -109h269l-27 -158h-268l-22 -109h335l-27 -162h-526zM233 747l22 137h145l-23 -137h-144zM430 747l23 137h145l-24 -137h-144z" />
<glyph unicode="&#xcc;" horiz-adv-x="313" d="M8 0l123 700h192l-123 -700h-192zM57 880h190l101 -143h-141z" />
<glyph unicode="&#xcd;" horiz-adv-x="313" d="M8 0l123 700h192l-123 -700h-192zM114 737l149 143h208l-198 -143h-159z" />
<glyph unicode="&#xce;" horiz-adv-x="313" d="M8 0l123 700h192l-123 -700h-192zM40 737l133 143h171l83 -143h-115l-59 67l-81 -67h-132z" />
<glyph unicode="&#xcf;" horiz-adv-x="313" d="M8 0l123 700h192l-123 -700h-192zM66 747l23 137h145l-25 -137h-143zM263 747l23 137h144l-23 -137h-144z" />
<glyph unicode="&#xd0;" horiz-adv-x="752" d="M4 277l24 146h73l48 277h239q184 0 265 -78.5t81 -206.5q0 -41 -7 -86.5t-32 -106.5t-65 -108t-114 -80.5t-171 -33.5h-318l48 277h-71zM247 162h70q62 0 108 24.5t69.5 64t34.5 80t11 81.5q0 67 -42.5 96.5t-130.5 29.5h-52l-21 -115h128l-24 -146h-130z" />
<glyph unicode="&#xd1;" horiz-adv-x="750" d="M8 0l123 700h194l170 -420l74 420h191l-123 -700h-194l-169 420l-74 -420h-192zM270 787q21 31 29.5 42t27 30.5t37.5 26.5t42 7q30 0 74 -23.5t59 -23.5q25 0 61 47l73 -48q-21 -31 -29.5 -42t-27 -30.5t-37.5 -26.5t-42 -7q-29 0 -73 23.5t-59 23.5q-27 0 -62 -48z" />
<glyph unicode="&#xd2;" horiz-adv-x="778" d="M36 302q0 44 8.5 92t34 106.5t65 103.5t108 76t155.5 31q169 0 261 -82t92 -232q0 -44 -8.5 -92t-34 -106.5t-65 -103.5t-108 -76t-155.5 -31q-170 0 -261.5 82t-91.5 232zM234 307q0 -156 148 -156q48 0 85 24.5t56.5 63t29 77.5t9.5 76q0 156 -148 156q-48 0 -85 -24.5 t-56.5 -63t-29 -77.5t-9.5 -76zM291 880h188l102 -143h-142z" />
<glyph unicode="&#xd3;" horiz-adv-x="778" d="M36 302q0 44 8.5 92t34 106.5t65 103.5t108 76t155.5 31q169 0 261 -82t92 -232q0 -44 -8.5 -92t-34 -106.5t-65 -103.5t-108 -76t-155.5 -31q-170 0 -261.5 82t-91.5 232zM234 307q0 -156 148 -156q48 0 85 24.5t56.5 63t29 77.5t9.5 76q0 156 -148 156q-48 0 -85 -24.5 t-56.5 -63t-29 -77.5t-9.5 -76zM346 737l149 143h209l-199 -143h-159z" />
<glyph unicode="&#xd4;" horiz-adv-x="778" d="M36 302q0 44 8.5 92t34 106.5t65 103.5t108 76t155.5 31q169 0 261 -82t92 -232q0 -44 -8.5 -92t-34 -106.5t-65 -103.5t-108 -76t-155.5 -31q-170 0 -261.5 82t-91.5 232zM234 307q0 -156 148 -156q48 0 85 24.5t56.5 63t29 77.5t9.5 76q0 156 -148 156q-48 0 -85 -24.5 t-56.5 -63t-29 -77.5t-9.5 -76zM274 737l134 143h170l83 -143h-115l-58 67l-82 -67h-132z" />
<glyph unicode="&#xd5;" horiz-adv-x="778" d="M36 302q0 44 8.5 92t34 106.5t65 103.5t108 76t155.5 31q169 0 261 -82t92 -232q0 -44 -8.5 -92t-34 -106.5t-65 -103.5t-108 -76t-155.5 -31q-170 0 -261.5 82t-91.5 232zM234 307q0 -156 148 -156q48 0 85 24.5t56.5 63t29 77.5t9.5 76q0 156 -148 156q-48 0 -85 -24.5 t-56.5 -63t-29 -77.5t-9.5 -76zM278 787q21 31 29.5 42t27 30.5t37.5 26.5t42 7q29 0 73.5 -23.5t59.5 -23.5q25 0 62 47l72 -48q-25 -37 -38.5 -54.5t-40 -34.5t-56.5 -17t-74.5 23.5t-58.5 23.5q-27 0 -62 -48z" />
<glyph unicode="&#xd6;" horiz-adv-x="778" d="M36 302q0 44 8.5 92t34 106.5t65 103.5t108 76t155.5 31q169 0 261 -82t92 -232q0 -44 -8.5 -92t-34 -106.5t-65 -103.5t-108 -76t-155.5 -31q-170 0 -261.5 82t-91.5 232zM234 307q0 -156 148 -156q48 0 85 24.5t56.5 63t29 77.5t9.5 76q0 156 -148 156q-48 0 -85 -24.5 t-56.5 -63t-29 -77.5t-9.5 -76zM299 747l23 137h144l-24 -137h-143zM495 747l24 137h144l-23 -137h-145z" />
<glyph unicode="&#xd7;" horiz-adv-x="652" d="M75 220l154 124l-105 117l110 94l107 -120l157 126l92 -107l-155 -124l106 -118l-110 -93l-108 120l-157 -126z" />
<glyph unicode="&#xd8;" horiz-adv-x="778" d="M-6 0l101 105q-59 76 -59 197q0 43 8.5 91.5t34 107t65 103.5t107.5 76t155 31q135 0 223 -54l41 43h131l-102 -106q60 -78 60 -197q0 -44 -8.5 -92t-34 -106.5t-64.5 -103.5t-107.5 -76t-155.5 -31q-138 0 -224 53l-40 -41h-131zM234 307q0 -33 5 -53l263 272 q-35 22 -88 22q-48 0 -85 -24.5t-56.5 -63t-29 -77.5t-9.5 -76zM292 172q33 -21 90 -21q48 0 85 24.5t56 63t28.5 77.5t9.5 76q0 29 -6 53z" />
<glyph unicode="&#xd9;" horiz-adv-x="723" d="M55 326l66 374h193l-75 -418q-11 -62 8 -96t86 -34t97.5 34t41.5 96l75 418h191l-75 -426q-11 -64 -31 -111.5t-57 -89t-98.5 -63t-147.5 -21.5q-80 0 -137 17t-87.5 47.5t-46 72.5t-13.5 92.5t10 107.5zM260 880h190l101 -143h-141z" />
<glyph unicode="&#xda;" horiz-adv-x="723" d="M55 326l66 374h193l-75 -418q-11 -62 8 -96t86 -34t97.5 34t41.5 96l75 418h191l-75 -426q-11 -64 -31 -111.5t-57 -89t-98.5 -63t-147.5 -21.5q-80 0 -137 17t-87.5 47.5t-46 72.5t-13.5 92.5t10 107.5zM316 737l150 143h207l-198 -143h-159z" />
<glyph unicode="&#xdb;" horiz-adv-x="723" d="M55 326l66 374h193l-75 -418q-11 -62 8 -96t86 -34t97.5 34t41.5 96l75 418h191l-75 -426q-11 -64 -31 -111.5t-57 -89t-98.5 -63t-147.5 -21.5q-80 0 -137 17t-87.5 47.5t-46 72.5t-13.5 92.5t10 107.5zM244 737l134 143h170l83 -143h-115l-59 67l-81 -67h-132z" />
<glyph unicode="&#xdc;" horiz-adv-x="723" d="M55 326l66 374h193l-75 -418q-11 -62 8 -96t86 -34t97.5 34t41.5 96l75 418h191l-75 -426q-11 -64 -31 -111.5t-57 -89t-98.5 -63t-147.5 -21.5q-80 0 -137 17t-87.5 47.5t-46 72.5t-13.5 92.5t10 107.5zM269 747l24 137h144l-25 -137h-143zM467 747l22 137h144l-23 -137 h-143z" />
<glyph unicode="&#xdd;" horiz-adv-x="674" d="M62 700h204l85 -257l175 257h223l-322 -424l-48 -276h-192l49 278zM292 737l149 143h208l-198 -143h-159z" />
<glyph unicode="&#xde;" horiz-adv-x="687" d="M8 0l123 700h192l-19 -104h85q291 0 291 -211q0 -33 -8.5 -66.5t-30 -68.5t-53 -61.5t-81.5 -43.5t-112 -17h-172l-23 -128h-192zM248 284h111q61 0 92.5 26t31.5 69q0 59 -97 59h-107z" />
<glyph unicode="&#xdf;" horiz-adv-x="762" d="M-5 0l85 479q10 51 31 90t60.5 72.5t105.5 51.5t156 18q94 0 161 -20.5t100 -55t45 -74t5 -83.5l-2 -14l-86 -112q-29 17 -72.5 31.5t-72.5 14.5q-39 0 -39 -21q0 -5 3 -9t9 -8t12.5 -7t17 -7t18.5 -6.5t21 -6t21 -6.5q146 -48 146 -163q0 -77 -58 -126t-161 -49 q-76 0 -147 25.5t-121 60.5l81 120q36 -24 93 -45.5t88 -21.5q35 0 35 19q0 5 -3.5 9.5t-10 8.5t-13.5 7.5t-18 7.5t-18.5 6.5t-20 6.5t-17.5 6q-29 10 -51 20.5t-45.5 29t-36 46.5t-12.5 64q0 76 54.5 126.5t155.5 50.5q25 0 57 -5q-25 40 -118 40q-74 0 -117 -26t-54 -88 l-83 -457h-184z" />
<glyph unicode="&#xe0;" horiz-adv-x="638" d="M16 189q0 155 71.5 251t185.5 96q36 0 70.5 -12t51.5 -22.5t41 -29.5l9 53h185l-93 -525h-185l9 52q-89 -63 -180 -63q-70 0 -117.5 48t-47.5 152zM190 729h190l100 -143h-141zM206 210q0 -35 15 -55t43 -20q52 0 123 61l25 140q-46 53 -94 53q-52 0 -82 -52.5 t-30 -126.5z" />
<glyph unicode="&#xe1;" horiz-adv-x="638" d="M16 189q0 155 71.5 251t185.5 96q36 0 70.5 -12t51.5 -22.5t41 -29.5l9 53h185l-93 -525h-185l9 52q-89 -63 -180 -63q-70 0 -117.5 48t-47.5 152zM206 210q0 -35 15 -55t43 -20q52 0 123 61l25 140q-46 53 -94 53q-52 0 -82 -52.5t-30 -126.5zM242 586l149 143h208 l-197 -143h-160z" />
<glyph unicode="&#xe2;" horiz-adv-x="638" d="M16 189q0 155 71.5 251t185.5 96q36 0 70.5 -12t51.5 -22.5t41 -29.5l9 53h185l-93 -525h-185l9 52q-89 -63 -180 -63q-70 0 -117.5 48t-47.5 152zM174 586l133 143h170l84 -143h-116l-59 67l-80 -67h-132zM206 210q0 -35 15 -55t43 -20q52 0 123 61l25 140 q-46 53 -94 53q-52 0 -82 -52.5t-30 -126.5z" />
<glyph unicode="&#xe3;" horiz-adv-x="638" d="M16 189q0 155 71.5 251t185.5 96q36 0 70.5 -12t51.5 -22.5t41 -29.5l9 53h185l-93 -525h-185l9 52q-89 -63 -180 -63q-70 0 -117.5 48t-47.5 152zM180 636q21 31 29.5 42t27 30.5t37.5 26.5t42 7q30 0 75 -23.5t59 -23.5q24 0 61 47l73 -48q-21 -31 -29.5 -42t-27 -30.5 t-37.5 -26.5t-42 -7q-30 0 -74 23.5t-59 23.5q-25 0 -62 -48zM206 210q0 -35 15 -55t43 -20q52 0 123 61l25 140q-46 53 -94 53q-52 0 -82 -52.5t-30 -126.5z" />
<glyph unicode="&#xe4;" horiz-adv-x="638" d="M16 189q0 155 71.5 251t185.5 96q36 0 70.5 -12t51.5 -22.5t41 -29.5l9 53h185l-93 -525h-185l9 52q-89 -63 -180 -63q-70 0 -117.5 48t-47.5 152zM205 596l24 137h144l-23 -137h-145zM206 210q0 -35 15 -55t43 -20q52 0 123 61l25 140q-46 53 -94 53q-52 0 -82 -52.5 t-30 -126.5zM403 596l23 137h143l-23 -137h-143z" />
<glyph unicode="&#xe5;" horiz-adv-x="638" d="M16 189q0 155 71.5 251t185.5 96q36 0 70.5 -12t51.5 -22.5t41 -29.5l9 53h185l-93 -525h-185l9 52q-89 -63 -180 -63q-70 0 -117.5 48t-47.5 152zM206 210q0 -35 15 -55t43 -20q52 0 123 61l25 140q-46 53 -94 53q-52 0 -82 -52.5t-30 -126.5zM271 694q0 48 34.5 82.5 t83.5 34.5q48 0 82.5 -34.5t34.5 -82.5q0 -49 -34.5 -83.5t-82.5 -34.5q-49 0 -83.5 34.5t-34.5 83.5zM355 694q0 -14 10 -24t24 -10t23.5 10t9.5 24t-10 23.5t-23 9.5q-14 0 -24 -9.5t-10 -23.5z" />
<glyph unicode="&#xe6;" horiz-adv-x="955" d="M16 189q0 155 71 251t185 96q36 0 70.5 -12t51.5 -22.5t41 -29.5l9 53h174q44 11 93 11q101 0 163.5 -43t62.5 -116q0 -44 -17.5 -75.5t-44 -50t-69 -29t-83 -13.5t-95.5 -3h-49v-1q0 -81 76 -81q66 0 191 56l54 -126q-150 -65 -281 -65q-48 0 -89 11h-178l9 53 q-90 -64 -181 -64q-70 0 -117 48t-47 152zM205 210q0 -35 15 -55t43 -20q52 0 123 61l25 141q-45 52 -93 52q-52 0 -82.5 -52.5t-30.5 -126.5zM596 301h38q128 0 128 62q0 20 -15 32t-40 12q-76 0 -111 -106z" />
<glyph unicode="&#xe7;" horiz-adv-x="525" d="M15 210q0 157 80 241.5t190 84.5q18 0 35.5 -1.5t35.5 -5t30.5 -6t30.5 -9.5t26 -9.5t27.5 -11.5t23 -10.5t23.5 -11.5l20 -10l-81 -128q-89 46 -129 46q-55 0 -88.5 -48.5t-33.5 -104.5q0 -80 73 -80q39 0 139 43l59 -141q-129 -52 -216 -58q18 -36 18 -69 q0 -56 -37.5 -83.5t-93.5 -27.5q-61 0 -99 23l50 86q20 -11 45 -11q48 0 48 39q0 21 -13 47q-75 14 -119 68t-44 148z" />
<glyph unicode="&#xe8;" horiz-adv-x="575" d="M14 215q0 141 85 231t234 90q101 0 163.5 -43t62.5 -116q0 -44 -17.5 -75.5t-44.5 -50t-69.5 -29t-83 -13.5t-95.5 -3h-49v-1q0 -81 77 -81q64 0 192 56l53 -126q-154 -65 -282 -65q-226 0 -226 226zM178 729h190l101 -143h-142zM217 301h39q60 0 93.5 16t33.5 46 q0 20 -15 32t-40 12q-40 0 -68 -30t-43 -76z" />
<glyph unicode="&#xe9;" horiz-adv-x="575" d="M14 215q0 141 85 231t234 90q101 0 163.5 -43t62.5 -116q0 -44 -17.5 -75.5t-44.5 -50t-69.5 -29t-83 -13.5t-95.5 -3h-49v-1q0 -81 77 -81q64 0 192 56l53 -126q-154 -65 -282 -65q-226 0 -226 226zM217 301h39q60 0 93.5 16t33.5 46q0 20 -15 32t-40 12q-40 0 -68 -30 t-43 -76zM235 586l149 143h208l-198 -143h-159z" />
<glyph unicode="&#xea;" horiz-adv-x="575" d="M14 215q0 141 85 231t234 90q101 0 163.5 -43t62.5 -116q0 -44 -17.5 -75.5t-44.5 -50t-69.5 -29t-83 -13.5t-95.5 -3h-49v-1q0 -81 77 -81q64 0 192 56l53 -126q-154 -65 -282 -65q-226 0 -226 226zM162 586l133 143h170l84 -143h-117l-57 67l-82 -67h-131zM217 301h39 q60 0 93.5 16t33.5 46q0 20 -15 32t-40 12q-40 0 -68 -30t-43 -76z" />
<glyph unicode="&#xeb;" horiz-adv-x="575" d="M14 215q0 141 85 231t234 90q101 0 163.5 -43t62.5 -116q0 -44 -17.5 -75.5t-44.5 -50t-69.5 -29t-83 -13.5t-95.5 -3h-49v-1q0 -81 77 -81q64 0 192 56l53 -126q-154 -65 -282 -65q-226 0 -226 226zM187 596l23 137h145l-23 -137h-145zM217 301h39q60 0 93.5 16t33.5 46 q0 20 -15 32t-40 12q-40 0 -68 -30t-43 -76zM384 596l24 137h145l-25 -137h-144z" />
<glyph unicode="&#xec;" horiz-adv-x="282" d="M-5 0l93 525h185l-93 -525h-185zM14 729h189l102 -143h-141z" />
<glyph unicode="&#xed;" horiz-adv-x="282" d="M-5 0l93 525h185l-93 -525h-185zM70 586l149 143h209l-199 -143h-159z" />
<glyph unicode="&#xee;" horiz-adv-x="282" d="M-5 0l93 525h185l-93 -525h-185zM-3 586l135 143h169l83 -143h-115l-58 67l-82 -67h-132z" />
<glyph unicode="&#xef;" horiz-adv-x="282" d="M-5 0l93 525h185l-93 -525h-185zM23 596l24 137h144l-25 -137h-143zM219 596l25 137h144l-25 -137h-144z" />
<glyph unicode="&#xf0;" horiz-adv-x="649" d="M13 220q0 110 77 183t185 73q37 0 69 -9.5t51.5 -23t33.5 -26.5t19 -23l6 -9q-13 114 -104 152l-33 -36h-145l51 55l-78 -8l4 141q44 11 106 11q45 0 95 -10l36 39h144l-73 -79q80 -46 123 -130t43 -187q0 -153 -90 -248.5t-247 -95.5q-127 0 -200 62.5t-73 168.5z M206 216q0 -87 93 -87q63 0 93.5 35t30.5 84q0 39 -22 63.5t-71 24.5q-61 0 -92.5 -35t-31.5 -85z" />
<glyph unicode="&#xf1;" horiz-adv-x="631" d="M-5 0l93 525h185l-10 -53q102 64 187 64q88 0 125 -51t20 -141l-60 -344h-186l58 324q14 70 -39 70q-62 0 -128 -55l-60 -339h-185zM180 636q21 31 29.5 42t27 30.5t37.5 26.5t42 7q30 0 74 -23.5t59 -23.5q25 0 61 47l73 -48q-21 -31 -29.5 -42t-27 -30.5t-37.5 -26.5 t-42 -7q-29 0 -73 23.5t-59 23.5q-27 0 -62 -48z" />
<glyph unicode="&#xf2;" d="M16 233q0 130 77.5 216.5t221.5 86.5q133 0 209 -64t76 -180q0 -129 -77.5 -216t-221.5 -87q-133 0 -209 64t-76 180zM187 729h190l101 -143h-141zM201 231q0 -102 95 -102q56 0 87 49t31 116q0 102 -95 102q-56 0 -87 -49t-31 -116z" />
<glyph unicode="&#xf3;" d="M16 233q0 130 77.5 216.5t221.5 86.5q133 0 209 -64t76 -180q0 -129 -77.5 -216t-221.5 -87q-133 0 -209 64t-76 180zM201 231q0 -102 95 -102q56 0 87 49t31 116q0 102 -95 102q-56 0 -87 -49t-31 -116zM245 586l149 143h207l-198 -143h-158z" />
<glyph unicode="&#xf4;" d="M16 233q0 130 77.5 216.5t221.5 86.5q133 0 209 -64t76 -180q0 -129 -77.5 -216t-221.5 -87q-133 0 -209 64t-76 180zM171 586l134 143h170l83 -143h-115l-59 67l-81 -67h-132zM201 231q0 -102 95 -102q56 0 87 49t31 116q0 102 -95 102q-56 0 -87 -49t-31 -116z" />
<glyph unicode="&#xf5;" d="M16 233q0 130 77.5 216.5t221.5 86.5q133 0 209 -64t76 -180q0 -129 -77.5 -216t-221.5 -87q-133 0 -209 64t-76 180zM175 614q2 4 12.5 23.5t14.5 25.5t14.5 21.5t18 21t19.5 14.5t25 12t29 3q28 0 76 -19.5t68 -19.5q36 0 57 39l73 -26q-2 -4 -11 -20.5t-12.5 -22.5 t-12.5 -19.5t-14.5 -19.5t-15.5 -15.5t-19 -13t-21 -7t-26 -3.5q-29 0 -76.5 19.5t-67.5 19.5q-35 0 -58 -39zM201 231q0 -102 95 -102q56 0 87 49t31 116q0 102 -95 102q-56 0 -87 -49t-31 -116z" />
<glyph unicode="&#xf6;" d="M16 233q0 130 77.5 216.5t221.5 86.5q133 0 209 -64t76 -180q0 -129 -77.5 -216t-221.5 -87q-133 0 -209 64t-76 180zM198 596l23 137h145l-24 -137h-144zM201 231q0 -102 95 -102q56 0 87 49t31 116q0 102 -95 102q-56 0 -87 -49t-31 -116zM395 596l23 137h145l-25 -137 h-143z" />
<glyph unicode="&#xf7;" horiz-adv-x="652" d="M61 265l23 137h519l-23 -137h-519zM215 133q-4 38 23.5 65.5t66.5 27.5q32 0 53.5 -19.5t24.5 -49.5q3 -38 -24 -65.5t-68 -27.5q-30 0 -51.5 19.5t-24.5 49.5zM281 512q-4 37 23.5 64.5t66.5 27.5q31 0 53 -20t24 -49q4 -37 -23.5 -65.5t-66.5 -28.5q-31 0 -53 20.5 t-24 50.5z" />
<glyph unicode="&#xf8;" horiz-adv-x="631" d="M-14 0l81 80q-50 61 -50 153q0 129 78 216t222 87q102 0 173 -40l30 29h104l-76 -75q54 -62 54 -158q0 -129 -77.5 -216t-221.5 -87q-109 0 -179 42l-32 -31h-106zM203 231q0 -11 1 -17l171 169q-23 13 -54 13q-56 0 -87 -49t-31 -116zM238 144q22 -15 60 -15q56 0 87 49 t31 116q0 8 -2 24z" />
<glyph unicode="&#xf9;" d="M22 181l61 344h185l-58 -324q-14 -70 40 -70q28 0 64 16t63 39l60 339h184l-93 -525h-184l9 53q-97 -64 -186 -64q-88 0 -124 51t-21 141zM185 729h190l101 -143h-142z" />
<glyph unicode="&#xfa;" d="M22 181l61 344h185l-58 -324q-14 -70 40 -70q28 0 64 16t63 39l60 339h184l-93 -525h-184l9 53q-97 -64 -186 -64q-88 0 -124 51t-21 141zM243 586l149 143h207l-197 -143h-159z" />
<glyph unicode="&#xfb;" d="M22 181l61 344h185l-58 -324q-14 -70 40 -70q28 0 64 16t63 39l60 339h184l-93 -525h-184l9 53q-97 -64 -186 -64q-88 0 -124 51t-21 141zM169 586l134 143h169l84 -143h-115l-59 67l-81 -67h-132z" />
<glyph unicode="&#xfc;" d="M22 181l61 344h185l-58 -324q-14 -70 40 -70q28 0 64 16t63 39l60 339h184l-93 -525h-184l9 53q-97 -64 -186 -64q-88 0 -124 51t-21 141zM195 596l24 137h144l-23 -137h-145zM392 596l24 137h145l-24 -137h-145z" />
<glyph unicode="&#xfd;" horiz-adv-x="594" d="M-6 -93q8 3 28.5 10t27.5 9.5t22.5 8.5t22.5 10t18 11t19.5 15t17.5 18l-111 536h191l43 -309l152 309h205l-290 -525q-18 -32 -24 -42.5t-25 -39t-32 -40.5t-37.5 -33.5t-49.5 -33t-60.5 -24.5t-77.5 -21zM225 586l149 143h208l-197 -143h-160z" />
<glyph unicode="&#xfe;" horiz-adv-x="635" d="M-41 -204l165 933h185l-45 -256q89 63 175 63q72 0 120.5 -48t48.5 -152q0 -155 -71 -251t-184 -96q-86 0 -164 62l-45 -255h-185zM213 187q44 -51 95 -51t81 52.5t30 126.5t-62 74q-49 0 -119 -58z" />
<glyph unicode="&#xff;" horiz-adv-x="594" d="M-6 -93q8 3 28.5 10t27.5 9.5t22.5 8.5t22.5 10t18 11t19.5 15t17.5 18l-111 536h191l43 -309l152 309h205l-290 -525q-18 -32 -24 -42.5t-25 -39t-32 -40.5t-37.5 -33.5t-49.5 -33t-60.5 -24.5t-77.5 -21zM176 596l25 137h144l-24 -137h-145zM374 596l24 137h144 l-25 -137h-143z" />
<glyph unicode="&#x152;" horiz-adv-x="1120" d="M36 302q0 44 8.5 92t34 106.5t65 103.5t108 76t155.5 31q129 0 215 -49l7 38h521l-26 -162h-329l-22 -109h268l-26 -158h-269l-22 -109h335l-27 -162h-526l1 4q-56 -16 -118 -16q-170 0 -261.5 82t-91.5 232zM234 307q0 -156 148 -156q48 0 85 24.5t56.5 63t29 77.5 t9.5 76q0 156 -148 156q-48 0 -85 -24.5t-56.5 -63t-29 -77.5t-9.5 -76z" />
<glyph unicode="&#x153;" horiz-adv-x="973" d="M16 233q0 130 77.5 216.5t221.5 86.5q133 0 209 -65q84 65 206 65q102 0 164 -43t62 -116q0 -44 -17 -75.5t-44 -50t-69.5 -29t-83 -13.5t-94.5 -3h-50v-1q0 -81 76 -81q66 0 191 56l54 -126q-154 -65 -281 -65q-106 0 -162 48q-72 -48 -175 -48q-133 0 -209 64t-76 180z M201 231q0 -102 95 -102q56 0 87 49t31 116q0 102 -95 102q-56 0 -87 -49t-31 -116zM614 301h40q59 0 92.5 16t33.5 46q0 20 -15 32t-40 12q-74 0 -111 -106z" />
<glyph unicode="&#x178;" horiz-adv-x="674" d="M62 700h204l85 -257l175 257h223l-322 -424l-48 -276h-192l49 278zM245 747l22 137h144l-23 -137h-143zM440 747l24 137h145l-24 -137h-145z" />
<glyph unicode="&#x2c6;" horiz-adv-x="308" d="M62 586l133 143h170l84 -143h-116l-58 67l-81 -67h-132z" />
<glyph unicode="&#x2dc;" horiz-adv-x="312" d="M69 636q21 31 29.5 42t27 30.5t37.5 26.5t42 7q29 0 74 -23.5t59 -23.5q25 0 62 47l72 -48q-25 -37 -38.5 -54.5t-40 -34.5t-56.5 -17t-74.5 23.5t-58.5 23.5q-27 0 -62 -48z" />
<glyph unicode="&#x2000;" horiz-adv-x="481" />
<glyph unicode="&#x2001;" horiz-adv-x="962" />
<glyph unicode="&#x2002;" horiz-adv-x="481" />
<glyph unicode="&#x2003;" horiz-adv-x="962" />
<glyph unicode="&#x2004;" horiz-adv-x="320" />
<glyph unicode="&#x2005;" horiz-adv-x="240" />
<glyph unicode="&#x2006;" horiz-adv-x="160" />
<glyph unicode="&#x2007;" horiz-adv-x="160" />
<glyph unicode="&#x2008;" horiz-adv-x="120" />
<glyph unicode="&#x2009;" horiz-adv-x="192" />
<glyph unicode="&#x200a;" horiz-adv-x="53" />
<glyph unicode="&#x2010;" horiz-adv-x="430" d="M31 211l25 147h337l-25 -147h-337z" />
<glyph unicode="&#x2011;" horiz-adv-x="430" d="M31 211l25 147h337l-25 -147h-337z" />
<glyph unicode="&#x2012;" horiz-adv-x="430" d="M31 211l25 147h337l-25 -147h-337z" />
<glyph unicode="&#x2013;" horiz-adv-x="559" d="M31 212l25 145h464l-25 -145h-464z" />
<glyph unicode="&#x2014;" horiz-adv-x="666" d="M31 212l25 145h571l-25 -145h-571z" />
<glyph unicode="&#x2018;" horiz-adv-x="273" d="M54 349l26 220l174 151l38 -60l-104 -117h82l-32 -194h-184z" />
<glyph unicode="&#x2019;" horiz-adv-x="259" d="M53 389l103 117h-82l33 194h184l-26 -220l-174 -151z" />
<glyph unicode="&#x201a;" horiz-adv-x="277" d="M-28 -116l103 116h-82l33 194h184l-26 -219l-174 -152z" />
<glyph unicode="&#x201c;" horiz-adv-x="523" d="M54 349l26 220l174 151l38 -60l-104 -117h82l-32 -194h-184zM304 349l26 220l174 151l38 -60l-103 -117h82l-33 -194h-184z" />
<glyph unicode="&#x201d;" horiz-adv-x="510" d="M53 389l103 117h-82l33 194h184l-26 -220l-174 -151zM303 389l104 117h-82l33 194h183l-25 -220l-175 -151z" />
<glyph unicode="&#x201e;" horiz-adv-x="528" d="M-28 -116l103 116h-82l33 194h184l-26 -219l-174 -152zM222 -116l104 116h-81l32 194h183l-25 -219l-175 -152z" />
<glyph unicode="&#x2022;" horiz-adv-x="478" d="M58 285q0 74 51.5 126t125.5 52t126 -52t52 -126t-52 -125.5t-126 -51.5t-125.5 51.5t-51.5 125.5z" />
<glyph unicode="&#x2026;" horiz-adv-x="811" d="M-6 0l33 194h184l-32 -194h-185zM263 0l33 194h184l-32 -194h-185zM531 0l34 194h184l-33 -194h-185z" />
<glyph unicode="&#x202f;" horiz-adv-x="192" />
<glyph unicode="&#x2039;" horiz-adv-x="373" d="M9 211l18 109l338 206l-30 -182l-164 -92l129 -90l-27 -157z" />
<glyph unicode="&#x203a;" horiz-adv-x="372" d="M-4 5l29 183l165 91l-128 90l25 157l265 -206l-18 -109z" />
<glyph unicode="&#x205f;" horiz-adv-x="240" />
<glyph unicode="&#x20ac;" horiz-adv-x="736" d="M22 233l16 93h55q1 16 5 43h-51l16 93h56q39 119 124 184t198 65q60 0 121.5 -18.5t98 -37.5t93.5 -53l-100 -136q-63 37 -106 54.5t-84 17.5q-81 0 -130 -76h194l-17 -93h-214q-6 -28 -7 -43h213l-17 -93h-193q16 -72 87 -72q69 0 210 68l79 -151q-185 -89 -336 -89 q-105 0 -168.5 62t-72.5 182h-70z" />
<glyph unicode="&#x2122;" horiz-adv-x="623" d="M109 644l8 56h219l-9 -56h-76l-29 -168h-68l30 168h-75zM322 476l39 224h71l44 -119l90 119h71l-38 -224h-69l21 125l-65 -88h-40l-34 91l-22 -128h-68z" />
<glyph unicode="&#xe000;" horiz-adv-x="525" d="M0 0v525h525v-525h-525z" />
</font>
</defs>
</svg>
