<?xml version="1.0" standalone="no"?>
<!DOCTYPE svg PUBLIC "-//W3C//DTD SVG 1.1//EN" "http://www.w3.org/Graphics/SVG/1.1/DTD/svg11.dtd" >
<svg xmlns="http://www.w3.org/2000/svg">
<metadata></metadata>
<defs>
<font id="verb_extralightitalic" horiz-adv-x="600" >
<font-face units-per-em="1000" ascent="800" descent="-200" />
<missing-glyph horiz-adv-x="289" />
<glyph unicode="&#xfb01;" horiz-adv-x="564" d="M-84 -167q48 14 72.5 24.5t40 32t21 41.5t13.5 69l85 489h-71l7 36h71l18 103q10 55 34 78t68 23t116 -24l-20 -32q-60 18 -92 18q-52 0 -64 -63l-18 -103h147l-6 -36h-147l-85 -489q-6 -36 -9.5 -52.5t-10 -39.5t-14 -33t-19.5 -23.5t-29.5 -21.5t-40.5 -16.5t-56 -17.5 zM375 0l93 525h42l-93 -525h-42zM485 648l14 78h51l-13 -78h-52z" />
<glyph unicode="&#xfb02;" horiz-adv-x="576" d="M-84 -167q48 14 72.5 24.5t40 32t21 41.5t13.5 69l85 489h-71l7 36h71l18 103q10 55 34 78t68 23t116 -24l-20 -32q-60 18 -92 18q-52 0 -64 -63l-18 -103h147l-6 -36h-147l-85 -489q-6 -36 -9.5 -52.5t-10 -39.5t-14 -33t-19.5 -23.5t-29.5 -21.5t-40.5 -16.5t-56 -17.5 zM381 0l129 729h42l-129 -729h-42z" />
<glyph unicode="&#xfb03;" horiz-adv-x="903" d="M-84 -167q48 14 72.5 24.5t40 32t21 41.5t13.5 69l85 489h-71l7 36h71l18 103q10 56 34 78.5t72 22.5q57 0 140 -30l-20 -32q-72 24 -120 24q-52 0 -64 -63l-18 -103h147l-6 -36h-147l-85 -489q-6 -36 -9.5 -52.5t-10 -39.5t-14 -33t-19.5 -23.5t-29.5 -21.5t-40.5 -16.5 t-56 -17.5zM255 -167q48 14 72.5 24.5t40 32t21 41.5t13.5 69l85 489h-71l7 36h71l18 103q10 55 34 78t68 23t116 -24l-20 -32q-60 18 -92 18q-52 0 -64 -63l-18 -103h147l-6 -36h-147l-85 -489q-6 -36 -9.5 -52.5t-10 -39.5t-14 -33t-19.5 -23.5t-29.5 -21.5t-40.5 -16.5 t-56 -17.5zM714 0l93 525h42l-93 -525h-42zM824 648l14 78h51l-13 -78h-52z" />
<glyph unicode="&#xfb04;" horiz-adv-x="915" d="M-84 -167q48 14 72.5 24.5t40 32t21 41.5t13.5 69l85 489h-71l7 36h71l18 103q10 56 34 78.5t72 22.5q57 0 140 -30l-20 -32q-72 24 -120 24q-52 0 -64 -63l-18 -103h147l-6 -36h-147l-85 -489q-6 -36 -9.5 -52.5t-10 -39.5t-14 -33t-19.5 -23.5t-29.5 -21.5t-40.5 -16.5 t-56 -17.5zM255 -167q48 14 72.5 24.5t40 32t21 41.5t13.5 69l85 489h-71l7 36h71l18 103q10 55 34 78t68 23t116 -24l-20 -32q-60 18 -92 18q-52 0 -64 -63l-18 -103h147l-6 -36h-147l-85 -489q-6 -36 -9.5 -52.5t-10 -39.5t-14 -33t-19.5 -23.5t-29.5 -21.5t-40.5 -16.5 t-56 -17.5zM720 0l129 729h42l-129 -729h-42z" />
<glyph horiz-adv-x="1000" />
<glyph horiz-adv-x="1000" />
<glyph unicode="&#xd;" horiz-adv-x="1000" />
<glyph unicode=" "  horiz-adv-x="289" />
<glyph unicode="&#x09;" horiz-adv-x="289" />
<glyph unicode="&#xa0;" horiz-adv-x="289" />
<glyph unicode="!" horiz-adv-x="254" d="M44 0l16 91h60l-15 -91h-61zM95 198l77 502h50l-99 -502h-28z" />
<glyph unicode="&#x22;" horiz-adv-x="387" d="M115 450l34 250h54l-54 -250h-34zM289 450l33 250h55l-56 -250h-32z" />
<glyph unicode="#" horiz-adv-x="752" d="M37 193l7 38h150l79 237h-145l7 38h150l65 194h41l-65 -194h220l65 194h39l-65 -194h148l-7 -38h-153l-79 -237h147l-6 -38h-153l-64 -193h-40l64 193h-219l-64 -193h-41l64 193h-145zM235 231h219l79 237h-219z" />
<glyph unicode="$" horiz-adv-x="590" d="M16 70l28 35q96 -62 184 -74l56 317q-35 14 -55 23t-46 25t-39.5 32.5t-23 41t-9.5 55.5q0 87 66.5 136.5t162.5 49.5h8l16 90h37l-17 -93q90 -11 183 -62l-27 -32q-74 41 -163 54l-51 -289q44 -17 72 -31.5t57.5 -37t43.5 -53.5t14 -71q0 -94 -73.5 -145.5t-171.5 -51.5 h-11l-15 -89h-37l16 92q-107 14 -205 78zM156 526q0 -51 30 -77t106 -57l49 279h-5q-75 0 -127.5 -38.5t-52.5 -106.5zM264 29h6q85 0 143 42t58 111q0 30 -11 53.5t-34.5 42t-46.5 30.5t-61 27z" />
<glyph unicode="%" horiz-adv-x="978" d="M88 491q0 97 54 158.5t135 61.5q77 0 120.5 -41.5t43.5 -113.5q0 -97 -53 -158.5t-135 -61.5q-77 0 -121 41.5t-44 113.5zM132 491q0 -119 123 -119q62 0 102.5 54.5t40.5 129.5q0 119 -120 119q-64 0 -105 -54.5t-41 -129.5zM230 0l490 700h47l-491 -700h-46zM555 144 q0 97 54 158.5t135 61.5q77 0 120.5 -41.5t43.5 -113.5q0 -97 -53 -158.5t-135 -61.5q-77 0 -121 41.5t-44 113.5zM599 144q0 -119 123 -119q62 0 102.5 54.5t40.5 129.5q0 119 -120 119q-64 0 -105 -54.5t-41 -129.5z" />
<glyph unicode="&#x26;" horiz-adv-x="676" d="M58 147q0 41 15 76t45.5 64.5t58.5 49.5t71 46q-33 44 -50 81.5t-17 83.5q0 81 51.5 122t115.5 41q56 0 98 -31.5t42 -95.5q0 -34 -13.5 -64t-42 -56.5t-54 -45t-66.5 -44.5l164 -206q67 87 104 201h46q-39 -131 -123 -235l107 -134h-56l-80 100q-108 -111 -237 -111 q-79 0 -129 41t-50 117zM104 149q0 -49 31 -84.5t102 -35.5q115 0 210 104l-173 218q-83 -52 -126.5 -96.5t-43.5 -105.5zM225 548q0 -70 61 -142q38 23 61 39t48 39t37 48t12 53q0 40 -25 63t-72 23q-59 0 -90.5 -34.5t-31.5 -88.5z" />
<glyph unicode="'" horiz-adv-x="214" d="M115 450l34 250h54l-54 -250h-34z" />
<glyph unicode="(" horiz-adv-x="293" d="M43 10l120 676q6 35 12.5 53.5t24 38t49 33t84.5 28.5l12 -39q-84 -24 -107.5 -46t-32.5 -77l-117 -658q-12 -64 0 -81.5t89 -42.5l-16 -38q-65 20 -93 39.5t-31 46.5t6 67z" />
<glyph unicode=")" horiz-adv-x="294" d="M-35 -104q83 24 107 46t33 77l117 658q12 64 0 81.5t-89 42.5l16 38q65 -20 92.5 -39.5t31 -46.5t-5.5 -67l-120 -676q-6 -35 -12.5 -53.5t-24 -38t-49 -33t-84.5 -28.5z" />
<glyph unicode="*" horiz-adv-x="484" d="M99 481l152 45l-126 96l30 34l115 -110l18 154l44 -8l-35 -150l145 62l15 -43l-153 -45l128 -96l-29 -33l-114 109l-19 -154l-44 7l36 152l-147 -62z" />
<glyph unicode="+" d="M57 314l7 38h223l36 202h40l-36 -202h226l-6 -38h-226l-35 -201h-40l35 201h-224z" />
<glyph unicode="," horiz-adv-x="232" d="M9 -98l54 98h-29l15 91h59l-5 -91l-77 -118z" />
<glyph unicode="-" horiz-adv-x="434" d="M81 264l7 42h260l-7 -42h-260z" />
<glyph unicode="." horiz-adv-x="231" d="M34 0l16 91h60l-15 -91h-61z" />
<glyph unicode="/" horiz-adv-x="443" d="M-35 -90l488 880h43l-488 -880h-43z" />
<glyph unicode="0" horiz-adv-x="651" d="M77 247q0 74 17.5 151.5t51 149.5t93 117.5t133.5 45.5q59 0 103 -22.5t68.5 -61t36.5 -82t12 -92.5q0 -74 -17.5 -151.5t-51 -149.5t-93 -117.5t-133.5 -45.5q-59 0 -103.5 22.5t-69 61t-36 82t-11.5 92.5zM122 242q0 -38 8 -72.5t26 -68t54 -53t86 -19.5q67 0 118.5 46 t78.5 116t40.5 138.5t13.5 128.5q0 38 -8 72.5t-26 68t-54 53t-86 19.5q-67 0 -118.5 -46t-78.5 -116t-40.5 -138.5t-13.5 -128.5z" />
<glyph unicode="1" horiz-adv-x="335" d="M89 616l169 84h37l-124 -700h-44l115 647l-136 -68z" />
<glyph unicode="2" horiz-adv-x="560" d="M9 0l8 46q4 23 11 44t14 37.5t20.5 34.5t22 29.5t28 27.5t28.5 24t34.5 24.5t35 22.5t39 24t39.5 24q47 29 77 50t62 50t47.5 60t15.5 64q-1 49 -37 79t-101 30q-54 0 -106.5 -19.5t-86.5 -42.5l-20 35q104 67 210 67q84 0 134.5 -39.5t50.5 -112.5q0 -25 -7.5 -48.5 t-17.5 -42t-31.5 -40.5t-36.5 -36t-46.5 -36t-48.5 -32.5t-55 -34t-54 -33.5q-85 -53 -125.5 -98t-53.5 -118h385l-6 -40h-429z" />
<glyph unicode="3" horiz-adv-x="576" d="M8 55l27 35q9 -9 29 -20.5t65.5 -26t93.5 -14.5q97 0 158.5 50t61.5 126q0 77 -60.5 119.5t-146.5 42.5h-31l7 42h36q85 0 155 49.5t70 114.5q0 45 -36 71.5t-96 26.5q-91 0 -180 -58l-16 35q15 11 38.5 23t70.5 26t90 14q78 0 125.5 -40t47.5 -99q0 -55 -44 -107 t-135 -81q62 -12 106 -61.5t44 -117.5q0 -90 -72 -153t-195 -63q-110 0 -213 66z" />
<glyph unicode="4" horiz-adv-x="598" d="M20 168l7 38l431 494h56l-87 -492h107l-7 -40h-107l-30 -168h-44l30 168h-356zM78 208h305l78 440z" />
<glyph unicode="5" horiz-adv-x="566" d="M20 55l25 33q12 -9 31 -20t59.5 -25t79.5 -14q86 0 156 57t70 153q0 71 -41 114t-115 43q-73 0 -160 -48l-24 11l94 332l2 9h343l-6 -40h-308l-70 -261q66 37 136 37q89 0 142 -56t53 -143q0 -104 -75 -176t-195 -72q-99 0 -197 66z" />
<glyph unicode="6" horiz-adv-x="606" d="M68 222q0 131 55 243.5t149.5 179t204.5 66.5q23 0 45.5 -3.5t33.5 -6.5l11 -3l-18 -36q-29 9 -70 9q-122 0 -217.5 -91t-132.5 -225q84 90 204 90q96 0 147.5 -58.5t51.5 -134.5q0 -105 -68.5 -184t-183.5 -79q-103 0 -157.5 69.5t-54.5 163.5zM111 224 q0 -78 43.5 -136.5t123.5 -58.5q94 0 151.5 66t57.5 157q0 61 -39 107t-114 46q-73 0 -136 -42t-84 -86q-3 -27 -3 -53z" />
<glyph unicode="7" horiz-adv-x="488" d="M96 660l7 40h424l-4 -32q-13 -13 -34.5 -37t-79.5 -99t-105.5 -150t-94 -180.5t-63.5 -201.5h-49q16 88 58 186.5t85.5 171.5t97.5 146.5t79.5 104t44.5 51.5h-366z" />
<glyph unicode="8" horiz-adv-x="616" d="M45 158q0 145 215 221q-107 47 -107 149q0 82 65 132.5t157 50.5q81 0 132 -41t51 -110q0 -126 -181 -186q151 -69 151 -181q0 -90 -82.5 -147t-191.5 -57q-91 0 -150 44t-59 125zM91 157q0 -62 44.5 -95t116.5 -33q91 0 160 46t69 117q0 100 -163 164 q-227 -69 -227 -199zM197 527q0 -28 12 -50.5t34.5 -38.5t38 -24t37.5 -17q39 12 69.5 25t61 32.5t47.5 45.5t17 57q0 48 -38.5 81t-100.5 33q-72 0 -125 -42.5t-53 -101.5z" />
<glyph unicode="9" horiz-adv-x="606" d="M56 2l18 36q29 -9 70 -9q121 0 216.5 91t133.5 225q-84 -90 -204 -90q-96 0 -147.5 58.5t-51.5 134.5q0 105 68.5 184t183.5 79q103 0 157.5 -69.5t54.5 -163.5q0 -131 -55 -243.5t-149.5 -179t-204.5 -66.5q-23 0 -45.5 3.5t-33.5 6.5zM136 448q0 -61 39 -107t114 -46 q72 0 135 41.5t85 85.5q3 27 3 54q0 78 -43.5 136.5t-123.5 58.5q-94 0 -151.5 -66t-57.5 -157z" />
<glyph unicode=":" horiz-adv-x="235" d="M34 0l16 91h60l-15 -91h-61zM97 358l16 91h61l-16 -91h-61z" />
<glyph unicode=";" horiz-adv-x="252" d="M17 -98l54 98h-29l15 91h59l-5 -91l-77 -118zM105 358l15 91h61l-15 -91h-61z" />
<glyph unicode="&#x3c;" d="M44 315l7 38l525 213l-7 -51l-470 -184l403 -184l-8 -45z" />
<glyph unicode="=" d="M41 228l7 38h489l-6 -38h-490zM72 402l5 38h490l-5 -38h-490z" />
<glyph unicode="&#x3e;" d="M35 102l7 51l470 184l-403 184l8 45l450 -213l-6 -38z" />
<glyph unicode="?" horiz-adv-x="490" d="M98 640q112 71 212 71q71 0 122 -34.5t51 -107.5q0 -83 -69 -137t-177 -80l-33 -154h-38l25 183q248 56 248 188q0 53 -35.5 77.5t-90.5 24.5q-34 0 -70 -10t-60 -21.5t-63 -32.5zM120 0l15 91h61l-16 -91h-60z" />
<glyph unicode="@" horiz-adv-x="971" d="M54 185q0 95 35.5 184t99 160t162 114t215.5 43q195 0 284.5 -119.5t55.5 -312.5q-24 -126 -82 -198.5t-148 -72.5q-106 0 -94 116q-94 -75 -183 -75q-48 0 -84 33.5t-36 83.5q0 89 50 134t119 45q21 0 47 -3.5t44 -7.5t43.5 -10t32.5 -8l12 65q10 58 -7 83.5t-75 25.5 q-61 0 -166 -45l-15 39q103 44 183 44q68 0 101.5 -33.5t20.5 -105.5l-40 -226q-5 -25 -6 -40.5t1.5 -36t17.5 -31t41 -10.5q48 0 104 55.5t79 178.5q20 115 -4.5 202t-100.5 139.5t-199 52.5q-138 0 -246 -66t-164 -171t-56 -225q0 -142 83 -234.5t225 -92.5q54 0 103 12 t71 25l22 12l22 -33q-9 -6 -27 -15t-75.5 -24t-117.5 -15q-159 0 -253.5 104t-94.5 260zM323 146q0 -84 87 -84q78 0 179 85q13 71 20 114q-6 1 -36.5 7t-57.5 10t-50 4q-74 0 -108 -41t-34 -95z" />
<glyph unicode="A" horiz-adv-x="665" d="M-15 0l395 700h49l149 -700h-45l-40 193h-350l-107 -193h-51zM165 233h320l-87 419z" />
<glyph unicode="B" horiz-adv-x="663" d="M58 0l123 700h216q95 0 148 -41.5t53 -111.5q0 -77 -51 -123t-107 -54q29 -5 57.5 -19t54 -50t25.5 -86q0 -100 -67 -157.5t-187 -57.5h-265zM109 40h222q97 0 150 51t53 125q0 63 -47.5 97.5t-122.5 34.5h-201zM170 388h191q42 0 84.5 16t75.5 54t33 89t-39.5 82 t-117.5 31h-179z" />
<glyph unicode="C" horiz-adv-x="642" d="M78 275q0 194 99.5 315t235.5 121q47 0 94 -18.5t73 -37t66 -52.5l-30 -29q-60 50 -106 73.5t-96 23.5q-119 0 -204.5 -112.5t-85.5 -284.5q0 -124 46 -184.5t119 -60.5q103 0 241 98l25 -34q-160 -104 -268 -104q-93 0 -151 69t-58 217z" />
<glyph unicode="D" horiz-adv-x="692" d="M58 0l123 700h163q131 0 210.5 -63t79.5 -193q0 -206 -114 -325t-291 -119h-171zM109 40h115q159 0 261.5 105.5t102.5 298.5q0 216 -257 216h-113z" />
<glyph unicode="E" horiz-adv-x="587" d="M58 0l123 700h408l-7 -40h-364l-51 -290h302l-7 -40h-302l-51 -290h370l-7 -40h-414z" />
<glyph unicode="F" horiz-adv-x="561" d="M58 0l123 700h408l-7 -40h-364l-51 -290h291l-6 -40h-292l-58 -330h-44z" />
<glyph unicode="G" horiz-adv-x="698" d="M78 263q0 109 29 197t76.5 141.5t105.5 81.5t120 28q120 0 245 -118l-33 -28q-118 106 -212 106q-117 0 -200.5 -112t-83.5 -287q0 -114 42.5 -178.5t119.5 -64.5q106 0 257 121l32 179h-209l7 40h253l-65 -369h-44l16 94q-139 -105 -245 -105q-93 0 -152 69t-59 205z " />
<glyph unicode="H" horiz-adv-x="701" d="M58 0l123 700h44l-55 -313h392l55 313h44l-123 -700h-44l61 347h-392l-61 -347h-44z" />
<glyph unicode="I" horiz-adv-x="265" d="M58 0l123 700h44l-123 -700h-44z" />
<glyph unicode="J" horiz-adv-x="265" d="M-76 -90q38 11 61 20.5t37.5 17.5t22 22.5t11 26t7.5 36.5l118 667h44l-118 -667q-8 -43 -13 -60.5t-22.5 -39t-48 -34.5t-87.5 -28z" />
<glyph unicode="K" horiz-adv-x="628" d="M58 0l123 700h44l-75 -428l433 428h57l-344 -340l258 -360h-51l-237 331l-128 -126l-36 -205h-44z" />
<glyph unicode="L" horiz-adv-x="533" d="M58 0l123 700h44l-117 -660h353l-6 -40h-397z" />
<glyph unicode="M" horiz-adv-x="830" d="M58 0l123 700h48l161 -532l352 532h48l-123 -700h-44l108 615l-328 -498h-37l-154 509l-110 -626h-44z" />
<glyph unicode="N" horiz-adv-x="717" d="M58 0l123 700h47l292 -640l113 640h44l-123 -700h-47l-293 640l-112 -640h-44z" />
<glyph unicode="O" horiz-adv-x="736" d="M77 278q0 58 13 117.5t40.5 116.5t67 101t96 71t122.5 27q71 0 123 -22.5t81 -63.5t43 -91t14 -112q0 -58 -13 -117.5t-41 -116.5t-67 -101t-96 -71t-123 -27q-71 0 -122.5 22.5t-81 63.5t-43 91t-13.5 112zM122 276q0 -247 215 -247q73 0 132 40t93 101.5t52 127.5 t18 126q0 247 -215 247q-73 0 -132 -40t-93 -101.5t-52 -127.5t-18 -126z" />
<glyph unicode="P" horiz-adv-x="631" d="M58 0l123 700h220q97 0 157.5 -42t60.5 -134q0 -120 -81 -178t-207 -58h-178l-51 -288h-44zM160 328h176q102 0 169.5 49t67.5 148q0 70 -46 102.5t-123 32.5h-186z" />
<glyph unicode="Q" horiz-adv-x="735" d="M77 278q0 58 13 117.5t40.5 116.5t67 101t96 71t122.5 27q71 0 123 -22.5t81 -63.5t43 -91t14 -112q0 -69 -19 -139.5t-55 -132.5t-95.5 -105.5t-132.5 -52.5l109 -107l-35 -29l-121 133q-133 3 -191.5 81.5t-59.5 207.5zM122 276q0 -247 215 -247q73 0 132 40t93 101.5 t52 127.5t18 126q0 247 -215 247q-73 0 -132 -40t-93 -101.5t-52 -127.5t-18 -126z" />
<glyph unicode="R" horiz-adv-x="671" d="M58 0l123 700h246q96 0 156.5 -40t60.5 -127q0 -101 -67 -154.5t-170 -62.5l144 -316h-47l-137 314h-210l-55 -314h-44zM164 354h203q106 0 168 46t62 133q0 65 -45.5 96t-124.5 31h-209z" />
<glyph unicode="S" horiz-adv-x="597" d="M20 70l28 35q118 -76 226 -76q85 0 143 42t58 111q0 33 -12.5 58t-41.5 44.5t-53.5 31t-70.5 29.5q-39 15 -58 23.5t-47.5 25t-42 33t-24 42t-10.5 56.5q0 87 66.5 136.5t162.5 49.5q112 0 227 -65l-27 -32q-102 57 -204 57q-75 0 -127.5 -38.5t-52.5 -106.5 q0 -29 8.5 -49t32.5 -37t46 -26.5t69 -28.5q39 -15 62 -25.5t53 -28.5t46 -36.5t28 -46.5t12 -62q0 -94 -73.5 -145.5t-171.5 -51.5q-125 0 -252 81z" />
<glyph unicode="T" horiz-adv-x="554" d="M92 660l6 40h498l-6 -40h-228l-116 -660h-44l116 660h-226z" />
<glyph unicode="U" horiz-adv-x="692" d="M94 238l81 462h45l-82 -459q-9 -60 -5 -107t42.5 -76t113.5 -29q206 0 244 212l81 459h44l-81 -462q-20 -113 -89 -181t-198 -68q-126 0 -171 67t-25 182z" />
<glyph unicode="V" horiz-adv-x="661" d="M102 700h45l134 -653l363 653h51l-395 -700h-49z" />
<glyph unicode="W" horiz-adv-x="915" d="M113 700h46l55 -649l287 649h51l52 -656l286 656h49l-314 -700h-54l-54 639l-282 -639h-54z" />
<glyph unicode="X" horiz-adv-x="597" d="M-18 0l305 346l-170 354h47l146 -319l258 319h54l-295 -354l184 -346h-49l-158 314l-266 -314h-56z" />
<glyph unicode="Y" horiz-adv-x="611" d="M95 700h46l161 -389l295 389h54l-331 -423l-48 -277h-44l49 279z" />
<glyph unicode="Z" d="M-7 0l7 38l550 622h-418l7 40h473l-1 -2h1l-6 -35l-552 -623h447l-7 -40h-501z" />
<glyph unicode="[" horiz-adv-x="327" d="M23 -144l173 983h184l-7 -40h-140l-159 -903h140l-7 -40h-184z" />
<glyph unicode="\" horiz-adv-x="428" d="M113 790h40l178 -880h-40z" />
<glyph unicode="]" horiz-adv-x="328" d="M-36 -144l7 40h140l159 903h-140l7 40h184l-173 -983h-184z" />
<glyph unicode="^" d="M101 361l250 339h44l132 -339h-46l-112 303l-215 -303h-53z" />
<glyph unicode="_" horiz-adv-x="700" d="M11 -126l6 36h527l-6 -36h-527z" />
<glyph unicode="`" horiz-adv-x="208" d="M134 729h74l103 -125h-34z" />
<glyph unicode="a" horiz-adv-x="591" d="M54 170q0 158 67.5 262t175.5 104q88 0 183 -93l15 82h42l-93 -525h-42l16 91q-106 -102 -213 -102q-63 0 -107 44t-44 137zM98 174q0 -69 27 -108t79 -39q59 0 111 30.5t112 84.5l46 260q-88 96 -173 96q-61 0 -108 -48t-70.5 -121t-23.5 -155z" />
<glyph unicode="b" horiz-adv-x="588" d="M41 0l129 729h42l-49 -277q99 84 191 84q71 0 120 -44t49 -137q0 -159 -65 -262.5t-169 -103.5q-95 0 -192 92l-14 -81h-42zM104 122q91 -95 182 -95q86 0 139.5 98t53.5 226q0 70 -31 108.5t-92 38.5q-52 0 -99 -25t-103 -71z" />
<glyph unicode="c" horiz-adv-x="516" d="M53 207q0 149 79.5 239t180.5 90q83 0 186 -77l-28 -28l-11 8q-11 8 -17 12t-19 12.5t-24 13t-25.5 10.5t-29 8.5t-29.5 2.5q-86 0 -152.5 -81.5t-66.5 -205.5q0 -87 35 -135.5t100 -48.5q20 0 42 5t44 15t36.5 17t33.5 18t21 12l22 -35l-23 -12q-23 -12 -31 -16 t-31.5 -14.5t-38.5 -15t-37 -8.5t-41 -4q-79 0 -127.5 59t-48.5 159z" />
<glyph unicode="d" horiz-adv-x="591" d="M54 170q0 158 67.5 262t175.5 104q88 0 183 -93l51 286h42l-129 -729h-42l16 91q-106 -102 -213 -102q-63 0 -107 44t-44 137zM98 174q0 -69 27 -108t79 -39q59 0 111 30.5t112 84.5l46 260q-88 96 -173 96q-61 0 -108 -48t-70.5 -121t-23.5 -155z" />
<glyph unicode="e" horiz-adv-x="551" d="M53 217q0 139 79.5 229t204.5 90q78 0 120.5 -37t42.5 -93q0 -81 -83.5 -127t-255.5 -46h-64v-17q0 -90 37.5 -139.5t105.5 -49.5q15 0 31 2.5t29.5 6t30 10.5t26.5 11.5t26 13t21.5 12t19 12t14.5 8.5l23 -34q-2 -1 -16 -9t-20.5 -11.5t-21.5 -11.5t-24.5 -12t-24.5 -11 t-28 -10.5t-28 -7.5t-29.5 -5.5t-29.5 -1.5q-85 0 -135.5 59.5t-50.5 168.5zM101 271h67q145 0 216 36.5t71 101.5q0 42 -34 65.5t-87 23.5q-88 0 -153 -62.5t-80 -164.5z" />
<glyph unicode="f" horiz-adv-x="334" d="M-84 -167q48 14 72.5 24.5t40 32t21 41.5t13.5 69l85 489h-71l7 36h71l18 103q10 56 34 78.5t72 22.5q57 0 140 -30l-20 -32q-72 24 -120 24q-52 0 -64 -63l-18 -103h147l-6 -36h-147l-85 -489q-6 -36 -9.5 -52.5t-10 -39.5t-14 -33t-19.5 -23.5t-29.5 -21.5t-40.5 -16.5 t-56 -17.5z" />
<glyph unicode="g" horiz-adv-x="590" d="M8 -179l16 40q121 -37 204 -37q77 0 116.5 39t48.5 89l24 138q-105 -101 -212 -101q-63 0 -107 44t-44 137q0 158 67.5 262t175.5 104q89 0 182 -93l15 82h42l-101 -575q-29 -164 -210 -164q-100 0 -217 35zM98 174q0 -69 27 -108t79 -39q59 0 110.5 30t111.5 85l46 261 q-87 95 -172 95q-61 0 -108 -48t-70.5 -121t-23.5 -155z" />
<glyph unicode="h" horiz-adv-x="590" d="M41 0l129 729h42l-50 -282q43 31 108 60t124 29q74 0 103.5 -44t16.5 -115l-66 -377h-42l66 373q22 125 -81 125q-56 0 -124.5 -32.5t-113.5 -66.5l-70 -399h-42z" />
<glyph unicode="i" horiz-adv-x="230" d="M41 0l93 525h42l-93 -525h-42zM151 648l14 78h51l-13 -78h-52z" />
<glyph unicode="j" horiz-adv-x="230" d="M-107 -167q47 13 72 23.5t39.5 26.5t19 30t9.5 45l101 567h42l-101 -567q-8 -43 -13 -60.5t-22.5 -39t-48 -34.5t-87.5 -28zM151 648l14 78h51l-13 -78h-52z" />
<glyph unicode="k" horiz-adv-x="492" d="M41 0l129 729h42l-91 -513l304 309h52l-215 -214l154 -311h-43l-141 281l-121 -121l-28 -160h-42z" />
<glyph unicode="l" horiz-adv-x="242" d="M47 0l129 729h42l-129 -729h-42z" />
<glyph unicode="m" horiz-adv-x="904" d="M41 0l93 525h42l-15 -83q115 94 208 94q59 0 89 -29.5t33 -74.5q116 104 218 104q76 0 103.5 -45t15.5 -114l-66 -377h-43l67 373q10 55 -7.5 90t-70.5 35q-94 0 -220 -113l-67 -385h-42l67 373q10 55 -7.5 90t-71.5 35q-92 0 -215 -110l-69 -388h-42z" />
<glyph unicode="n" horiz-adv-x="590" d="M41 0l93 525h42l-14 -78q43 31 108 60t124 29q74 0 103.5 -44t16.5 -115l-66 -377h-42l66 373q22 125 -81 125q-56 0 -124.5 -32.5t-113.5 -66.5l-70 -399h-42z" />
<glyph unicode="o" horiz-adv-x="596" d="M53 211q0 138 73.5 231.5t185.5 93.5q104 0 160.5 -59t56.5 -163q0 -138 -73.5 -231.5t-185.5 -93.5q-104 0 -160.5 59t-56.5 163zM96 211q0 -84 42 -134t132 -50q97 0 156.5 85.5t59.5 201.5q0 84 -42 134t-132 50q-97 0 -156.5 -85.5t-59.5 -201.5z" />
<glyph unicode="p" horiz-adv-x="588" d="M5 -204l129 729h42l-13 -73q99 84 191 84q71 0 120 -44t49 -137q0 -159 -65 -262.5t-169 -103.5q-94 0 -192 91l-50 -284h-42zM105 123q90 -96 181 -96q87 0 140 98t53 226q0 70 -31 108.5t-92 38.5q-52 0 -99 -25t-103 -71z" />
<glyph unicode="q" horiz-adv-x="591" d="M54 170q0 158 67.5 262t175.5 104q88 0 183 -93l15 82h42l-129 -729h-42l52 295q-106 -102 -213 -102q-63 0 -107 44t-44 137zM98 174q0 -69 27 -108t79 -39q59 0 111 30.5t112 84.5l46 260q-88 96 -173 96q-61 0 -108 -48t-70.5 -121t-23.5 -155z" />
<glyph unicode="r" horiz-adv-x="363" d="M41 0l93 525h42l-21 -114q5 9 12.5 19t28.5 31t44.5 36t60 26t75.5 8l-8 -41q-47 0 -87.5 -17t-65 -41t-42.5 -48t-25 -41l-7 -17l-58 -326h-42z" />
<glyph unicode="s" horiz-adv-x="499" d="M13 54l28 31q97 -58 178 -58q60 0 106.5 29.5t46.5 82.5q0 24 -10 41.5t-29 29t-40.5 20t-51.5 18.5q-7 2 -10 3q-35 11 -54.5 19.5t-44.5 25t-37 40.5t-12 56q0 68 54 106t130 38q98 0 187 -55l-25 -31q-84 48 -162 48q-59 0 -100.5 -28t-41.5 -76q0 -11 2 -20.5 t7.5 -18t10 -14.5t15 -12.5t15.5 -10t19 -9t18.5 -7t20.5 -7t19 -6.5q88 -30 125.5 -60t37.5 -88q0 -74 -57 -113t-138 -39q-101 0 -207 65z" />
<glyph unicode="t" horiz-adv-x="348" d="M69 489l7 36h72l24 132l45 20l-27 -152h145l-7 -36h-145l-71 -403q-10 -59 42 -59q35 0 114 31l13 -36q-20 -9 -61.5 -21t-64.5 -12q-42 0 -68 23.5t-15 83.5l70 393h-73z" />
<glyph unicode="u" horiz-adv-x="590" d="M63 148l66 377h42l-66 -373q-22 -125 81 -125q56 0 124.5 32.5t112.5 66.5l71 399h42l-93 -525h-42l13 77q-43 -31 -107.5 -59.5t-123.5 -28.5q-74 0 -103.5 44t-16.5 115z" />
<glyph unicode="v" horiz-adv-x="534" d="M75 525h44l99 -477l268 477h50l-303 -525h-43z" />
<glyph unicode="w" horiz-adv-x="789" d="M80 525h44l59 -475l226 475h47l54 -478l228 478h47l-257 -525h-46l-56 473l-228 -473h-46z" />
<glyph unicode="x" horiz-adv-x="552" d="M-23 0l271 265l-167 260h49l141 -229l222 229h60l-260 -260l178 -265h-50l-151 234l-232 -234h-61z" />
<glyph unicode="y" horiz-adv-x="536" d="M-12 -164q87 27 122.5 57.5t80.5 109.5l-116 522h44l101 -471l269 471h48l-303 -525q-56 -96 -79 -121q-39 -43 -129 -75q-12 -4 -26 -8z" />
<glyph unicode="z" horiz-adv-x="481" d="M-5 0l7 39l408 448h-319l7 38h371l-6 -39l-408 -448h328l-7 -38h-381z" />
<glyph unicode="{" horiz-adv-x="390" d="M43 319l10 58q33 0 57.5 13t37.5 34t19 41.5t6 40.5l3 93q4 116 61.5 178t190.5 62h18l-7 -40h-18q-103 0 -147.5 -50.5t-50.5 -136.5l-4 -99q-6 -142 -118 -167q102 -31 63 -163l-30 -99q-13 -43 -16 -72.5t6.5 -58t43.5 -42.5t93 -14h18l-6 -40h-19q-240 0 -166 240 l29 93q40 129 -74 129z" />
<glyph unicode="|" horiz-adv-x="243" d="M27 -123l166 941h39l-166 -941h-39z" />
<glyph unicode="}" horiz-adv-x="389" d="M-39 -143l7 40h18q186 0 197 187l4 99q6 141 119 166q-103 33 -63 164l30 99q10 34 14 58.5t1 50.5t-18 42t-46 26t-78 10h-19l7 40h18q240 0 166 -240l-29 -93q-22 -72 0 -100.5t76 -28.5l-10 -58q-33 0 -58 -13t-38 -34t-19 -41.5t-7 -40.5l-3 -93 q-4 -117 -61.5 -178.5t-189.5 -61.5h-18z" />
<glyph unicode="~" d="M31 236q65 95 155 95q51 0 120 -37t107 -37q57 0 108 70l38 -17q-65 -95 -155 -95q-52 0 -120.5 37t-106.5 37q-56 0 -107 -70z" />
<glyph unicode="&#xa1;" horiz-adv-x="256" d="M50 0l99 502h29l-78 -502h-50zM152 609l16 91h61l-16 -91h-61z" />
<glyph unicode="&#xa2;" horiz-adv-x="554" d="M77 295q0 148 79 238t180 91l14 76h39l-14 -79q12 -2 23.5 -5.5t22.5 -8t20.5 -8.5t20 -10.5t17.5 -10.5t16.5 -11t14 -10t13 -10t10.5 -8l-28 -28q-78 62 -137 72l-81 -465q15 3 32.5 8.5t31 11.5t30.5 14.5t25 13.5t22 13t15 9l22 -35q-2 -1 -21.5 -12t-28 -15.5 t-29 -14.5t-35 -15t-34 -10.5t-37.5 -7.5l-14 -78h-39l13 77q-74 5 -118.5 63.5t-44.5 154.5zM121 299q0 -85 32.5 -133t93.5 -51l83 471q-83 -5 -146 -86.5t-63 -200.5z" />
<glyph unicode="&#xa3;" horiz-adv-x="538" d="M18 0l6 35q6 4 15.5 12t34.5 33t45.5 50.5t40.5 62.5t27 72h-111l7 40h108q-1 41 -29 106.5t-28 107.5q0 85 58.5 138.5t152.5 53.5q12 0 25 -1.5t23 -3t22.5 -5t20.5 -6t20.5 -8t18.5 -7.5t18.5 -9t16 -9t16 -9t14.5 -8l-28 -32q-104 58 -170 58q-74 0 -119.5 -45 t-45.5 -105q0 -45 28 -109t29 -107h166l-7 -40h-162q-3 -19 -9 -37t-14.5 -35t-16.5 -31.5t-20 -29.5l-20 -25t-21 -22.5t-18.5 -18t-16.5 -15.5t-12 -11h336l-6 -40h-395z" />
<glyph unicode="&#xa5;" horiz-adv-x="636" d="M75 183l7 38h199l11 58l-12 26h-183l6 38h161l-154 357h46l161 -387h1l295 387h53l-279 -357h161l-7 -38h-184l-22 -29l-10 -55h202l-8 -38h-200l-32 -183h-44l32 183h-200z" />
<glyph unicode="&#xa6;" horiz-adv-x="245" d="M28 -123l73 413h39l-73 -413h-39zM121 405l73 413h39l-73 -413h-39z" />
<glyph unicode="&#xa7;" horiz-adv-x="535" d="M34 -17l25 31q86 -48 163 -48q60 0 101 28t41 76q0 10 -2.5 19t-5 16t-9 14t-10.5 11.5t-14.5 10t-15 8.5t-17.5 7.5t-17 6t-18.5 6.5t-17.5 6q-86 29 -125 60t-39 85q0 55 37.5 89t98.5 46q-73 37 -73 112q0 68 54.5 106t130.5 38q98 0 187 -55l-25 -31q-86 48 -162 48 q-60 0 -101.5 -28t-41.5 -76q0 -11 2 -20.5t8 -18t9.5 -14.5t15 -12.5t15.5 -9.5t19 -9t18.5 -7.5t21 -7t19.5 -6.5q85 -29 123.5 -59.5t38.5 -85.5t-37.5 -89t-97.5 -46q73 -39 73 -112q0 -68 -54.5 -106t-129.5 -38q-96 0 -188 55zM116 324q0 -19 8 -34.5t18.5 -25.5 t33 -20.5t37 -15.5t45.5 -15l18 -6q61 2 105 30t44 78q0 19 -8 34.5t-18 25.5t-32 20.5t-37 15.5l-45 15l-18 6q-62 -2 -106.5 -30t-44.5 -78z" />
<glyph unicode="&#xa8;" horiz-adv-x="226" d="M112 614l14 78h60l-13 -78h-61zM271 614l14 78h59l-15 -78h-58z" />
<glyph unicode="&#xa9;" horiz-adv-x="857" d="M81 313q0 167 102.5 282.5t279.5 115.5q152 0 241 -89.5t89 -234.5q0 -108 -43 -197t-132 -145t-208 -56q-151 0 -240 90t-89 234zM120 314q0 -127 78.5 -207t215.5 -80q156 0 248 103.5t92 255.5q0 127 -78.5 207t-215.5 80q-156 0 -248 -103.5t-92 -255.5zM252 302 q-5 122 54.5 193.5t147.5 71.5q78 0 160 -67l-32 -33q-67 56 -129 56q-66 0 -110 -62t-40 -155q2 -60 27 -94.5t67 -34.5q71 0 149 54l26 -37q-93 -62 -173 -62q-62 0 -103 44.5t-44 125.5z" />
<glyph unicode="&#xaa;" horiz-adv-x="439" d="M107 491q0 94 42.5 155t109.5 61q56 0 115 -54l8 47h39l-55 -315h-40l9 51q-67 -58 -130 -58q-41 0 -69.5 27.5t-28.5 85.5zM148 494q0 -38 16 -60.5t46 -22.5q58 0 132 64l26 145q-54 54 -103 54q-53 0 -85 -54t-32 -126z" />
<glyph unicode="&#xab;" horiz-adv-x="681" d="M36 269l6 32l342 228l-9 -53l-290 -196l221 -194l-7 -45zM304 269l6 32l343 228l-10 -53l-290 -196l220 -194l-6 -45z" />
<glyph unicode="&#xac;" d="M20 314l7 38h563l-46 -262h-44l39 224h-519z" />
<glyph unicode="&#xad;" horiz-adv-x="434" d="M81 264l7 42h260l-7 -42h-260z" />
<glyph unicode="&#xae;" horiz-adv-x="533" d="M103 480q0 92 56.5 156t155.5 64q84 0 133 -49.5t49 -130.5q0 -92 -56.5 -156t-154.5 -64q-84 0 -133.5 49.5t-49.5 130.5zM137 481q0 -65 40.5 -106.5t110.5 -41.5q81 0 129 53.5t48 132.5q0 65 -41 106.5t-112 41.5q-81 0 -128 -53.5t-47 -132.5zM210 402l35 201h89 q28 0 44.5 -15t16.5 -37q0 -24 -17 -41t-45 -22l33 -86h-34l-31 85h-43l-15 -85h-33zM263 518h52q22 0 34.5 9.5t12.5 23.5q0 22 -29 22h-60z" />
<glyph unicode="&#xaf;" horiz-adv-x="285" d="M115 629l6 36h280l-6 -36h-280z" />
<glyph unicode="&#xb0;" horiz-adv-x="449" d="M105 540q0 66 47 113t113 47t113 -47t47 -113t-47 -113t-113 -47t-113 47t-47 113zM140 540q0 -52 36.5 -88.5t88.5 -36.5t88.5 36.5t36.5 88.5t-36.5 88.5t-88.5 36.5t-88.5 -36.5t-36.5 -88.5z" />
<glyph unicode="&#xb1;" d="M1 0l7 38h489l-6 -38h-490zM55 307l7 38h223l31 177h40l-31 -177h226l-6 -38h-227l-31 -178h-40l31 178h-223z" />
<glyph unicode="&#xb2;" horiz-adv-x="379" d="M61 385l5 31q3 17 9 33t11 27t19 24.5t19.5 19.5t25.5 19t25.5 16.5t30.5 18t30 17.5q41 24 63.5 39.5t41.5 39.5t19 48q-2 26 -23 42.5t-59 16.5q-63 0 -121 -38l-17 30q69 43 140 43q55 0 88 -25.5t33 -70.5q0 -13 -3 -25.5t-10.5 -24t-13.5 -21t-20.5 -21t-22.5 -18 t-26.5 -18.5t-27 -16.5t-30.5 -17.5t-29 -17q-52 -31 -75.5 -54.5t-31.5 -62.5h238l-6 -35h-282z" />
<glyph unicode="&#xb3;" horiz-adv-x="386" d="M60 422l22 29q57 -38 122 -38q56 0 91.5 27.5t35.5 68.5q0 43 -37 66t-90 23h-19l4 36h24q51 0 93 26t42 62q0 25 -21.5 40t-56.5 15q-53 0 -113 -35l-15 30q65 40 134 40q52 0 83 -24.5t31 -61.5q0 -33 -27 -63.5t-81 -47.5q38 -8 64.5 -37.5t26.5 -69.5 q0 -54 -44.5 -92t-123.5 -38q-72 0 -145 44z" />
<glyph unicode="&#xb4;" horiz-adv-x="208" d="M111 604l135 125h86l-181 -125h-40z" />
<glyph unicode="&#xb5;" horiz-adv-x="590" d="M12 -204l129 729h42l-67 -380q-18 -118 82 -118q56 0 124.5 32.5t112.5 66.5l71 399h42l-93 -525h-42l13 77q-43 -31 -107.5 -59.5t-123.5 -28.5q-67 0 -100 39l-41 -232h-42z" />
<glyph unicode="&#xb6;" horiz-adv-x="591" d="M74 466q0 106 73 170t197 64h40l-156 -885h-43l87 485q-95 0 -146.5 43.5t-51.5 122.5zM356 -186l156 886h42l-156 -886h-42z" />
<glyph unicode="&#xb7;" horiz-adv-x="235" d="M76 239l16 91h60l-15 -91h-61z" />
<glyph unicode="&#xb8;" horiz-adv-x="164" d="M-25 -147l19 33q26 -13 55 -13q28 0 47 15.5t19 46.5q0 14 -4 31t-8 26l-4 10h25q28 -35 28 -78q0 -39 -27 -63.5t-76 -24.5q-40 0 -74 17z" />
<glyph unicode="&#xb9;" horiz-adv-x="236" d="M106 752l111 53h36l-74 -420h-42l68 376l-84 -40z" />
<glyph unicode="&#xba;" horiz-adv-x="439" d="M106 514q0 82 47 137.5t120 55.5q68 0 105 -36t37 -100q0 -82 -47 -137.5t-120 -55.5q-68 0 -105 36t-37 100zM145 513q0 -47 25 -74.5t78 -27.5q58 0 93 48t35 113q0 47 -25 74.5t-78 27.5q-58 0 -93 -48t-35 -113z" />
<glyph unicode="&#xbb;" horiz-adv-x="680" d="M21 41l10 53l290 196l-221 194l7 45l262 -228l-5 -32zM289 41l10 53l289 195l-220 195l7 45l262 -228l-5 -32z" />
<glyph unicode="&#xbc;" horiz-adv-x="761" d="M94 0l456 700h45l-456 -700h-45zM95 647l111 53h36l-74 -420h-42l68 376l-84 -40zM348 97l4 31l266 292h53l-52 -289h68l-5 -34h-69l-17 -97h-41l17 97h-224zM399 131h179l45 248z" />
<glyph unicode="&#xbd;" horiz-adv-x="797" d="M94 0l456 700h45l-456 -700h-45zM95 647l111 53h36l-74 -420h-42l68 376l-84 -40zM402 0l5 31q2 15 6 28.5t12 26t13.5 21.5t18 20t18.5 16.5t23.5 16.5t23.5 14.5t27 16t27 15.5q40 24 62.5 39t42 39t19.5 47q0 28 -21.5 44.5t-60.5 16.5q-63 0 -121 -38l-17 30 q69 43 139 43q56 0 89 -25.5t33 -70.5q0 -13 -3 -25.5t-10.5 -24t-13.5 -21t-20.5 -21t-22.5 -18t-26.5 -18.5t-27 -16.5t-30.5 -17.5t-29 -17q-53 -31 -76.5 -55t-30.5 -62h238l-6 -35h-281z" />
<glyph unicode="&#xbe;" horiz-adv-x="889" d="M54 317l22 29q57 -38 122 -38q56 0 91.5 27.5t35.5 68.5q0 43 -37.5 66t-89.5 23h-19l4 36h24q51 0 93 26t42 62q0 25 -21 40t-57 15q-53 0 -113 -35l-15 30q65 40 134 40q52 0 83 -24.5t31 -61.5q0 -33 -27 -63.5t-81 -47.5q38 -8 64.5 -37.5t26.5 -69.5 q0 -54 -44.5 -92t-123.5 -38q-72 0 -145 44zM223 0l456 700h45l-456 -700h-45zM476 97l4 31l266 292h53l-52 -289h68l-5 -34h-69l-17 -97h-41l17 97h-224zM527 131h179l45 248z" />
<glyph unicode="&#xbf;" horiz-adv-x="488" d="M24 131q0 83 69.5 137t177.5 80l33 154h38l-26 -183q-248 -56 -248 -188q0 -53 36 -77.5t91 -24.5q48 0 91.5 16.5t100.5 47.5l22 -33q-112 -71 -213 -71q-70 0 -121 34.5t-51 107.5zM311 609l16 91h61l-16 -91h-61z" />
<glyph unicode="&#xc0;" horiz-adv-x="665" d="M-15 0l395 700h49l149 -700h-45l-40 193h-350l-107 -193h-51zM165 233h320l-87 419zM301 880h73l103 -125h-34z" />
<glyph unicode="&#xc1;" horiz-adv-x="665" d="M-15 0l395 700h49l149 -700h-45l-40 193h-350l-107 -193h-51zM165 233h320l-87 419zM352 755l135 125h86l-181 -125h-40z" />
<glyph unicode="&#xc2;" horiz-adv-x="665" d="M-15 0l395 700h49l149 -700h-45l-40 193h-350l-107 -193h-51zM165 233h320l-87 419zM288 755l115 125h67l73 -125h-34l-75 93l-108 -93h-38z" />
<glyph unicode="&#xc3;" horiz-adv-x="665" d="M-15 0l395 700h49l149 -700h-45l-40 193h-350l-107 -193h-51zM165 233h320l-87 419zM285 786q24 36 42 50.5t43 14.5q28 0 61.5 -24.5t48.5 -24.5q23 0 56 46l29 -18q-24 -36 -42 -50.5t-43 -14.5q-28 0 -61.5 24.5t-48.5 24.5q-13 0 -24.5 -8.5t-31.5 -36.5z" />
<glyph unicode="&#xc4;" horiz-adv-x="665" d="M-15 0l395 700h49l149 -700h-45l-40 193h-350l-107 -193h-51zM165 233h320l-87 419zM307 765l14 78h60l-14 -78h-60zM466 765l14 78h59l-14 -78h-59z" />
<glyph unicode="&#xc5;" horiz-adv-x="665" d="M-15 0l395 700h49l149 -700h-45l-40 193h-350l-107 -193h-51zM165 233h320l-87 419zM332 843q0 41 28.5 70t69.5 29t70 -29t29 -70t-29 -69.5t-70 -28.5t-69.5 28.5t-28.5 69.5zM365 843q0 -28 18.5 -46.5t46.5 -18.5t47 18.5t19 46.5t-19 47t-47 19t-46.5 -19t-18.5 -47 z" />
<glyph unicode="&#xc6;" horiz-adv-x="962" d="M-50 0l605 700h409l-7 -40h-364l-51 -290h303l-8 -40h-302l-52 -290h371l-7 -40h-414l34 193h-293l-164 -193h-60zM208 233h266l69 395z" />
<glyph unicode="&#xc7;" horiz-adv-x="644" d="M79 275q0 194 99.5 315t235.5 121q47 0 94 -18.5t73 -37t66 -52.5l-30 -29q-60 50 -106 73.5t-96 23.5q-119 0 -204.5 -112.5t-85.5 -284.5q0 -124 46 -184.5t119 -60.5q103 0 241 98l25 -34q-146 -95 -247 -103q21 -30 21 -66q0 -39 -27 -63.5t-76 -24.5q-42 0 -74 17 l19 33q26 -13 54 -13t47.5 15.5t19.5 46.5q0 18 -11 54q-91 2 -147 71t-56 215z" />
<glyph unicode="&#xc8;" horiz-adv-x="587" d="M58 0l123 700h408l-7 -40h-364l-51 -290h302l-7 -40h-302l-51 -290h370l-7 -40h-414zM283 880h74l104 -125h-35z" />
<glyph unicode="&#xc9;" horiz-adv-x="587" d="M58 0l123 700h408l-7 -40h-364l-51 -290h302l-7 -40h-302l-51 -290h370l-7 -40h-414zM336 755l135 125h84l-179 -125h-40z" />
<glyph unicode="&#xca;" horiz-adv-x="587" d="M58 0l123 700h408l-7 -40h-364l-51 -290h302l-7 -40h-302l-51 -290h370l-7 -40h-414zM270 755l117 125h65l73 -125h-33l-76 93l-106 -93h-40z" />
<glyph unicode="&#xcb;" horiz-adv-x="587" d="M58 0l123 700h408l-7 -40h-364l-51 -290h302l-7 -40h-302l-51 -290h370l-7 -40h-414zM291 765l14 78h61l-14 -78h-61zM450 765l14 78h60l-14 -78h-60z" />
<glyph unicode="&#xcc;" horiz-adv-x="265" d="M58 0l123 700h44l-123 -700h-44zM99 880h74l104 -125h-35z" />
<glyph unicode="&#xcd;" horiz-adv-x="265" d="M58 0l123 700h44l-123 -700h-44zM151 755l135 125h85l-180 -125h-40z" />
<glyph unicode="&#xce;" horiz-adv-x="265" d="M58 0l123 700h44l-123 -700h-44zM86 755l116 125h66l73 -125h-34l-75 93l-106 -93h-40z" />
<glyph unicode="&#xcf;" horiz-adv-x="265" d="M58 0l123 700h44l-123 -700h-44zM106 765l14 78h60l-14 -78h-60zM265 765l14 78h59l-14 -78h-59z" />
<glyph unicode="&#xd0;" horiz-adv-x="694" d="M44 329l7 42h74l58 329h163q131 0 210.5 -63t79.5 -193q0 -206 -114 -325t-291 -119h-171l58 329h-74zM111 40h115q159 0 261.5 105.5t102.5 298.5q0 216 -257 216h-113l-51 -289h182l-7 -42h-183z" />
<glyph unicode="&#xd1;" horiz-adv-x="717" d="M58 0l123 700h47l292 -640l113 640h44l-123 -700h-47l-293 640l-112 -640h-44zM315 786q24 36 42 50.5t43 14.5q28 0 61.5 -24.5t48.5 -24.5q23 0 56 46l29 -18q-24 -36 -42 -50.5t-43 -14.5q-28 0 -61.5 24.5t-48.5 24.5q-13 0 -24.5 -8.5t-31.5 -36.5z" />
<glyph unicode="&#xd2;" horiz-adv-x="736" d="M77 278q0 58 13 117.5t40.5 116.5t67 101t96 71t122.5 27q71 0 123 -22.5t81 -63.5t43 -91t14 -112q0 -58 -13 -117.5t-41 -116.5t-67 -101t-96 -71t-123 -27q-71 0 -122.5 22.5t-81 63.5t-43 91t-13.5 112zM122 276q0 -247 215 -247q73 0 132 40t93 101.5t52 127.5 t18 126q0 247 -215 247q-73 0 -132 -40t-93 -101.5t-52 -127.5t-18 -126zM335 880h73l103 -125h-34z" />
<glyph unicode="&#xd3;" horiz-adv-x="736" d="M77 278q0 58 13 117.5t40.5 116.5t67 101t96 71t122.5 27q71 0 123 -22.5t81 -63.5t43 -91t14 -112q0 -58 -13 -117.5t-41 -116.5t-67 -101t-96 -71t-123 -27q-71 0 -122.5 22.5t-81 63.5t-43 91t-13.5 112zM122 276q0 -247 215 -247q73 0 132 40t93 101.5t52 127.5 t18 126q0 247 -215 247q-73 0 -132 -40t-93 -101.5t-52 -127.5t-18 -126zM386 755l135 125h86l-180 -125h-41z" />
<glyph unicode="&#xd4;" horiz-adv-x="736" d="M77 278q0 58 13 117.5t40.5 116.5t67 101t96 71t122.5 27q71 0 123 -22.5t81 -63.5t43 -91t14 -112q0 -58 -13 -117.5t-41 -116.5t-67 -101t-96 -71t-123 -27q-71 0 -122.5 22.5t-81 63.5t-43 91t-13.5 112zM122 276q0 -247 215 -247q73 0 132 40t93 101.5t52 127.5 t18 126q0 247 -215 247q-73 0 -132 -40t-93 -101.5t-52 -127.5t-18 -126zM322 755l115 125h67l73 -125h-34l-75 93l-106 -93h-40z" />
<glyph unicode="&#xd5;" horiz-adv-x="736" d="M77 278q0 58 13 117.5t40.5 116.5t67 101t96 71t122.5 27q71 0 123 -22.5t81 -63.5t43 -91t14 -112q0 -58 -13 -117.5t-41 -116.5t-67 -101t-96 -71t-123 -27q-71 0 -122.5 22.5t-81 63.5t-43 91t-13.5 112zM122 276q0 -247 215 -247q73 0 132 40t93 101.5t52 127.5 t18 126q0 247 -215 247q-73 0 -132 -40t-93 -101.5t-52 -127.5t-18 -126zM317 786q24 36 42 50.5t43 14.5q28 0 61.5 -24.5t48.5 -24.5q23 0 56 46l29 -18q-24 -36 -42 -50.5t-43 -14.5q-28 0 -61.5 24.5t-48.5 24.5q-13 0 -24.5 -8.5t-31.5 -36.5z" />
<glyph unicode="&#xd6;" horiz-adv-x="736" d="M77 278q0 58 13 117.5t40.5 116.5t67 101t96 71t122.5 27q71 0 123 -22.5t81 -63.5t43 -91t14 -112q0 -58 -13 -117.5t-41 -116.5t-67 -101t-96 -71t-123 -27q-71 0 -122.5 22.5t-81 63.5t-43 91t-13.5 112zM122 276q0 -247 215 -247q73 0 132 40t93 101.5t52 127.5 t18 126q0 247 -215 247q-73 0 -132 -40t-93 -101.5t-52 -127.5t-18 -126zM341 765l14 78h59l-14 -78h-59zM499 765l13 78h60l-14 -78h-59z" />
<glyph unicode="&#xd7;" d="M94 193l183 142l-134 144l29 24l134 -145l187 145l24 -28l-185 -144l133 -142l-29 -24l-134 143l-184 -143z" />
<glyph unicode="&#xd8;" horiz-adv-x="735" d="M38 0l82 92q-44 72 -44 186q0 58 13 117.5t40.5 116.5t67 101t96 71t122.5 27q126 0 192 -72l55 61h50l-82 -92q44 -69 46 -186q0 -58 -13 -117.5t-41 -116.5t-67 -101t-96 -71t-123 -27q-128 0 -193 73l-55 -62h-50zM121 276q0 -92 29 -150l429 481q-54 64 -163 64 q-73 0 -132 -40t-93 -101.5t-52 -127.5t-18 -126zM171 94q53 -65 165 -65q73 0 132 40t93 101.5t52 127.5t18 126q0 93 -31 151z" />
<glyph unicode="&#xd9;" horiz-adv-x="692" d="M94 238l81 462h45l-82 -459q-9 -60 -5 -107t42.5 -76t113.5 -29q206 0 244 212l81 459h44l-81 -462q-20 -113 -89 -181t-198 -68q-126 0 -171 67t-25 182zM313 880h74l103 -125h-34z" />
<glyph unicode="&#xda;" horiz-adv-x="692" d="M94 238l81 462h45l-82 -459q-9 -60 -5 -107t42.5 -76t113.5 -29q206 0 244 212l81 459h44l-81 -462q-20 -113 -89 -181t-198 -68q-126 0 -171 67t-25 182zM364 755l136 125h85l-180 -125h-41z" />
<glyph unicode="&#xdb;" horiz-adv-x="692" d="M94 238l81 462h45l-82 -459q-9 -60 -5 -107t42.5 -76t113.5 -29q206 0 244 212l81 459h44l-81 -462q-20 -113 -89 -181t-198 -68q-126 0 -171 67t-25 182zM300 755l115 125h67l73 -125h-34l-75 93l-106 -93h-40z" />
<glyph unicode="&#xdc;" horiz-adv-x="692" d="M94 238l81 462h45l-82 -459q-9 -60 -5 -107t42.5 -76t113.5 -29q206 0 244 212l81 459h44l-81 -462q-20 -113 -89 -181t-198 -68q-126 0 -171 67t-25 182zM320 765l14 78h60l-13 -78h-61zM479 765l14 78h58l-14 -78h-58z" />
<glyph unicode="&#xdd;" horiz-adv-x="611" d="M95 700h46l161 -389l295 389h54l-331 -423l-48 -277h-44l49 279zM321 755l135 125h86l-181 -125h-40z" />
<glyph unicode="&#xde;" horiz-adv-x="643" d="M58 0l123 700h44l-23 -133h176q96 0 157 -42t61 -134q0 -120 -81 -178t-208 -58h-178l-27 -155h-44zM136 195h177q102 0 169.5 49t67.5 148q0 70 -46 102.5t-123 32.5h-186z" />
<glyph unicode="&#xdf;" horiz-adv-x="599" d="M41 0l88 501q10 54 29.5 93.5t43 61.5t55.5 35t59.5 16.5t62.5 3.5q25 0 47 -3.5t46.5 -12.5t41 -24.5t30.5 -40t15 -59t-6 -81.5l-2 -10l-44 -19q-57 37 -114 37q-54 0 -91.5 -30.5t-37.5 -78.5q0 -10 2 -18.5t4 -15.5t8.5 -13.5t9.5 -11t12.5 -10t13 -7.5t15 -7 t14.5 -6.5t16.5 -6t15.5 -5.5q74 -28 106.5 -60.5t32.5 -84.5q0 -75 -55.5 -114.5t-124.5 -39.5q-92 0 -180 67l24 31q77 -60 154 -60q51 0 95 32t44 82q0 19 -8.5 35.5t-17.5 26t-30 21t-30.5 15t-34.5 13.5q-30 12 -47.5 20.5t-38.5 24.5t-31 38.5t-10 52.5q0 66 49.5 107 t120.5 41q60 0 119 -33q18 97 -21.5 133.5t-118.5 36.5q-80 0 -132 -38t-70 -140l-87 -495h-42z" />
<glyph unicode="&#xe0;" horiz-adv-x="591" d="M54 170q0 158 67.5 262t175.5 104q88 0 183 -93l15 82h42l-93 -525h-42l16 91q-106 -102 -213 -102q-63 0 -107 44t-44 137zM98 174q0 -69 27 -108t79 -39q59 0 111 30.5t112 84.5l46 260q-88 96 -173 96q-61 0 -108 -48t-70.5 -121t-23.5 -155zM247 729h74l104 -125h-34 z" />
<glyph unicode="&#xe1;" horiz-adv-x="591" d="M54 170q0 158 67.5 262t175.5 104q88 0 183 -93l15 82h42l-93 -525h-42l16 91q-106 -102 -213 -102q-63 0 -107 44t-44 137zM98 174q0 -69 27 -108t79 -39q59 0 111 30.5t112 84.5l46 260q-88 96 -173 96q-61 0 -108 -48t-70.5 -121t-23.5 -155zM277 604l135 125h84 l-179 -125h-40z" />
<glyph unicode="&#xe2;" horiz-adv-x="591" d="M54 170q0 158 67.5 262t175.5 104q88 0 183 -93l15 82h42l-93 -525h-42l16 91q-106 -102 -213 -102q-63 0 -107 44t-44 137zM98 174q0 -69 27 -108t79 -39q59 0 111 30.5t112 84.5l46 260q-88 96 -173 96q-61 0 -108 -48t-70.5 -121t-23.5 -155zM234 604l116 125h66 l73 -125h-34l-75 93l-106 -93h-40z" />
<glyph unicode="&#xe3;" horiz-adv-x="591" d="M54 170q0 158 67.5 262t175.5 104q88 0 183 -93l15 82h42l-93 -525h-42l16 91q-106 -102 -213 -102q-63 0 -107 44t-44 137zM98 174q0 -69 27 -108t79 -39q59 0 111 30.5t112 84.5l46 260q-88 96 -173 96q-61 0 -108 -48t-70.5 -121t-23.5 -155zM232 635q24 36 42 50.5 t43 14.5q28 0 61.5 -24.5t48.5 -24.5q23 0 56 46l29 -18q-24 -36 -42 -50.5t-43 -14.5q-28 0 -61.5 24.5t-48.5 24.5q-13 0 -24.5 -8.5t-31.5 -36.5z" />
<glyph unicode="&#xe4;" horiz-adv-x="591" d="M54 170q0 158 67.5 262t175.5 104q88 0 183 -93l15 82h42l-93 -525h-42l16 91q-106 -102 -213 -102q-63 0 -107 44t-44 137zM98 174q0 -69 27 -108t79 -39q59 0 111 30.5t112 84.5l46 260q-88 96 -173 96q-61 0 -108 -48t-70.5 -121t-23.5 -155zM255 614l13 78h61 l-13 -78h-61zM414 614l13 78h58l-12 -78h-59z" />
<glyph unicode="&#xe5;" horiz-adv-x="591" d="M54 170q0 158 67.5 262t175.5 104q88 0 183 -93l15 82h42l-93 -525h-42l16 91q-106 -102 -213 -102q-63 0 -107 44t-44 137zM98 174q0 -69 27 -108t79 -39q59 0 111 30.5t112 84.5l46 260q-88 96 -173 96q-61 0 -108 -48t-70.5 -121t-23.5 -155zM280 692q0 41 28.5 70 t69.5 29t70 -29t29 -70t-29 -69.5t-70 -28.5t-69.5 28.5t-28.5 69.5zM313 692q0 -28 18.5 -46.5t46.5 -18.5t47 18.5t19 46.5t-19 47t-47 19t-46.5 -19t-18.5 -47z" />
<glyph unicode="&#xe6;" horiz-adv-x="920" d="M54 170q0 158 67.5 262t175.5 104q88 0 183 -93l15 82h42l-10 -53q77 64 178 64q78 0 120.5 -37t42.5 -93q0 -81 -83.5 -127t-255.5 -46h-63v-17q0 -91 37 -140t105 -49q76 0 198 76l24 -34q-3 -2 -21.5 -12.5t-28 -15t-28.5 -14.5t-34 -15l-34.5 -11.5t-38.5 -9 t-38 -2.5q-102 0 -150 80l-12 -69h-42l16 92q-107 -103 -214 -103q-63 0 -107 44t-44 137zM98 174q0 -69 27 -108t79 -39q60 0 112.5 31t111.5 85q-7 31 -7 74q0 106 49 188q-85 93 -170 93q-61 0 -108 -48t-70.5 -121t-23.5 -155zM470 271h66q145 0 216.5 36.5t71.5 101.5 q0 42 -34 65.5t-87 23.5q-88 0 -153 -62.5t-80 -164.5z" />
<glyph unicode="&#xe7;" horiz-adv-x="516" d="M53 207q0 149 79.5 239t180.5 90q83 0 186 -77l-28 -28l-11 8q-11 8 -17 12t-19 12.5t-24 13t-25.5 10.5t-29 8.5t-29.5 2.5q-86 0 -152.5 -81.5t-66.5 -205.5q0 -87 35 -135.5t100 -48.5q20 0 42 5t44 15t36.5 17t33.5 18t21 12l22 -35l-21 -11q-22 -12 -29.5 -16 t-29.5 -13.5t-36.5 -14t-35 -9t-38.5 -5.5q20 -31 20 -66q0 -39 -27 -63.5t-75 -24.5q-43 0 -75 17l19 33q26 -13 56 -13q27 0 46 15.5t19 46.5q0 19 -11 55q-73 6 -116.5 64t-43.5 153z" />
<glyph unicode="&#xe8;" horiz-adv-x="551" d="M53 217q0 139 79.5 229t204.5 90q78 0 120.5 -37t42.5 -93q0 -81 -83.5 -127t-255.5 -46h-64v-17q0 -90 37.5 -139.5t105.5 -49.5q15 0 31 2.5t29.5 6t30 10.5t26.5 11.5t26 13t21.5 12t19 12t14.5 8.5l23 -34q-2 -1 -16 -9t-20.5 -11.5t-21.5 -11.5t-24.5 -12t-24.5 -11 t-28 -10.5t-28 -7.5t-29.5 -5.5t-29.5 -1.5q-85 0 -135.5 59.5t-50.5 168.5zM101 271h67q145 0 216 36.5t71 101.5q0 42 -34 65.5t-87 23.5q-88 0 -153 -62.5t-80 -164.5zM234 729h74l103 -125h-34z" />
<glyph unicode="&#xe9;" horiz-adv-x="551" d="M53 217q0 139 79.5 229t204.5 90q78 0 120.5 -37t42.5 -93q0 -81 -83.5 -127t-255.5 -46h-64v-17q0 -90 37.5 -139.5t105.5 -49.5q15 0 31 2.5t29.5 6t30 10.5t26.5 11.5t26 13t21.5 12t19 12t14.5 8.5l23 -34q-2 -1 -16 -9t-20.5 -11.5t-21.5 -11.5t-24.5 -12t-24.5 -11 t-28 -10.5t-28 -7.5t-29.5 -5.5t-29.5 -1.5q-85 0 -135.5 59.5t-50.5 168.5zM101 271h67q145 0 216 36.5t71 101.5q0 42 -34 65.5t-87 23.5q-88 0 -153 -62.5t-80 -164.5zM286 604l136 125h84l-179 -125h-41z" />
<glyph unicode="&#xea;" horiz-adv-x="551" d="M53 217q0 139 79.5 229t204.5 90q78 0 120.5 -37t42.5 -93q0 -81 -83.5 -127t-255.5 -46h-64v-17q0 -90 37.5 -139.5t105.5 -49.5q15 0 31 2.5t29.5 6t30 10.5t26.5 11.5t26 13t21.5 12t19 12t14.5 8.5l23 -34q-2 -1 -16 -9t-20.5 -11.5t-21.5 -11.5t-24.5 -12t-24.5 -11 t-28 -10.5t-28 -7.5t-29.5 -5.5t-29.5 -1.5q-85 0 -135.5 59.5t-50.5 168.5zM101 271h67q145 0 216 36.5t71 101.5q0 42 -34 65.5t-87 23.5q-88 0 -153 -62.5t-80 -164.5zM221 604l115 125h67l73 -125h-34l-75 93l-106 -93h-40z" />
<glyph unicode="&#xeb;" horiz-adv-x="551" d="M53 217q0 139 79.5 229t204.5 90q78 0 120.5 -37t42.5 -93q0 -81 -83.5 -127t-255.5 -46h-64v-17q0 -90 37.5 -139.5t105.5 -49.5q15 0 31 2.5t29.5 6t30 10.5t26.5 11.5t26 13t21.5 12t19 12t14.5 8.5l23 -34q-2 -1 -16 -9t-20.5 -11.5t-21.5 -11.5t-24.5 -12t-24.5 -11 t-28 -10.5t-28 -7.5t-29.5 -5.5t-29.5 -1.5q-85 0 -135.5 59.5t-50.5 168.5zM101 271h67q145 0 216 36.5t71 101.5q0 42 -34 65.5t-87 23.5q-88 0 -153 -62.5t-80 -164.5zM241 614l14 78h60l-13 -78h-61zM400 614l14 78h58l-14 -78h-58z" />
<glyph unicode="&#xec;" horiz-adv-x="230" d="M41 0l93 525h42l-93 -525h-42zM55 729h74l104 -125h-34z" />
<glyph unicode="&#xed;" horiz-adv-x="230" d="M41 0l93 525h42l-93 -525h-42zM107 604l135 125h85l-180 -125h-40z" />
<glyph unicode="&#xee;" horiz-adv-x="230" d="M41 0l93 525h42l-93 -525h-42zM42 604l116 125h66l73 -125h-34l-75 93l-106 -93h-40z" />
<glyph unicode="&#xef;" horiz-adv-x="230" d="M41 0l93 525h42l-93 -525h-42zM62 614l14 78h60l-14 -78h-60zM221 614l14 78h59l-14 -78h-59z" />
<glyph unicode="&#xf0;" d="M50 195q0 119 76 200t190 81q38 0 70 -10t51 -24t32.5 -28.5t18.5 -24.5l5 -10q-3 80 -33 150.5t-89 105.5l-87 -54h-68l115 72q-29 9 -63 9q-18 0 -36 -2t-28 -4l-9 -3l-6 38q36 9 80 9q59 0 105 -21l80 50h67l-111 -70q124 -84 124 -308q0 -169 -76.5 -265.5 t-202.5 -96.5q-94 0 -149.5 53t-55.5 153zM93 192q0 -75 38.5 -120t120.5 -45q58 0 104 24t72.5 62t39.5 80t13 84q0 75 -42 118t-120 43q-104 0 -165 -73t-61 -173z" />
<glyph unicode="&#xf1;" horiz-adv-x="590" d="M41 0l93 525h42l-14 -78q43 31 108 60t124 29q74 0 103.5 -44t16.5 -115l-66 -377h-42l66 373q22 125 -81 125q-56 0 -124.5 -32.5t-113.5 -66.5l-70 -399h-42zM221 635q24 36 42 50.5t43 14.5q28 0 61.5 -24.5t48.5 -24.5q23 0 56 46l29 -18q-24 -36 -42 -50.5 t-43 -14.5q-28 0 -61.5 24.5t-48.5 24.5q-13 0 -24.5 -8.5t-31.5 -36.5z" />
<glyph unicode="&#xf2;" horiz-adv-x="596" d="M53 211q0 138 73.5 231.5t185.5 93.5q104 0 160.5 -59t56.5 -163q0 -138 -73.5 -231.5t-185.5 -93.5q-104 0 -160.5 59t-56.5 163zM96 211q0 -84 42 -134t132 -50q97 0 156.5 85.5t59.5 201.5q0 84 -42 134t-132 50q-97 0 -156.5 -85.5t-59.5 -201.5zM238 729h74 l103 -125h-34z" />
<glyph unicode="&#xf3;" horiz-adv-x="596" d="M53 211q0 138 73.5 231.5t185.5 93.5q104 0 160.5 -59t56.5 -163q0 -138 -73.5 -231.5t-185.5 -93.5q-104 0 -160.5 59t-56.5 163zM96 211q0 -84 42 -134t132 -50q97 0 156.5 85.5t59.5 201.5q0 84 -42 134t-132 50q-97 0 -156.5 -85.5t-59.5 -201.5zM290 604l135 125h85 l-179 -125h-41z" />
<glyph unicode="&#xf4;" horiz-adv-x="596" d="M53 211q0 138 73.5 231.5t185.5 93.5q104 0 160.5 -59t56.5 -163q0 -138 -73.5 -231.5t-185.5 -93.5q-104 0 -160.5 59t-56.5 163zM96 211q0 -84 42 -134t132 -50q97 0 156.5 85.5t59.5 201.5q0 84 -42 134t-132 50q-97 0 -156.5 -85.5t-59.5 -201.5zM225 604l115 125h67 l73 -125h-34l-75 93l-106 -93h-40z" />
<glyph unicode="&#xf5;" horiz-adv-x="596" d="M53 211q0 138 73.5 231.5t185.5 93.5q104 0 160.5 -59t56.5 -163q0 -138 -73.5 -231.5t-185.5 -93.5q-104 0 -160.5 59t-56.5 163zM96 211q0 -84 42 -134t132 -50q97 0 156.5 85.5t59.5 201.5q0 84 -42 134t-132 50q-97 0 -156.5 -85.5t-59.5 -201.5zM216 629 q25 37 44.5 54t45.5 17q20 0 58.5 -21t56.5 -21q13 0 23 7.5t28 32.5l32 -13q-24 -37 -43.5 -54t-44.5 -17q-21 0 -59.5 21t-55.5 21q-13 0 -23.5 -7.5t-28.5 -32.5z" />
<glyph unicode="&#xf6;" horiz-adv-x="596" d="M53 211q0 138 73.5 231.5t185.5 93.5q104 0 160.5 -59t56.5 -163q0 -138 -73.5 -231.5t-185.5 -93.5q-104 0 -160.5 59t-56.5 163zM96 211q0 -84 42 -134t132 -50q97 0 156.5 85.5t59.5 201.5q0 84 -42 134t-132 50q-97 0 -156.5 -85.5t-59.5 -201.5zM245 614l14 78h60 l-13 -78h-61zM404 614l14 78h58l-14 -78h-58z" />
<glyph unicode="&#xf7;" d="M58 314l7 38h489l-6 -38h-490zM229 165q-2 20 14.5 35t38.5 15q17 0 29 -11t14 -27q2 -20 -14 -35t-37 -15q-17 0 -30 11t-15 27zM286 490q-2 20 14.5 35t38.5 15q17 0 30 -11t14 -27q2 -20 -14 -35t-38 -15q-17 0 -30 11t-15 27z" />
<glyph unicode="&#xf8;" horiz-adv-x="597" d="M29 0l64 70q-39 54 -39 141q0 138 73.5 231.5t185.5 93.5q98 0 155 -55l40 44h51l-66 -73q37 -56 37 -138q0 -138 -73.5 -231.5t-185.5 -93.5q-97 0 -154 52l-37 -41h-51zM97 211q0 -66 24 -110l320 351q-44 46 -128 46q-97 0 -156.5 -85.5t-59.5 -201.5zM144 71 q44 -44 127 -44q97 0 156.5 85.5t59.5 201.5q0 64 -23 107z" />
<glyph unicode="&#xf9;" horiz-adv-x="590" d="M63 148l66 377h42l-66 -373q-22 -125 81 -125q56 0 124.5 32.5t112.5 66.5l71 399h42l-93 -525h-42l13 77q-43 -31 -107.5 -59.5t-123.5 -28.5q-74 0 -103.5 44t-16.5 115zM232 729h74l103 -125h-34z" />
<glyph unicode="&#xfa;" horiz-adv-x="590" d="M63 148l66 377h42l-66 -373q-22 -125 81 -125q56 0 124.5 32.5t112.5 66.5l71 399h42l-93 -525h-42l13 77q-43 -31 -107.5 -59.5t-123.5 -28.5q-74 0 -103.5 44t-16.5 115zM284 604l135 125h85l-179 -125h-41z" />
<glyph unicode="&#xfb;" horiz-adv-x="590" d="M63 148l66 377h42l-66 -373q-22 -125 81 -125q56 0 124.5 32.5t112.5 66.5l71 399h42l-93 -525h-42l13 77q-43 -31 -107.5 -59.5t-123.5 -28.5q-74 0 -103.5 44t-16.5 115zM219 604l116 125h66l74 -125h-34l-76 93l-106 -93h-40z" />
<glyph unicode="&#xfc;" horiz-adv-x="590" d="M63 148l66 377h42l-66 -373q-22 -125 81 -125q56 0 124.5 32.5t112.5 66.5l71 399h42l-93 -525h-42l13 77q-43 -31 -107.5 -59.5t-123.5 -28.5q-74 0 -103.5 44t-16.5 115zM239 614l14 78h60l-13 -78h-61zM398 614l14 78h59l-14 -78h-59z" />
<glyph unicode="&#xfd;" horiz-adv-x="536" d="M-12 -164q86 27 121.5 57t79.5 107l2 3l-116 522h44l101 -471l269 471h48l-303 -525q-56 -96 -79 -121q-39 -43 -129 -75q-12 -4 -26 -8zM259 604l135 125h85l-180 -125h-40z" />
<glyph unicode="&#xfe;" horiz-adv-x="588" d="M5 -204l165 933h42l-49 -277q99 84 191 84q71 0 120 -44t49 -137q0 -159 -65 -262.5t-169 -103.5q-95 0 -192 92l-50 -285h-42zM105 123q90 -96 181 -96q87 0 140 98t53 226q0 70 -31 108.5t-92 38.5q-52 0 -99 -25t-103 -71z" />
<glyph unicode="&#xff;" horiz-adv-x="536" d="M-12 -164q86 27 121.5 57t79.5 107l2 3l-116 522h44l101 -471l269 471h48l-303 -525q-56 -96 -79 -121q-39 -43 -129 -75q-12 -4 -26 -8zM213 614l14 78h61l-14 -78h-61zM372 614l14 78h60l-14 -78h-60z" />
<glyph unicode="&#x152;" horiz-adv-x="1097" d="M78 278q0 58 13 117.5t40.5 116.5t67 101t96 71t122.5 27q199 0 247 -176l29 165h406l-6 -40h-364l-51 -290h303l-7 -40h-303l-51 -290h369l-6 -40h-413l23 134q-96 -145 -255 -145q-71 0 -122.5 22.5t-81 63.5t-43 91t-13.5 112zM123 276q0 -247 215 -247q73 0 132 40 t93 101.5t52 127.5t18 126q0 247 -215 247q-73 0 -132 -40t-93 -101.5t-52 -127.5t-18 -126z" />
<glyph unicode="&#x153;" horiz-adv-x="979" d="M53 211q0 138 73.5 231.5t185.5 93.5q84 0 137 -39t71 -110q37 69 101 109t145 40q78 0 120 -37t42 -93q0 -81 -83 -127t-255 -46h-65v-17q0 -90 38 -139.5t106 -49.5q13 0 26.5 2t27 5.5t25.5 7.5t25.5 10.5t22.5 10.5t22 11.5t18.5 10.5t17 10t12.5 8l23 -34 q-2 -1 -18.5 -10.5t-23 -13t-24.5 -13t-28.5 -13.5t-28.5 -11t-32.5 -10.5t-32 -6t-33.5 -2.5q-68 0 -114.5 38t-63.5 110q-34 -69 -91.5 -108.5t-128.5 -39.5q-104 0 -160.5 59t-56.5 163zM96 211q0 -84 42 -134t132 -50q97 0 156.5 85.5t59.5 201.5q0 84 -42 134t-132 50 q-97 0 -156.5 -85.5t-59.5 -201.5zM529 271h68q144 0 215 36.5t71 101.5q0 42 -33.5 65.5t-86.5 23.5q-88 0 -153.5 -62.5t-80.5 -164.5z" />
<glyph unicode="&#x178;" horiz-adv-x="611" d="M95 700h46l161 -389l295 389h54l-331 -423l-48 -277h-44l49 279zM275 765l14 78h60l-14 -78h-60zM433 765l14 78h60l-14 -78h-60z" />
<glyph unicode="&#x2c6;" horiz-adv-x="263" d="M111 604l116 125h66l73 -125h-34l-75 93l-106 -93h-40z" />
<glyph unicode="&#x2dc;" horiz-adv-x="285" d="M117 635q24 36 42 50.5t43 14.5q28 0 61.5 -24.5t48.5 -24.5q23 0 56 46l29 -18q-24 -36 -42 -50.5t-43 -14.5q-28 0 -61.5 24.5t-48.5 24.5q-13 0 -24.5 -8.5t-31.5 -36.5z" />
<glyph unicode="&#x2000;" horiz-adv-x="471" />
<glyph unicode="&#x2001;" horiz-adv-x="942" />
<glyph unicode="&#x2002;" horiz-adv-x="471" />
<glyph unicode="&#x2003;" horiz-adv-x="942" />
<glyph unicode="&#x2004;" horiz-adv-x="314" />
<glyph unicode="&#x2005;" horiz-adv-x="235" />
<glyph unicode="&#x2006;" horiz-adv-x="157" />
<glyph unicode="&#x2007;" horiz-adv-x="157" />
<glyph unicode="&#x2008;" horiz-adv-x="117" />
<glyph unicode="&#x2009;" horiz-adv-x="188" />
<glyph unicode="&#x200a;" horiz-adv-x="52" />
<glyph unicode="&#x2010;" horiz-adv-x="434" d="M81 264l7 42h260l-7 -42h-260z" />
<glyph unicode="&#x2011;" horiz-adv-x="434" d="M81 264l7 42h260l-7 -42h-260z" />
<glyph unicode="&#x2012;" horiz-adv-x="434" d="M81 264l7 42h260l-7 -42h-260z" />
<glyph unicode="&#x2013;" horiz-adv-x="565" d="M81 264l7 42h391l-7 -42h-391z" />
<glyph unicode="&#x2014;" horiz-adv-x="667" d="M81 264l7 42h492l-6 -42h-493z" />
<glyph unicode="&#x2018;" horiz-adv-x="224" d="M119 511l5 91l77 118l17 -20l-54 -98h29l-15 -91h-59z" />
<glyph unicode="&#x2019;" horiz-adv-x="217" d="M111 511l54 98h-29l15 91h59l-5 -91l-77 -118z" />
<glyph unicode="&#x201a;" horiz-adv-x="232" d="M9 -98l54 98h-29l15 91h59l-5 -91l-77 -118z" />
<glyph unicode="&#x201c;" horiz-adv-x="379" d="M119 511l5 91l77 118l17 -20l-54 -98h29l-15 -91h-59zM274 511l5 91l77 118l17 -20l-53 -98h29l-16 -91h-59z" />
<glyph unicode="&#x201d;" horiz-adv-x="372" d="M111 511l54 98h-29l15 91h59l-5 -91l-77 -118zM266 511l54 98h-29l16 91h58l-5 -91l-77 -118z" />
<glyph unicode="&#x201e;" horiz-adv-x="387" d="M9 -98l54 98h-29l15 91h59l-5 -91l-77 -118zM164 -98l54 98h-29l16 91h58l-5 -91l-77 -118z" />
<glyph unicode="&#x2022;" horiz-adv-x="417" d="M96 284q0 46 31.5 78t77.5 32t78 -32t32 -78t-32 -77.5t-78 -31.5t-77.5 31.5t-31.5 77.5z" />
<glyph unicode="&#x2026;" horiz-adv-x="584" d="M34 0l16 91h60l-15 -91h-61zM211 0l16 91h60l-15 -91h-61zM387 0l17 91h59l-15 -91h-61z" />
<glyph unicode="&#x202f;" horiz-adv-x="188" />
<glyph unicode="&#x2039;" horiz-adv-x="413" d="M36 269l6 32l342 228l-9 -53l-290 -196l221 -194l-7 -45z" />
<glyph unicode="&#x203a;" horiz-adv-x="412" d="M21 41l10 53l290 196l-221 194l7 45l262 -228l-5 -32z" />
<glyph unicode="&#x205f;" horiz-adv-x="235" />
<glyph unicode="&#x20ac;" horiz-adv-x="696" d="M49 241l7 38h61q0 69 16 136h-53l6 38h58q39 120 123.5 189t183.5 69q48 0 94.5 -18.5t73.5 -38t65 -51.5l-29 -29q-60 50 -106 73.5t-97 23.5q-83 0 -153 -59t-107 -159h324l-6 -38h-329q-18 -69 -18 -136h323l-7 -38h-315q6 -108 52 -160t113 -52q101 0 241 98l24 -34 q-158 -104 -268 -104q-87 0 -144.5 61t-64.5 191h-68z" />
<glyph unicode="&#x2122;" horiz-adv-x="656" d="M135 669l5 31h201l-4 -31h-83l-34 -193h-38l34 193h-81zM345 476l39 224h40l56 -150l114 150h40l-39 -224h-38l29 166l-97 -129h-26l-50 137l-30 -174h-38z" />
<glyph unicode="&#xe000;" horiz-adv-x="525" d="M0 0v525h525v-525h-525z" />
</font>
</defs>
</svg>
