<?xml version="1.0" standalone="no"?>
<!DOCTYPE svg PUBLIC "-//W3C//DTD SVG 1.1//EN" "http://www.w3.org/Graphics/SVG/1.1/DTD/svg11.dtd" >
<svg xmlns="http://www.w3.org/2000/svg">
<metadata></metadata>
<defs>
<font id="verb_extraboldregular" horiz-adv-x="645" >
<font-face units-per-em="1000" ascent="800" descent="-200" />
<missing-glyph horiz-adv-x="267" />
<glyph unicode="&#xfb01;" horiz-adv-x="669" d="M18 405v120h72v12q0 192 162 192q69 0 147 -35l-37 -119q-42 13 -66 13q-12 0 -20.5 -2.5t-15.5 -13.5t-7 -32v-15h128v-120h-128v-405h-163v405h-72zM446 592v134h172v-134h-172zM449 0v525h164v-525h-164z" />
<glyph unicode="&#xfb02;" horiz-adv-x="672" d="M18 405v120h72v12q0 192 162 192q69 0 147 -35l-37 -119q-42 13 -66 13q-12 0 -20.5 -2.5t-15.5 -13.5t-7 -32v-15h128v-120h-128v-405h-163v405h-72zM451 0v729h164v-729h-164z" />
<glyph unicode="&#xfb03;" horiz-adv-x="1056" d="M18 405v120h72v12q0 98 40 145t123 47q89 0 185 -44l-43 -117q-72 20 -99 20q-12 0 -20.5 -2.5t-15.5 -13.5t-7 -32v-15h113v-120h-113v-405h-163v405h-72zM405 405v120h72v12q0 192 162 192q69 0 147 -35l-37 -119q-42 13 -65 13q-12 0 -20.5 -2.5t-16 -14t-7.5 -31.5 v-15h128v-120h-128v-405h-163v405h-72zM833 592v134h172v-134h-172zM836 0v525h165v-525h-165z" />
<glyph unicode="&#xfb04;" horiz-adv-x="1059" d="M18 405v120h72v12q0 98 40 145t123 47q89 0 185 -44l-43 -117q-72 20 -99 20q-12 0 -20.5 -2.5t-15.5 -13.5t-7 -32v-15h113v-120h-113v-405h-163v405h-72zM405 405v120h72v12q0 192 162 192q69 0 147 -35l-37 -119q-42 13 -65 13q-12 0 -20.5 -2.5t-16 -14t-7.5 -31.5 v-15h128v-120h-128v-405h-163v405h-72zM838 0v729h164v-729h-164z" />
<glyph horiz-adv-x="1000" />
<glyph horiz-adv-x="1000" />
<glyph unicode="&#xd;" horiz-adv-x="1000" />
<glyph unicode=" "  horiz-adv-x="267" />
<glyph unicode="&#x09;" horiz-adv-x="267" />
<glyph unicode="&#xa0;" horiz-adv-x="267" />
<glyph unicode="!" horiz-adv-x="288" d="M44 700h200l-51 -468h-98zM61 0v164h167v-164h-167z" />
<glyph unicode="&#x22;" horiz-adv-x="446" d="M37 700h156l-27 -278h-102zM254 700h155l-27 -278h-101z" />
<glyph unicode="#" horiz-adv-x="735" d="M34 151v123h129l24 152h-111v123h130l23 151h125l-23 -151h133l23 151h126l-23 -151h110v-123h-129l-23 -152h111v-123h-130l-23 -151h-126l23 151h-133l-23 -151h-126l23 151h-110zM289 274h133l23 152h-133z" />
<glyph unicode="$" horiz-adv-x="659" d="M31 86l76 121q50 -28 123.5 -52.5t123.5 -24.5q39 0 65.5 15t26.5 43q0 17 -10.5 30t-33.5 22.5t-46 17t-63 19.5t-70 23q-35 13 -62 27.5t-55 38t-43.5 58.5t-15.5 78q0 86 60 143t168 65v91h118v-97q115 -18 212 -68l-76 -123q-48 22 -109.5 39.5t-103.5 17.5 q-38 0 -63.5 -14.5t-25.5 -42.5q0 -17 10.5 -29t33 -21t46 -16t60.5 -18t66 -22q36 -14 62 -27.5t57 -37.5t47.5 -60t16.5 -81q0 -88 -62 -146t-171 -65v-90h-118v96q-138 23 -244 90z" />
<glyph unicode="%" horiz-adv-x="1014" d="M30 523q0 88 52 138t146 50t146 -50t52 -138t-52 -137.5t-146 -49.5t-146 49.5t-52 137.5zM151 523q0 -88 77 -88q78 0 78 88q0 89 -78 89q-77 0 -77 -89zM263 0l361 700h127l-362 -700h-126zM589 176q0 88 51.5 138t145.5 50t146.5 -50t52.5 -138t-52 -137.5t-147 -49.5 q-94 0 -145.5 49.5t-51.5 137.5zM709 176q0 -88 77 -88q78 0 78 88q0 89 -78 89q-77 0 -77 -89z" />
<glyph unicode="&#x26;" horiz-adv-x="731" d="M48 178q0 61 37 106t103 87q-43 44 -66 83t-23 85q0 78 60.5 125t153.5 47t150 -47t57 -116q0 -55 -35.5 -99t-98.5 -90l112 -111q34 60 37 121h164q-17 -120 -97 -224l148 -145h-188l-55 54q-97 -65 -219 -65q-105 0 -172.5 53t-67.5 136zM210 183q0 -29 24 -50.5 t68 -21.5q55 0 109 38l-133 132q-68 -56 -68 -98zM246 533q0 -37 56 -93q71 48 71 94q0 24 -16 42.5t-46 18.5t-47.5 -18.5t-17.5 -43.5z" />
<glyph unicode="'" horiz-adv-x="230" d="M37 700h156l-27 -278h-102z" />
<glyph unicode="(" horiz-adv-x="339" d="M54 109v478q0 33 0.5 49.5t3.5 41.5t9 37.5t17 30.5t27.5 28.5t41 23t57.5 22t76 19.5l40 -91q-70 -24 -85.5 -45.5t-15.5 -74.5v-560q0 -53 15.5 -74.5t85.5 -45.5l-40 -91q-43 10 -76 19.5t-57.5 22t-41 23t-27.5 28.5t-17 30.5t-9 37.5t-3.5 41.5t-0.5 49.5z" />
<glyph unicode=")" horiz-adv-x="339" d="M13 -52q70 24 85.5 45.5t15.5 74.5v560q0 53 -15.5 74.5t-85.5 45.5l41 91q49 -11 85 -23.5t61 -23.5t41.5 -30t25 -32.5t13 -41t5 -45.5t0.5 -56v-478q0 -38 -0.5 -56t-5 -45.5t-13 -41t-25 -32.5t-41.5 -30t-61 -23.5t-85 -23.5z" />
<glyph unicode="*" horiz-adv-x="475" d="M35 461l160 37l-160 39l68 118l113 -120l-46 157h136l-47 -156l112 119l68 -118l-152 -37l152 -39l-68 -118l-109 113l44 -151h-136l46 157l-113 -119z" />
<glyph unicode="+" d="M63 272v123h197v178h123v-178h198v-123h-198v-178h-123v178h-197z" />
<glyph unicode="," horiz-adv-x="273" d="M49 -114l77 114h-74v179h165l11 -201l-136 -146z" />
<glyph unicode="-" horiz-adv-x="434" d="M53 219v131h328v-131h-328z" />
<glyph unicode="." horiz-adv-x="271" d="M52 0v179h167v-179h-167z" />
<glyph unicode="/" horiz-adv-x="486" d="M18 -90l327 880h123l-327 -880h-123z" />
<glyph unicode="0" horiz-adv-x="686" d="M42 350q0 172 77.5 266.5t224.5 94.5t224 -94.5t77 -266.5q0 -173 -77.5 -267t-224.5 -94t-224 94t-77 267zM214 350q0 -120 32.5 -174.5t96.5 -54.5t96.5 54.5t32.5 174.5t-32 174.5t-96 54.5q-130 0 -130 -229z" />
<glyph unicode="1" horiz-adv-x="429" d="M-1 590l197 110h162v-700h-171v542l-121 -63z" />
<glyph unicode="2" horiz-adv-x="621" d="M30 0v74q0 50 18 94.5t52 80.5t67.5 62t80.5 55q14 9 48 29.5t45.5 29t30.5 24t25.5 29t6.5 28.5q0 27 -24.5 45.5t-68.5 18.5q-79 0 -187 -65l-76 109q138 97 287 97q116 0 178.5 -56t62.5 -141q0 -29 -8.5 -56t-18 -46.5t-32 -42t-35 -34.5t-44 -32t-42.5 -26.5 t-45 -25.5q-57 -32 -86 -57t-29 -53h341v-141h-547z" />
<glyph unicode="3" horiz-adv-x="623" d="M15 80l74 116q120 -64 210 -64q52 0 82.5 20t30.5 57q0 90 -191 90h-31v141h36q38 0 70 5t59 22.5t27 46.5q0 56 -83 56q-80 0 -183 -59l-70 106q127 94 281 94q112 0 169 -48.5t57 -122.5q0 -104 -113 -154q63 -19 103.5 -68.5t40.5 -111.5q0 -42 -14 -79t-43.5 -69 t-82.5 -50.5t-123 -18.5q-157 0 -306 91z" />
<glyph unicode="4" horiz-adv-x="689" d="M19 128v118l313 454h226v-431h106v-141h-106v-128h-171v128h-368zM192 269h195v290z" />
<glyph unicode="5" horiz-adv-x="613" d="M23 79l75 123q100 -67 185 -67q53 0 88 25t35 69q0 40 -31 68t-89 28q-63 0 -135 -38l-94 59l38 354h457v-141h-315l-7 -110q49 13 97 13q121 0 186.5 -67t65.5 -165q0 -101 -70 -171t-202 -70q-140 0 -284 90z" />
<glyph unicode="6" horiz-adv-x="641" d="M39 289q-1 191 118.5 306.5t305.5 115.5q28 0 54.5 -2.5t39.5 -5.5l13 -3l-39 -133q-30 6 -67 6q-78 0 -142.5 -40.5t-92.5 -131.5q64 51 159 51q100 0 163.5 -60.5t63.5 -157.5q0 -103 -75.5 -174t-201.5 -71q-100 0 -169.5 44t-99.5 110t-30 146zM211 268 q0 -69 35.5 -105t86.5 -36q55 0 83 30t28 70q0 43 -29 71t-81 28q-42 0 -74.5 -17.5t-48.5 -40.5z" />
<glyph unicode="7" horiz-adv-x="540" d="M22 559v141h505v-132q-10 -12 -27 -34t-60.5 -88.5t-77 -131t-60.5 -152t-27 -162.5h-177q0 70 24 151t54 143.5t70 126t60.5 91.5t36.5 47h-321z" />
<glyph unicode="8" horiz-adv-x="657" d="M31 190q0 123 152 192q-107 63 -107 156q0 78 66.5 125.5t185.5 47.5t186.5 -48t67.5 -125q0 -94 -108 -156q152 -69 152 -192q0 -94 -79 -147.5t-219 -53.5t-218.5 53.5t-78.5 147.5zM204 203q0 -38 34.5 -62t89.5 -24t90 24t35 62t-32.5 64t-92.5 51q-59 -25 -91.5 -51 t-32.5 -64zM242 522q0 -50 86 -86q87 36 87 86q0 25 -23.5 45t-63.5 20q-39 0 -62.5 -20t-23.5 -45z" />
<glyph unicode="9" horiz-adv-x="642" d="M27 466q0 103 76 174t202 71q75 0 134 -25t94 -68t53 -95.5t18 -111.5q0 -191 -119 -306.5t-305 -115.5q-28 0 -55 2.5t-40 5.5l-13 3l40 133q29 -6 66 -6q78 0 142.5 40.5t92.5 130.5q-67 -51 -159 -51q-100 0 -163.5 61t-63.5 158zM198 472q0 -42 29.5 -70t80.5 -28 q79 0 123 57q-1 69 -36 105.5t-86 36.5q-55 0 -83 -30t-28 -71z" />
<glyph unicode=":" horiz-adv-x="282" d="M58 0v179h167v-179h-167zM58 306v180h167v-180h-167z" />
<glyph unicode=";" horiz-adv-x="288" d="M57 -114l77 114h-74v179h165l11 -200l-136 -147zM60 306v180h165v-180h-165z" />
<glyph unicode="&#x3c;" d="M49 278v111l517 203v-138l-340 -121l340 -122v-136z" />
<glyph unicode="=" d="M63 177v123h518v-123h-518zM63 370v122h518v-122h-518z" />
<glyph unicode="&#x3e;" d="M77 75v136l340 122l-340 121v138l518 -203v-111z" />
<glyph unicode="?" horiz-adv-x="548" d="M26 631q127 80 253 80q103 0 169 -51t66 -135q0 -47 -19 -84.5t-54.5 -62.5t-73.5 -41t-87 -29l-8 -76h-102l-9 164q101 20 141.5 41t40.5 61q0 30 -24 51t-68 21q-70 0 -155 -54zM138 0v164h166v-164h-166z" />
<glyph unicode="@" horiz-adv-x="953" d="M38 253q0 192 121.5 312.5t330.5 120.5q204 0 316 -119t113 -313q0 -79 -18 -140t-65.5 -103.5t-120.5 -42.5q-70 0 -104.5 37.5t-41.5 82.5q-72 -66 -162 -66q-68 0 -112 40t-44 111q0 72 46.5 111.5t119.5 39.5q30 0 151 -22v38q0 42 -17.5 59.5t-63.5 17.5 q-73 0 -166 -38l-40 82q129 47 229 47q90 0 133 -41t43 -129v-160q0 -35 1.5 -54.5t6.5 -41t17.5 -31t33.5 -9.5q47 0 82.5 54.5t35.5 161.5q0 78 -23 145t-68 118.5t-117.5 80.5t-165.5 29q-187 0 -290.5 -106.5t-103.5 -271.5t100 -271.5t265 -106.5q53 0 100.5 10.5 t68.5 20.5l21 11l34 -44q-9 -6 -26 -14.5t-76 -23t-125 -14.5q-187 0 -303 122t-116 310zM371 182q0 -68 73 -68q64 0 124 54v73q-86 16 -112 16q-85 0 -85 -75z" />
<glyph unicode="A" horiz-adv-x="717" d="M4 0l261 700h189l260 -700h-186l-40 128h-258l-39 -128h-187zM272 261h175l-88 282z" />
<glyph unicode="B" horiz-adv-x="697" d="M68 0v700h295q268 0 268 -170q0 -66 -37 -107.5t-77 -48.5q22 -3 46 -15t49 -32.5t40.5 -56.5t15.5 -81q0 -89 -64 -139t-196 -50h-340zM239 131h133q127 0 127 86q0 89 -142 89h-118v-175zM239 428h110q113 0 113 72q0 69 -112 69h-111v-141z" />
<glyph unicode="C" horiz-adv-x="656" d="M38 350q0 177 80.5 269t212.5 92q78 0 149 -26t158 -74l-79 -126q-132 73 -207 73q-66 0 -102.5 -56t-36.5 -152t36.5 -152t102.5 -56q75 0 207 73l79 -126q-87 -48 -158 -74t-149 -26q-132 0 -212.5 91.5t-80.5 269.5z" />
<glyph unicode="D" horiz-adv-x="728" d="M68 0v700h262q178 0 268.5 -83.5t90.5 -266.5t-90.5 -266.5t-268.5 -83.5h-262zM240 144h73q104 0 154.5 45t50.5 161q0 115 -50.5 160.5t-154.5 45.5h-73v-412z" />
<glyph unicode="E" horiz-adv-x="621" d="M68 0v700h509v-144h-338v-135h276v-141h-276v-136h343v-144h-514z" />
<glyph unicode="F" horiz-adv-x="594" d="M68 0v700h509v-144h-338v-136h267v-141h-267v-279h-171z" />
<glyph unicode="G" horiz-adv-x="715" d="M38 349q0 178 81.5 270t216.5 92q82 0 157 -26.5t164 -75.5l-80 -126q-146 75 -220 75q-68 0 -106 -56t-38 -152q0 -99 36 -157.5t106 -58.5q68 0 148 72v67h-156v134h318v-407h-162v64q-89 -75 -187 -75q-119 0 -198.5 92.5t-79.5 267.5z" />
<glyph unicode="H" horiz-adv-x="734" d="M68 0v700h171v-262h257v262h170v-700h-170v297h-257v-297h-171z" />
<glyph unicode="I" horiz-adv-x="307" d="M68 0v700h171v-700h-171z" />
<glyph unicode="J" horiz-adv-x="307" d="M-48 -60q45 15 68 25t34.5 25.5t13 27.5t1.5 42v640h171v-631q0 -34 -0.5 -50t-3 -42t-8.5 -38t-17 -30.5t-27.5 -28.5t-41 -23t-58 -22.5t-76.5 -19.5z" />
<glyph unicode="K" horiz-adv-x="705" d="M68 0v700h171v-316l259 316h200l-280 -331l292 -369h-203l-192 248l-76 -90v-158h-171z" />
<glyph unicode="L" horiz-adv-x="580" d="M68 0v700h171v-556h327v-144h-498z" />
<glyph unicode="M" horiz-adv-x="862" d="M68 0v700h174l189 -398l188 398h175v-700h-170v428l-147 -311h-91l-147 309v-426h-171z" />
<glyph unicode="N" horiz-adv-x="750" d="M68 0v700h173l271 -445v445h170v-700h-173l-270 443v-443h-171z" />
<glyph unicode="O" horiz-adv-x="767" d="M37 350q0 162 84.5 261.5t260.5 99.5q90 0 158 -27.5t108.5 -77.5t60 -114t19.5 -142t-19.5 -142t-60 -114t-108.5 -77.5t-158 -27.5q-176 0 -260.5 99.5t-84.5 261.5zM212 350q0 -215 170 -215q171 0 171 215t-171 215q-170 0 -170 -215z" />
<glyph unicode="P" horiz-adv-x="675" d="M68 0v700h302q286 0 286 -231q0 -229 -286 -229h-131v-240h-171zM239 380h121q58 0 90.5 19.5t32.5 69.5q0 90 -123 90h-121v-179z" />
<glyph unicode="Q" horiz-adv-x="767" d="M37 350q0 162 84.5 261.5t260.5 99.5q90 0 158 -27.5t108.5 -77.5t60 -114t19.5 -142q0 -113 -41.5 -198t-127.5 -127l108 -84l-113 -116l-172 164q-176 0 -260.5 99.5t-84.5 261.5zM212 350q0 -215 170 -215q171 0 171 215t-171 215q-170 0 -170 -215z" />
<glyph unicode="R" horiz-adv-x="710" d="M68 0v700h322q145 0 216.5 -54t71.5 -165q0 -169 -170 -207l171 -274h-183l-159 263h-98v-263h-171zM239 396h140q61 0 94 18.5t33 66.5q0 86 -125 86h-142v-171z" />
<glyph unicode="S" horiz-adv-x="644" d="M24 86l76 121q50 -28 123.5 -52.5t123.5 -24.5q39 0 65.5 15t26.5 43q0 17 -10.5 29.5t-33.5 22.5t-46.5 17.5t-62.5 19.5t-70 24q-177 60 -177 201q0 93 68.5 151t191.5 58q75 0 156 -21.5t142 -53.5l-76 -123q-47 22 -108.5 39.5t-103.5 17.5q-39 0 -64 -14.5 t-25 -42.5q0 -17 10.5 -29t32.5 -21t45.5 -16t61 -18t66.5 -22q36 -14 62 -27.5t57 -37.5t47.5 -60t16.5 -81q0 -94 -71 -153t-194 -59q-89 0 -179 29t-151 68z" />
<glyph unicode="T" horiz-adv-x="605" d="M15 556v144h575v-144h-201v-556h-170v556h-204z" />
<glyph unicode="U" horiz-adv-x="723" d="M61 291v409h171v-424q0 -67 27.5 -104t102.5 -37t102.5 37t27.5 104v424h170v-409q0 -68 -13 -119t-44.5 -94.5t-92.5 -66t-150 -22.5q-72 0 -125.5 15.5t-86.5 42t-53.5 66t-28 82t-7.5 96.5z" />
<glyph unicode="V" horiz-adv-x="714" d="M2 700h198l156 -508l158 508h197l-260 -700h-188z" />
<glyph unicode="W" horiz-adv-x="980" d="M10 700h196l99 -464l117 464h136l117 -463l100 463h195l-196 -700h-167l-117 452l-117 -452h-167z" />
<glyph unicode="X" horiz-adv-x="671" d="M-1 0l232 353l-220 347h198l127 -244l128 244h197l-221 -347l233 -353h-203l-134 236l-134 -236h-203z" />
<glyph unicode="Y" horiz-adv-x="672" d="M-1 700h193l144 -278l144 278h193l-252 -423v-277h-170v277z" />
<glyph unicode="Z" horiz-adv-x="646" d="M29 0v131l354 425h-332v144h553v-130l-353 -426h358v-144h-580z" />
<glyph unicode="[" horiz-adv-x="369" d="M62 -143v982h290v-95h-119v-793h119v-94h-290z" />
<glyph unicode="\" horiz-adv-x="486" d="M18 790h123l327 -880h-123z" />
<glyph unicode="]" horiz-adv-x="369" d="M17 -49h118v793h-118v95h289v-982h-289v94z" />
<glyph unicode="^" d="M51 320l187 380h168l188 -380h-178l-94 222l-94 -222h-177z" />
<glyph unicode="_" horiz-adv-x="711" d="M52 -68h606v-117h-606v117z" />
<glyph unicode="`" horiz-adv-x="241" d="M-33 729h181l126 -140h-134z" />
<glyph unicode="a" horiz-adv-x="603" d="M23 162q0 79 54 124t142 45q49 0 169 -24v33q0 40 -19.5 56t-68.5 16q-67 0 -191 -37l-50 112q153 49 272 49q117 0 169 -47t52 -158v-331h-164v59q-78 -70 -181 -70q-81 0 -132.5 48t-51.5 125zM190 177q0 -62 71 -62q67 0 127 50v63q-75 16 -114 16q-84 0 -84 -67z" />
<glyph unicode="b" horiz-adv-x="630" d="M56 0v729h164v-259q81 66 172 66q95 0 150.5 -70.5t55.5 -203.5q0 -132 -55.5 -202.5t-150.5 -70.5q-93 0 -172 65v-54h-164zM220 182q52 -61 120 -61q92 0 92 142q0 141 -92 141q-68 0 -120 -62v-160z" />
<glyph unicode="c" horiz-adv-x="523" d="M30 263q0 134 69.5 203.5t172.5 69.5q96 0 234 -62l-65 -122q-96 44 -142 44q-48 0 -75 -36t-27 -97t27 -97.5t75 -36.5q43 0 142 43l65 -121q-138 -62 -233 -62q-103 0 -173 69.5t-70 204.5z" />
<glyph unicode="d" horiz-adv-x="630" d="M32 262q0 133 55.5 203.5t150.5 70.5q92 0 173 -66v259h164v-729h-164v54q-79 -65 -173 -65q-95 0 -150.5 70.5t-55.5 202.5zM198 263q0 -142 92 -142q66 0 121 61v160q-55 62 -121 62q-92 0 -92 -141z" />
<glyph unicode="e" horiz-adv-x="585" d="M30 261q0 130 71 202.5t197 72.5q123 0 188.5 -64t65.5 -169q0 -20 -2 -38.5t-4 -27.5l-3 -9h-345q12 -118 105 -118q73 0 192 62l60 -102q-147 -81 -269 -81q-113 0 -184.5 68.5t-71.5 203.5zM199 314h193q-2 106 -93 106q-86 0 -100 -106z" />
<glyph unicode="f" horiz-adv-x="393" d="M18 405v120h72v12q0 98 40 145t123 47q89 0 185 -44l-54 -117q-60 20 -87 20q-12 0 -20.5 -2.5t-16 -14t-7.5 -31.5v-15h128v-120h-128v-405h-163v405h-72z" />
<glyph unicode="g" horiz-adv-x="630" d="M32 262q0 133 55.5 203.5t150.5 70.5q92 0 173 -66v55h164v-518q0 -112 -58 -166.5t-178 -54.5q-135 0 -284 43l33 131q136 -42 217 -42q60 0 83 18.5t23 62.5v55q-79 -65 -173 -65q-95 0 -150.5 70.5t-55.5 202.5zM198 263q0 -142 92 -142q66 0 121 61v160 q-55 62 -121 62q-92 0 -92 -141z" />
<glyph unicode="h" horiz-adv-x="631" d="M56 0v729h164v-263q105 70 199 70q160 0 160 -167v-369h-164v331q0 37 -13.5 57.5t-48.5 20.5q-34 0 -71 -18.5t-62 -42.5v-348h-164z" />
<glyph unicode="i" horiz-adv-x="276" d="M52 592v134h172v-134h-172zM55 0v525h165v-525h-165z" />
<glyph unicode="j" horiz-adv-x="276" d="M-61 -111q45 15 67.5 24.5t34.5 25.5t13.5 28.5t1.5 44.5v513h164v-500v-41t-1.5 -35t-4.5 -32.5t-8.5 -27.5t-14 -26t-21 -22t-29 -20.5l-38.5 -17.5t-49.5 -17.5t-61.5 -15.5zM52 592v134h172v-134h-172z" />
<glyph unicode="k" horiz-adv-x="585" d="M56 0v729h164v-401l154 197h186l-177 -207l208 -318h-173l-134 202l-64 -76v-126h-164z" />
<glyph unicode="l" horiz-adv-x="279" d="M57 0v729h164v-729h-164z" />
<glyph unicode="m" horiz-adv-x="939" d="M56 0v525h164v-63q85 74 176 74q111 0 144 -87q34 33 84.5 60t104.5 27q158 0 158 -167v-369h-164v331q0 38 -11.5 58t-44.5 20q-59 0 -114 -63v-346h-164v331q0 38 -11.5 58t-45.5 20q-55 0 -112 -61v-348h-164z" />
<glyph unicode="n" horiz-adv-x="631" d="M56 0v525h164v-59q105 70 199 70q160 0 160 -167v-369h-164v331q0 37 -13.5 57.5t-48.5 20.5q-34 0 -71 -18.5t-62 -42.5v-348h-164z" />
<glyph unicode="o" horiz-adv-x="620" d="M30 263q0 130 72.5 201.5t207.5 71.5q134 0 207 -72t73 -202t-72.5 -201.5t-207.5 -71.5t-207.5 71.5t-72.5 202.5zM197 263q0 -148 113 -148q114 0 114 147q0 148 -114 148q-113 0 -113 -147z" />
<glyph unicode="p" horiz-adv-x="630" d="M56 -204v729h164v-55q81 66 172 66q95 0 150.5 -70.5t55.5 -203.5q0 -132 -55.5 -202.5t-150.5 -70.5q-93 0 -172 65v-258h-164zM220 182q52 -61 120 -61q92 0 92 142q0 141 -92 141q-68 0 -120 -62v-160z" />
<glyph unicode="q" horiz-adv-x="630" d="M32 262q0 133 55.5 203.5t150.5 70.5q92 0 173 -66v55h164v-729h-164v258q-79 -65 -173 -65q-95 0 -150.5 70.5t-55.5 202.5zM198 263q0 -142 92 -142q66 0 121 61v160q-55 62 -121 62q-92 0 -92 -141z" />
<glyph unicode="r" horiz-adv-x="431" d="M56 0v525h164v-109q6 16 17.5 32.5t34 38.5t60.5 34.5t84 9.5v-154q-50 0 -88 -17.5t-57.5 -42.5t-32 -49.5t-15.5 -41.5l-3 -18v-208h-164z" />
<glyph unicode="s" horiz-adv-x="540" d="M21 58l64 115q47 -22 108.5 -40.5t101.5 -18.5q27 0 42.5 9.5t15.5 22.5q0 9 -7.5 17t-25.5 14.5t-30.5 10t-40.5 10t-36 8.5q-181 46 -181 170q0 71 55 115.5t156 44.5q125 0 252 -58l-63 -107q-106 41 -177 41q-58 0 -58 -31q0 -7 3.5 -12.5t12 -10.5t16.5 -8.5 t22 -7.5t24.5 -6.5t28.5 -6.5t28 -6q187 -46 187 -173q0 -74 -58 -117.5t-161 -43.5q-74 0 -151.5 21t-127.5 48z" />
<glyph unicode="t" horiz-adv-x="434" d="M22 405v120h72v132l163 20v-152h143v-120h-143v-225q0 -20 7.5 -31.5t16 -14t20.5 -2.5q20 0 77 22l57 -121q-99 -44 -178 -44q-163 0 -163 192v224h-72z" />
<glyph unicode="u" horiz-adv-x="631" d="M52 155v370h165v-331q0 -78 61 -78q32 0 69.5 18t64.5 43v348h164v-525h-164v59q-104 -70 -201 -70q-159 0 -159 166z" />
<glyph unicode="v" horiz-adv-x="590" d="M6 525h177l112 -350l112 350h177l-208 -525h-162z" />
<glyph unicode="w" horiz-adv-x="848" d="M11 525h174l77 -349l95 349h134l95 -349l77 349h174l-163 -525h-153l-97 329l-98 -329h-154z" />
<glyph unicode="x" horiz-adv-x="610" d="M-2 0l205 262l-194 263h186l110 -169l109 169h187l-195 -262l207 -263h-194l-115 172l-113 -172h-193z" />
<glyph unicode="y" horiz-adv-x="591" d="M7 525h176l112 -329l112 329h177l-287 -729h-176l91 205z" />
<glyph unicode="z" horiz-adv-x="567" d="M30 0v113l273 277h-263v135h492v-113l-273 -277h273v-135h-502z" />
<glyph unicode="{" horiz-adv-x="395" d="M6 299v97q59 0 80.5 28.5t14.5 81.5l-12 93q-16 121 57 180.5t213 59.5h18v-92h-18q-115 0 -98 -135l9 -75q11 -87 -25 -131t-117 -59q82 -14 117.5 -57.5t24.5 -130.5l-9 -75q-17 -135 98 -135h18v-92h-18q-141 0 -214 59.5t-56 180.5l13 93q16 109 -96 109z" />
<glyph unicode="|" horiz-adv-x="244" d="M62 -123v941h120v-941h-120z" />
<glyph unicode="}" horiz-adv-x="395" d="M18 -51h18q115 0 98 135l-10 75q-10 87 25.5 130.5t116.5 57.5q-82 15 -117 59t-25 131l10 75q17 135 -98 135h-18v92h18q140 0 212.5 -59.5t56.5 -180.5l-12 -93q-15 -110 95 -110v-97q-59 0 -80 -28t-14 -81l12 -93q16 -121 -57 -180.5t-213 -59.5h-18v92z" />
<glyph unicode="~" d="M19 215q67 162 186 162q52 0 126 -37t112 -37q51 0 88 65l94 -38q-65 -162 -185 -162q-49 0 -125.5 37t-113.5 37q-25 0 -44 -13t-44 -52z" />
<glyph unicode="&#xa1;" horiz-adv-x="288" d="M44 0l51 468h98l51 -468h-200zM61 535v165h167v-165h-167z" />
<glyph unicode="&#xa2;" horiz-adv-x="563" d="M38 351q0 127 63 196.5t158 75.5v77h117v-88q66 -16 151 -55l-66 -121q-107 48 -154 48q-48 0 -75 -36t-27 -97t27 -97.5t75 -36.5q47 0 154 48l66 -121q-89 -41 -151 -55v-89h-117v78q-96 7 -158.5 76.5t-62.5 196.5z" />
<glyph unicode="&#xa3;" horiz-adv-x="587" d="M45 0v114q4 1 11.5 4t26.5 14.5t34 25.5t29 37.5t17 50.5h-107v96h86q-7 13 -23.5 41t-25.5 45.5t-17.5 47t-8.5 58.5q0 83 57 130t159 47q42 0 81.5 -8t78 -24.5t56.5 -26.5t53 -30l-75 -109q-100 57 -161 57q-38 0 -58 -17t-20 -45q0 -31 33.5 -85t42.5 -81h161v-96 h-153q-7 -36 -26 -64t-39 -41h283v-141h-495z" />
<glyph unicode="&#xa5;" horiz-adv-x="722" d="M24 700h193l144 -277l144 277h193l-193 -323h119v-95h-176l-2 -4v-46h178v-95h-178v-137h-170v137h-178v95h178v46l-3 4h-175v95h119z" />
<glyph unicode="&#xa6;" horiz-adv-x="246" d="M63 -123v413h120v-413h-120zM63 405v413h120v-413h-120z" />
<glyph unicode="&#xa7;" horiz-adv-x="581" d="M37 311q0 83 81 120q-62 47 -62 120q0 71 55 115.5t156 44.5q125 0 252 -58l-63 -107q-104 41 -177 41q-29 0 -43.5 -9t-14.5 -22q0 -9 6.5 -16.5t22.5 -13.5t28 -9.5t39 -9.5t39 -9q37 -10 66 -21.5t58.5 -31t46 -49.5t16.5 -68q0 -82 -82 -121q63 -44 63 -119 q0 -71 -55.5 -115.5t-156.5 -44.5q-127 0 -252 58l63 107q112 -41 177 -41q58 0 58 31q0 10 -6.5 17t-22 13t-28 9.5t-38 9t-39.5 9.5q-84 22 -135.5 60.5t-51.5 109.5zM194 328q0 -34 116 -62q10 -3 15 -4q62 12 62 48q0 6 -2.5 12t-8 11t-11 9t-15.5 7.5t-17.5 6.5 t-19.5 6t-19.5 5t-20.5 5.5t-19 4.5q-32 -6 -46 -20t-14 -29z" />
<glyph unicode="&#xa8;" horiz-adv-x="254" d="M-29 599v122h127v-122h-127zM156 599v122h127v-122h-127z" />
<glyph unicode="&#xa9;" horiz-adv-x="791" d="M39 350q0 157 95 259t262 102t261.5 -102t94.5 -259t-94.5 -259t-261.5 -102t-262 102t-95 259zM79 350q0 -141 84 -232t232 -91q149 0 233.5 91t84.5 232t-84.5 232t-233.5 91q-148 0 -232 -91t-84 -232zM215 349q0 104 50 161t124 57q79 0 167 -62l-31 -36 q-69 54 -134 54q-56 0 -90 -47.5t-34 -126.5q0 -78 34 -125t90 -47q64 0 134 52l31 -35q-88 -62 -167 -62q-74 0 -124 57t-50 160z" />
<glyph unicode="&#xaa;" horiz-adv-x="419" d="M30 483q0 47 34.5 74t90.5 27q33 0 104 -13v15q0 22 -11.5 30t-41.5 8q-39 0 -120 -21l-34 74q99 30 175 30t110 -29.5t34 -98.5v-194h-112v33q-52 -40 -113 -40q-52 0 -84 30t-32 75zM143 493q0 -31 41 -31t75 26v30q-51 9 -66 9q-50 0 -50 -34z" />
<glyph unicode="&#xab;" horiz-adv-x="681" d="M26 219v98l305 210v-153l-168 -106l168 -105v-153zM327 219v98l304 210v-153l-167 -106l167 -105v-153z" />
<glyph unicode="&#xac;" d="M20 272v123h593v-305h-132v182h-461z" />
<glyph unicode="&#xad;" horiz-adv-x="434" d="M53 219v131h328v-131h-328z" />
<glyph unicode="&#xae;" horiz-adv-x="471" d="M38 500q0 87 53 143.5t145 56.5t144.5 -56.5t52.5 -143.5t-52.5 -143.5t-144.5 -56.5t-145 56.5t-53 143.5zM74 500q0 -74 41.5 -120.5t120.5 -46.5t120 46.5t41 120.5t-41 120.5t-120 46.5t-120.5 -46.5t-41.5 -120.5zM162 402v201h93q31 0 49.5 -16t18.5 -42 q0 -20 -14 -35.5t-36 -20.5l47 -87h-37l-44 85h-44v-85h-33zM195 518h59q35 0 35 27q0 28 -33 28h-61v-55z" />
<glyph unicode="&#xaf;" horiz-adv-x="312" d="M0 614v94h312v-94h-312z" />
<glyph unicode="&#xb0;" horiz-adv-x="416" d="M28 521q0 74 53 127t127 53t127 -53t53 -127t-53 -127t-127 -53t-127 53t-53 127zM122 521q0 -35 25.5 -60.5t60.5 -25.5t60.5 25.5t25.5 60.5t-25.5 60.5t-60.5 25.5t-60.5 -25.5t-25.5 -60.5z" />
<glyph unicode="&#xb1;" d="M63 0v105h518v-105h-518zM63 293v122h196v132h124v-132h198v-122h-198v-132h-124v132h-196z" />
<glyph unicode="&#xb2;" horiz-adv-x="411" d="M24 385v47q0 96 136 176q11 6 30.5 17t28.5 16.5t20 13.5t15 15t4 15q0 14 -14 23t-40 9q-50 0 -117 -40l-51 73q90 62 185 62q75 0 115 -34.5t40 -87.5q0 -29 -12 -54t-36.5 -44t-43 -30t-48.5 -26q-71 -36 -71 -56h211v-95h-352z" />
<glyph unicode="&#xb3;" horiz-adv-x="408" d="M13 436l51 77q73 -39 133 -39q64 0 64 38q0 45 -116 45h-20v96h23q96 0 96 37q0 27 -48 27q-50 0 -117 -36l-46 71q80 60 182 60q72 0 108.5 -29.5t36.5 -74.5q0 -61 -69 -91q39 -12 63.5 -41t24.5 -66q0 -55 -40 -93.5t-128 -38.5q-100 0 -198 58z" />
<glyph unicode="&#xb4;" horiz-adv-x="241" d="M-33 589l125 140h182l-173 -140h-134z" />
<glyph unicode="&#xb5;" horiz-adv-x="634" d="M63 -204v729h164v-331q0 -38 13.5 -58t48.5 -20q32 0 69.5 18t63.5 43v348h164v-525h-164v59q-99 -68 -195 -70v-193h-164z" />
<glyph unicode="&#xb6;" horiz-adv-x="735" d="M28 453q0 126 75.5 186.5t207.5 60.5h136v-885h-138v391q-123 0 -202 61.5t-79 185.5zM523 -186v886h138v-886h-138z" />
<glyph unicode="&#xb7;" horiz-adv-x="273" d="M53 195v180h167v-180h-167z" />
<glyph unicode="&#xb8;" horiz-adv-x="186" d="M-11 -164l32 79q24 -12 47 -12q46 0 46 35q0 13 -7 29t-14 25l-7 10h72q39 -43 39 -94q0 -48 -33 -71.5t-84 -23.5q-53 0 -91 23z" />
<glyph unicode="&#xb9;" horiz-adv-x="293" d="M3 736l127 69h110v-420h-116v315l-75 -38z" />
<glyph unicode="&#xba;" horiz-adv-x="419" d="M30 543q0 78 46 121t133 43q86 0 132.5 -43.5t46.5 -121.5t-46.5 -121t-132.5 -43t-132.5 43.5t-46.5 121.5zM142 543q0 -80 67 -80t67 79q0 80 -67 80t-67 -79z" />
<glyph unicode="&#xbb;" horiz-adv-x="681" d="M50 10v153l166 105l-166 106v152l304 -209v-98zM350 10v153l167 105l-167 106v152l305 -209v-98z" />
<glyph unicode="&#xbc;" horiz-adv-x="911" d="M22 631l127 69h111v-420h-116v315l-76 -38zM186 0l327 700h124l-327 -700h-124zM459 73v79l195 268h155v-252h66v-95h-66v-73h-117v73h-233zM578 168h114v162z" />
<glyph unicode="&#xbd;" horiz-adv-x="915" d="M22 631l127 69h111v-420h-116v315l-76 -38zM186 0l327 700h124l-327 -700h-124zM519 0v47q0 95 137 176q10 6 30.5 17t28.5 16t19 13.5t15 15.5t4 15q0 14 -14 23t-40 9q-50 0 -117 -40l-51 73q90 62 185 62q75 0 115 -34.5t40 -87.5q0 -29 -12 -54t-36.5 -44t-43 -30 t-48.5 -26q-71 -36 -71 -56h211v-95h-352z" />
<glyph unicode="&#xbe;" horiz-adv-x="998" d="M28 331l51 77q74 -39 133 -39q65 0 65 38q0 45 -116 45h-21v96h24q95 0 95 37q0 27 -47 27q-52 0 -117 -36l-47 71q80 60 183 60q72 0 108 -29.5t36 -74.5q0 -62 -69 -91q39 -12 63.5 -41t24.5 -66q0 -55 -40 -93.5t-127 -38.5q-97 0 -199 58zM277 0l328 700h124 l-328 -700h-124zM550 73v79l195 268h154v-252h66v-95h-66v-73h-116v73h-233zM669 168h114v162z" />
<glyph unicode="&#xbf;" horiz-adv-x="547" d="M33 175q0 47 19.5 84.5t55 62.5t73.5 40.5t87 28.5l8 77h102l9 -164q-102 -21 -141.5 -41.5t-39.5 -60.5q0 -31 23.5 -51.5t68.5 -20.5q71 0 155 54l69 -115q-127 -80 -253 -80q-104 0 -170 51t-66 135zM244 535v165h166v-165h-166z" />
<glyph unicode="&#xc0;" horiz-adv-x="717" d="M4 0l261 700h189l260 -700h-186l-40 128h-258l-39 -128h-187zM162 880h181l126 -140h-134zM272 261h175l-88 282z" />
<glyph unicode="&#xc1;" horiz-adv-x="717" d="M4 0l261 700h189l260 -700h-186l-40 128h-258l-39 -128h-187zM250 740l126 140h181l-172 -140h-135zM272 261h175l-88 282z" />
<glyph unicode="&#xc2;" horiz-adv-x="717" d="M4 0l261 700h189l260 -700h-186l-40 128h-258l-39 -128h-187zM175 740l106 140h156l108 -140h-112l-73 70l-73 -70h-112zM272 261h175l-88 282z" />
<glyph unicode="&#xc3;" horiz-adv-x="717" d="M4 0l261 700h189l260 -700h-186l-40 128h-258l-39 -128h-187zM166 779q36 67 56 87q26 24 61 24q31 0 80.5 -24t63.5 -24q25 0 52 46l72 -35q-16 -30 -22.5 -41.5t-22 -32.5t-33 -29t-39.5 -8q-31 0 -80.5 24t-63.5 24q-25 0 -52 -46zM272 261h175l-88 282z" />
<glyph unicode="&#xc4;" horiz-adv-x="717" d="M4 0l261 700h189l260 -700h-186l-40 128h-258l-39 -128h-187zM204 754v122h127v-122h-127zM272 261h175l-88 282zM389 754v122h127v-122h-127z" />
<glyph unicode="&#xc5;" horiz-adv-x="717" d="M4 0l261 700h189l260 -700h-186l-40 128h-258l-39 -128h-187zM246 844q0 48 33.5 81.5t81.5 33.5q47 0 80.5 -33.5t33.5 -81.5q0 -47 -33.5 -80.5t-80.5 -33.5q-48 0 -81.5 33.5t-33.5 80.5zM272 261h175l-88 282zM323 844q0 -16 11 -27t27 -11t27 11t11 27t-11 27.5 t-27 11.5t-27 -11t-11 -28z" />
<glyph unicode="&#xc6;" horiz-adv-x="1079" d="M-32 0l473 700h592v-144h-337v-135h276v-141h-276v-136h344v-144h-515v128h-271l-81 -128h-205zM342 266h183v285z" />
<glyph unicode="&#xc7;" horiz-adv-x="656" d="M38 350q0 177 80.5 269t212.5 92q78 0 149 -26t158 -74l-79 -126q-132 73 -207 73q-66 0 -102.5 -56t-36.5 -152t36.5 -152t102.5 -56q75 0 207 73l79 -126q-155 -85 -256 -97q31 -42 31 -84q0 -48 -33 -71.5t-85 -23.5q-53 0 -91 23l32 79q25 -12 47 -12q46 0 46 35 q0 21 -19 52q-124 7 -198 98t-74 262z" />
<glyph unicode="&#xc8;" horiz-adv-x="621" d="M68 0v700h509v-144h-338v-135h276v-141h-276v-136h343v-144h-514zM128 880h182l126 -140h-135z" />
<glyph unicode="&#xc9;" horiz-adv-x="621" d="M68 0v700h509v-144h-338v-135h276v-141h-276v-136h343v-144h-514zM217 740l125 140h182l-174 -140h-133z" />
<glyph unicode="&#xca;" horiz-adv-x="621" d="M68 0v700h509v-144h-338v-135h276v-141h-276v-136h343v-144h-514zM140 740l108 140h154l108 -140h-112l-73 70l-73 -70h-112z" />
<glyph unicode="&#xcb;" horiz-adv-x="621" d="M68 0v700h509v-144h-338v-135h276v-141h-276v-136h343v-144h-514zM169 750v122h127v-122h-127zM355 750v122h127v-122h-127z" />
<glyph unicode="&#xcc;" horiz-adv-x="307" d="M-45 880h182l126 -140h-134zM68 0v700h171v-700h-171z" />
<glyph unicode="&#xcd;" horiz-adv-x="307" d="M44 740l125 140h182l-173 -140h-134zM67 0v700h171v-700h-171z" />
<glyph unicode="&#xce;" horiz-adv-x="307" d="M-32 740l108 140h154l108 -140h-112l-73 70l-73 -70h-112zM68 0v700h171v-700h-171z" />
<glyph unicode="&#xcf;" horiz-adv-x="307" d="M-3 748v123h127v-123h-127zM68 0v700h171v-700h-171zM183 748v123h126v-123h-126z" />
<glyph unicode="&#xd0;" horiz-adv-x="744" d="M11 285v131h74v284h260q179 0 269.5 -83.5t90.5 -266.5t-90.5 -266.5t-269.5 -83.5h-260v285h-74zM256 144h74q104 0 154.5 45t50.5 161q0 115 -50.5 160.5t-154.5 45.5h-74v-140h138v-131h-138v-141z" />
<glyph unicode="&#xd1;" horiz-adv-x="750" d="M68 0v700h173l271 -445v445h170v-700h-173l-270 443v-443h-171zM188 787q15 29 22.5 41.5t22.5 32.5t32.5 28t39.5 8q31 0 80.5 -23.5t63.5 -23.5q26 0 52 46l71 -35q-13 -27 -21.5 -41.5t-23 -33.5t-32.5 -27.5t-40 -8.5q-30 0 -79.5 23.5t-63.5 23.5q-27 0 -52 -46z " />
<glyph unicode="&#xd2;" horiz-adv-x="767" d="M37 350q0 162 84.5 261.5t260.5 99.5q90 0 158 -27.5t108.5 -77.5t60 -114t19.5 -142t-19.5 -142t-60 -114t-108.5 -77.5t-158 -27.5q-176 0 -260.5 99.5t-84.5 261.5zM185 880h181l126 -140h-134zM212 350q0 -215 170 -215q171 0 171 215t-171 215q-170 0 -170 -215z " />
<glyph unicode="&#xd3;" horiz-adv-x="767" d="M37 350q0 162 84.5 261.5t260.5 99.5q90 0 158 -27.5t108.5 -77.5t60 -114t19.5 -142t-19.5 -142t-60 -114t-108.5 -77.5t-158 -27.5q-176 0 -260.5 99.5t-84.5 261.5zM212 350q0 -215 170 -215q171 0 171 215t-171 215q-170 0 -170 -215zM273 740l125 140h182l-172 -140 h-135z" />
<glyph unicode="&#xd4;" horiz-adv-x="767" d="M37 350q0 162 84.5 261.5t260.5 99.5q90 0 158 -27.5t108.5 -77.5t60 -114t19.5 -142t-19.5 -142t-60 -114t-108.5 -77.5t-158 -27.5q-176 0 -260.5 99.5t-84.5 261.5zM197 740l108 140h155l108 -140h-113l-73 70l-72 -70h-113zM212 350q0 -215 170 -215q171 0 171 215 t-171 215q-170 0 -170 -215z" />
<glyph unicode="&#xd5;" horiz-adv-x="767" d="M37 350q0 162 84.5 261.5t260.5 99.5q90 0 158 -27.5t108.5 -77.5t60 -114t19.5 -142t-19.5 -142t-60 -114t-108.5 -77.5t-158 -27.5q-176 0 -260.5 99.5t-84.5 261.5zM189 779q15 29 22.5 42t22.5 33t32.5 28t39.5 8q31 0 80.5 -24t63.5 -24q25 0 52 46l71 -35 q-14 -28 -22 -41.5t-22.5 -33t-32.5 -28t-40 -8.5q-30 0 -79.5 24t-63.5 24q-26 0 -52 -46zM212 350q0 -215 170 -215q171 0 171 215t-171 215q-170 0 -170 -215z" />
<glyph unicode="&#xd6;" horiz-adv-x="767" d="M37 350q0 162 84.5 261.5t260.5 99.5q90 0 158 -27.5t108.5 -77.5t60 -114t19.5 -142t-19.5 -142t-60 -114t-108.5 -77.5t-158 -27.5q-176 0 -260.5 99.5t-84.5 261.5zM212 350q0 -215 170 -215q171 0 171 215t-171 215q-170 0 -170 -215zM227 750v122h127v-122h-127z M412 750v122h127v-122h-127z" />
<glyph unicode="&#xd7;" d="M94 461l90 90l138 -128l137 126l91 -90l-133 -123l134 -124l-90 -90l-138 127l-137 -126l-91 90l134 123z" />
<glyph unicode="&#xd8;" horiz-adv-x="766" d="M37 350q0 162 85 261.5t261 99.5q112 0 191 -44l26 33h118l-72 -91q83 -95 83 -259q0 -162 -85 -261.5t-261 -99.5q-114 0 -191 43l-25 -32h-117l71 90q-84 94 -84 260zM213 350q0 -69 19 -119l243 310q-38 24 -92 24q-170 0 -170 -215zM291 158q37 -23 92 -23 q170 0 170 215q0 69 -19 117z" />
<glyph unicode="&#xd9;" horiz-adv-x="723" d="M61 291v409h171v-424q0 -67 27.5 -104t102.5 -37t102.5 37t27.5 104v424h170v-409q0 -68 -13 -119t-44.5 -94.5t-92.5 -66t-150 -22.5q-72 0 -125.5 15.5t-86.5 42t-53.5 66t-28 82t-7.5 96.5zM165 880h181l126 -140h-134z" />
<glyph unicode="&#xda;" horiz-adv-x="723" d="M61 291v409h171v-424q0 -67 27.5 -104t102.5 -37t102.5 37t27.5 104v424h170v-409q0 -68 -13 -119t-44.5 -94.5t-92.5 -66t-150 -22.5q-72 0 -125.5 15.5t-86.5 42t-53.5 66t-28 82t-7.5 96.5zM253 740l125 140h182l-173 -140h-134z" />
<glyph unicode="&#xdb;" horiz-adv-x="723" d="M61 291v409h171v-424q0 -67 27.5 -104t102.5 -37t102.5 37t27.5 104v424h170v-409q0 -68 -13 -119t-44.5 -94.5t-92.5 -66t-150 -22.5q-72 0 -125.5 15.5t-86.5 42t-53.5 66t-28 82t-7.5 96.5zM177 740l107 140h156l108 -140h-113l-73 70l-73 -70h-112z" />
<glyph unicode="&#xdc;" horiz-adv-x="723" d="M61 291v409h171v-424q0 -67 27.5 -104t102.5 -37t102.5 37t27.5 104v424h170v-409q0 -68 -13 -119t-44.5 -94.5t-92.5 -66t-150 -22.5q-72 0 -125.5 15.5t-86.5 42t-53.5 66t-28 82t-7.5 96.5zM206 750v122h126v-122h-126zM392 750v122h127v-122h-127z" />
<glyph unicode="&#xdd;" horiz-adv-x="672" d="M-1 700h193l144 -278l144 278h193l-252 -423v-277h-170v277zM227 740l126 140h181l-173 -140h-134z" />
<glyph unicode="&#xde;" horiz-adv-x="682" d="M68 0v700h171v-108h131q286 0 286 -231q0 -229 -286 -229h-131v-132h-171zM239 271h98q76 0 111 19.5t35 70.5t-34.5 70t-111.5 19h-98v-179z" />
<glyph unicode="&#xdf;" horiz-adv-x="733" d="M56 0v479q0 48 16.5 88.5t52 73.5t98.5 51.5t149 18.5q167 0 241.5 -64.5t74.5 -164.5v-4l-72 -104q-28 14 -72 26t-70 12q-44 0 -44 -31q0 -10 6 -18t19.5 -13.5t24 -9t31.5 -9t30 -8.5q169 -49 169 -176q0 -72 -51 -115t-146 -43q-68 0 -140 21t-118 48l63 116 q37 -21 92.5 -39.5t87.5 -18.5q21 0 33.5 8t12.5 21q0 7 -3 12.5t-10 10.5t-13.5 8.5t-18.5 7.5t-21.5 7t-24.5 7.5l-25 7.5q-34 11 -58.5 22.5t-51 31t-40.5 49.5t-14 68q0 71 49.5 115t142.5 44q18 0 54 -4q-28 53 -138 53q-92 0 -122 -31t-30 -91v-463h-164z" />
<glyph unicode="&#xe0;" horiz-adv-x="603" d="M23 162q0 79 54 124t142 45q49 0 169 -24v33q0 40 -19.5 56t-68.5 16q-67 0 -191 -37l-50 112q153 49 272 49q117 0 169 -47t52 -158v-331h-164v59q-78 -70 -181 -70q-81 0 -132.5 48t-51.5 125zM108 729h182l125 -140h-134zM190 177q0 -62 71 -62q67 0 127 50v63 q-75 16 -114 16q-84 0 -84 -67z" />
<glyph unicode="&#xe1;" horiz-adv-x="603" d="M23 162q0 79 54 124t142 45q49 0 169 -24v33q0 40 -19.5 56t-68.5 16q-67 0 -191 -37l-50 112q153 49 272 49q117 0 169 -47t52 -158v-331h-164v59q-78 -70 -181 -70q-81 0 -132.5 48t-51.5 125zM190 177q0 -62 71 -62q67 0 127 50v63q-75 16 -114 16q-84 0 -84 -67z M196 589l126 140h182l-174 -140h-134z" />
<glyph unicode="&#xe2;" horiz-adv-x="603" d="M23 162q0 79 54 124t142 45q49 0 169 -24v33q0 40 -19.5 56t-68.5 16q-67 0 -191 -37l-50 112q153 49 272 49q117 0 169 -47t52 -158v-331h-164v59q-78 -70 -181 -70q-81 0 -132.5 48t-51.5 125zM120 589l108 140h155l107 -140h-112l-73 70l-73 -70h-112zM190 177 q0 -62 71 -62q67 0 127 50v63q-75 16 -114 16q-84 0 -84 -67z" />
<glyph unicode="&#xe3;" horiz-adv-x="603" d="M23 162q0 79 54 124t142 45q49 0 169 -24v33q0 40 -19.5 56t-68.5 16q-67 0 -191 -37l-50 112q153 49 272 49q117 0 169 -47t52 -158v-331h-164v59q-78 -70 -181 -70q-81 0 -132.5 48t-51.5 125zM113 628q15 29 22.5 42t22.5 33t32.5 28t39.5 8q31 0 80.5 -24t63.5 -24 q25 0 52 46l71 -35q-14 -28 -22 -41.5t-22.5 -33t-32.5 -28t-40 -8.5q-30 0 -79.5 24t-63.5 24q-26 0 -52 -46zM190 177q0 -62 71 -62q67 0 127 50v63q-75 16 -114 16q-84 0 -84 -67z" />
<glyph unicode="&#xe4;" horiz-adv-x="603" d="M23 162q0 79 54 124t142 45q49 0 169 -24v33q0 40 -19.5 56t-68.5 16q-67 0 -191 -37l-50 112q153 49 272 49q117 0 169 -47t52 -158v-331h-164v59q-78 -70 -181 -70q-81 0 -132.5 48t-51.5 125zM149 599v122h127v-122h-127zM190 177q0 -62 71 -62q67 0 127 50v63 q-75 16 -114 16q-84 0 -84 -67zM335 599v122h126v-122h-126z" />
<glyph unicode="&#xe5;" horiz-adv-x="603" d="M23 162q0 79 54 124t142 45q49 0 169 -24v33q0 40 -19.5 56t-68.5 16q-67 0 -191 -37l-50 112q153 49 272 49q117 0 169 -47t52 -158v-331h-164v59q-78 -70 -181 -70q-81 0 -132.5 48t-51.5 125zM190 177q0 -62 71 -62q67 0 127 50v63q-75 16 -114 16q-84 0 -84 -67z M191 693q0 48 33.5 81.5t81.5 33.5q47 0 80.5 -33.5t33.5 -81.5q0 -47 -33.5 -80.5t-80.5 -33.5q-48 0 -81.5 33.5t-33.5 80.5zM268 693q0 -16 11 -27t27 -11t27 11t11 27t-11 27.5t-27 11.5t-27 -11t-11 -28z" />
<glyph unicode="&#xe6;" horiz-adv-x="930" d="M23 162q0 79 54 124t142 45q53 0 158 -24q3 29 10 51q-4 29 -24 41.5t-63 12.5q-67 0 -191 -37l-50 112q153 49 272 49q105 0 158 -38q64 38 154 38q124 0 189.5 -64t65.5 -169q0 -20 -2.5 -38.5t-5.5 -27.5l-2 -9h-345q12 -118 105 -118q73 0 193 62l59 -102 q-144 -81 -269 -81q-145 0 -212 102q-93 -102 -212 -102q-81 0 -132.5 48t-51.5 125zM190 177q0 -62 71 -62q65 0 126 49q-8 31 -11 63q-79 17 -102 17q-84 0 -84 -67zM544 314h193q-2 106 -93 106q-86 0 -100 -106z" />
<glyph unicode="&#xe7;" horiz-adv-x="525" d="M31 263q0 134 69.5 203.5t172.5 69.5q96 0 234 -62l-65 -122q-96 44 -142 44q-48 0 -75 -36t-27 -97t27 -97.5t75 -36.5q43 0 142 43l65 -121q-110 -51 -199 -60q31 -45 31 -83q0 -47 -33.5 -71t-84.5 -24q-53 0 -91 23l32 79q24 -12 47 -12q46 0 46 35q0 26 -21 54 q-89 13 -146 81.5t-57 189.5z" />
<glyph unicode="&#xe8;" horiz-adv-x="585" d="M30 261q0 130 71 202.5t197 72.5q123 0 188.5 -64t65.5 -169q0 -20 -2 -38.5t-4 -27.5l-3 -9h-345q12 -118 105 -118q73 0 192 62l60 -102q-147 -81 -269 -81q-113 0 -184.5 68.5t-71.5 203.5zM104 729h183l124 -140h-133zM199 314h193q-2 106 -93 106q-86 0 -100 -106z " />
<glyph unicode="&#xe9;" horiz-adv-x="585" d="M30 261q0 130 71 202.5t197 72.5q123 0 188.5 -64t65.5 -169q0 -20 -2 -38.5t-4 -27.5l-3 -9h-345q12 -118 105 -118q73 0 192 62l60 -102q-147 -81 -269 -81q-113 0 -184.5 68.5t-71.5 203.5zM193 589l125 140h183l-174 -140h-134zM199 314h193q-2 106 -93 106 q-86 0 -100 -106z" />
<glyph unicode="&#xea;" horiz-adv-x="585" d="M30 261q0 130 71 202.5t197 72.5q123 0 188.5 -64t65.5 -169q0 -20 -2 -38.5t-4 -27.5l-3 -9h-345q12 -118 105 -118q73 0 192 62l60 -102q-147 -81 -269 -81q-113 0 -184.5 68.5t-71.5 203.5zM117 589l108 140h154l108 -140h-112l-73 70l-73 -70h-112zM199 314h193 q-2 106 -93 106q-86 0 -100 -106z" />
<glyph unicode="&#xeb;" horiz-adv-x="585" d="M30 261q0 130 71 202.5t197 72.5q123 0 188.5 -64t65.5 -169q0 -20 -2 -38.5t-4 -27.5l-3 -9h-345q12 -118 105 -118q73 0 192 62l60 -102q-147 -81 -269 -81q-113 0 -184.5 68.5t-71.5 203.5zM146 599v122h127v-122h-127zM199 314h193q-2 106 -93 106q-86 0 -100 -106z M332 599v122h126v-122h-126z" />
<glyph unicode="&#xec;" horiz-adv-x="276" d="M-60 729h181l126 -140h-134zM56 0v525h164v-525h-164z" />
<glyph unicode="&#xed;" horiz-adv-x="276" d="M29 589l125 140h182l-173 -140h-134zM56 0v525h164v-525h-164z" />
<glyph unicode="&#xee;" horiz-adv-x="276" d="M-48 589l108 140h155l108 -140h-113l-73 70l-72 -70h-113zM56 0v525h164v-525h-164z" />
<glyph unicode="&#xef;" horiz-adv-x="276" d="M-18 599v122h127v-122h-127zM56 0v525h165v-525h-165zM168 599v122h127v-122h-127z" />
<glyph unicode="&#xf0;" horiz-adv-x="636" d="M31 233q0 109 67.5 176t171.5 67q52 0 93 -16.5t57 -33.5l15 -16q-29 104 -140 143l-39 -44h-132l55 62q-20 0 -39.5 -2t-28.5 -4l-9 -2l-19 126q40 11 107 11q41 0 97 -9l34 38h132l-63 -71q103 -49 158.5 -146t55.5 -219q0 -146 -78 -225t-216 -79q-130 0 -204.5 66 t-74.5 178zM202 232q0 -50 28.5 -83.5t90.5 -33.5q61 0 89.5 33t28.5 84q0 52 -28 85t-90 33t-90.5 -34t-28.5 -84z" />
<glyph unicode="&#xf1;" horiz-adv-x="631" d="M56 0v525h164v-59q105 70 199 70q160 0 160 -167v-369h-164v331q0 37 -13.5 57.5t-48.5 20.5q-34 0 -71 -18.5t-62 -42.5v-348h-164zM124 626q15 29 22.5 41.5t22.5 32.5t32.5 28t39.5 8q30 0 79.5 -23.5t63.5 -23.5q27 0 52 46l72 -35q-13 -27 -21.5 -41.5t-23 -33.5 t-32.5 -27.5t-40 -8.5q-31 0 -80.5 23.5t-63.5 23.5q-26 0 -52 -46z" />
<glyph unicode="&#xf2;" horiz-adv-x="620" d="M30 263q0 130 72.5 201.5t207.5 71.5q134 0 207 -72t73 -202t-72.5 -201.5t-207.5 -71.5t-207.5 71.5t-72.5 202.5zM112 729h182l126 -140h-134zM197 263q0 -148 113 -148q114 0 114 147q0 148 -114 148q-113 0 -113 -147z" />
<glyph unicode="&#xf3;" horiz-adv-x="620" d="M30 263q0 130 72.5 201.5t207.5 71.5q134 0 207 -72t73 -202t-72.5 -201.5t-207.5 -71.5t-207.5 71.5t-72.5 202.5zM197 263q0 -148 113 -148q114 0 114 147q0 148 -114 148q-113 0 -113 -147zM201 589l125 140h182l-173 -140h-134z" />
<glyph unicode="&#xf4;" horiz-adv-x="620" d="M30 263q0 130 72.5 201.5t207.5 71.5q134 0 207 -72t73 -202t-72.5 -201.5t-207.5 -71.5t-207.5 71.5t-72.5 202.5zM125 589l108 140h154l108 -140h-112l-73 70l-73 -70h-112zM197 263q0 -148 113 -148q114 0 114 147q0 148 -114 148q-113 0 -113 -147z" />
<glyph unicode="&#xf5;" horiz-adv-x="620" d="M30 263q0 130 72.5 201.5t207.5 71.5q134 0 207 -72t73 -202t-72.5 -201.5t-207.5 -71.5t-207.5 71.5t-72.5 202.5zM122 615q29 66 47 86q27 27 65 27q28 0 75 -18.5t68 -19.5q36 -3 54 38l68 -23q-1 -2 -7 -16t-8 -18l-8 -16t-10 -17t-11.5 -14.5t-14 -13.5t-15 -9.5 t-19 -7.5t-21.5 -2q-28 0 -74.5 19t-66.5 20q-37 0 -55 -38zM197 263q0 -148 113 -148q114 0 114 147q0 148 -114 148q-113 0 -113 -147z" />
<glyph unicode="&#xf6;" horiz-adv-x="620" d="M30 263q0 130 72.5 201.5t207.5 71.5q134 0 207 -72t73 -202t-72.5 -201.5t-207.5 -71.5t-207.5 71.5t-72.5 202.5zM154 599v122h127v-122h-127zM197 263q0 -148 113 -148q114 0 114 147q0 148 -114 148q-113 0 -113 -147zM340 599v122h127v-122h-127z" />
<glyph unicode="&#xf7;" d="M63 272v123h518v-123h-518zM243 148q0 32 23.5 54.5t55.5 22.5q33 0 56 -22.5t23 -54.5q0 -31 -23 -53t-56 -22q-32 0 -55.5 22t-23.5 53zM243 519q0 31 23.5 53.5t56.5 22.5q32 0 55 -22.5t23 -53.5t-23 -53.5t-55 -22.5q-33 0 -56.5 22.5t-23.5 53.5z" />
<glyph unicode="&#xf8;" horiz-adv-x="619" d="M30 263q0 130 72.5 201.5t207.5 71.5q89 0 151 -32l18 21h94l-53 -64q69 -72 69 -199q0 -130 -72.5 -201.5t-206.5 -71.5q-92 0 -155 33l-18 -22h-96l55 66q-66 70 -66 197zM196 263q0 -41 8 -68l166 199q-26 16 -60 16q-114 0 -114 -147zM246 132q26 -17 64 -17 q113 0 113 147q0 41 -9 71z" />
<glyph unicode="&#xf9;" horiz-adv-x="631" d="M52 155v370h165v-331q0 -78 61 -78q32 0 69.5 18t64.5 43v348h164v-525h-164v59q-104 -70 -201 -70q-159 0 -159 166zM116 729h181l126 -140h-134z" />
<glyph unicode="&#xfa;" horiz-adv-x="631" d="M52 155v370h165v-331q0 -78 61 -78q32 0 69.5 18t64.5 43v348h164v-525h-164v59q-104 -70 -201 -70q-159 0 -159 166zM204 589l126 140h181l-172 -140h-135z" />
<glyph unicode="&#xfb;" horiz-adv-x="631" d="M52 155v370h165v-331q0 -78 61 -78q32 0 69.5 18t64.5 43v348h164v-525h-164v59q-104 -70 -201 -70q-159 0 -159 166zM129 589l106 140h156l108 -140h-112l-73 70l-73 -70h-112z" />
<glyph unicode="&#xfc;" horiz-adv-x="631" d="M52 155v370h165v-331q0 -78 61 -78q32 0 69.5 18t64.5 43v348h164v-525h-164v59q-104 -70 -201 -70q-159 0 -159 166zM158 599v122h127v-122h-127zM343 599v122h127v-122h-127z" />
<glyph unicode="&#xfd;" horiz-adv-x="591" d="M7 525h176l112 -329l112 329h177l-287 -729h-176l91 205zM186 589l125 140h182l-173 -140h-134z" />
<glyph unicode="&#xfe;" horiz-adv-x="630" d="M56 -204v933h164v-259q81 66 172 66q95 0 150.5 -70.5t55.5 -203.5q0 -132 -55.5 -202.5t-150.5 -70.5q-93 0 -172 65v-258h-164zM220 182q52 -61 120 -61q92 0 92 142q0 141 -92 141q-68 0 -120 -62v-160z" />
<glyph unicode="&#xff;" horiz-adv-x="591" d="M7 525h176l112 -329l112 329h177l-287 -729h-176l91 205zM139 599v122h127v-122h-127zM325 599v122h127v-122h-127z" />
<glyph unicode="&#x152;" horiz-adv-x="1108" d="M37 350q0 162 84.5 261.5t260.5 99.5q99 0 172 -34v23h509v-144h-338v-135h276v-141h-276v-136h343v-144h-514v23q-73 -34 -172 -34q-176 0 -260.5 99.5t-84.5 261.5zM212 350q0 -215 170 -215q171 0 171 215t-171 215q-170 0 -170 -215z" />
<glyph unicode="&#x153;" horiz-adv-x="979" d="M30 263q0 130 72.5 201.5t207.5 71.5q123 0 196 -62q71 62 187 62q123 0 188.5 -64t65.5 -169q0 -20 -2.5 -38.5t-4.5 -27.5l-2 -9h-345q12 -118 104 -118q73 0 193 62l59 -102q-144 -81 -268 -81q-110 0 -176 60q-72 -60 -195 -60q-135 0 -207.5 71.5t-72.5 202.5z M197 263q0 -148 113 -148q114 0 114 147q0 148 -114 148q-113 0 -113 -147zM594 314h193q-3 106 -93 106q-86 0 -100 -106z" />
<glyph unicode="&#x178;" horiz-adv-x="672" d="M-1 700h193l144 -278l144 278h193l-252 -423v-277h-170v277zM180 750v122h127v-122h-127zM366 750v122h126v-122h-126z" />
<glyph unicode="&#x2c6;" horiz-adv-x="297" d="M-37 589l108 140h154l108 -140h-112l-73 70l-73 -70h-112z" />
<glyph unicode="&#x2dc;" horiz-adv-x="305" d="M-40 628q15 29 22.5 42t22.5 33t32.5 28t39.5 8q31 0 80.5 -24t63.5 -24q25 0 52 46l71 -35q-14 -28 -22 -41.5t-22.5 -33t-32.5 -28t-40 -8.5q-30 0 -79.5 24t-63.5 24q-26 0 -52 -46z" />
<glyph unicode="&#x2000;" horiz-adv-x="479" />
<glyph unicode="&#x2001;" horiz-adv-x="959" />
<glyph unicode="&#x2002;" horiz-adv-x="479" />
<glyph unicode="&#x2003;" horiz-adv-x="959" />
<glyph unicode="&#x2004;" horiz-adv-x="319" />
<glyph unicode="&#x2005;" horiz-adv-x="239" />
<glyph unicode="&#x2006;" horiz-adv-x="159" />
<glyph unicode="&#x2007;" horiz-adv-x="159" />
<glyph unicode="&#x2008;" horiz-adv-x="119" />
<glyph unicode="&#x2009;" horiz-adv-x="191" />
<glyph unicode="&#x200a;" horiz-adv-x="53" />
<glyph unicode="&#x2010;" horiz-adv-x="434" d="M53 219v131h328v-131h-328z" />
<glyph unicode="&#x2011;" horiz-adv-x="434" d="M53 219v131h328v-131h-328z" />
<glyph unicode="&#x2012;" horiz-adv-x="434" d="M53 219v131h328v-131h-328z" />
<glyph unicode="&#x2013;" horiz-adv-x="564" d="M54 220v129h456v-129h-456z" />
<glyph unicode="&#x2014;" horiz-adv-x="672" d="M54 220v129h564v-129h-564z" />
<glyph unicode="&#x2018;" horiz-adv-x="267" d="M40 573l135 147l44 -55l-77 -113h74v-180h-165z" />
<glyph unicode="&#x2019;" horiz-adv-x="254" d="M44 407l77 113h-74v180h165l11 -201l-136 -147z" />
<glyph unicode="&#x201a;" horiz-adv-x="273" d="M49 -114l77 114h-74v179h165l11 -201l-136 -146z" />
<glyph unicode="&#x201c;" horiz-adv-x="506" d="M40 573l135 147l44 -55l-77 -113h74v-180h-165zM278 573l136 147l44 -55l-77 -113h74v-180h-166z" />
<glyph unicode="&#x201d;" horiz-adv-x="493" d="M44 407l77 113h-74v180h165l11 -201l-136 -147zM282 407l76 113h-74v180h167l11 -201l-137 -147z" />
<glyph unicode="&#x201e;" horiz-adv-x="512" d="M49 -114l77 114h-74v179h165l11 -201l-136 -146zM287 -114l76 114h-74v179h167l11 -201l-137 -146z" />
<glyph unicode="&#x2022;" horiz-adv-x="468" d="M66 285q0 70 48.5 119t118.5 49t119.5 -49t49.5 -119t-49.5 -119t-119.5 -49t-118.5 49t-48.5 119z" />
<glyph unicode="&#x2026;" horiz-adv-x="784" d="M52 0v179h167v-179h-167zM309 0v179h166v-179h-166zM565 0v179h167v-179h-167z" />
<glyph unicode="&#x202f;" horiz-adv-x="191" />
<glyph unicode="&#x2039;" horiz-adv-x="380" d="M26 219v98l305 210v-153l-168 -106l168 -105v-153z" />
<glyph unicode="&#x203a;" horiz-adv-x="380" d="M50 10v153l166 105l-166 106v152l304 -209v-98z" />
<glyph unicode="&#x205f;" horiz-adv-x="239" />
<glyph unicode="&#x20ac;" horiz-adv-x="731" d="M35 234v85h60v56h-60v85h69q23 124 98.5 187.5t185.5 63.5q77 0 149 -26t158 -74l-79 -126q-132 73 -207 73q-90 0 -123 -98h212v-85h-227q-1 -8 -1 -25q0 -21 1 -31h227v-85h-210q35 -92 121 -92q75 0 207 73l79 -126q-86 -48 -158 -74t-149 -26q-108 0 -183 62t-99 183 h-71z" />
<glyph unicode="&#x2122;" horiz-adv-x="632" d="M53 648v52h218v-52h-78v-172h-63v172h-77zM298 476v224h68l70 -124l71 124h66v-224h-64v132l-54 -95h-38l-55 98v-135h-64z" />
<glyph unicode="&#xe000;" horiz-adv-x="525" d="M0 0v525h525v-525h-525z" />
</font>
</defs>
</svg>
