<?xml version="1.0" standalone="no"?>
<!DOCTYPE svg PUBLIC "-//W3C//DTD SVG 1.1//EN" "http://www.w3.org/Graphics/SVG/1.1/DTD/svg11.dtd" >
<svg xmlns="http://www.w3.org/2000/svg">
<metadata></metadata>
<defs>
<font id="verb_ultraitalic" horiz-adv-x="660" >
<font-face units-per-em="1000" ascent="800" descent="-200" />
<missing-glyph horiz-adv-x="260" />
<glyph unicode="&#xfb01;" horiz-adv-x="700" d="M-109 -85q89 28 110 50t34 93l59 319h-69l25 148h71q19 105 64 154.5t134 49.5q75 0 172 -51l-65 -120q-36 12 -57 12q-34 0 -42 -44v-1h117l-26 -148h-119l-55 -302q-23 -123 -42 -165q-34 -70 -123 -107q-55 -23 -145 -41zM400 0l93 525h205l-93 -525h-205zM499 573 l26 153h211l-25 -153h-212z" />
<glyph unicode="&#xfb02;" horiz-adv-x="700" d="M-109 -85q89 28 110 50t34 93l59 319h-69l25 148h71q19 105 64 154.5t134 49.5q75 0 172 -51l-65 -120q-36 12 -57 12q-34 0 -42 -44v-1h117l-26 -148h-119l-55 -302q-23 -123 -42 -165q-34 -70 -123 -107q-55 -23 -145 -41zM400 0l129 729h205l-129 -729h-205z" />
<glyph unicode="&#xfb03;" horiz-adv-x="1101" d="M-109 -85q89 28 110 50t34 93l59 319h-69l25 148h71q19 105 64 154.5t134 49.5q102 0 213 -63l-71 -114q-59 18 -92 18q-34 0 -42 -44v-1h97l-26 -148h-99l-55 -302q-23 -123 -42 -165q-34 -70 -123 -107q-55 -23 -145 -41zM292 -85q89 28 110 50t34 93l59 319h-69 l25 148h71q19 105 64 154.5t134 49.5q75 0 172 -51l-65 -120q-36 12 -57 12q-34 0 -42 -44v-1h117l-26 -148h-119l-55 -302q-23 -123 -42 -165q-34 -70 -123 -107q-55 -23 -145 -41zM801 0l93 525h205l-93 -525h-205zM900 573l26 153h211l-25 -153h-212z" />
<glyph unicode="&#xfb04;" horiz-adv-x="1101" d="M-109 -85q89 28 110 50t34 93l59 319h-69l25 148h71q19 105 64 154.5t134 49.5q102 0 213 -63l-71 -114q-59 18 -92 18q-34 0 -42 -44v-1h97l-26 -148h-99l-55 -302q-23 -123 -42 -165q-34 -70 -123 -107q-55 -23 -145 -41zM292 -85q89 28 110 50t34 93l59 319h-69 l25 148h71q19 105 64 154.5t134 49.5q75 0 172 -51l-65 -120q-36 12 -57 12q-34 0 -42 -44v-1h117l-26 -148h-119l-55 -302q-23 -123 -42 -165q-34 -70 -123 -107q-55 -23 -145 -41zM801 0l129 729h205l-129 -729h-205z" />
<glyph horiz-adv-x="1000" />
<glyph horiz-adv-x="1000" />
<glyph unicode="&#xd;" horiz-adv-x="1000" />
<glyph unicode=" "  horiz-adv-x="260" />
<glyph unicode="&#x09;" horiz-adv-x="260" />
<glyph unicode="&#xa0;" horiz-adv-x="260" />
<glyph unicode="!" horiz-adv-x="298" d="M-4 0l31 189h202l-31 -189h-202zM78 243l17 457h250l-145 -457h-122z" />
<glyph unicode="&#x22;" horiz-adv-x="462" d="M72 413l18 287h189l-82 -287h-125zM302 413l18 287h189l-83 -287h-124z" />
<glyph unicode="#" horiz-adv-x="725" d="M1 137l25 151h118l41 124h-95l25 152h119l45 136h157l-45 -136h99l45 136h157l-45 -136h95l-25 -152h-119l-41 -124h96l-25 -151h-120l-45 -137h-156l44 137h-99l-44 -137h-157l44 137h-94zM301 288h99l41 124h-99z" />
<glyph unicode="$" horiz-adv-x="687" d="M-9 108l110 142q152 -86 242 -86q31 0 50.5 9t19.5 25q0 20 -28 31.5t-83 25.5t-90 30q-139 64 -139 195q0 95 72 161.5t204 69.5l16 90h145l-19 -107q98 -24 206 -86l-110 -141q-44 26 -106.5 47.5t-106.5 21.5q-70 0 -70 -35q0 -20 25 -30.5t80 -24.5t95 -32 q140 -63 140 -191q0 -96 -72.5 -163t-204.5 -71l-16 -89h-145l18 104q-130 30 -233 104z" />
<glyph unicode="%" horiz-adv-x="1022" d="M60 494q0 89 58.5 153t164.5 64q89 0 142.5 -43.5t53.5 -114.5q0 -89 -58.5 -153t-164.5 -64q-89 0 -142.5 43.5t-53.5 114.5zM203 0l478 700h155l-479 -700h-154zM209 510q0 -58 53 -58q33 0 50.5 29t17.5 56q0 58 -53 58q-33 0 -50.5 -29t-17.5 -56zM561 147 q0 89 58.5 153t164.5 64q89 0 142.5 -43.5t53.5 -114.5q0 -89 -58.5 -153t-164.5 -64q-89 0 -142.5 43.5t-53.5 114.5zM710 163q0 -58 53 -58q33 0 50.5 29t17.5 56q0 58 -53 58q-33 0 -50.5 -29t-17.5 -56z" />
<glyph unicode="&#x26;" horiz-adv-x="742" d="M15 175q0 67 46 115.5t125 90.5q-60 75 -60 140q0 80 67 135t177 55q104 0 163 -48.5t59 -116.5q0 -58 -45 -106t-123 -95l59 -67q30 41 50 91h204q-36 -120 -137 -226l124 -143h-213l-38 44q-97 -55 -211 -55q-112 0 -179.5 52t-67.5 134zM215 180q0 -19 16 -30.5 t44 -11.5q41 0 92 30l-81 95q-71 -47 -71 -83zM308 513q0 -25 25 -60q73 41 73 78q0 14 -9.5 26.5t-30.5 12.5q-26 0 -42 -18t-16 -39z" />
<glyph unicode="'" horiz-adv-x="232" d="M72 413l18 287h189l-82 -287h-125z" />
<glyph unicode="(" horiz-adv-x="349" d="M10 142l75 412q10 54 16.5 81.5t20.5 61t32 50t51 36t77 31.5t110 25l34 -115q-69 -24 -89 -44t-29 -68l-95 -528q-9 -51 1 -76t57 -47l-51 -104q-114 25 -165 61.5t-55.5 90.5t10.5 133z" />
<glyph unicode=")" horiz-adv-x="350" d="M-61 -28q69 24 89 44t29 68l96 528q9 51 -1 76t-57 47l51 104q114 -25 164.5 -61.5t55 -90.5t-10.5 -133l-74 -412q-7 -36 -11 -56.5t-11 -47t-15 -40.5t-19.5 -32.5t-27.5 -29t-36.5 -23.5t-48 -21.5t-61.5 -17.5t-78 -17z" />
<glyph unicode="*" horiz-adv-x="478" d="M60 504l166 -3l-157 56l107 128l81 -147l-31 165l162 -29l-85 -144l125 110l57 -156l-157 1l147 -54l-107 -128l-78 137l29 -156l-163 28l85 145l-125 -109z" />
<glyph unicode="+" d="M62 258l25 151h185l30 170h154l-30 -170h184l-25 -151h-185l-30 -170h-154l30 170h-184z" />
<glyph unicode="," horiz-adv-x="284" d="M-33 -119l110 119h-89l35 209h202l-29 -237l-189 -157z" />
<glyph unicode="-" horiz-adv-x="430" d="M24 204l28 161h348l-28 -161h-348z" />
<glyph unicode="." horiz-adv-x="280" d="M-12 0l35 209h202l-35 -209h-202z" />
<glyph unicode="/" horiz-adv-x="510" d="M-49 -90l470 880h157l-470 -880h-157z" />
<glyph unicode="0" horiz-adv-x="710" d="M35 301q0 33 5.5 70.5t18.5 86.5t39.5 92t62.5 80t93.5 59t128.5 22q85 0 147.5 -26.5t96.5 -72.5t49.5 -99t15.5 -115q0 -33 -5.5 -70.5t-18.5 -86.5t-39.5 -92t-62.5 -80t-93.5 -59t-128.5 -22q-68 0 -122.5 18t-88.5 47.5t-57 70.5t-32 84.5t-9 92.5zM247 282 q1 -61 20.5 -96t76.5 -35q38 0 66.5 34t42 81.5t19.5 87t6 63.5q0 29 -3.5 49.5t-13 40.5t-30 30.5t-50.5 10.5q-38 0 -66.5 -34t-42 -81.5t-19.5 -87t-6 -63.5z" />
<glyph unicode="1" horiz-adv-x="452" d="M33 581l230 119h203l-123 -700h-213l90 493l-123 -58z" />
<glyph unicode="2" horiz-adv-x="638" d="M-32 0l14 83q10 57 35 103.5t67 83t76 59t87 51.5q28 16 65.5 35.5t53.5 28t33.5 20t23 20.5t5.5 20q-2 32 -64 32q-73 0 -194 -66l-76 146q153 95 302 95q121 0 184 -57t63 -140q0 -42 -18 -79.5t-41.5 -63.5t-64 -52.5t-69 -41t-72.5 -35.5q-69 -32 -89.5 -44 t-24.5 -23h315l-28 -175h-583z" />
<glyph unicode="3" horiz-adv-x="639" d="M-33 110l104 129q124 -73 214 -73q46 0 70 14.5t24 38.5q0 20 -12.5 32.5t-40 17.5t-48 6t-60.5 1h-30l29 175h35h32t32 1.5t34 4.5t26 8.5t20.5 15t6.5 22.5q0 33 -53 33q-74 0 -192 -59l-67 143q144 91 303 91q116 0 173 -46.5t57 -119.5q0 -106 -132 -169 q47 -19 75 -61.5t28 -100.5q0 -38 -14 -74.5t-44.5 -71.5t-89 -57t-137.5 -22q-186 0 -343 121z" />
<glyph unicode="4" horiz-adv-x="713" d="M-21 115l24 145l376 440h284l-72 -410h103l-29 -175h-105l-20 -115h-213l20 115h-368zM234 290h144l38 218z" />
<glyph unicode="5" horiz-adv-x="631" d="M-27 110l117 131q93 -71 176 -71q48 0 80 19t32 51q0 27 -21.5 44t-64.5 17q-48 0 -121 -38l-116 79l99 358h493l-29 -175h-310l-13 -59q33 5 62 5q117 0 178 -63t61 -157q0 -107 -81 -184.5t-226 -77.5q-174 0 -316 121z" />
<glyph unicode="6" horiz-adv-x="662" d="M27 272q0 187 138.5 313t357.5 126q44 0 80.5 -5.5t50.5 -11.5l15 -5l-75 -154q-28 5 -64 5q-181 0 -249 -115q53 30 128 30q101 0 163 -57t62 -154q0 -107 -80 -181t-218 -74q-145 0 -227 81t-82 202zM241 255q0 -42 24 -68.5t66 -26.5q44 0 67 23t23 51q0 66 -86 66 q-53 0 -94 -39v-6z" />
<glyph unicode="7" horiz-adv-x="552" d="M22 0q12 67 48 144t76 137t87 119t70.5 85t37.5 40h-284l27 175h528l-27 -165q-12 -12 -32 -33t-73 -85t-96 -125t-83.5 -142.5t-53.5 -149.5h-225z" />
<glyph unicode="8" horiz-adv-x="672" d="M-1 184q0 131 182 207q-74 58 -74 136q0 81 72.5 132.5t206.5 51.5q127 0 196 -47t69 -122q0 -96 -128 -167q113 -63 113 -170q0 -98 -87 -157t-246 -59q-147 0 -225.5 52t-78.5 143zM216 208q0 -26 23.5 -43.5t67.5 -17.5q49 0 81 21t32 51q0 45 -76 85 q-39 -13 -63.5 -24t-44.5 -30t-20 -42zM311 503q0 -29 47 -53q40 12 61 26t21 36q0 18 -13.5 32.5t-42.5 14.5q-32 0 -52.5 -17.5t-20.5 -38.5z" />
<glyph unicode="9" horiz-adv-x="663" d="M11 11l75 154q28 -5 64 -5q181 0 249 115q-53 -30 -128 -30q-101 0 -163 57t-62 154q0 107 80 181t218 74q145 0 227 -81t82 -202q0 -187 -138.5 -313t-357.5 -126q-44 0 -80.5 5.5t-50.5 11.5zM259 466q0 -66 86 -66q52 0 94 38v7q0 42 -24 68.5t-66 26.5q-44 0 -67 -23 t-23 -51z" />
<glyph unicode=":" horiz-adv-x="297" d="M-5 0l35 209h202l-35 -209h-202zM47 289l35 209h202l-35 -209h-202z" />
<glyph unicode=";" horiz-adv-x="300" d="M-26 -119l110 119h-89l35 209h202l-29 -237l-189 -157zM48 289l34 209h202l-35 -209h-201z" />
<glyph unicode="&#x3c;" d="M50 266l22 135l557 200l-28 -174l-318 -103l278 -103l-25 -155z" />
<glyph unicode="=" d="M44 160l25 151h523l-25 -151h-523zM79 359l25 151h522l-25 -151h-522z" />
<glyph unicode="&#x3e;" d="M42 66l28 174l318 102l-278 104l25 155l486 -200l-22 -135z" />
<glyph unicode="?" horiz-adv-x="567" d="M73 0l31 189h202l-31 -189h-202zM80 640q136 71 263 71q110 0 171 -52.5t61 -134.5q0 -100 -78 -155t-199 -75l-20 -51h-123l17 163q103 16 146 35t43 49q0 19 -15.5 32.5t-49.5 13.5q-60 0 -150 -48z" />
<glyph unicode="@" horiz-adv-x="943" d="M19 195q0 211 144 351t379 140q102 0 179 -30.5t118.5 -80.5t61.5 -105.5t19 -114.5q-1 -30 -5.5 -65t-14.5 -81.5t-30.5 -88t-47.5 -78t-70.5 -58t-95.5 -21.5q-41 0 -70 12.5t-42.5 33t-19 39t-5.5 38.5q-72 -64 -161 -64q-65 0 -104.5 40.5t-39.5 104.5q0 74 53.5 116 t136.5 42q44 0 153 -21l5 31q7 37 -7 51.5t-53 14.5q-75 0 -176 -37l-33 102q130 44 237 44q108 0 148.5 -46.5t22.5 -143.5l-23 -128q-16 -73 -12 -108t40 -35q62 0 106.5 96.5t44.5 209.5q1 34 -6 68t-28.5 72t-55.5 66t-92 46.5t-133 18.5q-142 0 -248.5 -60.5t-159 -158 t-52.5 -216.5q0 -142 80 -226t224 -84q50 0 97.5 10t70.5 20l23 10l31 -49q-11 -6 -30 -14.5t-78.5 -22.5t-117.5 -14q-168 0 -265.5 103.5t-97.5 270.5zM364 185q0 -54 56 -54t114 47l11 57q-67 14 -100 14q-81 0 -81 -64z" />
<glyph unicode="A" horiz-adv-x="725" d="M-60 0l377 700h235l130 -700h-226l-11 106h-211l-48 -106h-246zM309 271h118l-22 212z" />
<glyph unicode="B" horiz-adv-x="706" d="M1 0l123 700h308q123 0 192 -43t69 -120q0 -65 -48.5 -110t-99.5 -52q44 -8 85.5 -49t41.5 -112q0 -105 -71 -159.5t-203 -54.5h-397zM240 161h99q124 0 124 78q0 53 -100 53h-97zM290 441h87q99 0 99 59q0 39 -80 39h-86z" />
<glyph unicode="C" horiz-adv-x="663" d="M30 269q0 208 97.5 325t255.5 117q61 0 125.5 -19t100 -36.5t99.5 -53.5l-112 -151q-65 35 -106 51.5t-81 16.5q-53 0 -90.5 -35.5t-53.5 -86t-16 -109.5q0 -108 81 -108q68 0 205 64l88 -168q-189 -87 -346 -87q-116 0 -181.5 71.5t-65.5 208.5z" />
<glyph unicode="D" horiz-adv-x="738" d="M1 0l123 700h250q100 0 171 -23.5t109 -65t55 -91t17 -109.5q0 -24 -2.5 -50.5t-12 -68.5t-25 -79.5t-45 -77.5t-68.5 -69t-99.5 -47.5t-133.5 -18.5h-339zM243 179h65q60 0 103 24t63 62.5t28.5 73t8.5 68.5q0 61 -38.5 87.5t-121.5 26.5h-44z" />
<glyph unicode="E" horiz-adv-x="627" d="M1 0l122 700h539l-31 -179h-325l-15 -83h262l-30 -175h-263l-15 -84h325l-31 -179h-538z" />
<glyph unicode="F" horiz-adv-x="602" d="M1 0l122 700h538l-29 -179h-325l-18 -84h255l-29 -175h-255l-47 -262h-212z" />
<glyph unicode="G" horiz-adv-x="719" d="M30 269q0 207 99.5 324.5t258.5 117.5q64 0 131 -18.5t105.5 -37t103.5 -53.5l-112 -151q-66 35 -111.5 51.5t-90.5 16.5q-54 0 -92.5 -35.5t-55.5 -86t-17 -109.5q0 -56 18.5 -87.5t70.5 -31.5q57 0 133 60l5 26h-136l27 165h335l-73 -420h-199l9 53q-84 -64 -172 -64 q-107 0 -172 72.5t-65 207.5z" />
<glyph unicode="H" horiz-adv-x="739" d="M1 0l123 700h213l-43 -245h206l43 245h213l-123 -700h-213l49 280h-206l-49 -280h-213z" />
<glyph unicode="I" horiz-adv-x="320" d="M1 0l123 700h213l-123 -700h-213z" />
<glyph unicode="J" horiz-adv-x="320" d="M-126 -40q84 24 107.5 43t31.5 66l112 631h212l-109 -619q-19 -107 -39 -145q-35 -68 -137 -105q-53 -19 -131 -35z" />
<glyph unicode="K" horiz-adv-x="723" d="M1 0l123 700h213l-44 -246l241 246h273l-334 -328l213 -372h-234l-126 228l-87 -86l-25 -142h-213z" />
<glyph unicode="L" horiz-adv-x="585" d="M1 0l123 700h213l-94 -525h313l-28 -175h-527z" />
<glyph unicode="M" horiz-adv-x="864" d="M1 0l123 700h216l94 -345l231 345h216l-123 -700h-213l60 343l-149 -226h-109l-69 250l-64 -367h-213z" />
<glyph unicode="N" horiz-adv-x="755" d="M1 0l123 700h215l152 -384l68 384h213l-123 -700h-215l-153 385l-67 -385h-213z" />
<glyph unicode="O" horiz-adv-x="784" d="M30 305q0 42 8 88.5t33 105t64.5 104t109.5 77t160 31.5q175 0 270.5 -82t95.5 -235q0 -42 -8 -88.5t-33 -105t-64.5 -104t-109.5 -77t-160 -31.5q-175 0 -270.5 82t-95.5 235zM250 312q0 -144 138 -144q45 0 78.5 22.5t51 57.5t25.5 70.5t8 68.5q0 144 -138 144 q-45 0 -78.5 -22.5t-51 -57.5t-25.5 -70.5t-8 -68.5z" />
<glyph unicode="P" horiz-adv-x="688" d="M1 0l123 700h285q301 0 301 -216q0 -31 -7.5 -63t-28 -68.5t-51.5 -64t-82.5 -46t-116.5 -18.5h-170l-40 -224h-213zM283 397h99q57 0 83 22.5t26 57.5q0 48 -86 48h-97z" />
<glyph unicode="Q" horiz-adv-x="784" d="M30 305q0 42 8 88.5t33 105t64.5 104t109.5 77t160 31.5q175 0 270.5 -82t95.5 -235q0 -40 -8.5 -85.5t-28.5 -100t-61 -103.5t-98 -78l88 -81l-150 -131l-148 174q-160 8 -247.5 89t-87.5 227zM250 312q0 -144 138 -144q45 0 78.5 22.5t51 57.5t25.5 70.5t8 68.5 q0 144 -138 144q-45 0 -78.5 -22.5t-51 -57.5t-25.5 -70.5t-8 -68.5z" />
<glyph unicode="R" horiz-adv-x="718" d="M1 0l123 700h319q291 0 291 -205q0 -33 -10.5 -68t-32.5 -71.5t-65 -65t-100 -38.5l120 -252h-218l-108 246h-62l-44 -246h-213zM285 410h123q52 0 79.5 21t27.5 58q0 29 -23.5 38t-68.5 9h-113z" />
<glyph unicode="S" horiz-adv-x="663" d="M-22 108l110 142q152 -86 242 -86q31 0 50.5 9t19.5 25q0 20 -28 31.5t-83 25.5t-90 30q-139 64 -139 195q0 97 74.5 164t211.5 67q159 0 338 -103l-110 -141q-44 26 -106.5 47.5t-106.5 21.5q-70 0 -70 -35q0 -20 25 -30.5t80 -24.5t95 -32q140 -63 140 -191 q0 -98 -76 -166t-215 -68q-100 0 -196 35t-166 84z" />
<glyph unicode="T" horiz-adv-x="611" d="M47 521l30 179h595l-30 -179h-190l-94 -521h-213l94 521h-192z" />
<glyph unicode="U" horiz-adv-x="727" d="M51 339l63 361h215l-74 -412q-10 -57 7 -87.5t78 -30.5t87.5 30t36.5 88l74 412h213l-75 -421q-12 -66 -31.5 -114t-56.5 -90t-100.5 -64t-151.5 -22q-84 0 -143.5 18t-92 48.5t-47 76.5t-14 95t11.5 112z" />
<glyph unicode="V" horiz-adv-x="724" d="M59 700h240l46 -429l192 429h264l-375 -700h-236z" />
<glyph unicode="W" horiz-adv-x="990" d="M67 700h239l8 -375l160 375h173l24 -365l135 365h255l-317 -700h-205l-28 392l-168 -392h-205z" />
<glyph unicode="X" horiz-adv-x="685" d="M-68 0l288 355l-153 345h234l63 -209l135 209h261l-276 -344l165 -356h-238l-71 203l-138 -203h-270z" />
<glyph unicode="Y" horiz-adv-x="683" d="M57 700h226l75 -235l157 235h248l-322 -424l-47 -276h-213l49 278z" />
<glyph unicode="Z" horiz-adv-x="653" d="M-30 0l26 162l374 359h-285l29 179h575l-26 -161l-375 -360h312l-29 -179h-601z" />
<glyph unicode="[" horiz-adv-x="378" d="M-31 -143l173 982h323l-19 -113h-110l-135 -756h110l-19 -113h-323z" />
<glyph unicode="\" horiz-adv-x="498" d="M99 790h140l177 -880h-140z" />
<glyph unicode="]" horiz-adv-x="378" d="M-71 -143l19 113h110l135 756h-110l19 113h323l-173 -982h-323z" />
<glyph unicode="^" d="M43 306l251 394h210l117 -394h-211l-37 173l-97 -173h-233z" />
<glyph unicode="_" horiz-adv-x="711" d="M-46 -204l23 143h627l-23 -143h-627z" />
<glyph unicode="`" horiz-adv-x="261" d="M97 729h206l101 -145h-157z" />
<glyph unicode="a" horiz-adv-x="645" d="M11 192q0 154 71.5 249t186.5 95q81 0 160 -60l9 49h205l-93 -525h-205l8 48q-87 -59 -176 -59q-71 0 -118.5 48.5t-47.5 154.5zM221 215q0 -64 51 -64q44 0 109 53l22 124q-40 45 -82 45q-47 0 -73.5 -45.5t-26.5 -112.5z" />
<glyph unicode="b" horiz-adv-x="642" d="M-11 0l129 729h205l-45 -252q91 59 174 59q72 0 120 -48.5t48 -154.5q0 -154 -71.5 -249t-185.5 -95q-37 0 -71 11t-50 21t-40 27l-8 -48h-205zM228 196q39 -44 83 -44q46 0 73 45.5t27 112.5q0 64 -53 64q-46 0 -108 -54z" />
<glyph unicode="c" horiz-adv-x="526" d="M10 210q0 159 80 242.5t192 83.5q53 0 109 -15t77.5 -24.5t74.5 -35.5l-89 -142q-88 43 -125 43q-50 0 -79 -44t-29 -90q0 -65 64 -65q41 0 134 40l64 -156q-150 -58 -246 -58q-102 0 -164.5 55t-62.5 166z" />
<glyph unicode="d" horiz-adv-x="645" d="M11 192q0 154 71.5 249t186.5 95q81 0 160 -60l45 253h205l-129 -729h-205l8 48q-87 -59 -176 -59q-71 0 -118.5 48.5t-47.5 154.5zM221 215q0 -64 51 -64q44 0 109 53l22 124q-40 45 -82 45q-47 0 -73.5 -45.5t-26.5 -112.5z" />
<glyph unicode="e" horiz-adv-x="579" d="M9 215q0 141 86 231t238 90q105 0 170 -44t65 -119q0 -46 -18 -78.5t-45 -50t-70.5 -27.5t-81 -12.5t-90.5 -2.5h-47q0 -30 14.5 -47t52.5 -17q69 0 191 53l58 -139q-155 -63 -291 -63q-232 0 -232 226zM234 305h35q48 0 76.5 13.5t28.5 38.5q0 16 -12.5 26.5t-33.5 10.5 q-63 0 -94 -89z" />
<glyph unicode="f" horiz-adv-x="411" d="M-109 -85q89 28 110 50t34 93l59 319h-69l25 148h71q19 105 64 154.5t134 49.5q102 0 213 -63l-87 -114q-49 18 -76 18q-34 0 -42 -44v-1h117l-26 -148h-119l-55 -302q-23 -123 -42 -165q-34 -70 -123 -107q-55 -23 -145 -41z" />
<glyph unicode="g" horiz-adv-x="642" d="M-35 -168l63 154q127 -41 216 -41q52 0 73 16.5t28 53.5l5 31q-90 -57 -173 -57q-71 0 -118.5 48.5t-47.5 154.5q0 154 71.5 249t186.5 95q80 0 158 -59l9 48h204l-88 -499q-24 -139 -88 -189.5t-197 -50.5q-145 0 -302 46zM220 215q0 -30 13.5 -47t38.5 -17q46 0 106 51 l23 128q-38 43 -81 43q-46 0 -73 -46t-27 -112z" />
<glyph unicode="h" horiz-adv-x="637" d="M-11 0l129 729h205l-45 -254q95 61 180 61q91 0 128.5 -52t20.5 -145l-60 -339h-206l57 317q12 62 -33 62q-54 0 -113 -49l-58 -330h-205z" />
<glyph unicode="i" horiz-adv-x="289" d="M-11 0l93 525h205l-93 -525h-205zM88 573l26 153h211l-25 -153h-212z" />
<glyph unicode="j" horiz-adv-x="289" d="M-146 -85q63 20 89 34t35 29t15 50l89 497h205l-86 -479q-6 -32 -8.5 -45.5t-8.5 -39t-11 -36.5t-14.5 -31t-20.5 -29.5t-27.5 -24.5t-36.5 -23.5t-46.5 -19t-58.5 -19t-72 -16.5zM88 573l26 153h212l-26 -153h-212z" />
<glyph unicode="k" horiz-adv-x="606" d="M-11 0l129 729h205l-60 -337l126 133h249l-221 -214l157 -311h-208l-88 177l-64 -62l-20 -115h-205z" />
<glyph unicode="l" horiz-adv-x="289" d="M-11 0l129 729h205l-129 -729h-205z" />
<glyph unicode="m" horiz-adv-x="939" d="M-11 0l93 525h205l-10 -55q83 66 162 66q116 0 141 -87q32 33 84.5 60t101.5 27q89 0 124.5 -49.5t19.5 -141.5l-61 -345h-205l57 317q8 28 2 45t-31 17q-43 0 -93 -48l-58 -331h-204l57 317q7 28 1.5 45t-30.5 17q-43 0 -92 -47l-59 -332h-205z" />
<glyph unicode="n" horiz-adv-x="637" d="M-11 0l93 525h205l-9 -50q95 61 180 61q91 0 128.5 -52t20.5 -145l-60 -339h-206l57 317q12 62 -33 62q-54 0 -113 -49l-58 -330h-205z" />
<glyph unicode="o" horiz-adv-x="635" d="M11 236q0 128 78 214t227 86q137 0 216 -64.5t79 -182.5q0 -128 -78 -214t-227 -86q-137 0 -216 64.5t-79 182.5zM217 234q0 -90 84 -90q50 0 77 44t27 103q0 90 -84 90q-50 0 -77 -44t-27 -103z" />
<glyph unicode="p" horiz-adv-x="642" d="M-47 -204l129 729h205l-9 -48q91 59 174 59q72 0 120 -48.5t48 -154.5q0 -154 -71.5 -249t-185.5 -95q-37 0 -71 11t-50 21t-40 27l-44 -252h-205zM229 196q39 -44 82 -44q46 0 73 45.5t27 112.5q0 64 -53 64q-46 0 -107 -53z" />
<glyph unicode="q" horiz-adv-x="645" d="M11 192q0 154 71.5 249t186.5 95q81 0 160 -60l9 49h205l-129 -729h-205l44 252q-87 -59 -176 -59q-71 0 -118.5 48.5t-47.5 154.5zM221 215q0 -64 51 -64q44 0 109 53l22 124q-40 45 -82 45q-47 0 -73.5 -45.5t-26.5 -112.5z" />
<glyph unicode="r" horiz-adv-x="450" d="M-11 0l93 525h205l-19 -107q10 17 24.5 34t40.5 38t64.5 32.5t82.5 8.5l-32 -192q-48 0 -89 -19.5t-65 -47.5t-40.5 -56t-23.5 -48l-6 -19l-30 -149h-205z" />
<glyph unicode="s" horiz-adv-x="552" d="M-27 78l82 121q47 -26 108.5 -47t102.5 -21q42 0 42 18q0 6 -5.5 10.5t-17.5 8.5t-24 6.5t-32 7.5l-36 9q-162 46 -162 164q0 77 61.5 129t174.5 52q73 0 148.5 -21.5t127.5 -49.5l-82 -117q-105 48 -176 48q-45 0 -45 -20q0 -6 5 -10.5t16 -8t23 -6t33 -7.5t38 -10 q33 -10 57 -20.5t51 -29t41.5 -48t14.5 -67.5q0 -79 -65 -129.5t-182 -50.5q-85 0 -164 26t-135 63z" />
<glyph unicode="t" horiz-adv-x="451" d="M28 377l24 148h70l24 132l208 20l-28 -152h140l-24 -148h-142l-30 -166q-8 -44 27 -44q28 0 69 17l49 -157q-114 -38 -197 -38q-94 0 -131.5 63t-17.5 176l26 149h-67z" />
<glyph unicode="u" horiz-adv-x="636" d="M17 186l60 339h205l-57 -317q-12 -62 34 -62q55 0 111 49l59 330h205l-93 -525h-205l9 49q-96 -60 -180 -60q-90 0 -127 52t-21 145z" />
<glyph unicode="v" horiz-adv-x="600" d="M33 525h212l33 -294l137 294h228l-297 -525h-202z" />
<glyph unicode="w" horiz-adv-x="857" d="M39 525h211l6 -287l128 287h164l23 -277l102 277h223l-251 -525h-190l-31 271l-129 -271h-190z" />
<glyph unicode="x" horiz-adv-x="621" d="M-67 0l243 261l-138 264h214l60 -139l106 139h246l-233 -262l152 -263h-219l-63 141l-108 -141h-260z" />
<glyph unicode="y" horiz-adv-x="602" d="M-5 -83q12 4 36.5 12.5t34.5 12.5t26.5 11.5t28 16t23.5 20.5l-110 535h212l35 -281l135 281h228l-289 -525q-23 -41 -33.5 -58.5t-39.5 -53t-57.5 -55t-77 -40t-108.5 -31.5z" />
<glyph unicode="z" horiz-adv-x="589" d="M-30 0l23 138l266 220h-214l28 167h528l-23 -138l-266 -220h224l-28 -167h-538z" />
<glyph unicode="{" horiz-adv-x="392" d="M-5 293l19 110q62 0 85.5 27.5t26.5 75.5l5 103q6 125 79.5 177.5t209.5 52.5h57l-18 -109h-19q-87 0 -93 -100l-4 -85q-5 -103 -49.5 -147t-133.5 -54q80 -17 109 -66.5t-1 -143.5l-12 -39q-7 -21 -9.5 -41.5t-0.5 -41t17 -33.5t41 -13h18l-18 -109h-18q-57 0 -106.5 14 t-88.5 43.5t-51.5 76t4.5 112.5l26 87q7 28 7.5 51t-20 37.5t-62.5 14.5z" />
<glyph unicode="|" horiz-adv-x="243" d="M-27 -123l166 941h147l-166 -941h-147z" />
<glyph unicode="}" horiz-adv-x="393" d="M-68 -143l19 109h18q88 0 94 100l4 85q5 103 49 147t134 54q-80 17 -109 66.5t0 143.5l12 39q7 21 9.5 41.5t0.5 41t-16.5 33.5t-40.5 13h-19l18 109h18q58 0 107.5 -14t88.5 -43.5t51 -76t-5 -112.5l-26 -87q-7 -28 -7.5 -51t20.5 -37.5t63 -14.5l-20 -110 q-63 0 -86.5 -27.5t-25.5 -75.5l-4 -103q-5 -125 -79 -177.5t-210 -52.5h-58z" />
<glyph unicode="~" d="M-1 208q48 90 97 137t118 47q53 0 127.5 -38t107.5 -38q22 0 41.5 13.5t48.5 56.5l113 -49q-48 -90 -97 -137t-118 -47q-53 0 -127.5 38t-108.5 38q-21 0 -40 -13.5t-49 -56.5z" />
<glyph unicode="&#xa1;" horiz-adv-x="298" d="M-30 0l146 457h122l-18 -457h-250zM86 511l31 189h202l-31 -189h-202z" />
<glyph unicode="&#xa2;" horiz-adv-x="575" d="M37 298q0 159 80 242.5t192 83.5h9l14 76h145l-19 -104q47 -16 126 -57l-89 -138q-87 49 -139 49q-49 0 -78.5 -44t-29.5 -90q0 -65 64 -65q52 0 148 38l64 -152q-95 -35 -155 -48l-15 -89h-145l14 79q-85 10 -135.5 64.5t-50.5 154.5z" />
<glyph unicode="&#xa3;" horiz-adv-x="605" d="M-13 0l23 141q4 1 12 2t28 8t37 17t34.5 29t24.5 43h-106l20 115h76q-2 5 -8 22t-9 24.5t-7.5 23.5t-6.5 27.5t-4 27.5t-2 31q0 93 60.5 146.5t171.5 53.5q65 0 128.5 -21.5t97.5 -43t75 -52.5l-104 -122q-90 64 -155 64q-64 0 -64 -49q0 -22 18 -65.5t23 -66.5h160 l-21 -115h-147q-18 -43 -58 -65h256l-28 -175h-525z" />
<glyph unicode="&#xa5;" horiz-adv-x="746" d="M68 122l19 114h167l7 38h-166l18 114h104l-127 312h226l75 -235l156 235h249l-237 -312h102l-19 -114h-169l-7 -38h169l-20 -114h-168l-21 -122h-213l21 122h-166z" />
<glyph unicode="&#xa6;" horiz-adv-x="246" d="M-25 -123l73 413h147l-73 -413h-147zM68 405l73 413h147l-73 -413h-147z" />
<glyph unicode="&#xa7;" horiz-adv-x="600" d="M4 -1l82 117q107 -48 177 -48q44 0 44 20q0 6 -5 10.5t-16 8t-22.5 6t-32.5 7.5t-38 10q-33 10 -57 20.5t-51.5 29t-42 48t-14.5 67.5q0 91 102 135q-39 39 -39 100q0 77 61 129t175 52q73 0 149 -21.5t127 -49.5l-83 -117q-37 18 -88.5 33t-86.5 15q-44 0 -44 -20 q0 -6 5 -10.5t16 -8t22.5 -6t32.5 -7.5t38 -10q33 -10 57 -20.5t50.5 -29t41 -48t14.5 -67.5q0 -91 -102 -135q40 -40 40 -100q0 -77 -61 -129t-174 -52q-73 0 -148.5 21.5t-128.5 49.5zM227 324q0 -5 2.5 -9t9 -7.5t12.5 -6.5t17 -6t18.5 -5t22 -5.5t22.5 -5.5 q21 4 32.5 12.5t13.5 14t2 9.5q0 5 -2.5 8.5t-8.5 7t-12 6.5t-17 6t-18 5t-22 5.5t-23 5.5q-21 -4 -33 -12.5t-14 -13.5t-2 -9z" />
<glyph unicode="&#xa8;" horiz-adv-x="269" d="M56 594l25 145h156l-24 -145h-157zM259 594l25 145h156l-26 -145h-155z" />
<glyph unicode="&#xa9;" horiz-adv-x="769" d="M37 313q0 167 102.5 282.5t279.5 115.5q152 0 241 -89.5t89 -234.5q0 -108 -43 -197t-132 -145t-208 -56q-151 0 -240 90t-89 234zM76 314q0 -127 78.5 -207t215.5 -80q156 0 248 103.5t92 255.5q0 127 -78.5 207t-215.5 80q-156 0 -248 -103.5t-92 -255.5zM208 302 q-5 122 54.5 193.5t147.5 71.5q78 0 160 -67l-32 -33q-67 56 -129 56q-66 0 -110 -62t-40 -155q5 -129 94 -129q71 0 149 54l26 -37q-93 -62 -173 -62q-62 0 -103 44.5t-44 125.5z" />
<glyph unicode="&#xaa;" horiz-adv-x="431" d="M59 505q0 90 44.5 146t116.5 56q50 0 101 -34l5 27h136l-56 -315h-136l4 24q-55 -31 -108 -31q-46 0 -76.5 30.5t-30.5 96.5zM198 517q0 -32 30 -32q27 0 65 28l11 64q-23 23 -47 23q-27 0 -43 -24t-16 -59z" />
<glyph unicode="&#xab;" horiz-adv-x="686" d="M5 203l19 120l338 203l-33 -201l-143 -77l113 -75l-30 -173zM324 203l20 120l336 203l-32 -201l-143 -77l113 -75l-30 -173z" />
<glyph unicode="&#xac;" d="M17 258l25 151h597l-57 -319h-160l30 168h-435z" />
<glyph unicode="&#xad;" horiz-adv-x="430" d="M24 204l28 161h348l-28 -161h-348z" />
<glyph unicode="&#xae;" horiz-adv-x="450" d="M62 480q0 92 56.5 156t155.5 64q84 0 133 -49.5t49 -130.5q0 -92 -56.5 -156t-154.5 -64q-84 0 -133.5 49.5t-49.5 130.5zM96 481q0 -65 40.5 -106.5t110.5 -41.5q81 0 129 53.5t48 132.5q0 65 -41 106.5t-112 41.5q-81 0 -128 -53.5t-47 -132.5zM169 402l35 201h89 q28 0 44.5 -15t16.5 -37q0 -24 -17 -41t-45 -22l33 -86h-34l-31 85h-43l-15 -85h-33zM222 518h52q22 0 34.5 9.5t12.5 23.5q0 22 -29 22h-60z" />
<glyph unicode="&#xaf;" horiz-adv-x="326" d="M111 609l20 114h320l-20 -114h-320z" />
<glyph unicode="&#xb0;" horiz-adv-x="405" d="M52 515q0 77 55 132t132 55t132 -55t55 -132t-55 -132t-132 -55t-132 55t-55 132zM166 515q0 -30 21.5 -51.5t51.5 -21.5t51.5 21.5t21.5 51.5t-21.5 51.5t-51.5 21.5t-51.5 -21.5t-21.5 -51.5z" />
<glyph unicode="&#xb1;" d="M16 0l20 127h523l-20 -127h-523zM67 288l24 151h185l21 116h155l-21 -116h183l-24 -151h-186l-20 -116h-155l20 116h-182z" />
<glyph unicode="&#xb2;" horiz-adv-x="429" d="M35 385l9 52q6 35 22.5 63.5t42 50t47.5 35.5t53 30q20 11 41.5 21t33 15.5t21 10.5t13.5 9t4 9q-1 16 -36 16q-45 0 -123 -40l-52 96q105 59 194 59q78 0 118.5 -36t40.5 -87q0 -31 -14.5 -56.5t-42 -45.5t-50.5 -32t-57 -26q-57 -24 -71 -29h197l-18 -115h-373z" />
<glyph unicode="&#xb3;" horiz-adv-x="411" d="M25 455l68 84q82 -45 138 -45q53 0 53 23q0 10 -7 16t-25 8t-29.5 2.5t-39.5 0.5h-18l17 115h22h10q21 0 32 0.5t26 2t21.5 6t6.5 12.5q0 17 -29 17q-46 0 -125 -36l-46 94q95 57 195 57q74 0 111 -29t37 -74q0 -61 -80 -99q29 -12 46.5 -37.5t17.5 -57.5 q0 -53 -42.5 -95t-136.5 -42q-116 0 -223 77z" />
<glyph unicode="&#xb4;" horiz-adv-x="262" d="M60 584l151 145h226l-201 -145h-176z" />
<glyph unicode="&#xb5;" horiz-adv-x="641" d="M-41 -204l129 729h205l-60 -340q-2 -39 37 -39q55 0 111 49l59 330h205l-93 -525h-205l9 49q-83 -53 -158 -59l-34 -194h-205z" />
<glyph unicode="&#xb6;" horiz-adv-x="780" d="M44 394q0 78 28.5 138.5t76 96t104.5 53.5t119 18h187l-156 -885h-170l65 360q-111 0 -182.5 53.5t-71.5 165.5zM461 -186l156 886h169l-156 -886h-169z" />
<glyph unicode="&#xb7;" horiz-adv-x="286" d="M22 181l35 209h202l-35 -209h-202z" />
<glyph unicode="&#xb8;" horiz-adv-x="192" d="M-44 -170l53 94q21 -11 44 -11q46 0 46 36q0 11 -4.5 24.5t-8.5 20.5l-4 8h87q24 -36 24 -81q0 -58 -39.5 -86.5t-97.5 -28.5q-61 0 -100 24z" />
<glyph unicode="&#xb9;" horiz-adv-x="268" d="M35 731l147 74h134l-74 -420h-141l54 285l-76 -34z" />
<glyph unicode="&#xba;" horiz-adv-x="411" d="M56 517q0 81 51 135.5t150 54.5q83 0 132 -37t49 -102q0 -81 -52 -135.5t-151 -54.5q-82 0 -130.5 37t-48.5 102zM190 528q0 -48 49 -48q33 0 48 25.5t15 51.5q0 48 -48 48q-33 0 -48.5 -25.5t-15.5 -51.5z" />
<glyph unicode="&#xbb;" horiz-adv-x="684" d="M-8 0l32 201l143 77l-111 75l28 173l265 -203l-20 -120zM311 0l33 201l142 77l-111 75l28 173l264 -203l-19 -120z" />
<glyph unicode="&#xbc;" horiz-adv-x="957" d="M74 626l147 74h134l-74 -420h-141l54 285l-76 -34zM146 0l445 700h151l-445 -700h-151zM444 65l15 95l234 260h186l-42 -240h64l-17 -115h-67l-11 -65h-141l11 65h-232zM615 180h81l21 119z" />
<glyph unicode="&#xbd;" horiz-adv-x="967" d="M74 626l147 74h134l-74 -420h-141l54 285l-76 -34zM146 0l445 700h151l-445 -700h-151zM501 0l9 52q6 35 22.5 63.5t42 50t47.5 35.5t53 30q20 10 41.5 20.5t33 15.5t21.5 10.5t13.5 9.5t3.5 9q0 16 -36 16q-45 0 -123 -40l-51 96q102 59 193 59q78 0 118.5 -36t40.5 -87 q0 -31 -14.5 -56.5t-42 -45.5t-50.5 -32t-57 -26q-57 -26 -70 -29h196l-17 -115h-374z" />
<glyph unicode="&#xbe;" horiz-adv-x="1038" d="M28 350l68 84q82 -45 138 -45q53 0 53 23q0 10 -7 16t-25 8t-29.5 2.5t-39.5 0.5h-18l17 115h22h10q21 0 32 0.5t26 2t21.5 6t6.5 12.5q0 17 -29 17q-46 0 -125 -36l-46 94q95 57 195 57q74 0 111 -29t37 -74q0 -61 -80 -99q29 -12 46.5 -37.5t17.5 -57.5 q0 -52 -42 -94.5t-137 -42.5q-116 0 -223 77zM231 0l445 700h152l-445 -700h-152zM530 65l15 95l233 260h188l-43 -240h65l-18 -115h-67l-11 -65h-141l11 65h-232zM702 180h80l21 117z" />
<glyph unicode="&#xbf;" horiz-adv-x="566" d="M10 176q0 52 23 93.5t64 68t87.5 43t103.5 25.5l20 51h123l-18 -163q-102 -16 -145.5 -35t-43.5 -49q0 -19 16 -32.5t50 -13.5q61 0 149 48l66 -152q-133 -71 -263 -71q-110 0 -171 52.5t-61 134.5zM279 511l32 189h201l-31 -189h-202z" />
<glyph unicode="&#xc0;" horiz-adv-x="725" d="M-60 0l377 700h235l130 -700h-226l-11 106h-211l-48 -106h-246zM256 880h205l100 -145h-156zM309 271h118l-22 212z" />
<glyph unicode="&#xc1;" horiz-adv-x="725" d="M-60 0l377 700h235l130 -700h-226l-11 106h-211l-48 -106h-246zM309 271h118l-22 212zM322 735l151 145h227l-202 -145h-176z" />
<glyph unicode="&#xc2;" horiz-adv-x="725" d="M-60 0l377 700h235l130 -700h-226l-11 106h-211l-48 -106h-246zM239 735l136 145h185l85 -145h-128l-56 63l-78 -63h-144zM309 271h118l-22 212z" />
<glyph unicode="&#xc3;" horiz-adv-x="725" d="M-60 0l377 700h235l130 -700h-226l-11 106h-211l-48 -106h-246zM244 787q22 32 31 43.5t28.5 32.5t39 28.5t44.5 7.5q30 0 76.5 -23.5t60.5 -23.5q25 0 62 48l79 -53q-22 -32 -31 -43.5t-28.5 -32.5t-39 -28.5t-44.5 -7.5q-30 0 -76 23.5t-60 23.5q-26 0 -63 -48z M309 271h118l-22 212z" />
<glyph unicode="&#xc4;" horiz-adv-x="725" d="M-60 0l377 700h235l130 -700h-226l-11 106h-211l-48 -106h-246zM263 745l26 145h155l-24 -145h-157zM309 271h118l-22 212zM466 745l25 145h156l-25 -145h-156z" />
<glyph unicode="&#xc5;" horiz-adv-x="725" d="M-60 0l377 700h235l130 -700h-226l-11 106h-211l-48 -106h-246zM309 271h118l-22 212zM342 845q0 49 35 84.5t85 35.5t85 -35.5t35 -84.5t-35 -84.5t-85 -35.5t-85 35.5t-35 84.5zM433 845q0 -12 8.5 -20.5t20.5 -8.5t20.5 8.5t8.5 20.5t-8.5 20.5t-20.5 8.5t-20.5 -8.5 t-8.5 -20.5z" />
<glyph unicode="&#xc6;" horiz-adv-x="1105" d="M-98 0l588 700h650l-31 -179h-325l-15 -83h262l-30 -175h-263l-15 -84h325l-31 -179h-538l18 106h-240l-84 -106h-271zM393 277h134l38 216z" />
<glyph unicode="&#xc7;" horiz-adv-x="664" d="M31 269q0 208 97.5 325t255.5 117q61 0 125.5 -19t100 -36.5t99.5 -53.5l-112 -151q-65 35 -106 51.5t-81 16.5q-53 0 -90.5 -35.5t-53.5 -86t-16 -109.5q0 -108 81 -108q68 0 205 64l88 -168q-157 -72 -286 -84q19 -35 19 -71q0 -58 -39.5 -86.5t-97.5 -28.5 q-61 0 -100 24l53 94q21 -11 43 -11q47 0 47 36q0 19 -11 41q-104 8 -162.5 79t-58.5 200z" />
<glyph unicode="&#xc8;" horiz-adv-x="627" d="M1 0l122 700h538l-29 -179h-325l-18 -83h264l-30 -175h-263l-18 -84h330l-29 -179h-542zM215 880h206l101 -145h-156z" />
<glyph unicode="&#xc9;" horiz-adv-x="627" d="M1 0l122 700h538l-29 -179h-325l-18 -83h264l-30 -175h-263l-18 -84h330l-29 -179h-542zM273 735l151 145h225l-200 -145h-176z" />
<glyph unicode="&#xca;" horiz-adv-x="627" d="M1 0l122 700h538l-29 -179h-325l-18 -83h264l-30 -175h-263l-18 -84h330l-29 -179h-542zM198 735l138 145h183l85 -145h-126l-57 63l-78 -63h-145z" />
<glyph unicode="&#xcb;" horiz-adv-x="627" d="M1 0l122 700h538l-29 -179h-325l-18 -83h264l-30 -175h-263l-18 -84h330l-29 -179h-542zM224 745l24 145h157l-25 -145h-156zM427 745l24 145h157l-25 -145h-156z" />
<glyph unicode="&#xcc;" horiz-adv-x="320" d="M1 0l123 700h213l-123 -700h-213zM51 880h206l101 -145h-156z" />
<glyph unicode="&#xcd;" horiz-adv-x="320" d="M1 0l123 700h213l-123 -700h-213zM108 735l151 145h226l-201 -145h-176z" />
<glyph unicode="&#xce;" horiz-adv-x="320" d="M1 0l123 700h213l-123 -700h-213zM33 735l136 145h185l85 -145h-127l-56 63l-78 -63h-145z" />
<glyph unicode="&#xcf;" horiz-adv-x="320" d="M1 0l123 700h213l-123 -700h-213zM60 745l24 145h157l-26 -145h-155zM262 745l25 145h156l-25 -145h-156z" />
<glyph unicode="&#xd0;" horiz-adv-x="760" d="M-2 270l26 161h73l47 269h250q100 0 171.5 -23.5t110 -65t55.5 -91t17 -109.5q0 -23 -2.5 -50t-12 -69t-25 -79.5t-45.5 -77.5t-69 -69t-99.5 -47.5t-133.5 -18.5h-339l47 270h-71zM266 179h64q48 0 86 16.5t59.5 41.5t35 57.5t18 59.5t4.5 53q0 61 -39 87.5t-122 26.5 h-44l-17 -90h121l-26 -161h-124z" />
<glyph unicode="&#xd1;" horiz-adv-x="755" d="M1 0l123 700h215l152 -384l68 384h213l-123 -700h-215l-153 385l-67 -385h-213zM263 787q22 32 31 43.5t28.5 32.5t39 28.5t44.5 7.5q30 0 76.5 -23.5t60.5 -23.5q25 0 62 48l79 -53q-22 -32 -31 -43.5t-28.5 -32.5t-39 -28.5t-44.5 -7.5q-30 0 -76 23.5t-60 23.5 q-26 0 -63 -48z" />
<glyph unicode="&#xd2;" horiz-adv-x="784" d="M30 305q0 42 8 88.5t33 105t64.5 104t109.5 77t160 31.5q175 0 270.5 -82t95.5 -235q0 -42 -8 -88.5t-33 -105t-64.5 -104t-109.5 -77t-160 -31.5q-175 0 -270.5 82t-95.5 235zM250 312q0 -144 138 -144q45 0 78.5 22.5t51 57.5t25.5 70.5t8 68.5q0 144 -138 144 q-45 0 -78.5 -22.5t-51 -57.5t-25.5 -70.5t-8 -68.5zM284 880h205l101 -145h-157z" />
<glyph unicode="&#xd3;" horiz-adv-x="784" d="M30 305q0 42 8 88.5t33 105t64.5 104t109.5 77t160 31.5q175 0 270.5 -82t95.5 -235q0 -42 -8 -88.5t-33 -105t-64.5 -104t-109.5 -77t-160 -31.5q-175 0 -270.5 82t-95.5 235zM250 312q0 -144 138 -144q45 0 78.5 22.5t51 57.5t25.5 70.5t8 68.5q0 144 -138 144 q-45 0 -78.5 -22.5t-51 -57.5t-25.5 -70.5t-8 -68.5zM340 735l151 145h226l-201 -145h-176z" />
<glyph unicode="&#xd4;" horiz-adv-x="784" d="M30 305q0 42 8 88.5t33 105t64.5 104t109.5 77t160 31.5q175 0 270.5 -82t95.5 -235q0 -42 -8 -88.5t-33 -105t-64.5 -104t-109.5 -77t-160 -31.5q-175 0 -270.5 82t-95.5 235zM250 312q0 -144 138 -144q45 0 78.5 22.5t51 57.5t25.5 70.5t8 68.5q0 144 -138 144 q-45 0 -78.5 -22.5t-51 -57.5t-25.5 -70.5t-8 -68.5zM267 735l136 145h185l85 -145h-127l-56 63l-78 -63h-145z" />
<glyph unicode="&#xd5;" horiz-adv-x="784" d="M30 305q0 42 8 88.5t33 105t64.5 104t109.5 77t160 31.5q175 0 270.5 -82t95.5 -235q0 -42 -8 -88.5t-33 -105t-64.5 -104t-109.5 -77t-160 -31.5q-175 0 -270.5 82t-95.5 235zM250 312q0 -144 138 -144q45 0 78.5 22.5t51 57.5t25.5 70.5t8 68.5q0 144 -138 144 q-45 0 -78.5 -22.5t-51 -57.5t-25.5 -70.5t-8 -68.5zM272 787q22 32 31 43.5t28.5 32.5t39 28.5t44.5 7.5q30 0 76.5 -23.5t60.5 -23.5q25 0 62 48l79 -53q-22 -32 -31 -43.5t-28.5 -32.5t-39 -28.5t-44.5 -7.5q-30 0 -76 23.5t-60 23.5q-26 0 -63 -48z" />
<glyph unicode="&#xd6;" horiz-adv-x="784" d="M30 305q0 42 8 88.5t33 105t64.5 104t109.5 77t160 31.5q175 0 270.5 -82t95.5 -235q0 -42 -8 -88.5t-33 -105t-64.5 -104t-109.5 -77t-160 -31.5q-175 0 -270.5 82t-95.5 235zM250 312q0 -144 138 -144q45 0 78.5 22.5t51 57.5t25.5 70.5t8 68.5q0 144 -138 144 q-45 0 -78.5 -22.5t-51 -57.5t-25.5 -70.5t-8 -68.5zM292 745l25 145h156l-25 -145h-156zM494 745l25 145h157l-25 -145h-157z" />
<glyph unicode="&#xd7;" d="M72 224l150 121l-101 114l122 103l103 -116l153 123l101 -118l-150 -121l102 -115l-122 -103l-105 117l-152 -123z" />
<glyph unicode="&#xd8;" horiz-adv-x="784" d="M-12 0l103 106q-61 78 -61 199q0 42 8 88.5t33 105t64.5 104t109.5 77t160 31.5q136 0 226 -52l40 41h142l-104 -107q62 -79 62 -199q0 -42 -8 -88.5t-33 -105t-64.5 -104t-109.5 -77t-160 -31.5q-138 0 -227 51l-39 -39h-142zM250 312q0 -22 3 -41l237 244 q-32 16 -77 16t-78.5 -22.5t-51 -57.5t-25.5 -70.5t-8 -68.5zM310 184q29 -16 78 -16q45 0 78.5 22.5t51 57.5t25.5 70.5t8 68.5q0 21 -3 41z" />
<glyph unicode="&#xd9;" horiz-adv-x="727" d="M51 339l63 361h215l-74 -412q-10 -57 7 -87.5t78 -30.5t87.5 30t36.5 88l74 412h213l-75 -421q-12 -66 -31.5 -114t-56.5 -90t-100.5 -64t-151.5 -22q-84 0 -143.5 18t-92 48.5t-47 76.5t-14 95t11.5 112zM254 880h206l101 -145h-156z" />
<glyph unicode="&#xda;" horiz-adv-x="727" d="M51 339l63 361h215l-74 -412q-10 -57 7 -87.5t78 -30.5t87.5 30t36.5 88l74 412h213l-75 -421q-12 -66 -31.5 -114t-56.5 -90t-100.5 -64t-151.5 -22q-84 0 -143.5 18t-92 48.5t-47 76.5t-14 95t11.5 112zM310 735l152 145h225l-201 -145h-176z" />
<glyph unicode="&#xdb;" horiz-adv-x="727" d="M51 339l63 361h215l-74 -412q-10 -57 7 -87.5t78 -30.5t87.5 30t36.5 88l74 412h213l-75 -421q-12 -66 -31.5 -114t-56.5 -90t-100.5 -64t-151.5 -22q-84 0 -143.5 18t-92 48.5t-47 76.5t-14 95t11.5 112zM237 735l137 145h184l85 -145h-127l-56 63l-78 -63h-145z" />
<glyph unicode="&#xdc;" horiz-adv-x="727" d="M51 339l63 361h215l-74 -412q-10 -57 7 -87.5t78 -30.5t87.5 30t36.5 88l74 412h213l-75 -421q-12 -66 -31.5 -114t-56.5 -90t-100.5 -64t-151.5 -22q-84 0 -143.5 18t-92 48.5t-47 76.5t-14 95t11.5 112zM263 745l25 145h156l-26 -145h-155zM466 745l24 145h156 l-25 -145h-155z" />
<glyph unicode="&#xdd;" horiz-adv-x="683" d="M57 700h226l75 -235l157 235h248l-322 -424l-47 -276h-213l49 278zM287 735l151 145h226l-201 -145h-176z" />
<glyph unicode="&#xde;" horiz-adv-x="693" d="M1 0l123 700h213l-18 -100h72q302 0 302 -216q0 -39 -14 -80.5t-44 -83.5t-89 -69t-138 -27h-171l-23 -124h-213zM265 297h101q56 0 82 22.5t26 57.5q0 48 -87 48h-96z" />
<glyph unicode="&#xdf;" horiz-adv-x="785" d="M-11 0l84 476q10 49 30.5 87t60 73.5t110 55t167.5 19.5q83 0 146 -15t99 -38.5t57.5 -55.5t27 -62.5t0.5 -63.5l-2 -14l-83 -114q-30 17 -75.5 32t-73.5 15q-35 0 -35 -17q0 -6 4 -10.5t13.5 -8.5t19.5 -7t29 -8.5t34 -10.5q28 -9 49 -19.5t46 -29.5t38.5 -48.5 t13.5 -67.5q0 -79 -58 -129t-168 -50q-78 0 -152.5 26t-126.5 63l81 121q37 -24 96 -46t87 -22q31 0 31 15q0 4 -2.5 7.5t-8 6.5t-11.5 6t-16 6t-18 5.5t-21 6.5t-22 7q-65 22 -106 59t-41 106q0 77 55.5 128.5t161.5 51.5q11 0 33 -2q-32 22 -101 22q-148 0 -167 -104 l-82 -452h-204z" />
<glyph unicode="&#xe0;" horiz-adv-x="645" d="M11 192q0 154 71.5 249t186.5 95q81 0 160 -60l9 49h205l-93 -525h-205l8 48q-87 -59 -176 -59q-71 0 -118.5 48.5t-47.5 154.5zM182 729h206l100 -145h-156zM221 215q0 -64 51 -64q44 0 109 53l22 124q-40 45 -82 45q-47 0 -73.5 -45.5t-26.5 -112.5z" />
<glyph unicode="&#xe1;" horiz-adv-x="645" d="M11 192q0 154 71.5 249t186.5 95q81 0 160 -60l9 49h205l-93 -525h-205l8 48q-87 -59 -176 -59q-71 0 -118.5 48.5t-47.5 154.5zM221 215q0 -64 51 -64q44 0 109 53l22 124q-40 45 -82 45q-47 0 -73.5 -45.5t-26.5 -112.5zM237 584l151 145h226l-200 -145h-177z" />
<glyph unicode="&#xe2;" horiz-adv-x="645" d="M11 192q0 154 71.5 249t186.5 95q81 0 160 -60l9 49h205l-93 -525h-205l8 48q-87 -59 -176 -59q-71 0 -118.5 48.5t-47.5 154.5zM165 584l136 145h185l85 -145h-128l-56 63l-77 -63h-145zM221 215q0 -64 51 -64q44 0 109 53l22 124q-40 45 -82 45q-47 0 -73.5 -45.5 t-26.5 -112.5z" />
<glyph unicode="&#xe3;" horiz-adv-x="645" d="M11 192q0 154 71.5 249t186.5 95q81 0 160 -60l9 49h205l-93 -525h-205l8 48q-87 -59 -176 -59q-71 0 -118.5 48.5t-47.5 154.5zM173 636q22 32 31 43.5t28.5 32.5t39 28.5t44.5 7.5q30 0 76.5 -23.5t60.5 -23.5q25 0 62 48l79 -53q-22 -32 -31 -43.5t-28.5 -32.5 t-39 -28.5t-44.5 -7.5q-30 0 -76 23.5t-60 23.5q-26 0 -63 -48zM221 215q0 -64 51 -64q44 0 109 53l22 124q-40 45 -82 45q-47 0 -73.5 -45.5t-26.5 -112.5z" />
<glyph unicode="&#xe4;" horiz-adv-x="645" d="M11 192q0 154 71.5 249t186.5 95q81 0 160 -60l9 49h205l-93 -525h-205l8 48q-87 -59 -176 -59q-71 0 -118.5 48.5t-47.5 154.5zM198 594l25 145h156l-24 -145h-157zM221 215q0 -64 51 -64q44 0 109 53l22 124q-40 45 -82 45q-47 0 -73.5 -45.5t-26.5 -112.5zM401 594 l25 145h155l-25 -145h-155z" />
<glyph unicode="&#xe5;" horiz-adv-x="645" d="M11 192q0 154 71.5 249t186.5 95q81 0 160 -60l9 49h205l-93 -525h-205l8 48q-87 -59 -176 -59q-71 0 -118.5 48.5t-47.5 154.5zM221 215q0 -64 51 -64q44 0 109 53l22 124q-40 45 -82 45q-47 0 -73.5 -45.5t-26.5 -112.5zM270 694q0 50 35 85t85 35t85 -35t35 -85 t-35 -85t-85 -35t-85 35t-35 85zM361 694q0 -12 8.5 -20.5t20.5 -8.5t20.5 8.5t8.5 20.5t-8.5 20.5t-20.5 8.5t-20.5 -8.5t-8.5 -20.5z" />
<glyph unicode="&#xe6;" horiz-adv-x="960" d="M11 192q0 154 71.5 249t186.5 95q81 0 160 -60l9 49h179q46 11 96 11q105 0 170 -44t65 -119q0 -46 -18 -78.5t-45 -50t-70.5 -27.5t-81 -12.5t-90.5 -2.5h-47q0 -30 14 -47t52 -17q71 0 191 53l58 -139q-27 -11 -64 -23.5t-103.5 -26t-122.5 -13.5q-50 0 -92 11h-184 l8 48q-87 -59 -176 -59q-71 0 -118.5 48.5t-47.5 154.5zM221 215q0 -64 51 -64q44 0 109 53l22 124q-40 45 -82 45q-47 0 -73.5 -45.5t-26.5 -112.5zM614 305h35q48 0 76.5 13.5t28.5 38.5q0 16 -12.5 26.5t-33.5 10.5q-63 0 -94 -89z" />
<glyph unicode="&#xe7;" horiz-adv-x="526" d="M10 210q0 159 80 242.5t192 83.5q53 0 109 -15t77.5 -24.5t74.5 -35.5l-89 -142q-88 43 -125 43q-50 0 -79 -44t-29 -90q0 -65 64 -65q41 0 134 40l64 -156q-131 -51 -219 -57q17 -34 17 -69q0 -58 -39 -86.5t-96 -28.5q-63 0 -102 24l54 94q20 -11 43 -11q46 0 46 36 q0 20 -13 46q-76 15 -120 68.5t-44 146.5z" />
<glyph unicode="&#xe8;" horiz-adv-x="579" d="M9 215q0 141 86 231t238 90q105 0 170 -44t65 -119q0 -46 -18 -78.5t-45 -50t-70.5 -27.5t-81 -12.5t-90.5 -2.5h-47q0 -30 14.5 -47t52.5 -17q69 0 191 53l58 -139q-155 -63 -291 -63q-232 0 -232 226zM171 729h206l101 -145h-157zM234 305h35q48 0 76.5 13.5t28.5 38.5 q0 16 -12.5 26.5t-33.5 10.5q-63 0 -94 -89z" />
<glyph unicode="&#xe9;" horiz-adv-x="579" d="M9 215q0 141 86 231t238 90q105 0 170 -44t65 -119q0 -46 -18 -78.5t-45 -50t-70.5 -27.5t-81 -12.5t-90.5 -2.5h-47q0 -30 14.5 -47t52.5 -17q69 0 191 53l58 -139q-155 -63 -291 -63q-232 0 -232 226zM229 584l151 145h225l-200 -145h-176zM234 305h35q48 0 76.5 13.5 t28.5 38.5q0 16 -12.5 26.5t-33.5 10.5q-63 0 -94 -89z" />
<glyph unicode="&#xea;" horiz-adv-x="579" d="M9 215q0 141 86 231t238 90q105 0 170 -44t65 -119q0 -46 -18 -78.5t-45 -50t-70.5 -27.5t-81 -12.5t-90.5 -2.5h-47q0 -30 14.5 -47t52.5 -17q69 0 191 53l58 -139q-155 -63 -291 -63q-232 0 -232 226zM154 584l136 145h185l85 -145h-128l-55 63l-78 -63h-145zM234 305 h35q48 0 76.5 13.5t28.5 38.5q0 16 -12.5 26.5t-33.5 10.5q-63 0 -94 -89z" />
<glyph unicode="&#xeb;" horiz-adv-x="579" d="M9 215q0 141 86 231t238 90q105 0 170 -44t65 -119q0 -46 -18 -78.5t-45 -50t-70.5 -27.5t-81 -12.5t-90.5 -2.5h-47q0 -30 14.5 -47t52.5 -17q69 0 191 53l58 -139q-155 -63 -291 -63q-232 0 -232 226zM180 594l25 145h157l-25 -145h-157zM234 305h35q48 0 76.5 13.5 t28.5 38.5q0 16 -12.5 26.5t-33.5 10.5q-63 0 -94 -89zM383 594l25 145h157l-26 -145h-156z" />
<glyph unicode="&#xec;" horiz-adv-x="289" d="M-11 0l93 525h205l-93 -525h-205zM8 729h206l101 -145h-156z" />
<glyph unicode="&#xed;" horiz-adv-x="289" d="M-11 0l93 525h205l-93 -525h-205zM65 584l151 145h226l-201 -145h-176z" />
<glyph unicode="&#xee;" horiz-adv-x="289" d="M-11 0l93 525h205l-93 -525h-205zM-9 584l137 145h184l85 -145h-127l-56 63l-78 -63h-145z" />
<glyph unicode="&#xef;" horiz-adv-x="289" d="M-11 0l93 525h205l-93 -525h-205zM17 594l26 145h156l-27 -145h-155zM219 594l26 145h156l-26 -145h-156z" />
<glyph unicode="&#xf0;" horiz-adv-x="656" d="M8 224q0 109 77 180.5t185 71.5q37 0 69 -9.5t51 -22.5t33.5 -26t20.5 -22l5 -10q-12 103 -98 136l-28 -32h-156l44 50l-72 -7l5 156q45 11 110 11q45 0 90 -8l33 37h155l-69 -79q84 -48 128.5 -132.5t44.5 -187.5q0 -151 -91.5 -246t-253.5 -95q-132 0 -207.5 63.5 t-75.5 171.5zM223 219q0 -75 83 -75q56 0 83 28.5t27 71.5q0 77 -84 77q-54 0 -81.5 -29.5t-27.5 -72.5z" />
<glyph unicode="&#xf1;" horiz-adv-x="637" d="M-11 0l93 525h205l-9 -50q95 61 180 61q91 0 128.5 -52t20.5 -145l-60 -339h-206l57 317q12 62 -33 62q-54 0 -113 -49l-58 -330h-205zM174 636q22 32 31 43.5t28.5 32.5t39 28.5t44.5 7.5q30 0 76.5 -23.5t60.5 -23.5q25 0 62 48l79 -53q-22 -32 -31 -43.5t-28.5 -32.5 t-39 -28.5t-44.5 -7.5q-30 0 -76 23.5t-60 23.5q-26 0 -63 -48z" />
<glyph unicode="&#xf2;" horiz-adv-x="635" d="M11 236q0 128 78 214t227 86q137 0 216 -64.5t79 -182.5q0 -128 -78 -214t-227 -86q-137 0 -216 64.5t-79 182.5zM181 729h206l101 -145h-156zM217 234q0 -90 84 -90q50 0 77 44t27 103q0 90 -84 90q-50 0 -77 -44t-27 -103z" />
<glyph unicode="&#xf3;" horiz-adv-x="635" d="M11 236q0 128 78 214t227 86q137 0 216 -64.5t79 -182.5q0 -128 -78 -214t-227 -86q-137 0 -216 64.5t-79 182.5zM217 234q0 -90 84 -90q50 0 77 44t27 103q0 90 -84 90q-50 0 -77 -44t-27 -103zM239 584l151 145h225l-201 -145h-175z" />
<glyph unicode="&#xf4;" horiz-adv-x="635" d="M11 236q0 128 78 214t227 86q137 0 216 -64.5t79 -182.5q0 -128 -78 -214t-227 -86q-137 0 -216 64.5t-79 182.5zM164 584l137 145h184l85 -145h-127l-56 63l-78 -63h-145zM217 234q0 -90 84 -90q50 0 77 44t27 103q0 90 -84 90q-50 0 -77 -44t-27 -103z" />
<glyph unicode="&#xf5;" horiz-adv-x="635" d="M11 236q0 128 78 214t227 86q137 0 216 -64.5t79 -182.5q0 -128 -78 -214t-227 -86q-137 0 -216 64.5t-79 182.5zM170 612q2 3 13 24t14.5 27t14.5 22.5t19 22.5t20.5 15.5t26.5 13t31 3.5q29 0 78 -19.5t70 -19.5q37 0 58 39l79 -28q-3 -5 -11.5 -21.5t-12.5 -23 t-12.5 -20.5t-14.5 -20.5t-16.5 -16.5t-20 -14.5t-23 -8t-27.5 -3.5q-30 0 -79 19.5t-69 19.5q-37 0 -59 -39zM217 234q0 -90 84 -90q50 0 77 44t27 103q0 90 -84 90q-50 0 -77 -44t-27 -103z" />
<glyph unicode="&#xf6;" horiz-adv-x="635" d="M11 236q0 128 78 214t227 86q137 0 216 -64.5t79 -182.5q0 -128 -78 -214t-227 -86q-137 0 -216 64.5t-79 182.5zM192 594l24 145h157l-25 -145h-156zM217 234q0 -90 84 -90q50 0 77 44t27 103q0 90 -84 90q-50 0 -77 -44t-27 -103zM394 594l25 145h157l-26 -145h-156z " />
<glyph unicode="&#xf7;" d="M62 258l25 151h523l-25 -151h-523zM213 128q-4 41 25 70.5t71 29.5q33 0 56 -21t26 -53q4 -40 -25 -69.5t-72 -29.5q-33 0 -55.5 21t-25.5 52zM280 515q-4 39 25 68.5t71 29.5q33 0 56 -21t26 -52q4 -40 -25 -70t-71 -30q-33 0 -56 21.5t-26 53.5z" />
<glyph unicode="&#xf8;" horiz-adv-x="636" d="M-20 0l83 81q-51 60 -51 155q0 128 78 214t227 86q105 0 177 -39l28 28h111l-78 -76q57 -62 57 -160q0 -128 -78 -214t-227 -86q-109 0 -182 41l-31 -30h-114zM218 230l147 142q-18 9 -43 9q-50 0 -77 -44t-27 -103v-4zM253 155q20 -11 49 -11q50 0 77 44t27 103 q0 8 -1 12z" />
<glyph unicode="&#xf9;" horiz-adv-x="636" d="M17 186l60 339h205l-57 -317q-12 -62 34 -62q55 0 111 49l59 330h205l-93 -525h-205l9 49q-96 -60 -180 -60q-90 0 -127 52t-21 145zM179 729h206l101 -145h-157z" />
<glyph unicode="&#xfa;" horiz-adv-x="636" d="M17 186l60 339h205l-57 -317q-12 -62 34 -62q55 0 111 49l59 330h205l-93 -525h-205l9 49q-96 -60 -180 -60q-90 0 -127 52t-21 145zM237 584l151 145h225l-200 -145h-176z" />
<glyph unicode="&#xfb;" horiz-adv-x="636" d="M17 186l60 339h205l-57 -317q-12 -62 34 -62q55 0 111 49l59 330h205l-93 -525h-205l9 49q-96 -60 -180 -60q-90 0 -127 52t-21 145zM162 584l137 145h184l85 -145h-127l-56 63l-78 -63h-145z" />
<glyph unicode="&#xfc;" horiz-adv-x="636" d="M17 186l60 339h205l-57 -317q-12 -62 34 -62q55 0 111 49l59 330h205l-93 -525h-205l9 49q-96 -60 -180 -60q-90 0 -127 52t-21 145zM189 594l25 145h157l-25 -145h-157zM392 594l25 145h157l-25 -145h-157z" />
<glyph unicode="&#xfd;" horiz-adv-x="602" d="M-5 -83q12 4 36.5 12.5t34.5 12.5t26.5 11.5t28 16t23.5 20.5l-110 535h212l35 -281l135 281h228l-289 -525q-23 -41 -33.5 -58.5t-39.5 -53t-57.5 -55t-77 -40t-108.5 -31.5zM220 584l151 145h226l-200 -145h-177z" />
<glyph unicode="&#xfe;" horiz-adv-x="642" d="M-47 -204l165 933h205l-45 -252q91 59 174 59q72 0 120 -48.5t48 -154.5q0 -154 -71.5 -249t-185.5 -95q-37 0 -71 11t-50 21t-40 27l-44 -252h-205zM228 196q39 -44 83 -44q46 0 73 45.5t27 112.5q0 64 -53 64q-46 0 -108 -54z" />
<glyph unicode="&#xff;" horiz-adv-x="602" d="M-5 -83q12 4 36.5 12.5t34.5 12.5t26.5 11.5t28 16t23.5 20.5l-110 535h212l35 -281l135 281h228l-289 -525q-23 -41 -33.5 -58.5t-39.5 -53t-57.5 -55t-77 -40t-108.5 -31.5zM171 594l26 145h156l-25 -145h-157zM374 594l26 145h156l-27 -145h-155z" />
<glyph unicode="&#x152;" horiz-adv-x="1123" d="M30 305q0 42 8 88.5t33 105t64.5 104t109.5 77t160 31.5q124 0 208 -42l6 31h538l-29 -179h-324l-18 -83h263l-28 -175h-265l-17 -84h330l-30 -179h-538q-48 -12 -105 -12q-175 0 -270.5 82t-95.5 235zM250 312q0 -144 138 -144q45 0 78.5 22.5t51 57.5t25.5 70.5t8 68.5 q0 144 -138 144q-45 0 -78.5 -22.5t-51 -57.5t-25.5 -70.5t-8 -68.5z" />
<glyph unicode="&#x153;" horiz-adv-x="972" d="M11 236q0 128 78 214t227 86q131 0 208 -59q83 59 202 59q105 0 170 -44t65 -119q0 -46 -18 -78.5t-45 -50t-70.5 -27.5t-80.5 -12.5t-90 -2.5h-48q0 -30 14 -47t52 -17q71 0 191 53l58 -139q-155 -63 -290 -63q-101 0 -158 41q-71 -41 -170 -41q-137 0 -216 64.5 t-79 182.5zM217 234q0 -90 84 -90q50 0 77 44t27 103q0 90 -84 90q-50 0 -77 -44t-27 -103zM626 305h37q47 0 75 13.5t28 38.5q0 16 -12.5 26.5t-33.5 10.5q-63 0 -94 -89z" />
<glyph unicode="&#x178;" horiz-adv-x="683" d="M57 700h226l75 -235l157 235h248l-322 -424l-47 -276h-213l49 278zM240 745l24 145h156l-25 -145h-155zM441 745l25 145h157l-25 -145h-157z" />
<glyph unicode="&#x2c6;" horiz-adv-x="315" d="M55 584l136 145h185l85 -145h-128l-55 63l-78 -63h-145z" />
<glyph unicode="&#x2dc;" horiz-adv-x="316" d="M62 636q22 32 31 43.5t28.5 32.5t39 28.5t44.5 7.5q30 0 76.5 -23.5t60.5 -23.5q25 0 62 48l79 -53q-22 -32 -31 -43.5t-28.5 -32.5t-39 -28.5t-44.5 -7.5q-30 0 -76 23.5t-60 23.5q-26 0 -63 -48z" />
<glyph unicode="&#x2000;" horiz-adv-x="482" />
<glyph unicode="&#x2001;" horiz-adv-x="965" />
<glyph unicode="&#x2002;" horiz-adv-x="482" />
<glyph unicode="&#x2003;" horiz-adv-x="965" />
<glyph unicode="&#x2004;" horiz-adv-x="321" />
<glyph unicode="&#x2005;" horiz-adv-x="241" />
<glyph unicode="&#x2006;" horiz-adv-x="160" />
<glyph unicode="&#x2007;" horiz-adv-x="160" />
<glyph unicode="&#x2008;" horiz-adv-x="120" />
<glyph unicode="&#x2009;" horiz-adv-x="193" />
<glyph unicode="&#x200a;" horiz-adv-x="53" />
<glyph unicode="&#x2010;" horiz-adv-x="430" d="M24 204l28 161h348l-28 -161h-348z" />
<glyph unicode="&#x2011;" horiz-adv-x="430" d="M24 204l28 161h348l-28 -161h-348z" />
<glyph unicode="&#x2012;" horiz-adv-x="430" d="M24 204l28 161h348l-28 -161h-348z" />
<glyph unicode="&#x2013;" horiz-adv-x="558" d="M24 205l28 159h475l-28 -159h-475z" />
<glyph unicode="&#x2014;" horiz-adv-x="666" d="M24 205l28 159h582l-27 -159h-583z" />
<glyph unicode="&#x2018;" horiz-adv-x="280" d="M45 326l29 238l188 156l41 -66l-111 -119h89l-34 -209h-202z" />
<glyph unicode="&#x2019;" horiz-adv-x="265" d="M45 372l110 119h-89l35 209h202l-29 -238l-188 -156z" />
<glyph unicode="&#x201a;" horiz-adv-x="284" d="M-33 -119l110 119h-89l35 209h202l-29 -238l-188 -156z" />
<glyph unicode="&#x201c;" horiz-adv-x="544" d="M45 326l29 238l188 156l41 -66l-111 -119h89l-34 -209h-202zM309 326l29 238l188 156l41 -66l-110 -119h89l-35 -209h-202z" />
<glyph unicode="&#x201d;" horiz-adv-x="530" d="M45 372l110 119h-89l35 209h202l-29 -238l-188 -156zM309 372l111 119h-89l35 209h201l-28 -238l-189 -156z" />
<glyph unicode="&#x201e;" horiz-adv-x="548" d="M-33 -119l110 119h-89l35 209h202l-29 -238l-188 -156zM231 -119l111 119h-89l35 209h201l-28 -238l-189 -156z" />
<glyph unicode="&#x2022;" horiz-adv-x="487" d="M53 285q0 78 54.5 133t132.5 55t133 -55t55 -133t-55 -132.5t-133 -54.5t-132.5 54.5t-54.5 132.5z" />
<glyph unicode="&#x2026;" horiz-adv-x="844" d="M-12 0l35 209h202l-35 -209h-202zM270 0l35 209h202l-35 -209h-202zM551 0l36 209h202l-36 -209h-202z" />
<glyph unicode="&#x202f;" horiz-adv-x="193" />
<glyph unicode="&#x2039;" horiz-adv-x="367" d="M5 203l19 120l338 203l-33 -201l-143 -77l113 -75l-30 -173z" />
<glyph unicode="&#x203a;" horiz-adv-x="366" d="M-8 0l32 201l143 77l-111 75l28 173l265 -203l-20 -120z" />
<glyph unicode="&#x205f;" horiz-adv-x="241" />
<glyph unicode="&#x20ac;" horiz-adv-x="742" d="M18 232l17 101h55l3 29h-51l17 101h56q39 119 124 183.5t200 64.5q61 0 125 -18.5t102 -37.5t98 -53l-111 -151q-63 35 -105.5 51.5t-82.5 16.5q-68 0 -109 -56h173l-18 -101h-198q-2 -11 -4 -29h196l-18 -101h-174q16 -52 74 -52q68 0 205 64l87 -168q-185 -87 -345 -87 q-108 0 -172.5 61.5t-73.5 181.5h-70z" />
<glyph unicode="&#x2122;" horiz-adv-x="618" d="M105 641l9 59h221l-9 -59h-75l-29 -165h-72l29 165h-74zM319 476l39 224h75l42 -114l87 114h75l-38 -224h-73l20 118l-60 -81h-43l-31 84l-21 -121h-72z" />
<glyph unicode="&#xe000;" horiz-adv-x="525" d="M0 0v525h525v-525h-525z" />
</font>
</defs>
</svg>
