<?xml version="1.0" standalone="no"?>
<!DOCTYPE svg PUBLIC "-//W3C//DTD SVG 1.1//EN" "http://www.w3.org/Graphics/SVG/1.1/DTD/svg11.dtd" >
<svg xmlns="http://www.w3.org/2000/svg">
<metadata></metadata>
<defs>
<font id="verb_extrabolditalic" horiz-adv-x="645" >
<font-face units-per-em="1000" ascent="800" descent="-200" />
<missing-glyph horiz-adv-x="267" />
<glyph unicode="&#xfb01;" horiz-adv-x="666" d="M-103 -106q48 15 72 25t39.5 28.5t20.5 36t13 59.5l66 362h-70l20 120h72l2 12q16 100 55.5 146t120.5 46q70 0 158 -44l-56 -110q-41 13 -66 13q-39 0 -47 -49l-3 -14h125l-21 -120h-126l-63 -349q-6 -34 -9 -49t-9 -42t-11 -38t-14 -31t-18.5 -29t-24.5 -23.5t-33 -22 t-41.5 -18t-52 -18t-64.5 -15.5zM394 0l93 525h164l-93 -525h-164zM495 592l23 134h171l-22 -134h-172z" />
<glyph unicode="&#xfb02;" horiz-adv-x="669" d="M-103 -106q48 15 72 25t39.5 28.5t20.5 36t13 59.5l66 362h-70l20 120h72l2 12q16 100 55.5 146t120.5 46q70 0 158 -44l-56 -110q-41 13 -66 13q-39 0 -47 -49l-3 -14h125l-21 -120h-126l-63 -349q-6 -34 -9 -49t-9 -42t-11 -38t-14 -31t-18.5 -29t-24.5 -23.5t-33 -22 t-41.5 -18t-52 -18t-64.5 -15.5zM395 0l129 729h164l-129 -729h-164z" />
<glyph unicode="&#xfb03;" horiz-adv-x="1051" d="M-103 -106q48 15 72 25t39.5 28.5t20.5 36t13 59.5l66 362h-70l20 120h72l2 12q16 100 55.5 146t121.5 46q93 0 195 -55l-61 -105q-60 19 -99 19t-47 -49l-3 -14h110l-21 -120h-111l-63 -349q-6 -34 -9 -49t-9 -42t-11 -38t-14 -31t-18.5 -29t-24.5 -23.5t-33 -22 t-41.5 -18t-52 -18t-64.5 -15.5zM283 -106q48 15 72 25t39.5 28.5t20.5 36t12 59.5l66 362h-70l21 120h71l2 12q16 100 55.5 146t120.5 46q70 0 158 -44l-56 -110q-39 13 -65 13q-38 0 -48 -49l-3 -14h125l-21 -120h-125l-63 -349q-22 -117 -40 -155q-32 -63 -116 -97 q-48 -18 -121 -34zM779 0l93 525h164l-93 -525h-164zM881 592l23 134h171l-22 -134h-172z" />
<glyph unicode="&#xfb04;" horiz-adv-x="1054" d="M-103 -106q48 15 72 25t39.5 28.5t20.5 36t13 59.5l66 362h-70l20 120h72l2 12q16 100 55.5 146t121.5 46q93 0 195 -55l-61 -105q-60 19 -99 19t-47 -49l-3 -14h110l-21 -120h-111l-63 -349q-6 -34 -9 -49t-9 -42t-11 -38t-14 -31t-18.5 -29t-24.5 -23.5t-33 -22 t-41.5 -18t-52 -18t-64.5 -15.5zM283 -106q48 15 72 25t39.5 28.5t20.5 36t12 59.5l66 362h-70l21 120h71l2 12q16 100 55.5 146t120.5 46q70 0 158 -44l-56 -110q-39 13 -65 13q-38 0 -48 -49l-3 -14h125l-21 -120h-125l-63 -349q-22 -117 -40 -155q-32 -63 -116 -97 q-48 -18 -121 -34zM781 0l129 729h164l-129 -729h-164z" />
<glyph horiz-adv-x="1000" />
<glyph horiz-adv-x="1000" />
<glyph unicode="&#xd;" horiz-adv-x="1000" />
<glyph unicode=" "  horiz-adv-x="267" />
<glyph unicode="&#x09;" horiz-adv-x="267" />
<glyph unicode="&#xa0;" horiz-adv-x="267" />
<glyph unicode="!" horiz-adv-x="287" d="M8 0l27 164h166l-27 -164h-166zM82 232l32 468h200l-134 -468h-98z" />
<glyph unicode="&#x22;" horiz-adv-x="443" d="M83 422l22 278h155l-75 -278h-102zM299 422l22 278h155l-76 -278h-101z" />
<glyph unicode="#" horiz-adv-x="732" d="M10 151l21 123h126l50 152h-107l20 123h127l50 151h128l-50 -151h129l50 151h128l-50 -151h108l-20 -123h-128l-50 -152h108l-20 -123h-129l-49 -151h-127l49 151h-129l-49 -151h-128l49 151h-107zM285 274h129l50 152h-129z" />
<glyph unicode="$" horiz-adv-x="663" d="M-3 98l89 116q145 -84 238 -84q45 0 74 17.5t29 46.5q0 20 -18.5 35t-42.5 23t-65.5 22t-68.5 26q-69 30 -109.5 74.5t-40.5 116.5q0 93 71 156t195 64l16 90h118l-18 -103q93 -20 200 -81l-89 -113q-46 25 -106.5 45.5t-104.5 20.5q-41 0 -69 -16t-28 -47q0 -24 21 -37 t77.5 -30.5t90.5 -32.5q69 -30 112 -74t43 -119q0 -96 -73.5 -159.5t-199.5 -65.5l-15 -89h-118l18 101q-124 26 -226 97z" />
<glyph unicode="%" horiz-adv-x="1011" d="M67 493q0 91 57 154.5t157 63.5q86 0 137 -43t51 -114q0 -91 -57 -154.5t-157 -63.5q-86 0 -137 43t-51 114zM189 505q0 -73 71 -73q41 0 64 35.5t23 74.5q0 73 -70 73q-41 0 -64.5 -35.5t-23.5 -74.5zM209 0l481 700h128l-482 -700h-127zM559 146q0 91 57.5 154.5 t157.5 63.5q86 0 137 -43t51 -114q0 -91 -57.5 -154.5t-157.5 -63.5q-86 0 -137 43t-51 114zM682 158q0 -73 70 -73q41 0 64 35.5t23 74.5q0 73 -70 73q-41 0 -64 -35.5t-23 -74.5z" />
<glyph unicode="&#x26;" horiz-adv-x="725" d="M26 168q0 70 47 119.5t128 93.5q-61 78 -61 147q0 80 63 131.5t162 51.5q91 0 146 -45t55 -111q0 -60 -45.5 -107.5t-124.5 -95.5l85 -100q40 55 64 117h164q-35 -120 -133 -228l120 -141h-174l-47 55q-101 -66 -219 -66q-104 0 -167 49.5t-63 129.5zM187 172 q0 -26 20.5 -43.5t58.5 -17.5q59 0 122 47l-106 126q-95 -62 -95 -112zM287 522q0 -35 33 -80q47 27 71.5 50.5t24.5 51.5q0 20 -13.5 35.5t-41.5 15.5q-34 0 -54 -22t-20 -51z" />
<glyph unicode="'" horiz-adv-x="227" d="M83 422l22 278h155l-75 -278h-102z" />
<glyph unicode="(" horiz-adv-x="335" d="M18 109l86 478q9 47 14.5 71t18 53t29 44t45.5 32t68.5 28.5t97.5 23.5l29 -96q-73 -24 -94 -45t-30 -70l-100 -560q-12 -51 -0.5 -76t65.5 -48l-42 -87q-102 23 -147 55.5t-49 80t9 116.5z" />
<glyph unicode=")" horiz-adv-x="336" d="M-55 -47q73 24 93.5 44.5t29.5 70.5l101 560q12 51 0.5 76t-65.5 47l42 88q101 -23 146 -55.5t49.5 -80t-9.5 -116.5l-85 -478q-9 -47 -14.5 -71t-18 -53t-29 -44t-45.5 -32t-69 -28.5t-98 -23.5z" />
<glyph unicode="*" horiz-adv-x="479" d="M70 498l162 9l-149 66l88 105l89 -138l-18 162l132 -24l-72 -145l130 98l46 -128l-156 -10l142 -65l-87 -104l-87 130l17 -156l-133 23l72 147l-130 -97z" />
<glyph unicode="+" d="M61 272l20 123h194l32 178h126l-32 -178h195l-21 -123h-195l-31 -178h-126l31 178h-193z" />
<glyph unicode="," horiz-adv-x="271" d="M-23 -114l96 114h-74l30 179h166l-23 -200l-161 -147z" />
<glyph unicode="-" horiz-adv-x="431" d="M38 219l23 131h326l-23 -131h-326z" />
<glyph unicode="." horiz-adv-x="268" d="M-1 0l30 179h167l-30 -179h-167z" />
<glyph unicode="/" horiz-adv-x="493" d="M-46 -90l474 880h129l-475 -880h-128z" />
<glyph unicode="0" horiz-adv-x="695" d="M45 287q0 45 8 95.5t31.5 111t59 107t97 78.5t139.5 32q79 0 137 -25.5t89.5 -69.5t46 -94.5t14.5 -109.5q0 -45 -8 -95.5t-31.5 -111t-59 -107t-97 -78.5t-139.5 -32t-136 25.5t-89.5 69.5t-46.5 94.5t-15 109.5zM216 272q0 -152 116 -152q45 0 79.5 37t51.5 90.5 t24.5 100.5t7.5 79q0 31 -4.5 55t-16 47.5t-36 36.5t-59.5 13q-45 0 -79.5 -37t-51.5 -90.5t-24.5 -100.5t-7.5 -79z" />
<glyph unicode="1" horiz-adv-x="423" d="M47 590l215 110h162l-124 -700h-170l96 531l-126 -60z" />
<glyph unicode="2" horiz-adv-x="618" d="M-22 0l12 74q8 46 28 85.5t42 66.5t60.5 56t64.5 45t72 42q123 70 145 86q40 32 41 63q-1 23 -22 37.5t-60 14.5q-80 0 -194 -65l-62 118q142 88 279 88q111 0 171 -52.5t60 -133.5q0 -30 -10 -57.5t-22 -48.5t-38 -44.5t-43 -37t-53.5 -34.5t-52 -29.5t-54.5 -28.5 q-72 -36 -97.5 -56.5t-32.5 -47.5h333l-23 -141h-544z" />
<glyph unicode="3" horiz-adv-x="623" d="M-23 96l85 106q116 -70 207 -70q59 0 92.5 23t33.5 60q0 84 -173 84h-30l23 141h36q65 0 117 19t52 61q0 50 -73 50q-76 0 -189 -59l-54 116q132 84 277 84q106 0 161 -45t55 -114q0 -114 -144 -174q51 -18 83 -62.5t32 -103.5q0 -39 -15 -76t-46.5 -71t-88 -55 t-131.5 -21q-166 0 -310 107z" />
<glyph unicode="4" horiz-adv-x="684" d="M-11 128l20 118l390 454h227l-77 -431h105l-24 -141h-106l-22 -128h-170l22 128h-365zM196 269h183l49 276z" />
<glyph unicode="5" horiz-adv-x="615" d="M-15 96l94 107q90 -68 174 -68q58 0 99.5 28.5t41.5 76.5q0 38 -26.5 61.5t-77.5 23.5q-56 0 -130 -41l-93 62l98 354h455l-23 -141h-310l-26 -106q37 9 80 9q110 0 169 -61.5t59 -153.5q0 -106 -79.5 -182t-218.5 -76q-155 0 -286 107z" />
<glyph unicode="6" horiz-adv-x="648" d="M37 259q0 191 134 321.5t340 130.5q39 0 72 -5t47 -10l13 -5l-60 -124q-29 6 -66 6q-89 0 -164 -41.5t-113 -123.5q61 44 150 44q99 0 158.5 -57.5t59.5 -148.5q0 -107 -77 -182t-209 -75q-135 0 -210 78t-75 192zM208 247q0 -51 29 -85.5t81 -34.5q57 0 88 34t31 77 q0 39 -25.5 63.5t-76.5 24.5q-40 0 -74.5 -19t-52.5 -43v-17z" />
<glyph unicode="7" horiz-adv-x="536" d="M41 0q13 71 50 153t76.5 143t89.5 126t72.5 90.5t42.5 46.5h-305l22 141h502l-21 -132q-12 -12 -32.5 -34t-74.5 -88.5t-98 -131t-86.5 -152t-56.5 -162.5h-181z" />
<glyph unicode="8" horiz-adv-x="658" d="M10 177q0 134 189 211q-81 57 -81 139t70.5 133t194.5 51q116 0 180 -45.5t64 -119.5q0 -102 -139 -171q121 -64 121 -173q0 -96 -86 -154.5t-233 -58.5q-133 0 -206.5 50t-73.5 138zM184 195q0 -35 29 -56.5t80 -21.5q60 0 101 27.5t41 67.5q0 60 -97 105 q-71 -24 -112.5 -51.5t-41.5 -70.5zM282 509q0 -41 65 -73q54 18 82.5 37t28.5 50q0 26 -20 45t-57 19q-42 0 -70.5 -24t-28.5 -54z" />
<glyph unicode="9" horiz-adv-x="649" d="M22 9l60 124q29 -6 66 -6q89 0 163.5 41t112.5 123q-61 -44 -149 -44q-99 0 -158.5 58t-59.5 149q0 107 77 182t209 75q135 0 210 -78.5t75 -192.5q0 -191 -134 -321t-340 -130q-39 0 -72 5t-46 10zM228 461q0 -39 25.5 -63t76.5 -24q40 0 74 19t52 43q0 2 0.5 8t0.5 9 q0 51 -29 85.5t-81 34.5q-57 0 -88 -34t-31 -78z" />
<glyph unicode=":" horiz-adv-x="281" d="M5 0l31 179h166l-30 -179h-167zM60 306l30 180h167l-30 -180h-167z" />
<glyph unicode=";" horiz-adv-x="288" d="M-15 -114l96 114h-74l30 179h166l-23 -200l-161 -147zM62 306l30 180h166l-30 -180h-166z" />
<glyph unicode="&#x3c;" d="M48 278l18 111l549 203l-23 -143l-362 -123l315 -124l-20 -127z" />
<glyph unicode="=" d="M43 177l21 123h514l-20 -123h-515zM77 370l20 122h514l-20 -122h-514z" />
<glyph unicode="&#x3e;" d="M40 75l22 143l361 122l-314 125l21 127l477 -203l-18 -111z" />
<glyph unicode="?" horiz-adv-x="548" d="M84 640q131 71 251 71q99 0 158 -48t59 -128q0 -50 -22 -90t-61 -66.5t-85 -43.5t-101 -27l-24 -76h-101l19 168q104 17 153.5 42.5t49.5 67.5q0 27 -20.5 43.5t-59.5 16.5q-63 0 -161 -52zM85 0l27 164h166l-27 -164h-166z" />
<glyph unicode="@" horiz-adv-x="950" d="M28 192q0 101 36.5 191t103 157.5t165 106.5t215.5 39q81 0 146.5 -20.5t108 -54.5t70 -80.5t38 -96.5t6.5 -104q-3 -41 -11 -83t-27 -94.5t-45.5 -91.5t-71.5 -66t-101 -27q-39 0 -66 12t-39 32t-16.5 38.5t-4.5 38.5q-80 -67 -166 -67q-61 0 -99.5 38.5t-38.5 99.5 q0 78 52.5 121t131.5 43q38 0 157 -23l7 39q7 42 -8 59.5t-58 17.5q-71 0 -173 -39l-29 86q122 44 224 44q98 0 136 -43t22 -134l-27 -153q-7 -37 -9.5 -58t-0.5 -41t13 -28.5t32 -8.5q57 0 104.5 86t54.5 202q4 42 -2.5 82.5t-28 81t-56.5 70.5t-93 48.5t-133 18.5 q-141 0 -247.5 -61.5t-160 -161t-53.5 -218.5q0 -143 80.5 -229t224.5 -86q51 0 99 10.5t70 21.5l23 11l29 -45q-10 -6 -29 -14.5t-78 -23t-118 -14.5q-165 0 -262 103.5t-97 267.5zM354 175q0 -61 64 -61t131 57l12 70q-83 16 -111 16q-49 0 -72.5 -23t-23.5 -59z" />
<glyph unicode="A" horiz-adv-x="710" d="M-49 0l381 700h189l134 -700h-180l-17 128h-249l-61 -128h-197zM273 261h168l-36 275z" />
<glyph unicode="B" horiz-adv-x="695" d="M15 0l123 700h285q116 0 181 -42.5t65 -118.5q0 -68 -49 -113t-101 -52q45 -8 87 -48.5t42 -111.5q0 -104 -70 -159t-199 -55h-364zM207 131h130q69 0 106.5 26t37.5 76q0 73 -118 73h-123zM260 428h113q51 0 87 20.5t36 63.5q0 57 -100 57h-109z" />
<glyph unicode="C" horiz-adv-x="658" d="M42 270q0 205 98 323t250 118q58 0 117.5 -18.5t94 -37t90.5 -53.5l-91 -120q-63 38 -106 56.5t-85 18.5q-88 0 -140 -80.5t-52 -192.5q0 -142 102 -142q75 0 214 73l72 -135q-184 -91 -327 -91q-110 0 -173.5 70.5t-63.5 210.5z" />
<glyph unicode="D" horiz-adv-x="726" d="M15 0l123 700h228q176 0 256.5 -76t80.5 -205q0 -46 -9 -96t-35.5 -109.5t-68 -105.5t-113.5 -77t-165 -31h-297zM209 144h78q64 0 112.5 24.5t76 65.5t41 87t13.5 95q0 75 -45.5 107.5t-138.5 32.5h-62z" />
<glyph unicode="E" horiz-adv-x="617" d="M15 0l123 700h505l-23 -144h-335l-26 -135h273l-24 -141h-273l-26 -136h340l-24 -144h-510z" />
<glyph unicode="F" horiz-adv-x="592" d="M15 0l123 700h505l-23 -144h-335l-26 -136h264l-24 -141h-264l-50 -279h-170z" />
<glyph unicode="G" horiz-adv-x="714" d="M42 267q0 209 99 326.5t252 117.5q60 0 122.5 -19t99.5 -38.5t94 -53.5l-92 -121q-43 26 -68.5 39t-64 26t-72.5 13q-89 0 -141.5 -80t-52.5 -193q0 -150 107 -150q72 0 164 75l12 64h-155l22 134h315l-71 -407h-160l11 65q-95 -76 -191 -76q-103 0 -166.5 71.5 t-63.5 206.5z" />
<glyph unicode="H" horiz-adv-x="729" d="M15 0l123 700h171l-46 -262h253l46 262h170l-123 -700h-170l52 297h-253l-52 -297h-171z" />
<glyph unicode="I" horiz-adv-x="306" d="M15 0l123 700h171l-123 -700h-171z" />
<glyph unicode="J" horiz-adv-x="306" d="M-114 -53q59 17 86 31.5t37 31t16 50.5l113 640h170l-111 -631q-5 -29 -7.5 -41t-7.5 -35t-9.5 -32.5t-13.5 -27t-18.5 -26t-24 -21.5t-32.5 -20.5l-42 -17.5t-53 -17.5t-65 -15.5z" />
<glyph unicode="K" horiz-adv-x="699" d="M15 0l123 700h171l-52 -293l289 293h219l-336 -331l224 -369h-188l-152 256l-100 -99l-27 -157h-171z" />
<glyph unicode="L" horiz-adv-x="572" d="M15 0l123 700h171l-100 -559h323l-22 -141h-495z" />
<glyph unicode="M" horiz-adv-x="855" d="M15 0l123 700h174l111 -394l261 394h174l-123 -700h-170l72 411l-194 -294h-91l-90 319l-76 -436h-171z" />
<glyph unicode="N" horiz-adv-x="745" d="M15 0l123 700h173l187 -454l80 454h170l-123 -700h-173l-186 454l-80 -454h-171z" />
<glyph unicode="O" horiz-adv-x="772" d="M42 298q0 46 9 96t35 108t65 103.5t106 75.5t151 30q165 0 252 -81.5t87 -228.5q0 -46 -9 -96t-35 -108t-65 -103.5t-106 -75.5t-151 -30q-165 0 -252 81.5t-87 228.5zM218 303q0 -170 157 -170q52 0 92 27t61.5 68.5t32 84.5t10.5 83q0 170 -157 170q-52 0 -92 -27 t-61.5 -68.5t-32 -84.5t-10.5 -83z" />
<glyph unicode="P" horiz-adv-x="674" d="M15 0l123 700h269q280 0 280 -206q0 -44 -16 -87t-48.5 -81.5t-90 -62t-131.5 -23.5h-172l-43 -240h-171zM252 380h119q67 0 104 29t37 80q0 70 -107 70h-119z" />
<glyph unicode="Q" horiz-adv-x="772" d="M42 298q0 46 9 96t35 108t65 103.5t106 75.5t151 30q165 0 252 -81.5t87 -228.5q0 -46 -10.5 -97.5t-33.5 -108t-68.5 -105t-107.5 -74.5l91 -85l-121 -106l-141 164q-153 6 -233.5 86.5t-80.5 222.5zM218 303q0 -170 157 -170q52 0 92 27t61.5 68.5t32 84.5t10.5 83 q0 170 -157 170q-52 0 -92 -27t-61.5 -68.5t-32 -84.5t-10.5 -83z" />
<glyph unicode="R" horiz-adv-x="706" d="M15 0l123 700h301q273 0 273 -196q0 -51 -21 -98t-71.5 -86.5t-122.5 -51.5l125 -268h-175l-116 263h-98l-47 -263h-171zM255 396h143q66 0 102 27t36 77q0 67 -112 67h-137z" />
<glyph unicode="S" horiz-adv-x="646" d="M-12 98l90 116q143 -84 238 -84q45 0 74 17.5t29 46.5q0 20 -18.5 35t-42.5 23t-65.5 22t-69.5 26q-68 30 -108.5 74t-40.5 117q0 94 72.5 157t198.5 63q150 0 311 -94l-90 -113q-45 25 -105.5 45.5t-104.5 20.5q-42 0 -70 -16t-28 -47q0 -24 21 -37t77.5 -30.5 t90.5 -32.5q69 -30 112 -74t43 -119q0 -97 -75.5 -161t-203.5 -64q-92 0 -180.5 32t-154.5 77z" />
<glyph unicode="T" horiz-adv-x="597" d="M58 556l24 144h571l-24 -144h-200l-99 -556h-171l99 556h-200z" />
<glyph unicode="U" horiz-adv-x="718" d="M62 314l68 386h172l-76 -424q-12 -67 8.5 -104t93.5 -37t107 37t47 104l75 424h171l-76 -431q-11 -63 -31 -109.5t-56 -87t-96.5 -62t-143.5 -21.5q-76 0 -130.5 16.5t-84 45.5t-45 70t-13.5 89.5t10 103.5z" />
<glyph unicode="V" horiz-adv-x="708" d="M70 700h191l66 -499l237 499h211l-380 -700h-190z" />
<glyph unicode="W" horiz-adv-x="971" d="M78 700h191l17 -453l195 453h142l31 -447l173 447h203l-316 -700h-167l-34 455l-197 -455h-167z" />
<glyph unicode="X" horiz-adv-x="663" d="M-56 0l292 353l-157 347h187l84 -242l166 242h209l-281 -347l170 -353h-191l-92 237l-171 -237h-216z" />
<glyph unicode="Y" horiz-adv-x="665" d="M66 700h181l95 -279l193 279h199l-324 -424l-47 -276h-171l49 278z" />
<glyph unicode="Z" horiz-adv-x="640" d="M-24 0l22 131l419 425h-320l24 144h549l-21 -130l-420 -426h347l-24 -144h-576z" />
<glyph unicode="[" horiz-adv-x="365" d="M-18 -143l173 982h288l-16 -95h-118l-141 -793h118l-16 -94h-288z" />
<glyph unicode="\" horiz-adv-x="480" d="M102 790h115l178 -880h-115z" />
<glyph unicode="]" horiz-adv-x="365" d="M-62 -143l16 94h117l141 793h-117l16 95h288l-173 -982h-288z" />
<glyph unicode="^" d="M57 320l250 380h169l121 -380h-170l-54 217l-128 -217h-188z" />
<glyph unicode="_" horiz-adv-x="708" d="M-32 -185l18 117h602l-18 -117h-602z" />
<glyph unicode="`" horiz-adv-x="248" d="M106 729h173l101 -140h-126z" />
<glyph unicode="a" horiz-adv-x="631" d="M22 186q0 155 71 252.5t184 97.5q83 0 166 -69l10 58h164l-93 -525h-164l10 58q-93 -69 -185 -69q-69 0 -116 47.5t-47 149.5zM191 205q0 -85 65 -85q59 0 137 68l28 158q-49 58 -105 58q-57 0 -91 -58.5t-34 -140.5z" />
<glyph unicode="b" horiz-adv-x="628" d="M2 0l129 729h164l-46 -258q94 65 178 65q72 0 120.5 -47.5t48.5 -150.5q0 -155 -70 -252t-182 -97q-38 0 -73.5 12.5t-52 23.5t-42.5 31l-10 -56h-164zM197 178q52 -57 108 -57t89.5 58.5t33.5 140.5q0 85 -71 85q-53 0 -131 -64z" />
<glyph unicode="c" horiz-adv-x="523" d="M21 209q0 157 80 242t189 85q49 0 101 -15t73.5 -25.5t67.5 -35.5l-74 -113q-3 1 -17.5 9t-21.5 11.5t-22 10t-25 10t-22.5 6t-23.5 2.5q-59 0 -97.5 -53.5t-38.5 -118.5q0 -95 82 -95q42 0 144 47l54 -126q-147 -61 -235 -61q-96 0 -155 55.5t-59 164.5z" />
<glyph unicode="d" horiz-adv-x="631" d="M22 186q0 155 71 252.5t184 97.5q83 0 166 -69l46 262h164l-129 -729h-164l10 58q-93 -69 -185 -69q-69 0 -116 47.5t-47 149.5zM191 205q0 -85 65 -85q59 0 137 68l28 158q-49 58 -105 58q-57 0 -91 -58.5t-34 -140.5z" />
<glyph unicode="e" horiz-adv-x="572" d="M20 215q0 141 84 231t230 90q98 0 157.5 -42.5t59.5 -112.5q0 -52 -23.5 -87t-69.5 -52.5t-98 -24.5t-123 -7h-51v-4q0 -96 86 -96q65 0 193 59l49 -113q-145 -67 -274 -67q-104 0 -162 55t-58 171zM201 296h43q71 0 110.5 19.5t39.5 54.5q0 22 -18 36t-47 14 q-46 0 -78.5 -35.5t-49.5 -88.5z" />
<glyph unicode="f" horiz-adv-x="392" d="M-103 -106q48 15 72 25t39.5 28.5t20.5 36t12 59.5l66 362h-70l21 120h71l2 12q16 100 56 146t121 46q95 0 195 -55l-72 -105q-54 19 -87 19q-38 0 -48 -49l-3 -14h125l-21 -120h-125l-63 -349q-22 -117 -40 -155q-32 -63 -116 -97q-47 -18 -121 -34z" />
<glyph unicode="g" horiz-adv-x="629" d="M-24 -171l52 129q126 -40 212 -40q59 0 84.5 21.5t32.5 59.5l10 58q-92 -68 -183 -68q-68 0 -115 47.5t-47 149.5q0 155 70.5 252.5t183.5 97.5q85 0 165 -68l10 57h163l-91 -518q-22 -127 -84 -174t-182 -47q-133 0 -281 43zM190 205q0 -40 17 -62.5t48 -22.5 q58 0 135 67l29 161q-49 56 -104 56q-57 0 -91 -59t-34 -140z" />
<glyph unicode="h" horiz-adv-x="625" d="M2 0l129 729h164l-46 -261q104 68 193 68q86 0 121.5 -50.5t20.5 -137.5l-62 -348h-165l59 331q16 78 -45 78q-32 0 -72.5 -18.5t-71.5 -43.5l-61 -347h-164z" />
<glyph unicode="i" horiz-adv-x="274" d="M2 0l93 525h164l-93 -525h-164zM104 592l23 134h171l-22 -134h-172z" />
<glyph unicode="j" horiz-adv-x="274" d="M-136 -106q62 19 89 34t35.5 30.5t15.5 51.5l92 515h164l-90 -501q-5 -29 -7.5 -41t-7.5 -35t-9.5 -32.5t-13 -27t-18.5 -26t-24.5 -21.5t-32.5 -20.5t-41.5 -17.5t-52 -17.5t-64.5 -15.5zM104 592l23 134h172l-23 -134h-172z" />
<glyph unicode="k" horiz-adv-x="577" d="M2 0l129 729h164l-68 -383l171 179h200l-220 -214l156 -311h-166l-101 203l-79 -77l-22 -126h-164z" />
<glyph unicode="l" horiz-adv-x="277" d="M3 0l129 729h165l-129 -729h-165z" />
<glyph unicode="m" horiz-adv-x="930" d="M2 0l93 525h164l-11 -62q88 73 173 73q116 0 137 -92q34 34 88 63t106 29q85 0 119 -48.5t18 -134.5l-62 -353h-164l59 331q9 33 0 55.5t-41 22.5q-58 0 -124 -64l-61 -345h-164l60 331q7 38 -1 58t-41 20q-57 0 -123 -64l-61 -345h-164z" />
<glyph unicode="n" horiz-adv-x="625" d="M2 0l93 525h164l-10 -57q104 68 193 68q86 0 121.5 -50.5t20.5 -137.5l-62 -348h-165l59 331q16 78 -45 78q-32 0 -72.5 -18.5t-71.5 -43.5l-61 -347h-164z" />
<glyph unicode="o" horiz-adv-x="625" d="M21 230q0 131 77 218.5t217 87.5q128 0 201.5 -63.5t73.5 -177.5q0 -131 -77 -218.5t-216 -87.5q-129 0 -202.5 63t-73.5 178zM186 228q0 -113 107 -113q62 0 97 54.5t35 127.5q0 113 -107 113q-62 0 -97 -54.5t-35 -127.5z" />
<glyph unicode="p" horiz-adv-x="628" d="M-34 -204l129 729h165l-10 -54q92 65 178 65q72 0 120 -47.5t48 -150.5q0 -155 -69.5 -252t-181.5 -97q-38 0 -73.5 12.5t-52 23.5t-42.5 31l-46 -260h-165zM198 178q50 -57 107 -57t90 58.5t33 140.5q0 85 -70 85q-53 0 -131 -64z" />
<glyph unicode="q" horiz-adv-x="631" d="M22 186q0 155 71 252.5t184 97.5q83 0 166 -69l10 58h164l-129 -729h-164l46 262q-93 -69 -185 -69q-69 0 -116 47.5t-47 149.5zM191 205q0 -85 65 -85q59 0 137 68l28 158q-49 58 -105 58q-57 0 -91 -58.5t-34 -140.5z" />
<glyph unicode="r" horiz-adv-x="428" d="M2 0l93 525h164l-19 -109q7 12 16.5 24.5t29 31t42 32t56 22t70.5 5.5l-26 -154q-48 0 -89 -19t-65 -46t-41 -54t-23 -46l-7 -19l-37 -193h-164z" />
<glyph unicode="s" horiz-adv-x="539" d="M-17 72l74 107q46 -26 103.5 -45.5t100.5 -19.5q29 0 46 9t17 24q0 9 -6.5 16.5t-20.5 13.5t-26 9.5t-34.5 9.5t-34.5 10q-32 10 -55.5 20t-49 28t-39.5 46t-14 64q0 75 59.5 123.5t162.5 48.5q68 0 137.5 -20t116.5 -47l-73 -105q-98 48 -171 48q-65 0 -65 -33 q0 -9 5 -15.5t18 -12t23.5 -8.5t34 -9.5t37.5 -10.5q34 -10 59 -21t51 -29.5t40 -46.5t14 -64q0 -78 -63 -125.5t-171 -47.5q-150 0 -276 83z" />
<glyph unicode="t" horiz-adv-x="425" d="M38 405l20 120h71l24 132l167 20l-27 -152h140l-19 -120h-143l-40 -225q-9 -48 30 -48q27 0 81 20l40 -126q-103 -37 -180 -37q-81 0 -115.5 53.5t-16.5 152.5l37 210h-69z" />
<glyph unicode="u" horiz-adv-x="624" d="M29 176l62 349h164l-59 -331q-16 -78 45 -78q33 0 73.5 18.5t69.5 42.5l62 348h164l-93 -525h-164l10 56q-105 -67 -193 -67q-86 0 -121 50t-20 137z" />
<glyph unicode="v" horiz-adv-x="583" d="M43 525h170l48 -350l172 350h183l-298 -525h-163z" />
<glyph unicode="w" horiz-adv-x="840" d="M49 525h169l17 -344l155 344h135l31 -338l133 338h179l-252 -525h-154l-37 322l-154 -322h-154z" />
<glyph unicode="x" horiz-adv-x="604" d="M-56 0l250 262l-145 263h172l79 -169l137 169h199l-240 -262l159 -263h-177l-84 172l-140 -172h-210z" />
<glyph unicode="y" horiz-adv-x="585" d="M-7 -103q88 30 113 46q28 18 50 47l-112 535h170l51 -333l169 333h183l-293 -525q-24 -42 -35 -60.5t-37.5 -51.5t-52.5 -50.5t-70 -36.5t-100 -31z" />
<glyph unicode="z" horiz-adv-x="562" d="M-24 0l19 113l310 277h-249l23 135h489l-19 -113l-311 -277h259l-22 -135h-499z" />
<glyph unicode="{" horiz-adv-x="391" d="M7 299l17 97q108 0 114 110l4 100q5 123 75 178t205 55h47l-15 -92h-19q-111 0 -119 -122l-4 -88q-5 -96 -46.5 -138.5t-124.5 -53.5q74 -17 101 -63.5t0 -135.5l-17 -54q-44 -143 68 -143h18l-15 -92h-18q-124 0 -191 63t-32 181l27 89q18 50 0.5 79.5t-75.5 29.5z" />
<glyph unicode="|" horiz-adv-x="243" d="M-14 -123l166 941h120l-166 -941h-120z" />
<glyph unicode="}" horiz-adv-x="392" d="M-61 -143l16 92h18q113 0 119 121l4 89q4 96 46 138.5t126 52.5q-75 17 -102 63.5t0 136.5l16 54q46 143 -67 143h-19l16 92h18q124 0 191 -63t32 -182l-27 -88q-19 -50 -1 -80t77 -30l-18 -97q-110 1 -114 -109l-4 -101q-4 -122 -74 -177t-205 -55h-48z" />
<glyph unicode="~" d="M7 215q45 80 92 121t108 41q53 0 126 -38t107 -38q24 0 45 14t50 56l94 -41q-44 -80 -91 -121t-109 -41q-53 0 -126 38t-108 38q-22 0 -42.5 -14t-50.5 -56z" />
<glyph unicode="&#xa1;" horiz-adv-x="287" d="M-10 0l134 468h99l-33 -468h-200zM103 535l27 165h167l-28 -165h-166z" />
<glyph unicode="&#xa2;" horiz-adv-x="570" d="M47 297q0 157 80 242t189 85h6l14 76h119l-17 -98q45 -15 133 -63l-74 -111q-92 56 -145 56q-59 0 -97.5 -53.5t-38.5 -118.5q0 -95 82 -95q53 0 157 47l54 -123q-102 -42 -162 -54l-15 -87h-119l14 79q-83 9 -131.5 64t-48.5 154z" />
<glyph unicode="&#xa3;" horiz-adv-x="588" d="M-5 0l18 114q5 2 13 5t30 14.5t40 25t36 37t25 50.5h-108l17 96h86q-4 13 -17 47.5t-20 63.5t-7 60q0 91 60 144.5t166 53.5q58 0 116.5 -19.5t88.5 -37.5t70 -47l-85 -100q-95 63 -159 63q-42 0 -65.5 -21t-23.5 -54q0 -27 20 -76.5t25 -76.5h161l-17 -96h-150 q-23 -69 -81 -105h276l-23 -141h-492z" />
<glyph unicode="&#xa5;" horiz-adv-x="718" d="M70 137l16 95h175l9 46l-2 4h-172l15 95h117l-133 323h181l95 -279l193 279h200l-248 -323h117l-16 -95h-173l-5 -6l-8 -44h177l-17 -95h-176l-24 -137h-170l24 137h-175z" />
<glyph unicode="&#xa6;" horiz-adv-x="246" d="M-12 -123l73 413h120l-73 -413h-120zM81 405l73 413h120l-73 -413h-120z" />
<glyph unicode="&#xa7;" horiz-adv-x="584" d="M11 -5l73 105q105 -48 175 -48q62 0 62 33q0 9 -5.5 15.5t-18.5 12t-24 9t-33.5 9.5t-35.5 10q-75 22 -120 58t-45 99q0 97 108 138q-45 40 -45 103q0 75 59.5 123.5t163.5 48.5q68 0 137.5 -20t116.5 -47l-73 -105q-101 48 -173 48q-28 0 -45.5 -9t-17.5 -24 q0 -9 5 -15.5t18.5 -12t24 -9t34 -9.5t35.5 -10q33 -10 58 -21t51 -29.5t40 -45.5t14 -62q0 -98 -107 -138q45 -40 45 -102q0 -75 -59.5 -123.5t-162.5 -48.5q-68 0 -137 20t-118 47zM199 324q0 -7 3 -13t10.5 -11.5t14 -9t20 -8t21.5 -7t25.5 -7.5t25.5 -7q38 5 54.5 20.5 t16.5 32.5q0 6 -2 11t-6 9t-8.5 7.5t-12 7t-14 6t-17 6t-18 5.5t-20.5 6t-21 6q-38 -5 -55 -21t-17 -33z" />
<glyph unicode="&#xa8;" horiz-adv-x="258" d="M70 599l23 128h132l-22 -128h-133zM262 599l23 128h131l-23 -128h-131z" />
<glyph unicode="&#xa9;" horiz-adv-x="791" d="M48 313q0 167 102.5 282.5t279.5 115.5q152 0 241 -89.5t89 -234.5q0 -108 -43 -197t-132 -145t-208 -56q-151 0 -240 90t-89 234zM87 314q0 -127 78.5 -207t215.5 -80q156 0 248 103.5t92 255.5q0 127 -78.5 207t-215.5 80q-156 0 -248 -103.5t-92 -255.5zM219 302 q-5 122 54.5 193.5t147.5 71.5q78 0 160 -67l-32 -33q-67 56 -129 56q-66 0 -110 -62t-40 -155q2 -61 26 -95t68 -34q71 0 149 54l26 -37q-93 -62 -173 -62q-62 0 -103 44.5t-44 125.5z" />
<glyph unicode="&#xaa;" horiz-adv-x="433" d="M71 501q0 91 44 148.5t115 57.5q50 0 104 -39l6 32h112l-56 -315h-112l5 31q-58 -38 -113 -38q-45 0 -75 29.5t-30 93.5zM185 511q0 -45 38 -45q33 0 82 37l15 84q-29 31 -61 31q-34 0 -54 -31.5t-20 -75.5z" />
<glyph unicode="&#xab;" horiz-adv-x="685" d="M13 219l15 98l339 210l-27 -164l-185 -107l146 -105l-25 -141zM319 219l16 98l338 210l-26 -164l-185 -107l145 -105l-24 -141z" />
<glyph unicode="&#xac;" d="M18 272l20 123h589l-55 -305h-131l33 182h-456z" />
<glyph unicode="&#xad;" horiz-adv-x="431" d="M38 219l23 131h326l-23 -131h-326z" />
<glyph unicode="&#xae;" horiz-adv-x="471" d="M72 480q0 92 56.5 156t155.5 64q84 0 133 -49.5t49 -130.5q0 -92 -56.5 -156t-154.5 -64q-84 0 -133.5 49.5t-49.5 130.5zM106 481q0 -65 40.5 -106.5t110.5 -41.5q81 0 129 53.5t48 132.5q0 65 -41 106.5t-112 41.5q-81 0 -128 -53.5t-47 -132.5zM179 402l35 201h89 q28 0 44.5 -15t16.5 -37q0 -24 -17 -41t-45 -22l33 -86h-34l-31 85h-43l-15 -85h-33zM232 518h52q22 0 34.5 9.5t12.5 23.5q0 22 -29 22h-60z" />
<glyph unicode="&#xaf;" horiz-adv-x="316" d="M112 614l17 94h310l-17 -94h-310z" />
<glyph unicode="&#xb0;" horiz-adv-x="416" d="M65 521q0 74 53 127t128 53q74 0 127 -53t53 -127t-53 -127t-127 -53q-75 0 -128 53t-53 127zM160 521q0 -35 25 -60.5t61 -25.5q35 0 60.5 25.5t25.5 60.5t-25.5 60.5t-60.5 25.5q-36 0 -61 -25.5t-25 -60.5z" />
<glyph unicode="&#xb1;" d="M12 0l16 105h515l-17 -105h-514zM63 293l20 122h195l23 132h126l-23 -132h194l-20 -122h-196l-23 -132h-126l23 132h-193z" />
<glyph unicode="&#xb2;" horiz-adv-x="416" d="M41 385l8 47q6 34 21 61.5t42.5 50t47 35t55.5 31.5q13 7 30 16t26.5 14t21 11t17.5 10t11.5 9t7.5 10t2 10q-3 27 -48 27q-50 0 -122 -40l-44 80q98 55 181 55q72 0 110.5 -33.5t38.5 -82.5q0 -30 -14 -55.5t-43 -46.5t-51.5 -33.5t-59.5 -29.5q-47 -22 -61.5 -31.5 t-18.5 -19.5h207l-15 -95h-350z" />
<glyph unicode="&#xb3;" horiz-adv-x="405" d="M34 447l56 70q77 -43 134 -43q72 0 72 41q0 42 -108 42h-18l14 96h22q106 0 106 37q0 27 -41 27q-50 0 -122 -36l-38 78q90 53 179 53q69 0 104.5 -28t35.5 -71q0 -65 -87 -102q31 -11 51 -37.5t20 -60.5q0 -53 -43 -94t-134 -41q-107 0 -203 69z" />
<glyph unicode="&#xb4;" horiz-adv-x="248" d="M73 589l147 140h191l-196 -140h-142z" />
<glyph unicode="&#xb5;" horiz-adv-x="628" d="M-28 -204l129 729h164l-62 -348q-5 -61 49 -61q32 0 72 18t70 42l62 349h165l-93 -525h-165l10 56q-103 -67 -192 -67h-11l-34 -193h-164z" />
<glyph unicode="&#xb6;" horiz-adv-x="733" d="M51 412q0 140 91 214t222 74h151l-156 -885h-139l71 391q-107 0 -173.5 51t-66.5 155zM434 -186l156 886h137l-156 -886h-137z" />
<glyph unicode="&#xb7;" horiz-adv-x="273" d="M35 195l31 180h166l-30 -180h-167z" />
<glyph unicode="&#xb8;" horiz-adv-x="185" d="M-39 -164l45 78q21 -11 47 -11q51 0 51 42q0 12 -4 26t-8 23l-5 8h71q25 -36 25 -80q0 -53 -36.5 -81t-91.5 -28q-56 0 -94 23z" />
<glyph unicode="&#xb9;" horiz-adv-x="260" d="M53 736l138 69h109l-74 -420h-116l57 308l-78 -36z" />
<glyph unicode="&#xba;" horiz-adv-x="418" d="M68 516q0 81 50 136t142 55q79 0 125 -36.5t46 -101.5q0 -81 -50.5 -136t-143.5 -55q-78 0 -123.5 36.5t-45.5 101.5zM178 524q0 -61 62 -61q39 0 59.5 31t20.5 67q0 61 -62 61q-39 0 -59.5 -31t-20.5 -67z" />
<glyph unicode="&#xbb;" horiz-adv-x="683" d="M-1 10l26 164l185 106l-144 106l23 141l264 -210l-16 -98zM305 10l27 164l184 106l-143 106l22 141l264 -210l-16 -98z" />
<glyph unicode="&#xbc;" horiz-adv-x="908" d="M79 631l138 69h110l-74 -420h-117l58 308l-78 -36zM133 0l448 700h124l-448 -700h-124zM420 73l12 79l242 268h153l-45 -252h65l-14 -95h-67l-13 -73h-116l13 73h-230zM561 168h105l27 152z" />
<glyph unicode="&#xbd;" horiz-adv-x="924" d="M79 631l138 69h110l-74 -420h-117l58 308l-78 -36zM133 0l448 700h124l-448 -700h-124zM476 0l8 47q6 34 21.5 61.5t42.5 50t47 35t55 31.5q13 7 30 15.5t26.5 13.5t21 11.5t17 10.5t11.5 9t8 10t2 10q0 27 -48 27q-50 0 -122 -40l-43 80q98 55 180 55q73 0 111.5 -33.5 t38.5 -82.5q0 -30 -14.5 -55.5t-43.5 -46.5t-51 -33t-60 -30q-47 -22 -61.5 -31.5t-17.5 -19.5h206l-14 -95h-351z" />
<glyph unicode="&#xbe;" horiz-adv-x="1001" d="M34 342l56 70q77 -43 134 -43q72 0 72 41q0 42 -108 42h-18l14 96h22q106 0 106 37q0 27 -41 27q-50 0 -122 -36l-38 78q90 53 179 53q69 0 104.5 -28t35.5 -71q0 -65 -87 -102q31 -11 51 -37.5t20 -60.5q0 -53 -43 -94t-134 -41q-107 0 -203 69zM228 0l448 700h125 l-447 -700h-126zM516 73l12 79l241 268h155l-45 -252h65l-15 -95h-67l-13 -73h-116l13 73h-230zM658 168h104l27 150z" />
<glyph unicode="&#xbf;" horiz-adv-x="546" d="M13 165q0 50 22 89.5t61.5 66t85.5 43.5t101 27l23 77h102l-20 -168q-104 -18 -154 -43.5t-50 -66.5q0 -27 21.5 -43.5t60.5 -16.5q65 0 159 52l55 -122q-125 -71 -250 -71q-100 0 -158.5 48t-58.5 128zM286 535l28 165h166l-27 -165h-167z" />
<glyph unicode="&#xc0;" horiz-adv-x="710" d="M-49 0l381 700h189l134 -700h-180l-17 128h-249l-61 -128h-197zM267 880h172l100 -140h-125zM273 261h168l-36 275z" />
<glyph unicode="&#xc1;" horiz-adv-x="710" d="M-49 0l381 700h189l134 -700h-180l-17 128h-249l-61 -128h-197zM273 261h168l-36 275zM329 740l147 140h192l-197 -140h-142z" />
<glyph unicode="&#xc2;" horiz-adv-x="710" d="M-49 0l381 700h189l134 -700h-180l-17 128h-249l-61 -128h-197zM251 740l130 140h156l82 -140h-105l-60 70l-86 -70h-117zM273 261h168l-36 275z" />
<glyph unicode="&#xc3;" horiz-adv-x="710" d="M-49 0l381 700h189l134 -700h-180l-17 128h-249l-61 -128h-197zM254 787q18 27 28 39.5t26.5 29.5t34 24t39.5 7q30 0 72.5 -24t57.5 -24q26 0 61 48l66 -44q-18 -27 -28 -40t-26.5 -30t-34 -24t-39.5 -7q-29 0 -72 24t-58 24q-25 0 -61 -47zM273 261h168l-36 275z" />
<glyph unicode="&#xc4;" horiz-adv-x="710" d="M-49 0l381 700h189l134 -700h-180l-17 128h-249l-61 -128h-197zM273 261h168l-36 275zM273 750l23 128h132l-22 -128h-133zM465 750l23 128h131l-22 -128h-132z" />
<glyph unicode="&#xc5;" horiz-adv-x="710" d="M-49 0l381 700h189l134 -700h-180l-17 128h-249l-61 -128h-197zM273 261h168l-36 275zM339 844q0 48 33.5 81.5t80.5 33.5q48 0 81.5 -33.5t33.5 -81.5q0 -47 -33.5 -80.5t-81.5 -33.5q-47 0 -80.5 33.5t-33.5 80.5zM415 844q0 -16 11 -27t27 -11t27.5 11t11.5 27 t-11 27.5t-28 11.5q-16 0 -27 -11.5t-11 -27.5z" />
<glyph unicode="&#xc6;" horiz-adv-x="1069" d="M-86 0l593 700h589l-24 -144h-335l-26 -135h274l-25 -141h-272l-27 -136h340l-23 -144h-510l22 128h-254l-103 -128h-219zM348 266h166l46 263z" />
<glyph unicode="&#xc7;" horiz-adv-x="659" d="M43 270q0 205 98 323t250 118q58 0 118 -19t93 -36.5t91 -53.5l-91 -120q-64 39 -106.5 57t-84.5 18q-88 0 -140.5 -80.5t-52.5 -192.5q0 -142 102 -142q75 0 214 73l73 -135q-158 -78 -277 -88q20 -35 20 -70q0 -53 -36.5 -81t-92.5 -28t-93 23l44 78q22 -11 46 -11 q52 0 52 42q0 21 -11 45q-101 6 -158.5 76.5t-57.5 203.5z" />
<glyph unicode="&#xc8;" horiz-adv-x="617" d="M15 0l122 700h506l-24 -144h-335l-26 -135h274l-25 -141h-272l-27 -136h340l-23 -144h-510zM232 880h173l101 -140h-125z" />
<glyph unicode="&#xc9;" horiz-adv-x="617" d="M15 0l122 700h506l-24 -144h-335l-26 -135h274l-25 -141h-272l-27 -136h340l-23 -144h-510zM288 740l147 140h190l-195 -140h-142z" />
<glyph unicode="&#xca;" horiz-adv-x="617" d="M15 0l122 700h506l-24 -144h-335l-26 -135h274l-25 -141h-272l-27 -136h340l-23 -144h-510zM216 740l132 140h154l82 -140h-103l-62 70l-85 -70h-118z" />
<glyph unicode="&#xcb;" horiz-adv-x="617" d="M15 0l122 700h506l-24 -144h-335l-26 -135h274l-25 -141h-272l-27 -136h340l-23 -144h-510zM240 750l22 128h133l-22 -128h-133zM432 750l22 128h133l-23 -128h-132z" />
<glyph unicode="&#xcc;" horiz-adv-x="306" d="M15 0l123 700h171l-123 -700h-171zM63 880h173l101 -140h-125z" />
<glyph unicode="&#xcd;" horiz-adv-x="306" d="M15 0l123 700h171l-123 -700h-171zM118 740l147 140h191l-196 -140h-142z" />
<glyph unicode="&#xce;" horiz-adv-x="306" d="M15 0l123 700h171l-123 -700h-171zM46 740l131 140h155l82 -140h-104l-60 70l-85 -70h-119z" />
<glyph unicode="&#xcf;" horiz-adv-x="306" d="M15 0l123 700h171l-123 -700h-171zM71 750l22 128h132l-23 -128h-131zM262 750l23 128h131l-22 -128h-132z" />
<glyph unicode="&#xd0;" horiz-adv-x="743" d="M9 285l21 131h73l50 284h228q176 0 257 -76t81 -205q0 -46 -9 -96t-35.5 -109.5t-68 -105.5t-113.5 -77t-165 -31h-297l49 285h-71zM227 144h76q64 0 113 24.5t76.5 65.5t41 87t13.5 95q0 74 -46 107t-139 33h-62l-25 -140h136l-21 -131h-138z" />
<glyph unicode="&#xd1;" horiz-adv-x="745" d="M15 0l123 700h173l186 -453l80 453h171l-123 -700h-173l-187 453l-79 -453h-171zM276 787q18 27 28 39.5t26.5 29.5t34 24t39.5 7q30 0 73 -24t57 -24q26 0 61 48l66 -44q-18 -27 -28 -40t-26.5 -30t-34 -24t-39.5 -7q-29 0 -72 24t-58 24q-25 0 -61 -47z" />
<glyph unicode="&#xd2;" horiz-adv-x="772" d="M42 298q0 46 9 96t35 108t65 103.5t106 75.5t151 30q165 0 252 -81.5t87 -228.5q0 -46 -9 -96t-35 -108t-65 -103.5t-106 -75.5t-151 -30q-165 0 -252 81.5t-87 228.5zM218 303q0 -170 157 -170q52 0 92 27t61.5 68.5t32 84.5t10.5 83q0 170 -157 170q-52 0 -92 -27 t-61.5 -68.5t-32 -84.5t-10.5 -83zM297 880h172l101 -140h-126z" />
<glyph unicode="&#xd3;" horiz-adv-x="772" d="M42 298q0 46 9 96t35 108t65 103.5t106 75.5t151 30q165 0 252 -81.5t87 -228.5q0 -46 -9 -96t-35 -108t-65 -103.5t-106 -75.5t-151 -30q-165 0 -252 81.5t-87 228.5zM218 303q0 -170 157 -170q52 0 92 27t61.5 68.5t32 84.5t10.5 83q0 170 -157 170q-52 0 -92 -27 t-61.5 -68.5t-32 -84.5t-10.5 -83zM351 740l147 140h191l-195 -140h-143z" />
<glyph unicode="&#xd4;" horiz-adv-x="772" d="M42 298q0 46 9 96t35 108t65 103.5t106 75.5t151 30q165 0 252 -81.5t87 -228.5q0 -46 -9 -96t-35 -108t-65 -103.5t-106 -75.5t-151 -30q-165 0 -252 81.5t-87 228.5zM218 303q0 -170 157 -170q52 0 92 27t61.5 68.5t32 84.5t10.5 83q0 170 -157 170q-52 0 -92 -27 t-61.5 -68.5t-32 -84.5t-10.5 -83zM281 740l130 140h156l82 -140h-104l-61 70l-85 -70h-118z" />
<glyph unicode="&#xd5;" horiz-adv-x="772" d="M42 298q0 46 9 96t35 108t65 103.5t106 75.5t151 30q165 0 252 -81.5t87 -228.5q0 -46 -9 -96t-35 -108t-65 -103.5t-106 -75.5t-151 -30q-165 0 -252 81.5t-87 228.5zM218 303q0 -170 157 -170q52 0 92 27t61.5 68.5t32 84.5t10.5 83q0 170 -157 170q-52 0 -92 -27 t-61.5 -68.5t-32 -84.5t-10.5 -83zM283 787q20 29 28.5 40t26 29t35 24.5t39.5 6.5q30 0 73 -24t57 -24q25 0 60 48l67 -44q-26 -37 -38.5 -53t-37 -32t-53.5 -16q-30 0 -72.5 24t-56.5 24q-25 0 -61 -47z" />
<glyph unicode="&#xd6;" horiz-adv-x="772" d="M42 298q0 46 9 96t35 108t65 103.5t106 75.5t151 30q165 0 252 -81.5t87 -228.5q0 -46 -9 -96t-35 -108t-65 -103.5t-106 -75.5t-151 -30q-165 0 -252 81.5t-87 228.5zM218 303q0 -170 157 -170q52 0 92 27t61.5 68.5t32 84.5t10.5 83q0 170 -157 170q-52 0 -92 -27 t-61.5 -68.5t-32 -84.5t-10.5 -83zM304 750l22 128h132l-22 -128h-132zM495 750l22 128h133l-22 -128h-133z" />
<glyph unicode="&#xd7;" d="M77 216l158 126l-109 122l99 83l111 -124l161 129l82 -95l-159 -127l110 -122l-99 -83l-112 124l-160 -128z" />
<glyph unicode="&#xd8;" horiz-adv-x="772" d="M0 0l98 103q-57 75 -57 195q0 37 7 78.5t22 89.5t43.5 90.5t67 77.5t97 56t129.5 21q133 0 219 -56l42 45h119l-99 -103q57 -75 59 -196q0 -46 -9.5 -96t-35.5 -108t-65 -103.5t-106 -75.5t-151 -30q-136 0 -219 56l-42 -44h-119zM217 303q0 -40 7 -68l290 303 q-39 28 -101 28q-52 0 -92 -27t-61.5 -68.5t-32 -84.5t-10.5 -83zM272 161q39 -28 102 -28q52 0 92 27t61.5 68.5t32 84.5t10.5 83q0 36 -8 68z" />
<glyph unicode="&#xd9;" horiz-adv-x="718" d="M62 314l67 386h173l-76 -424q-12 -67 8.5 -104t92.5 -37q74 0 108 37t46 104l76 424h171l-77 -431q-9 -50 -22.5 -89t-38 -76t-59.5 -61.5t-87 -39t-119 -14.5q-76 0 -130.5 16.5t-84 45.5t-45 70t-13.5 89.5t10 103.5zM269 880h173l101 -140h-125z" />
<glyph unicode="&#xda;" horiz-adv-x="718" d="M62 314l67 386h173l-76 -424q-12 -67 8.5 -104t92.5 -37q74 0 108 37t46 104l76 424h171l-77 -431q-9 -50 -22.5 -89t-38 -76t-59.5 -61.5t-87 -39t-119 -14.5q-76 0 -130.5 16.5t-84 45.5t-45 70t-13.5 89.5t10 103.5zM324 740l148 140h190l-196 -140h-142z" />
<glyph unicode="&#xdb;" horiz-adv-x="718" d="M62 314l67 386h173l-76 -424q-12 -67 8.5 -104t92.5 -37q74 0 108 37t46 104l76 424h171l-77 -431q-9 -50 -22.5 -89t-38 -76t-59.5 -61.5t-87 -39t-119 -14.5q-76 0 -130.5 16.5t-84 45.5t-45 70t-13.5 89.5t10 103.5zM253 740l131 140h155l82 -140h-104l-60 70l-85 -70 h-119z" />
<glyph unicode="&#xdc;" horiz-adv-x="718" d="M62 314l67 386h173l-76 -424q-12 -67 8.5 -104t92.5 -37q74 0 108 37t46 104l76 424h171l-77 -431q-9 -50 -22.5 -89t-38 -76t-59.5 -61.5t-87 -39t-119 -14.5q-76 0 -130.5 16.5t-84 45.5t-45 70t-13.5 89.5t10 103.5zM277 750l23 128h132l-23 -128h-132zM469 750 l22 128h131l-22 -128h-131z" />
<glyph unicode="&#xdd;" horiz-adv-x="665" d="M66 700h181l96 -278l192 278h200l-324 -423l-48 -277h-171l49 279zM295 740l147 140h191l-196 -140h-142z" />
<glyph unicode="&#xde;" horiz-adv-x="680" d="M15 0l123 700h171l-19 -108h98q281 0 281 -206q0 -45 -16 -88t-48.5 -81t-90 -61.5t-131.5 -23.5h-173l-24 -132h-171zM233 271h120q67 0 103.5 29.5t36.5 80.5q0 69 -107 69h-119z" />
<glyph unicode="&#xdf;" horiz-adv-x="738" d="M2 0l85 482q21 110 99 169.5t239 59.5q168 0 238 -65.5t53 -166.5l-2 -13l-77 -99q-28 17 -69 31t-72 14q-23 0 -38.5 -8t-15.5 -24q0 -6 2.5 -11.5t8.5 -10t11 -8t16.5 -7.5t18.5 -6.5t22.5 -7t23.5 -7.5q64 -22 104.5 -58t40.5 -103q0 -77 -57.5 -124.5t-155.5 -47.5 q-137 0 -256 83l73 108q35 -24 90 -45t88 -21q21 0 35.5 8.5t14.5 22.5q0 5 -1.5 9.5t-5.5 8.5t-8 7t-11.5 7t-12.5 6t-15 5.5t-16 5.5t-17.5 6t-17.5 6q-29 10 -50 20.5t-44 29t-35.5 46t-12.5 62.5q0 74 54 123t150 49q30 0 72 -7q-18 56 -127 56q-74 0 -118.5 -27.5 t-56.5 -94.5l-84 -463h-163z" />
<glyph unicode="&#xe0;" horiz-adv-x="631" d="M22 186q0 155 70.5 252.5t183.5 97.5q86 0 166 -68l10 57h165l-93 -525h-165l10 58q-93 -69 -185 -69q-69 0 -115.5 47.5t-46.5 149.5zM190 205q0 -40 17 -62.5t48 -22.5q59 0 137 68l28 159q-50 57 -104 57q-58 0 -92 -58.5t-34 -140.5zM198 729h173l101 -140h-125z" />
<glyph unicode="&#xe1;" horiz-adv-x="631" d="M22 186q0 155 70.5 252.5t183.5 97.5q86 0 166 -68l10 57h165l-93 -525h-165l10 58q-93 -69 -185 -69q-69 0 -115.5 47.5t-46.5 149.5zM190 205q0 -40 17 -62.5t48 -22.5q59 0 137 68l28 159q-50 57 -104 57q-58 0 -92 -58.5t-34 -140.5zM247 589l147 140h191l-195 -140 h-143z" />
<glyph unicode="&#xe2;" horiz-adv-x="631" d="M22 186q0 155 70.5 252.5t183.5 97.5q86 0 166 -68l10 57h165l-93 -525h-165l10 58q-93 -69 -185 -69q-69 0 -115.5 47.5t-46.5 149.5zM182 589l131 140h156l82 -140h-105l-61 70l-84 -70h-119zM190 205q0 -40 17 -62.5t48 -22.5q59 0 137 68l28 159q-50 57 -104 57 q-58 0 -92 -58.5t-34 -140.5z" />
<glyph unicode="&#xe3;" horiz-adv-x="631" d="M22 186q0 155 70.5 252.5t183.5 97.5q86 0 166 -68l10 57h165l-93 -525h-165l10 58q-93 -69 -185 -69q-69 0 -115.5 47.5t-46.5 149.5zM188 636q18 27 28 39.5t26.5 29.5t34 24t39.5 7q30 0 73 -24t58 -24q25 0 60 48l67 -44q-26 -37 -38.5 -53t-37 -32t-53.5 -16t-72 24 t-57 24q-25 0 -62 -47zM190 205q0 -40 17 -62.5t48 -22.5q59 0 137 68l28 159q-50 57 -104 57q-58 0 -92 -58.5t-34 -140.5z" />
<glyph unicode="&#xe4;" horiz-adv-x="631" d="M22 186q0 155 70.5 252.5t183.5 97.5q86 0 166 -68l10 57h165l-93 -525h-165l10 58q-93 -69 -185 -69q-69 0 -115.5 47.5t-46.5 149.5zM190 205q0 -40 17 -62.5t48 -22.5q59 0 137 68l28 159q-50 57 -104 57q-58 0 -92 -58.5t-34 -140.5zM212 599l22 128h133l-22 -128 h-133zM404 599l22 128h131l-22 -128h-131z" />
<glyph unicode="&#xe5;" horiz-adv-x="631" d="M22 186q0 155 70.5 252.5t183.5 97.5q86 0 166 -68l10 57h165l-93 -525h-165l10 58q-93 -69 -185 -69q-69 0 -115.5 47.5t-46.5 149.5zM190 205q0 -40 17 -62.5t48 -22.5q59 0 137 68l28 159q-50 57 -104 57q-58 0 -92 -58.5t-34 -140.5zM273 693q0 48 33.5 81.5 t80.5 33.5t81 -33.5t34 -81.5q0 -47 -34 -80.5t-81 -33.5t-80.5 33.5t-33.5 80.5zM349 693q0 -16 11 -27t27 -11t27 11t11 27t-11 27.5t-27 11.5t-27 -11.5t-11 -27.5z" />
<glyph unicode="&#xe6;" horiz-adv-x="950" d="M22 186q0 155 71 252.5t184 97.5q83 0 166 -69l10 58h164v-1q43 12 95 12q98 0 157.5 -42.5t59.5 -112.5q0 -52 -23.5 -87t-69.5 -52.5t-98 -24.5t-123 -7h-51v-4q0 -96 85 -96q67 0 193 59l49 -113q-27 -13 -62.5 -26t-97 -27t-113.5 -14q-54 0 -94 13v-2h-164l10 58 q-93 -69 -185 -69q-69 0 -116 47.5t-47 149.5zM191 205q0 -85 65 -85q59 0 137 68l5 26v1q0 73 22 132q-50 57 -104 57q-57 0 -91 -58.5t-34 -140.5zM579 296h42q72 0 111.5 19.5t39.5 54.5q0 22 -18 36t-47 14q-46 0 -78.5 -35.5t-49.5 -88.5z" />
<glyph unicode="&#xe7;" horiz-adv-x="523" d="M21 209q0 157 80 242t189 85q49 0 101 -15t73.5 -25.5t67.5 -35.5l-74 -113q-3 1 -17.5 9t-21.5 11.5t-22 10t-25 10t-22.5 6t-23.5 2.5q-59 0 -97.5 -53.5t-38.5 -118.5q0 -95 82 -95q42 0 144 47l54 -126q-132 -54 -212 -60q18 -32 18 -68q0 -53 -36 -81t-91 -28 q-58 0 -95 23l45 78q21 -11 46 -11q51 0 51 42q0 20 -13 49q-75 13 -118.5 67.5t-43.5 147.5z" />
<glyph unicode="&#xe8;" horiz-adv-x="572" d="M20 215q0 141 84.5 231t229.5 90q98 0 157.5 -42.5t59.5 -112.5q0 -52 -23.5 -87t-69.5 -52.5t-97.5 -24.5t-122.5 -7h-51v-4q0 -96 86 -96q64 0 192 59l50 -113q-149 -67 -274 -67q-104 0 -162.5 55t-58.5 171zM187 729h173l102 -140h-127zM201 296h43q72 0 111.5 19.5 t39.5 54.5q0 22 -18 36t-47 14q-47 0 -79.5 -35t-49.5 -89z" />
<glyph unicode="&#xe9;" horiz-adv-x="572" d="M20 215q0 141 84.5 231t229.5 90q98 0 157.5 -42.5t59.5 -112.5q0 -52 -23.5 -87t-69.5 -52.5t-97.5 -24.5t-122.5 -7h-51v-4q0 -96 86 -96q64 0 192 59l50 -113q-149 -67 -274 -67q-104 0 -162.5 55t-58.5 171zM201 296h43q72 0 111.5 19.5t39.5 54.5q0 22 -18 36 t-47 14q-47 0 -79.5 -35t-49.5 -89zM244 589l147 140h190l-195 -140h-142z" />
<glyph unicode="&#xea;" horiz-adv-x="572" d="M20 215q0 141 84.5 231t229.5 90q98 0 157.5 -42.5t59.5 -112.5q0 -52 -23.5 -87t-69.5 -52.5t-97.5 -24.5t-122.5 -7h-51v-4q0 -96 86 -96q64 0 192 59l50 -113q-149 -67 -274 -67q-104 0 -162.5 55t-58.5 171zM171 589l131 140h155l82 -140h-104l-60 70l-85 -70h-119z M201 296h43q72 0 111.5 19.5t39.5 54.5q0 22 -18 36t-47 14q-47 0 -79.5 -35t-49.5 -89z" />
<glyph unicode="&#xeb;" horiz-adv-x="572" d="M20 215q0 141 84.5 231t229.5 90q98 0 157.5 -42.5t59.5 -112.5q0 -52 -23.5 -87t-69.5 -52.5t-97.5 -24.5t-122.5 -7h-51v-4q0 -96 86 -96q64 0 192 59l50 -113q-149 -67 -274 -67q-104 0 -162.5 55t-58.5 171zM196 599l22 128h133l-22 -128h-133zM201 296h43 q72 0 111.5 19.5t39.5 54.5q0 22 -18 36t-47 14q-47 0 -79.5 -35t-49.5 -89zM388 599l22 128h132l-23 -128h-131z" />
<glyph unicode="&#xec;" horiz-adv-x="274" d="M2 0l93 525h164l-93 -525h-164zM20 729h173l101 -140h-125z" />
<glyph unicode="&#xed;" horiz-adv-x="274" d="M2 0l93 525h164l-93 -525h-164zM75 589l147 140h191l-196 -140h-142z" />
<glyph unicode="&#xee;" horiz-adv-x="274" d="M2 0l93 525h164l-93 -525h-164zM4 589l131 140h155l82 -140h-104l-61 70l-85 -70h-118z" />
<glyph unicode="&#xef;" horiz-adv-x="274" d="M2 0l93 525h164l-93 -525h-164zM28 599l23 128h132l-24 -128h-131zM219 599l23 128h132l-23 -128h-132z" />
<glyph unicode="&#xf0;" horiz-adv-x="642" d="M18 217q0 111 77 185t186 74q37 0 69 -9.5t51.5 -23t33.5 -27t19 -22.5l6 -10q-11 124 -109 167l-38 -38h-134l58 58l-84 -8l2 126q43 11 102 11q50 0 99 -11l40 40h133l-78 -78q77 -46 118 -128.5t41 -187.5q0 -156 -87.5 -251t-240.5 -95q-123 0 -193.5 61t-70.5 167z M190 212q0 -43 24 -70t78 -27q70 0 105 41t35 96q0 44 -25.5 71t-78.5 27q-67 0 -102.5 -40t-35.5 -98z" />
<glyph unicode="&#xf1;" horiz-adv-x="625" d="M2 0l93 525h164l-10 -57q104 68 193 68q86 0 121.5 -50.5t20.5 -137.5l-62 -348h-165l59 331q16 78 -45 78q-32 0 -72.5 -18.5t-71.5 -43.5l-61 -347h-164zM186 636q18 27 28 39.5t26.5 29.5t34 24t39.5 7q30 0 73 -24t57 -24q26 0 61 48l66 -44q-18 -27 -28 -40 t-26.5 -30t-34 -24t-39.5 -7q-29 0 -72 24t-58 24q-25 0 -61 -47z" />
<glyph unicode="&#xf2;" horiz-adv-x="625" d="M21 230q0 131 77 218.5t217 87.5q128 0 201.5 -63.5t73.5 -177.5q0 -131 -77 -218.5t-216 -87.5q-129 0 -202.5 63t-73.5 178zM186 228q0 -113 107 -113q62 0 97 54.5t35 127.5q0 113 -107 113q-62 0 -97 -54.5t-35 -127.5zM195 729h173l101 -140h-125z" />
<glyph unicode="&#xf3;" horiz-adv-x="625" d="M21 230q0 131 77 218.5t217 87.5q128 0 201.5 -63.5t73.5 -177.5q0 -131 -77 -218.5t-216 -87.5q-129 0 -202.5 63t-73.5 178zM186 228q0 -113 107 -113q62 0 97 54.5t35 127.5q0 113 -107 113q-62 0 -97 -54.5t-35 -127.5zM251 589l147 140h190l-195 -140h-142z" />
<glyph unicode="&#xf4;" horiz-adv-x="625" d="M21 230q0 131 77 218.5t217 87.5q128 0 201.5 -63.5t73.5 -177.5q0 -131 -77 -218.5t-216 -87.5q-129 0 -202.5 63t-73.5 178zM179 589l131 140h155l82 -140h-104l-60 70l-85 -70h-119zM186 228q0 -113 107 -113q62 0 97 54.5t35 127.5q0 113 -107 113q-62 0 -97 -54.5 t-35 -127.5z" />
<glyph unicode="&#xf5;" horiz-adv-x="625" d="M21 230q0 131 77 218.5t217 87.5q128 0 201.5 -63.5t73.5 -177.5q0 -131 -77 -218.5t-216 -87.5q-129 0 -202.5 63t-73.5 178zM181 616q2 4 10 18t11 18.5t10.5 16.5t12 17t12.5 14t14.5 13t16 8.5t19.5 6.5t21 2q27 0 73.5 -20t66.5 -20q34 0 56 39l67 -24q-2 -3 -9 -16 t-9 -17t-9 -15t-10.5 -15.5l-10.5 -13.5t-12.5 -12.5t-13.5 -9.5t-15 -8.5t-16.5 -4.5t-19.5 -2q-28 0 -74 20t-66 20q-33 0 -57 -39zM186 228q0 -113 107 -113q62 0 97 54.5t35 127.5q0 113 -107 113q-62 0 -97 -54.5t-35 -127.5z" />
<glyph unicode="&#xf6;" horiz-adv-x="625" d="M21 230q0 131 77 218.5t217 87.5q128 0 201.5 -63.5t73.5 -177.5q0 -131 -77 -218.5t-216 -87.5q-129 0 -202.5 63t-73.5 178zM186 228q0 -113 107 -113q62 0 97 54.5t35 127.5q0 113 -107 113q-62 0 -97 -54.5t-35 -127.5zM205 599l21 128h133l-22 -128h-132zM396 599 l22 128h133l-23 -128h-132z" />
<glyph unicode="&#xf7;" d="M61 272l20 123h515l-21 -123h-514zM217 137q-4 36 22 62t63 26q29 0 49.5 -19t22.5 -46q4 -36 -22 -61.5t-63 -25.5q-29 0 -49.5 18.5t-22.5 45.5zM281 509q-3 34 23 60t62 26q29 0 49.5 -19t23.5 -46q3 -35 -23 -61t-62 -26q-29 0 -49.5 19t-23.5 47z" />
<glyph unicode="&#xf8;" horiz-adv-x="626" d="M-8 0l78 78q-48 60 -48 152q0 131 77 218.5t216 87.5q102 0 172 -42l31 31h96l-75 -75q52 -60 52 -155q0 -131 -77 -218.5t-217 -87.5q-106 0 -175 43l-32 -32h-98zM187 228q0 -13 2 -31l196 195q-24 18 -66 18q-62 0 -97 -54.5t-35 -127.5zM224 135q26 -20 70 -20 q62 0 97 54.5t35 127.5q0 21 -4 36z" />
<glyph unicode="&#xf9;" horiz-adv-x="624" d="M29 176l61 349h165l-60 -331q-14 -78 46 -78q32 0 73 18.5t70 42.5l62 348h164l-93 -525h-164l10 56q-105 -67 -193 -67q-86 0 -121 50t-20 137zM193 729h173l101 -140h-126z" />
<glyph unicode="&#xfa;" horiz-adv-x="624" d="M29 176l61 349h165l-60 -331q-14 -78 46 -78q32 0 73 18.5t70 42.5l62 348h164l-93 -525h-164l10 56q-105 -67 -193 -67q-86 0 -121 50t-20 137zM249 589l147 140h190l-195 -140h-142z" />
<glyph unicode="&#xfb;" horiz-adv-x="624" d="M29 176l61 349h165l-60 -331q-14 -78 46 -78q32 0 73 18.5t70 42.5l62 348h164l-93 -525h-164l10 56q-105 -67 -193 -67q-86 0 -121 50t-20 137zM177 589l131 140h155l82 -140h-104l-61 70l-85 -70h-118z" />
<glyph unicode="&#xfc;" horiz-adv-x="624" d="M29 176l61 349h165l-60 -331q-14 -78 46 -78q32 0 73 18.5t70 42.5l62 348h164l-93 -525h-164l10 56q-105 -67 -193 -67q-86 0 -121 50t-20 137zM202 599l22 128h133l-22 -128h-133zM394 599l22 128h133l-23 -128h-132z" />
<glyph unicode="&#xfd;" horiz-adv-x="585" d="M-7 -103q6 2 22 7.5t21 7.5t18.5 6.5t18 7t15 7.5t15.5 8.5t13.5 9t14 11t12.5 13t13 15.5l-112 535h170l51 -334l169 334h183l-293 -525q-16 -29 -21.5 -38.5t-21 -34.5t-25.5 -35t-28 -29.5t-36 -29.5t-43 -23.5t-55 -23t-65 -16.5zM229 589l147 140h191l-195 -140 h-143z" />
<glyph unicode="&#xfe;" horiz-adv-x="628" d="M-34 -204l165 933h165l-46 -258q92 65 178 65q72 0 120 -47.5t48 -150.5q0 -155 -69.5 -252t-181.5 -97q-38 0 -73.5 12.5t-52 23.5t-42.5 31l-46 -260h-165zM198 178q50 -57 107 -57t90 58.5t33 140.5q0 85 -70 85q-53 0 -131 -64z" />
<glyph unicode="&#xff;" horiz-adv-x="585" d="M-7 -103q6 2 22 7.5t21 7.5t18.5 6.5t18 7t15 7.5t15.5 8.5t13.5 9t14 11t12.5 13t13 15.5l-112 535h170l51 -334l169 334h183l-293 -525q-16 -29 -21.5 -38.5t-21 -34.5t-25.5 -35t-28 -29.5t-36 -29.5t-43 -23.5t-55 -23t-65 -16.5zM181 599l23 128h132l-22 -128h-133z M373 599l23 128h132l-24 -128h-131z" />
<glyph unicode="&#x152;" horiz-adv-x="1116" d="M43 298q0 46 9 96t35 108t65 103.5t106 75.5t151 30q136 0 221 -57l8 46h505l-23 -144h-334l-26 -135h273l-23 -141h-275l-25 -136h340l-24 -144h-510l2 11q-64 -23 -136 -23q-165 0 -252 81.5t-87 228.5zM219 303q0 -170 157 -170q52 0 92 27t61.5 68.5t32 84.5t10.5 83 q0 170 -157 170q-52 0 -92 -27t-61.5 -68.5t-32 -84.5t-10.5 -83z" />
<glyph unicode="&#x153;" horiz-adv-x="974" d="M21 230q0 131 77 218.5t217 87.5q138 0 210 -72q85 72 211 72q98 0 157 -42.5t59 -112.5q0 -52 -23.5 -87t-69 -52.5t-97 -24.5t-122.5 -7h-52v-4q0 -96 85 -96q65 0 193 59l49 -113q-145 -67 -273 -67q-108 0 -164 56q-74 -56 -181 -56q-129 0 -202.5 63t-73.5 178z M186 228q0 -113 107 -113q62 0 97 54.5t35 127.5q0 113 -107 113q-62 0 -97 -54.5t-35 -127.5zM602 296h44q71 0 110 19.5t39 54.5q0 22 -18 36t-47 14q-46 0 -78.5 -35.5t-49.5 -88.5z" />
<glyph unicode="&#x178;" horiz-adv-x="665" d="M66 700h181l96 -278l192 278h200l-324 -423l-48 -277h-171l49 279zM248 750l22 128h132l-22 -128h-132zM439 750l22 128h133l-23 -128h-132z" />
<glyph unicode="&#x2c6;" horiz-adv-x="302" d="M69 589l131 140h155l82 -140h-105l-60 70l-85 -70h-118z" />
<glyph unicode="&#x2dc;" horiz-adv-x="308" d="M76 636q20 29 28.5 40t26 29t35 24.5t39.5 6.5q29 0 72 -24t58 -24q25 0 60 48l67 -44q-26 -37 -38.5 -53t-37 -32t-53.5 -16t-72 24t-57 24q-25 0 -61 -47z" />
<glyph unicode="&#x2000;" horiz-adv-x="479" />
<glyph unicode="&#x2001;" horiz-adv-x="959" />
<glyph unicode="&#x2002;" horiz-adv-x="479" />
<glyph unicode="&#x2003;" horiz-adv-x="959" />
<glyph unicode="&#x2004;" horiz-adv-x="319" />
<glyph unicode="&#x2005;" horiz-adv-x="239" />
<glyph unicode="&#x2006;" horiz-adv-x="159" />
<glyph unicode="&#x2007;" horiz-adv-x="159" />
<glyph unicode="&#x2008;" horiz-adv-x="119" />
<glyph unicode="&#x2009;" horiz-adv-x="191" />
<glyph unicode="&#x200a;" horiz-adv-x="53" />
<glyph unicode="&#x2010;" horiz-adv-x="431" d="M38 219l23 131h326l-23 -131h-326z" />
<glyph unicode="&#x2011;" horiz-adv-x="431" d="M38 219l23 131h326l-23 -131h-326z" />
<glyph unicode="&#x2012;" horiz-adv-x="431" d="M38 219l23 131h326l-23 -131h-326z" />
<glyph unicode="&#x2013;" horiz-adv-x="560" d="M38 220l23 129h454l-23 -129h-454z" />
<glyph unicode="&#x2014;" horiz-adv-x="666" d="M38 220l23 129h559l-21 -129h-561z" />
<glyph unicode="&#x2018;" horiz-adv-x="266" d="M63 372l23 201l160 147l35 -55l-97 -113h74l-29 -180h-166z" />
<glyph unicode="&#x2019;" horiz-adv-x="253" d="M61 407l96 113h-74l30 180h166l-23 -201l-160 -147z" />
<glyph unicode="&#x201a;" horiz-adv-x="271" d="M-23 -114l96 114h-74l30 179h166l-23 -201l-160 -146z" />
<glyph unicode="&#x201c;" horiz-adv-x="503" d="M63 372l23 201l160 147l35 -55l-97 -113h74l-29 -180h-166zM299 372l23 201l161 147l35 -55l-96 -113h74l-30 -180h-167z" />
<glyph unicode="&#x201d;" horiz-adv-x="490" d="M61 407l96 113h-74l30 180h166l-23 -201l-160 -147zM298 407l97 113h-74l30 180h165l-22 -201l-161 -147z" />
<glyph unicode="&#x201e;" horiz-adv-x="508" d="M-23 -114l96 114h-74l30 179h166l-23 -201l-160 -146zM214 -114l96 114h-74l31 179h165l-22 -201l-161 -146z" />
<glyph unicode="&#x2022;" horiz-adv-x="469" d="M64 285q0 70 48.5 119t118.5 49t119.5 -49t49.5 -119t-49.5 -119t-119.5 -49t-118.5 49t-48.5 119z" />
<glyph unicode="&#x2026;" horiz-adv-x="779" d="M-1 0l30 179h167l-30 -179h-167zM255 0l30 179h166l-30 -179h-166zM509 0l32 179h166l-31 -179h-167z" />
<glyph unicode="&#x202f;" horiz-adv-x="191" />
<glyph unicode="&#x2039;" horiz-adv-x="378" d="M13 219l15 98l339 210l-27 -164l-185 -107l146 -105l-25 -141z" />
<glyph unicode="&#x203a;" horiz-adv-x="377" d="M-1 10l26 164l185 106l-144 106l23 141l264 -210l-16 -98z" />
<glyph unicode="&#x205f;" horiz-adv-x="239" />
<glyph unicode="&#x20ac;" horiz-adv-x="730" d="M26 234l15 85h55q4 38 7 56h-51l14 85h57q39 119 124 185t196 66q58 0 117 -18.5t95 -37.5t90 -53l-91 -120q-61 38 -105 56.5t-87 18.5q-95 0 -149 -97h213l-15 -85h-230q-6 -27 -9 -56h229l-15 -85h-211q15 -92 98 -92q75 0 214 73l71 -135q-180 -91 -325 -91 q-104 0 -166.5 61.5t-70.5 183.5h-70z" />
<glyph unicode="&#x2122;" horiz-adv-x="627" d="M112 648l8 52h216l-8 -52h-77l-30 -172h-64l30 172h-75zM325 476l39 224h66l46 -123l93 123h66l-38 -224h-64l22 130l-69 -93h-39l-36 97l-23 -134h-63z" />
<glyph unicode="&#xe000;" horiz-adv-x="525" d="M0 0v525h525v-525h-525z" />
</font>
</defs>
</svg>
