<?xml version="1.0" standalone="no"?>
<!DOCTYPE svg PUBLIC "-//W3C//DTD SVG 1.1//EN" "http://www.w3.org/Graphics/SVG/1.1/DTD/svg11.dtd" >
<svg xmlns="http://www.w3.org/2000/svg">
<metadata></metadata>
<defs>
<font id="verb_regularbold_italic" horiz-adv-x="637" >
<font-face units-per-em="1000" ascent="800" descent="-200" />
<missing-glyph horiz-adv-x="271" />
<glyph unicode="&#xfb01;" horiz-adv-x="649" d="M-100 -116q89 28 110.5 51.5t34.5 100.5l70 383h-71l19 106h71l5 27q15 92 52 134.5t111 42.5q69 0 151 -41l-50 -97q-42 14 -70 14q-41 0 -50 -51l-5 -29h128l-18 -106h-129l-67 -372q-20 -114 -39 -151q-31 -59 -114 -91q-43 -16 -108 -30zM391 0l93 525h143l-93 -525 h-143zM494 601l21 125h151l-20 -125h-152z" />
<glyph unicode="&#xfb02;" horiz-adv-x="653" d="M-100 -116q89 28 110.5 51.5t34.5 100.5l70 383h-71l19 106h71l5 27q15 92 52 134.5t111 42.5q69 0 151 -41l-50 -97q-42 14 -70 14q-41 0 -50 -51l-5 -29h128l-18 -106h-129l-67 -372q-20 -114 -39 -151q-31 -59 -114 -91q-43 -16 -108 -30zM393 0l129 729h144 l-129 -729h-144z" />
<glyph unicode="&#xfb03;" horiz-adv-x="1027" d="M-100 -116q89 28 110.5 51.5t34.5 100.5l70 383h-71l19 106h71l5 27q15 92 52 134.5t113 42.5q89 0 186 -51l-54 -93q-63 20 -103 20q-41 0 -50 -51l-5 -29h116l-19 -106h-116l-67 -372q-20 -114 -39 -151q-31 -59 -114 -91q-43 -16 -108 -30zM278 -116q48 15 72 25 t39.5 29.5t20.5 37t13 60.5l69 383h-70l18 106h71l5 27q16 92 53 134.5t111 42.5q69 0 151 -41l-50 -97q-44 14 -70 14q-41 0 -50 -51l-5 -29h128l-18 -106h-129l-67 -372q-20 -114 -39 -151q-31 -59 -114 -91q-43 -16 -108 -30zM768 0l93 525h144l-93 -525h-144zM871 601 l22 125h151l-21 -125h-152z" />
<glyph unicode="&#xfb04;" horiz-adv-x="1031" d="M-100 -116q89 28 110.5 51.5t34.5 100.5l70 383h-71l19 106h71l5 27q15 92 52 134.5t113 42.5q89 0 186 -51l-54 -93q-63 20 -103 20q-41 0 -50 -51l-5 -29h116l-19 -106h-116l-67 -372q-20 -114 -39 -151q-31 -59 -114 -91q-43 -16 -108 -30zM278 -116q48 15 72 25 t39.5 29.5t20.5 37t13 60.5l69 383h-70l18 106h71l5 27q16 92 53 134.5t111 42.5q69 0 151 -41l-50 -97q-44 14 -70 14q-41 0 -50 -51l-5 -29h128l-18 -106h-129l-67 -372q-20 -114 -39 -151q-31 -59 -114 -91q-43 -16 -108 -30zM771 0l129 729h143l-129 -729h-143z" />
<glyph horiz-adv-x="1000" />
<glyph horiz-adv-x="1000" />
<glyph unicode="&#xd;" horiz-adv-x="1000" />
<glyph unicode=" "  horiz-adv-x="271" />
<glyph unicode="&#x09;" horiz-adv-x="271" />
<glyph unicode="&#xa0;" horiz-adv-x="271" />
<glyph unicode="!" horiz-adv-x="281" d="M14 0l25 152h149l-25 -152h-149zM84 226l40 474h175l-128 -474h-87z" />
<glyph unicode="&#x22;" horiz-adv-x="434" d="M88 427l24 273h139l-72 -273h-91zM297 427l24 273h139l-73 -273h-90z" />
<glyph unicode="#" horiz-adv-x="735" d="M14 158l18 109h131l54 166h-113l18 109h131l52 158h114l-52 -158h144l52 158h113l-52 -158h114l-18 -109h-132l-54 -166h114l-18 -109h-132l-52 -158h-113l52 158h-144l-52 -158h-113l51 158h-113zM277 267h144l54 166h-144z" />
<glyph unicode="$" horiz-adv-x="651" d="M0 94l79 102q83 -51 165 -73l30 171l-32 13q-72 31 -113.5 74.5t-41.5 115.5q0 92 70.5 152.5t190.5 61.5l16 90h105l-18 -101q94 -20 197 -78l-79 -100q-66 36 -140 55l-28 -162l31 -12q34 -14 59.5 -29t50.5 -38t38.5 -55t13.5 -72q0 -96 -73.5 -157.5t-195.5 -62.5 l-15 -89h-105l17 100q-121 24 -222 94zM248 510q0 -37 54 -59l24 133q-35 -6 -56.5 -25t-21.5 -49zM348 115q39 7 62.5 27t23.5 50q0 39 -61 66z" />
<glyph unicode="%" horiz-adv-x="1005" d="M70 493q0 92 56.5 155t153.5 63q84 0 134 -42.5t50 -114.5q0 -92 -56.5 -155t-153.5 -63q-84 0 -134 42.5t-50 114.5zM179 503q0 -81 79 -81q45 0 71 38.5t26 83.5q0 81 -79 81q-44 0 -70.5 -38.5t-26.5 -83.5zM212 0l483 700h114l-483 -700h-114zM558 146q0 92 56.5 155 t153.5 63q84 0 134 -42.5t50 -114.5q0 -92 -56.5 -155t-153.5 -63q-84 0 -134 42.5t-50 114.5zM667 156q0 -81 80 -81q44 0 70 38.5t26 83.5q0 81 -78 81q-45 0 -71.5 -38.5t-26.5 -83.5z" />
<glyph unicode="&#x26;" horiz-adv-x="717" d="M31 164q0 71 47.5 120.5t130.5 96.5q-63 80 -63 150q0 80 61.5 130t154.5 50q85 0 138 -42.5t53 -108.5q0 -61 -45.5 -108.5t-126.5 -96.5l99 -116q47 64 70 130h145q-38 -124 -132 -229l118 -140h-154l-52 61q-104 -72 -223 -72q-99 0 -160 48t-61 127zM173 168 q0 -30 22 -50.5t66 -20.5q69 0 138 56l-118 142q-108 -69 -108 -127zM277 526q0 -40 37 -89q52 29 79 55.5t27 58.5q0 24 -15 40.5t-46 16.5q-38 0 -60 -24t-22 -58z" />
<glyph unicode="'" horiz-adv-x="225" d="M88 427l24 273h139l-72 -273h-91z" />
<glyph unicode="(" horiz-adv-x="328" d="M23 92l92 511q8 43 13 65.5t16.5 49.5t27 41t42.5 30t64 27t92 23l26 -87q-75 -24 -96 -44.5t-30 -71.5l-103 -576q-12 -53 -0.5 -77t69.5 -47l-38 -79q-96 23 -138 53t-46 74t9 108z" />
<glyph unicode=")" horiz-adv-x="329" d="M-51 -57q75 24 96 45t30 72l104 576q12 53 0.5 77t-69.5 47l37 79q96 -23 138 -53t46 -74.5t-9 -108.5l-91 -511q-9 -51 -16.5 -76.5t-23 -54t-41.5 -44t-68 -31t-107 -29.5z" />
<glyph unicode="*" horiz-adv-x="480" d="M75 495l161 15l-145 71l78 93l94 -133l-13 161l118 -21l-66 -147l132 92l41 -113l-155 -16l140 -70l-78 -93l-92 127l11 -155l-118 20l67 147l-134 -91z" />
<glyph unicode="+" d="M60 279l18 109h200l32 182h111l-32 -182h200l-18 -109h-201l-32 -182h-111l32 182h-199z" />
<glyph unicode="," horiz-adv-x="264" d="M-17 -111l89 111h-67l28 165h148l-20 -183l-147 -142z" />
<glyph unicode="-" horiz-adv-x="431" d="M45 226l20 117h315l-20 -117h-315z" />
<glyph unicode="." horiz-adv-x="262" d="M5 0l28 165h149l-27 -165h-150z" />
<glyph unicode="/" horiz-adv-x="485" d="M-44 -90l477 880h114l-477 -880h-114z" />
<glyph unicode="0" horiz-adv-x="688" d="M51 281q0 47 8.5 99t31.5 112.5t58 108t95 79t135 31.5t130.5 -25t86 -68t44.5 -92.5t14 -106.5q0 -48 -8.5 -100t-31.5 -112.5t-58 -108t-95 -79t-135 -31.5t-130.5 25t-86 68.5t-44.5 93t-14 106.5zM200 267q2 -162 126 -162q49 0 86 38.5t55.5 94.5t27.5 106.5t9 87.5 q-2 162 -126 162q-49 0 -86 -38.5t-56 -94.5t-27.5 -106.5t-8.5 -87.5z" />
<glyph unicode="1" horiz-adv-x="408" d="M54 594l207 106h141l-124 -700h-149l99 551l-128 -62z" />
<glyph unicode="2" horiz-adv-x="609" d="M-17 0l11 69q8 46 28 85.5t41 65.5t61 56t64 44.5t74 43.5q121 69 149 93q40 34 40 69q-1 27 -25 44t-67 17q-83 0 -194 -65l-55 104q135 85 268 85q107 0 165.5 -50.5t58.5 -129.5q0 -48 -20 -88.5t-68.5 -78t-76.5 -54.5t-96 -54q-11 -6 -16 -9q-74 -39 -102.5 -63.5 t-36.5 -59.5h342l-20 -124h-525z" />
<glyph unicode="3" horiz-adv-x="615" d="M-18 89l75 94q112 -68 204 -68q65 0 103.5 27.5t38.5 71.5q0 96 -179 96h-30l21 125h35q68 0 123.5 24.5t55.5 69.5q0 27 -21.5 42.5t-61.5 15.5q-79 0 -187 -59l-48 102q126 81 264 81q102 0 155 -44t53 -112q0 -116 -149 -176q53 -16 86.5 -61.5t33.5 -106.5 q0 -40 -15.5 -77.5t-47 -70.5t-87 -53.5t-128.5 -20.5q-155 0 -294 100z" />
<glyph unicode="4" horiz-adv-x="670" d="M-6 135l18 105l397 460h198l-78 -441h105l-21 -124h-106l-23 -135h-150l23 135h-363zM177 259h202l53 302z" />
<glyph unicode="5" horiz-adv-x="607" d="M-9 89l83 95q87 -67 174 -67q62 0 108 33.5t46 89.5q0 43 -28.5 70t-83.5 27q-57 0 -135 -42l-82 53l98 352h437l-21 -124h-310l-32 -130q42 12 88 12q106 0 164.5 -60.5t58.5 -151.5q0 -106 -79 -181.5t-214 -75.5q-143 0 -272 100z" />
<glyph unicode="6" horiz-adv-x="641" d="M42 253q0 126 59.5 230.5t166 166t238.5 61.5q36 0 67 -4.5t45 -9.5l13 -5l-54 -109q-28 6 -66 6q-94 0 -172.5 -49t-117.5 -141q65 52 159 52q99 0 157.5 -57.5t58.5 -146.5q0 -106 -75.5 -182t-205.5 -76q-129 0 -201 77t-72 187zM192 243q0 -55 31.5 -93.5t87.5 -38.5 q63 0 99 39.5t36 90.5q0 42 -28 70t-83 28q-45 0 -84 -22.5t-59 -49.5v-24z" />
<glyph unicode="7" horiz-adv-x="528" d="M50 0q13 74 51 158t78 148t90 129.5t74 93t43 47.5h-314l19 124h489l-18 -115q-12 -12 -33 -34.5t-75.5 -90.5t-99 -134.5t-88 -157t-57.5 -168.5h-159z" />
<glyph unicode="8" horiz-adv-x="651" d="M16 174q0 137 193 212q-85 57 -85 141q0 82 69.5 133t188.5 51q110 0 172 -44.5t62 -117.5q0 -105 -146 -175q126 -66 126 -174q0 -95 -85.5 -153t-225.5 -58q-127 0 -198 49t-71 136zM169 189q0 -40 31 -63t86 -23q65 0 111 30t46 76q0 64 -109 114q-75 -24 -120 -55 t-45 -79zM268 512q0 -48 74 -82q60 19 93 41.5t33 57.5q0 29 -23 50.5t-64 21.5q-48 0 -80.5 -27t-32.5 -62z" />
<glyph unicode="9" horiz-adv-x="642" d="M28 8l54 109q28 -6 66 -6q94 0 173 49t117 141q-65 -52 -160 -52q-98 0 -156.5 58t-58.5 146q0 106 75.5 182t205.5 76q129 0 200.5 -76.5t71.5 -187.5q0 -126 -59 -230.5t-165.5 -166t-238.5 -61.5q-36 0 -67 4.5t-44 9.5zM213 459q0 -42 28 -70t83 -28q45 0 84 22.5 t58 48.5q1 8 1 25q0 55 -31.5 93.5t-87.5 38.5q-63 0 -99 -39t-36 -91z" />
<glyph unicode=":" horiz-adv-x="274" d="M10 0l28 165h149l-28 -165h-149zM66 315l28 165h149l-28 -165h-149z" />
<glyph unicode=";" horiz-adv-x="282" d="M-10 -111l89 111h-67l28 165h148l-20 -183l-147 -142zM69 315l27 165h149l-27 -165h-149z" />
<glyph unicode="&#x3c;" d="M48 284l16 99l545 205l-20 -128l-382 -133l332 -134l-18 -114z" />
<glyph unicode="=" d="M43 185l18 109h510l-18 -109h-510zM76 375l18 109h510l-18 -109h-510z" />
<glyph unicode="&#x3e;" d="M39 79l20 128l380 133l-330 134l18 114l473 -205l-16 -99z" />
<glyph unicode="?" horiz-adv-x="538" d="M87 640q126 71 244 71q95 0 152.5 -45.5t57.5 -124.5q0 -49 -21.5 -88t-60.5 -65.5t-84 -44t-99 -27.5l-25 -90h-91l20 171q104 18 157.5 47t53.5 76q0 31 -23 49t-65 18q-66 0 -166 -54zM91 0l25 152h149l-25 -152h-149z" />
<glyph unicode="@" horiz-adv-x="953" d="M32 191q0 100 36.5 189.5t102 157.5t164.5 108t216 40q100 0 175.5 -31t117.5 -83.5t59.5 -117.5t10.5 -137q-4 -42 -13 -84t-28 -91t-45.5 -86t-69 -61.5t-95.5 -24.5q-38 0 -64.5 12t-38 32t-15.5 38.5t-3 38.5q-81 -68 -169 -68q-59 0 -97 37.5t-38 96.5q0 80 52 123 t130 43q48 0 158 -24l8 44q8 45 -7 63.5t-61 18.5q-68 0 -172 -40l-27 78q119 44 217 44q93 0 131 -41.5t22 -129.5l-30 -164q-4 -25 -6 -38.5t-3.5 -31.5t0.5 -27.5t7 -19t15 -13.5t25 -4q55 0 104 81.5t59 197.5q5 47 -1 90.5t-27.5 85.5t-56.5 72.5t-93 49.5t-133 19 q-140 0 -247 -62.5t-161 -162.5t-54 -220q0 -142 80.5 -229t224.5 -87q52 0 100 10.5t70 21.5l23 11l28 -43q-10 -6 -29 -14.5t-77.5 -23t-117.5 -14.5q-164 0 -260.5 104t-96.5 266zM348 170q0 -65 68 -65q66 0 139 62q2 12 14 77q-76 17 -117 17q-53 0 -78.5 -26 t-25.5 -65z" />
<glyph unicode="A" horiz-adv-x="702" d="M-43 0l383 700h166l137 -700h-158l-20 139h-268l-68 -139h-172zM255 257h193l-43 303z" />
<glyph unicode="B" horiz-adv-x="690" d="M22 0l123 700h274q112 0 175 -42.5t63 -116.5q0 -70 -49.5 -115.5t-102.5 -52.5q46 -8 88.5 -47.5t42.5 -111.5q0 -103 -69.5 -158.5t-196.5 -55.5h-348zM191 116h145q73 0 113 30t40 84q0 83 -126 83h-136zM245 421h126q54 0 94 24.5t40 72.5q0 66 -109 66h-121z" />
<glyph unicode="C" horiz-adv-x="655" d="M48 271q0 203 98.5 321.5t247.5 118.5q56 0 113.5 -18.5t90 -37t87.5 -53.5l-82 -105q-62 40 -105 59.5t-87 19.5q-93 0 -151 -85.5t-58 -207.5q0 -160 113 -160q78 0 218 77l64 -118q-182 -93 -316 -93q-107 0 -170 70.5t-63 211.5z" />
<glyph unicode="D" horiz-adv-x="721" d="M22 0l123 700h218q168 0 248.5 -74t80.5 -203q0 -52 -11 -105.5t-39.5 -112t-71 -103t-113.5 -73.5t-159 -29h-276zM193 127h84q87 0 148 43.5t88 108t27 142.5q0 81 -49 116.5t-147 35.5h-70z" />
<glyph unicode="E" horiz-adv-x="612" d="M22 0l123 700h489l-21 -127h-340l-30 -161h278l-21 -124h-278l-30 -161h345l-21 -127h-494z" />
<glyph unicode="F" horiz-adv-x="587" d="M22 0l123 700h489l-21 -127h-340l-30 -161h269l-21 -125h-269l-51 -287h-149z" />
<glyph unicode="G" horiz-adv-x="711" d="M48 267q0 209 99 326.5t248 117.5q59 0 119.5 -19t96.5 -39t89 -54l-83 -105q-43 27 -66 40t-63.5 27.5t-75.5 14.5q-94 0 -152 -85.5t-58 -208.5q0 -166 116 -166q79 0 180 84l15 83h-163l19 118h304l-70 -401h-140l12 70q-104 -81 -200 -81q-101 0 -164 71t-63 207z " />
<glyph unicode="H" horiz-adv-x="725" d="M22 0l123 700h150l-48 -271h276l48 271h149l-123 -700h-149l53 305h-276l-53 -305h-150z" />
<glyph unicode="I" horiz-adv-x="299" d="M22 0l123 700h150l-123 -700h-150z" />
<glyph unicode="J" horiz-adv-x="299" d="M-107 -59q60 17 87 31.5t36.5 31t15.5 51.5l115 645h149l-113 -637q-5 -30 -7.5 -42.5t-8.5 -35.5t-11.5 -33t-15.5 -27t-22 -25.5t-30 -21t-41 -20t-53 -17t-67 -17.5z" />
<glyph unicode="K" horiz-adv-x="687" d="M22 0l123 700h150l-56 -317l313 317h192l-338 -333l230 -367h-165l-165 269l-105 -103l-29 -166h-150z" />
<glyph unicode="L" horiz-adv-x="565" d="M22 0l123 700h150l-103 -576h328l-20 -124h-478z" />
<glyph unicode="M" horiz-adv-x="851" d="M22 0l123 700h153l119 -417l277 417h153l-123 -700h-150l78 444l-216 -327h-82l-100 352l-82 -469h-150z" />
<glyph unicode="N" horiz-adv-x="741" d="M22 0l123 700h152l204 -487l86 487h149l-123 -700h-152l-204 486l-85 -486h-150z" />
<glyph unicode="O" horiz-adv-x="766" d="M47 295q0 48 10 99.5t36 109.5t65.5 103t104.5 74.5t146 29.5q160 0 243 -81.5t83 -225.5q0 -39 -7 -81.5t-23 -90.5t-44.5 -90.5t-67 -77.5t-95.5 -55.5t-125 -20.5q-160 0 -243 81.5t-83 225.5zM201 298q0 -182 167 -182q55 0 98.5 29t67 74t35.5 92t12 90 q0 182 -167 182q-55 0 -98.5 -29t-67 -74t-35.5 -92t-12 -90z" />
<glyph unicode="P" horiz-adv-x="667" d="M22 0l123 700h261q270 0 270 -201q0 -101 -74 -176t-213 -75h-173l-44 -248h-150zM237 371h128q73 0 115 32.5t42 91.5q0 81 -118 81h-130z" />
<glyph unicode="Q" horiz-adv-x="766" d="M47 295q0 48 10 99.5t36 109.5t65.5 103t104.5 74.5t146 29.5q160 0 243 -81.5t83 -225.5q0 -49 -11.5 -103.5t-36.5 -112t-73 -106t-112 -72.5l93 -87l-107 -93l-137 159q-150 6 -227 86.5t-77 219.5zM201 298q0 -182 167 -182q55 0 98.5 29t67 74t35.5 92t12 90 q0 182 -167 182q-55 0 -98.5 -29t-67 -74t-35.5 -92t-12 -90z" />
<glyph unicode="R" horiz-adv-x="700" d="M22 0l123 700h292q263 0 263 -191q0 -84 -56.5 -151t-162.5 -83l129 -275h-154l-119 271h-117l-48 -271h-150zM239 389h153q73 0 113.5 30t40.5 86q0 77 -122 77h-149z" />
<glyph unicode="S" horiz-adv-x="638" d="M-6 94l79 102q139 -83 236 -83q52 0 86 21.5t34 57.5q0 22 -18.5 39t-40.5 26t-65.5 24t-68.5 26q-72 31 -113.5 74.5t-41.5 115.5q0 93 71.5 153.5t193.5 60.5q141 0 296 -89l-79 -100q-44 25 -104.5 45t-104.5 20q-47 0 -79.5 -20t-32.5 -57q0 -16 8.5 -28t27 -21.5 t37.5 -16.5t52 -18.5t59 -22.5q34 -14 59.5 -29t51 -38t39 -55t13.5 -72q0 -96 -75.5 -158t-198.5 -62q-89 0 -174 31t-147 74z" />
<glyph unicode="T" horiz-adv-x="590" d="M64 573l21 127h559l-21 -127h-205l-102 -573h-150l103 573h-205z" />
<glyph unicode="U" horiz-adv-x="714" d="M66 301l70 399h151l-77 -430q-13 -73 9.5 -113t100.5 -40q79 0 117.5 40.5t51.5 112.5l77 430h149l-77 -436q-11 -61 -30.5 -107.5t-55.5 -86t-95 -60.5t-139 -21q-72 0 -124 15.5t-80 44t-43 67.5t-14 85.5t9 99.5z" />
<glyph unicode="V" horiz-adv-x="700" d="M75 700h167l77 -530l258 530h185l-383 -700h-166z" />
<glyph unicode="W" horiz-adv-x="962" d="M84 700h166l23 -488l211 488h127l34 -486l192 486h178l-316 -700h-149l-36 487l-212 -487h-148z" />
<glyph unicode="X" horiz-adv-x="652" d="M-49 0l294 351l-159 349h164l93 -257l182 257h183l-283 -348l172 -352h-167l-102 252l-187 -252h-190z" />
<glyph unicode="Y" horiz-adv-x="656" d="M71 700h159l106 -299l210 299h175l-324 -423l-49 -277h-149l49 278z" />
<glyph unicode="Z" horiz-adv-x="633" d="M-21 0l19 115l440 458h-335l21 127h537l-19 -115l-442 -458h363l-20 -127h-564z" />
<glyph unicode="[" horiz-adv-x="359" d="M-11 -143l173 982h270l-14 -86h-121l-144 -811h121l-15 -85h-270z" />
<glyph unicode="\" horiz-adv-x="472" d="M104 790h102l178 -880h-103z" />
<glyph unicode="]" horiz-adv-x="359" d="M-58 -143l15 85h121l144 811h-121l14 86h271l-173 -982h-271z" />
<glyph unicode="^" d="M65 327l251 373h147l123 -373h-149l-63 235l-143 -235h-166z" />
<glyph unicode="_" horiz-adv-x="707" d="M-25 -175l16 103h590l-17 -103h-589z" />
<glyph unicode="`" horiz-adv-x="241" d="M111 729h156l102 -138h-111z" />
<glyph unicode="a" horiz-adv-x="625" d="M27 184q0 156 70.5 254t182.5 98q82 0 168 -72l11 61h144l-93 -525h-144l11 63q-96 -74 -189 -74q-68 0 -114.5 47t-46.5 148zM175 200q0 -45 18.5 -70.5t53.5 -25.5q64 0 150 76l32 176q-58 64 -116 64q-63 0 -100.5 -65t-37.5 -155z" />
<glyph unicode="b" horiz-adv-x="622" d="M8 0l129 729h144l-47 -262q91 69 181 69q71 0 119.5 -47t48.5 -148q0 -156 -68.5 -254t-179.5 -98q-88 0 -173 71l-10 -60h-144zM181 168q58 -63 120 -63q61 0 98 65.5t37 154.5q0 95 -79 95q-60 0 -143 -69z" />
<glyph unicode="c" horiz-adv-x="522" d="M26 209q0 155 80 241t187 86q48 0 98.5 -15.5t70.5 -25.5t64 -35l-66 -99q-1 0 -17 9t-22 12.5t-21.5 10.5t-26 10.5t-24 6.5t-25.5 3q-63 0 -106.5 -58t-43.5 -133q0 -52 23 -81t68 -29q11 0 25 3t25.5 6t28.5 10l25.5 10.5t25 11t20.5 9.5l48 -111q-144 -62 -230 -62 q-93 0 -150 56.5t-57 163.5z" />
<glyph unicode="d" horiz-adv-x="625" d="M27 184q0 156 70.5 254t182.5 98q82 0 168 -72l47 265h144l-129 -729h-144l11 63q-96 -74 -189 -74q-68 0 -114.5 47t-46.5 148zM175 200q0 -45 18.5 -70.5t53.5 -25.5q64 0 150 76l32 176q-58 64 -116 64q-63 0 -100.5 -65t-37.5 -155z" />
<glyph unicode="e" horiz-adv-x="568" d="M25 216q0 140 83.5 230t225.5 90q95 0 151.5 -41.5t56.5 -109.5q0 -50 -23 -84.5t-68 -53t-99.5 -26t-127.5 -7.5h-53v-6q0 -112 95 -112q61 0 194 62l45 -100q-149 -69 -265 -69q-101 0 -158 55.5t-57 171.5zM183 292h48q83 0 128 22t45 62q0 26 -20.5 41.5t-53.5 15.5 q-53 0 -91 -40.5t-56 -100.5z" />
<glyph unicode="f" horiz-adv-x="382" d="M-100 -116q48 15 72 25t39.5 29.5t20.5 37t13 60.5l69 383h-70l18 106h71l5 27q16 93 53 135t113 42q91 0 185 -51l-63 -93q-57 20 -93 20q-41 0 -50 -51l-5 -29h128l-18 -106h-129l-67 -372q-20 -114 -39 -151q-31 -59 -114 -91q-43 -16 -108 -30z" />
<glyph unicode="g" horiz-adv-x="622" d="M-19 -172l46 113q127 -39 211 -39q110 0 125 89l12 71q-94 -73 -187 -73q-68 0 -114.5 47t-46.5 148q0 156 70.5 254t182.5 98q82 0 167 -71l11 60h143l-93 -528q-21 -120 -81.5 -165.5t-175.5 -45.5q-131 0 -270 42zM174 200q0 -45 19 -70.5t54 -25.5q63 0 149 74 l32 179q-57 63 -115 63q-63 0 -101 -65.5t-38 -154.5z" />
<glyph unicode="h" horiz-adv-x="619" d="M8 0l129 729h144l-47 -264q114 71 199 71q84 0 119 -49t20 -134l-63 -353h-144l60 338q16 86 -51 86q-37 0 -82 -21.5t-77 -47.5l-63 -355h-144z" />
<glyph unicode="i" horiz-adv-x="267" d="M8 0l93 525h144l-93 -525h-144zM111 601l22 125h151l-21 -125h-152z" />
<glyph unicode="j" horiz-adv-x="267" d="M-131 -116q62 19 89 34t35.5 31t15.5 53l93 523h144l-92 -512q-5 -27 -7 -38t-7 -33t-9.5 -30.5t-12.5 -25.5t-17 -24.5t-22.5 -20t-30 -19.5t-39 -16t-49.5 -16.5t-60 -14.5zM112 601l22 125h151l-21 -125h-152z" />
<glyph unicode="k" horiz-adv-x="563" d="M8 0l129 729h144l-72 -405l193 201h175l-219 -214l156 -311h-146l-107 216l-86 -84l-23 -132h-144z" />
<glyph unicode="l" horiz-adv-x="271" d="M11 0l129 729h144l-129 -729h-144z" />
<glyph unicode="m" horiz-adv-x="926" d="M8 0l93 525h144l-12 -65q97 76 179 76q115 0 135 -93q35 34 89.5 63.5t107.5 29.5q84 0 116.5 -47.5t18.5 -131.5l-63 -357h-144l60 338q8 41 -1.5 63.5t-45.5 22.5q-64 0 -140 -72l-62 -352h-143l60 338q16 86 -47 86q-61 0 -139 -71l-62 -353h-144z" />
<glyph unicode="n" horiz-adv-x="619" d="M8 0l93 525h144l-11 -60q114 71 199 71q84 0 119 -49t20 -134l-63 -353h-144l60 338q16 86 -51 86q-37 0 -82 -21.5t-77 -47.5l-63 -355h-144z" />
<glyph unicode="o" horiz-adv-x="620" d="M27 227q0 132 76.5 220.5t211.5 88.5q124 0 194.5 -62.5t70.5 -175.5q0 -132 -76.5 -220.5t-210.5 -88.5q-125 0 -195.5 62.5t-70.5 175.5zM172 225q0 -125 117 -125q68 0 107 59.5t39 140.5q0 59 -29 92t-88 33q-68 0 -107 -59.5t-39 -140.5z" />
<glyph unicode="p" horiz-adv-x="622" d="M-28 -204l129 729h144l-10 -58q93 69 179 69q72 0 120.5 -47t48.5 -148q0 -156 -69 -254t-180 -98q-87 0 -172 71l-46 -264h-144zM182 169q55 -64 119 -64q62 0 98.5 65t36.5 155q0 95 -80 95q-60 0 -142 -68z" />
<glyph unicode="q" horiz-adv-x="625" d="M27 184q0 156 70.5 254t182.5 98q82 0 168 -72l11 61h144l-129 -729h-144l47 267q-94 -74 -189 -74q-68 0 -114.5 47t-46.5 148zM175 200q0 -45 18.5 -70.5t53.5 -25.5q65 0 151 76l31 176q-58 64 -116 64q-63 0 -100.5 -65t-37.5 -155z" />
<glyph unicode="r" horiz-adv-x="417" d="M8 0l93 525h144l-20 -110q9 15 23 31.5t40.5 39t66 35.5t85.5 10l-23 -135q-48 0 -88.5 -18.5t-64.5 -45t-41.5 -53.5t-24.5 -45l-6 -19l-40 -215h-144z" />
<glyph unicode="s" horiz-adv-x="532" d="M-12 69l67 94q111 -64 199 -64q35 0 56.5 13t21.5 34q0 11 -6 19.5t-22 16t-26 11t-36 10.5t-35 10q-31 9 -54.5 20t-49 28.5t-39 45t-13.5 62.5q0 74 58.5 120.5t157.5 46.5q65 0 131 -19.5t112 -45.5l-66 -92q-94 48 -172 48q-34 0 -54.5 -12.5t-20.5 -32.5q0 -8 3 -14 t9.5 -11.5t13.5 -9.5t19 -8t21.5 -6.5t26 -7.5t26.5 -8q77 -23 120.5 -58.5t43.5 -100.5q0 -77 -61.5 -123t-164.5 -46q-143 0 -266 80z" />
<glyph unicode="t" horiz-adv-x="412" d="M43 419l18 106h71l24 132l146 20l-27 -152h142l-18 -106h-143l-45 -255q-10 -50 32 -50q31 0 86 23l36 -112q-105 -36 -171 -36q-74 0 -107 48.5t-17 140.5l43 241h-70z" />
<glyph unicode="u" horiz-adv-x="619" d="M34 172l62 353h144l-60 -338q-16 -86 51 -86q36 0 81 21t77 46l64 357h144l-93 -525h-144l10 60q-104 -71 -199 -71q-84 0 -118 49t-19 134z" />
<glyph unicode="v" horiz-adv-x="575" d="M49 525h149l55 -375l189 375h161l-299 -525h-143z" />
<glyph unicode="w" horiz-adv-x="831" d="M54 525h149l22 -368l168 368h120l35 -366l149 366h157l-253 -525h-136l-40 347l-166 -347h-136z" />
<glyph unicode="x" horiz-adv-x="595" d="M-51 0l253 262l-148 263h152l89 -182l151 182h176l-243 -261l161 -264h-155l-95 186l-156 -186h-185z" />
<glyph unicode="y" horiz-adv-x="577" d="M-8 -113q41 14 57.5 20t41 18.5t40 27.5t31.5 38l-113 534h149l59 -359l186 359h160l-294 -525q-19 -34 -25.5 -44.5t-24.5 -38.5t-29.5 -38.5t-34 -30.5t-45 -30.5t-55 -22.5t-71.5 -20z" />
<glyph unicode="z" horiz-adv-x="548" d="M-21 0l17 101l331 305h-265l20 119h470l-17 -101l-330 -305h274l-20 -119h-480z" />
<glyph unicode="{" horiz-adv-x="391" d="M13 303l16 90q108 0 115 113l4 99q5 121 73 177.5t202 56.5h42l-14 -83h-18q-123 0 -133 -133l-4 -90q-4 -92 -44 -134t-120 -53q147 -32 97 -194l-19 -61q-46 -151 78 -151h18l-14 -83h-18q-124 0 -186.5 63t-27.5 181l28 89q34 113 -75 113z" />
<glyph unicode="|" horiz-adv-x="243" d="M-7 -123l166 941h106l-166 -941h-106z" />
<glyph unicode="}" horiz-adv-x="391" d="M-57 -143l15 83h18q124 0 132 133l4 90q4 92 44 133.5t120 53.5q-146 33 -97 194l19 61q46 151 -77 151h-19l14 83h18q124 0 186.5 -63t27.5 -181l-28 -89q-17 -56 0.5 -84.5t75.5 -28.5l-16 -90q-62 0 -88 -32.5t-28 -80.5l-3 -99q-4 -121 -72.5 -177.5t-202.5 -56.5 h-43z" />
<glyph unicode="~" d="M11 218q43 75 88.5 113t104.5 38q52 0 124.5 -37.5t107.5 -37.5q24 0 45.5 14t50.5 56l85 -37q-42 -75 -88 -113t-104 -38q-53 0 -125.5 37.5t-107.5 37.5q-23 0 -44.5 -14t-51.5 -56z" />
<glyph unicode="&#xa1;" horiz-adv-x="282" d="M0 0l129 474h87l-41 -474h-175zM111 548l25 152h150l-26 -152h-149z" />
<glyph unicode="&#xa2;" horiz-adv-x="567" d="M52 297q0 155 80 241t187 86h5l14 76h106l-17 -95q55 -18 137 -66l-66 -97q-60 36 -91 47l-49 -277q30 9 95 39l48 -108q-97 -42 -165 -57l-15 -86h-106l14 78q-81 9 -129 65t-48 154zM200 310q0 -81 51 -103l50 283q-44 -20 -72.5 -71t-28.5 -109z" />
<glyph unicode="&#xa3;" horiz-adv-x="580" d="M-1 0l16 101q5 2 13.5 5.5t30.5 17.5t40.5 29.5t37 41.5t25.5 54h-109l16 87h91q-5 18 -18.5 51t-21.5 64t-8 63q0 90 60 143.5t164 53.5q55 0 110 -18.5t84 -35.5t67 -44l-75 -88q-97 62 -161 62q-47 0 -74.5 -25t-27.5 -62q0 -30 21.5 -82t26.5 -82h162l-16 -87h-151 q-13 -42 -40 -74.5t-53 -50.5h286l-20 -124h-476z" />
<glyph unicode="&#xa5;" horiz-adv-x="705" d="M71 145l14 85h180l9 48l-4 8h-174l14 85h125l-137 329h158l106 -299l210 299h176l-253 -329h124l-15 -85h-174l-8 -10l-8 -46h181l-16 -85h-180l-25 -145h-149l25 145h-179z" />
<glyph unicode="&#xa6;" horiz-adv-x="246" d="M-5 -123l73 413h106l-73 -413h-106zM88 405l73 413h106l-73 -413h-106z" />
<glyph unicode="&#xa7;" horiz-adv-x="576" d="M15 -7l66 92q98 -48 173 -48q35 0 54.5 12t19.5 33q0 8 -3 14t-9.5 11.5t-13 9.5t-19 8t-21.5 6.5t-26 7.5t-27 8q-75 23 -120 57.5t-45 97.5q0 99 112 137q-49 41 -49 105q0 73 59 120t158 47q65 0 131.5 -19.5t111.5 -45.5l-66 -92q-94 48 -172 48q-35 0 -55 -12.5 t-20 -32.5q0 -8 3 -14t9.5 -11.5t13 -9t19.5 -8t21.5 -7t26 -7.5t27.5 -8q74 -22 118 -57t44 -98q0 -100 -111 -138q49 -41 49 -104q0 -73 -58.5 -120t-157.5 -47q-65 0 -131 19.5t-112 45.5zM185 324q0 -8 3 -15t11 -13.5t14.5 -10.5t21.5 -9l22.5 -7.5t27 -8.5t27.5 -8 q43 5 63.5 22.5t20.5 39.5q0 9 -3 16t-11 13.5t-15 10.5t-21 9t-23 8t-27.5 8t-27.5 8q-42 -6 -62.5 -24t-20.5 -39z" />
<glyph unicode="&#xa8;" horiz-adv-x="253" d="M77 601l21 120h120l-20 -120h-121zM264 601l21 120h119l-22 -120h-118z" />
<glyph unicode="&#xa9;" horiz-adv-x="802" d="M53 313q0 167 102.5 282.5t279.5 115.5q152 0 241 -89.5t89 -234.5q0 -108 -43 -197t-132 -145t-208 -56q-151 0 -240 90t-89 234zM92 314q0 -127 78.5 -207t215.5 -80q156 0 248 103.5t92 255.5q0 127 -78.5 207t-215.5 80q-156 0 -248 -103.5t-92 -255.5zM224 302 q-5 122 54.5 193.5t147.5 71.5q78 0 160 -67l-32 -33q-67 56 -129 56q-66 0 -110 -62t-40 -155q2 -61 26 -95t68 -34q71 0 149 54l26 -37q-93 -62 -173 -62q-62 0 -103 44.5t-44 125.5z" />
<glyph unicode="&#xaa;" horiz-adv-x="434" d="M77 500q0 91 44 149t114 58q53 0 106 -41l6 34h100l-56 -315h-100l6 34q-58 -41 -116 -41q-44 0 -74 29.5t-30 92.5zM180 508q0 -51 42 -51q36 0 89 41l17 95q-31 35 -68 35t-58.5 -35.5t-21.5 -84.5z" />
<glyph unicode="&#xab;" horiz-adv-x="684" d="M17 228l14 87l340 212l-24 -145l-205 -122l160 -120l-21 -125zM317 228l15 87l338 212l-23 -145l-205 -122l160 -120l-21 -125z" />
<glyph unicode="&#xac;" d="M18 279l18 109h585l-53 -298h-117l34 189h-467z" />
<glyph unicode="&#xad;" horiz-adv-x="431" d="M45 226l20 117h315l-20 -117h-315z" />
<glyph unicode="&#xae;" horiz-adv-x="481" d="M77 480q0 92 56.5 156t155.5 64q84 0 133 -49.5t49 -130.5q0 -92 -56.5 -156t-154.5 -64q-84 0 -133.5 49.5t-49.5 130.5zM111 481q0 -65 40.5 -106.5t110.5 -41.5q81 0 129 53.5t48 132.5q0 65 -41 106.5t-112 41.5q-81 0 -128 -53.5t-47 -132.5zM184 402l35 201h89 q28 0 44.5 -15t16.5 -37q0 -24 -17 -41t-45 -22l33 -86h-34l-31 85h-43l-15 -85h-33zM237 518h52q22 0 34.5 9.5t12.5 23.5q0 22 -29 22h-60z" />
<glyph unicode="&#xaf;" horiz-adv-x="311" d="M112 616l15 85h305l-15 -85h-305z" />
<glyph unicode="&#xb0;" horiz-adv-x="421" d="M72 524q0 74 52 125.5t125 51.5t124.5 -52t51.5 -125t-51.5 -125t-124.5 -52t-125 52t-52 125zM156 524q0 -38 27.5 -65t65.5 -27t65 27t27 65t-27 65.5t-65 27.5t-65.5 -27.5t-27.5 -65.5z" />
<glyph unicode="&#xb1;" d="M10 0l15 94h510l-15 -94h-510zM62 295l17 109h199l25 139h112l-25 -139h200l-18 -109h-201l-24 -139h-112l24 139h-197z" />
<glyph unicode="&#xb2;" horiz-adv-x="410" d="M45 385l7 44q6 34 20.5 61t43 50t46.5 34.5t57 32.5q86 47 100 59q16 15 17 29q-2 32 -53 32q-50 0 -122 -39l-39 71q89 53 173 53q70 0 107.5 -32.5t37.5 -80.5q0 -30 -14 -55t-44 -47t-51.5 -33.5t-61.5 -31.5q-47 -23 -63.5 -34.5t-20.5 -27.5h212l-14 -85h-338z" />
<glyph unicode="&#xb3;" horiz-adv-x="402" d="M38 443l51 63q73 -42 132 -42q38 0 59 13.5t21 36.5q0 50 -110 50h-19l12 86h23q44 0 77.5 11.5t33.5 34.5q0 14 -13 22.5t-35 8.5q-48 0 -120 -36l-34 70q78 51 172 51q66 0 100.5 -27.5t34.5 -69.5q0 -68 -91 -103q33 -11 54 -38t21 -62q0 -53 -43 -93.5t-132 -40.5 q-98 0 -194 65z" />
<glyph unicode="&#xb4;" horiz-adv-x="242" d="M79 591l145 138h173l-193 -138h-125z" />
<glyph unicode="&#xb5;" horiz-adv-x="622" d="M-21 -204l129 729h144l-64 -363q-3 -61 55 -61q36 0 81 21t77 46l64 357h144l-93 -525h-144l10 60q-104 -71 -199 -71q-18 0 -26 1l-34 -194h-144z" />
<glyph unicode="&#xb6;" horiz-adv-x="709" d="M55 421q0 134 88 206.5t218 72.5h132l-156 -885h-122l73 407q-105 0 -169 49.5t-64 149.5zM421 -186l156 886h122l-156 -886h-122z" />
<glyph unicode="&#xb7;" horiz-adv-x="267" d="M42 203l28 164h148l-27 -164h-149z" />
<glyph unicode="&#xb8;" horiz-adv-x="181" d="M-37 -161l40 71q23 -12 48 -12q54 0 54 46q0 12 -4.5 26.5t-8.5 23.5l-4 8h64q25 -36 25 -80q0 -51 -34.5 -78t-89.5 -27q-54 0 -90 22z" />
<glyph unicode="&#xb9;" horiz-adv-x="256" d="M62 739l134 66h97l-74 -420h-104l59 319l-79 -36z" />
<glyph unicode="&#xba;" horiz-adv-x="421" d="M75 516q0 81 49.5 136t138.5 55q78 0 122 -36.5t44 -101.5q0 -81 -50 -136t-139 -55q-77 0 -121 36.5t-44 101.5zM173 522q0 -68 69 -68q42 0 65 34t23 75q0 68 -69 68q-42 0 -65 -34t-23 -75z" />
<glyph unicode="&#xbb;" horiz-adv-x="682" d="M3 15l23 146l205 121l-159 120l20 125l264 -212l-14 -87zM302 15l25 146l204 121l-159 120l20 125l263 -212l-13 -87z" />
<glyph unicode="&#xbc;" horiz-adv-x="883" d="M82 634l134 66h97l-74 -420h-104l59 319l-79 -36zM127 0l449 700h111l-449 -700h-111zM408 77l11 71l246 272h136l-45 -258h65l-12 -85h-68l-13 -77h-104l13 77h-229zM535 162h117l30 167z" />
<glyph unicode="&#xbd;" horiz-adv-x="903" d="M82 634l134 66h97l-74 -420h-104l59 319l-79 -36zM127 0l449 700h111l-449 -700h-111zM464 0l8 44q6 34 20.5 61t42.5 49.5t46.5 34.5t56.5 33q87 46 102 59q14 14 15 28q0 33 -53 33q-50 0 -122 -39l-38 71q86 53 172 53q70 0 108 -32t38 -81q0 -30 -14 -55t-44.5 -47 t-51.5 -33.5t-62 -31.5q-47 -23 -63 -35t-20 -27h211l-13 -85h-339z" />
<glyph unicode="&#xbe;" horiz-adv-x="982" d="M38 338l51 63q73 -42 132 -42q38 0 59 13.5t21 36.5q0 50 -110 50h-19l12 86h23q44 0 77.5 11.5t33.5 34.5q0 14 -13 22.5t-35 8.5q-48 0 -120 -36l-34 70q78 51 172 51q66 0 100.5 -27.5t34.5 -69.5q0 -68 -91 -103q33 -11 54 -38t21 -62q0 -53 -43 -93.5t-132 -40.5 q-98 0 -194 65zM228 0l449 700h112l-449 -700h-112zM510 77l11 71l245 272h138l-47 -258h66l-13 -85h-68l-13 -77h-103l13 77h-229zM637 162h117l29 166z" />
<glyph unicode="&#xbf;" horiz-adv-x="537" d="M15 159q0 49 21.5 88t60.5 65.5t84 44t100 27.5l25 90h91l-21 -171q-104 -18 -157.5 -47t-53.5 -76q0 -32 23.5 -49.5t65.5 -17.5q67 0 165 54l50 -107q-126 -71 -245 -71q-94 0 -151.5 45.5t-57.5 124.5zM291 548l26 152h148l-25 -152h-149z" />
<glyph unicode="&#xc0;" horiz-adv-x="702" d="M-43 0l383 700h166l137 -700h-158l-20 139h-268l-68 -139h-172zM255 257h193l-43 303zM273 880h155l101 -138h-110z" />
<glyph unicode="&#xc1;" horiz-adv-x="702" d="M-43 0l383 700h166l137 -700h-158l-20 139h-268l-68 -139h-172zM255 257h193l-43 303zM333 742l145 138h174l-194 -138h-125z" />
<glyph unicode="&#xc2;" horiz-adv-x="702" d="M-43 0l383 700h166l137 -700h-158l-20 139h-268l-68 -139h-172zM255 257h193l-43 303zM257 742l128 138h141l80 -138h-92l-63 75l-90 -75h-104z" />
<glyph unicode="&#xc3;" horiz-adv-x="702" d="M-43 0l383 700h166l137 -700h-158l-20 139h-268l-68 -139h-172zM255 257h193l-43 303zM259 787q23 34 36 49.5t36 30t49 14.5q30 0 71 -24t56 -24q24 0 60 47l60 -39q-23 -34 -36 -50t-36 -30.5t-49 -14.5q-30 0 -71 24t-55 24q-25 0 -61 -47z" />
<glyph unicode="&#xc4;" horiz-adv-x="702" d="M-43 0l383 700h166l137 -700h-158l-20 139h-268l-68 -139h-172zM255 257h193l-43 303zM279 752l22 120h119l-20 -120h-121zM466 752l21 120h119l-21 -120h-119z" />
<glyph unicode="&#xc5;" horiz-adv-x="702" d="M-43 0l383 700h166l137 -700h-158l-20 139h-268l-68 -139h-172zM255 257h193l-43 303zM338 844q0 46 33 79t79 33t79 -33t33 -79t-33 -79t-79 -33t-79 33t-33 79zM407 844q0 -18 12.5 -30t30.5 -12t30.5 12t12.5 30t-12.5 30.5t-30.5 12.5t-30.5 -12.5t-12.5 -30.5z" />
<glyph unicode="&#xc6;" horiz-adv-x="1051" d="M-80 0l594 700h559l-21 -127h-339l-31 -161h279l-22 -124h-277l-31 -161h345l-21 -127h-494l24 139h-260l-113 -139h-192zM323 260h183l51 286z" />
<glyph unicode="&#xc7;" horiz-adv-x="656" d="M49 271q0 203 98 321.5t248 118.5q56 0 113.5 -18.5t90.5 -37t86 -53.5l-81 -105q-62 40 -105.5 59.5t-87.5 19.5q-93 0 -150.5 -85.5t-57.5 -207.5q0 -160 112 -160q79 0 219 77l64 -118q-157 -80 -271 -91q19 -35 19 -69q0 -51 -35 -78t-89 -27t-90 22l40 71 q24 -12 47 -12q55 0 55 46q0 20 -11 46q-99 5 -156.5 75.5t-57.5 205.5z" />
<glyph unicode="&#xc8;" horiz-adv-x="612" d="M22 0l123 700h489l-21 -127h-339l-31 -161h279l-22 -124h-277l-31 -161h345l-21 -127h-494zM241 880h156l102 -138h-110z" />
<glyph unicode="&#xc9;" horiz-adv-x="612" d="M22 0l123 700h489l-21 -127h-339l-31 -161h279l-22 -124h-277l-31 -161h345l-21 -127h-494zM297 742l145 138h172l-192 -138h-125z" />
<glyph unicode="&#xca;" horiz-adv-x="612" d="M22 0l123 700h489l-21 -127h-339l-31 -161h279l-22 -124h-277l-31 -161h345l-21 -127h-494zM225 742l130 138h139l80 -138h-91l-64 75l-88 -75h-106z" />
<glyph unicode="&#xcb;" horiz-adv-x="612" d="M22 0l123 700h489l-21 -127h-339l-31 -161h279l-22 -124h-277l-31 -161h345l-21 -127h-494zM249 752l20 120h121l-20 -120h-121zM436 752l20 120h121l-21 -120h-120z" />
<glyph unicode="&#xcc;" horiz-adv-x="299" d="M22 0l123 700h150l-123 -700h-150zM69 880h157l102 -138h-111z" />
<glyph unicode="&#xcd;" horiz-adv-x="299" d="M22 0l123 700h150l-123 -700h-150zM124 742l145 138h173l-193 -138h-125z" />
<glyph unicode="&#xce;" horiz-adv-x="299" d="M22 0l123 700h150l-123 -700h-150zM53 742l128 138h141l80 -138h-92l-63 75l-88 -75h-106z" />
<glyph unicode="&#xcf;" horiz-adv-x="299" d="M22 0l123 700h150l-123 -700h-150zM77 752l21 120h120l-21 -120h-120zM263 752l21 120h120l-21 -120h-120z" />
<glyph unicode="&#xd0;" horiz-adv-x="735" d="M15 292l19 116h73l51 292h218q168 0 249 -74t81 -203q0 -52 -11 -105.5t-39.5 -112t-71 -103t-113.5 -73.5t-159 -29h-276l51 292h-72zM208 127h83q87 0 148 43.5t88 108t27 142.5q0 81 -49 116.5t-148 35.5h-70l-30 -165h144l-19 -116h-145z" />
<glyph unicode="&#xd1;" horiz-adv-x="741" d="M22 0l123 700h152l204 -487l86 487h149l-123 -700h-152l-204 486l-85 -486h-150zM283 787q23 34 36 49.5t36 30t49 14.5q29 0 70.5 -24t56.5 -24q25 0 59 47l61 -39q-19 -27 -27.5 -38.5t-25 -28t-32.5 -22.5t-37 -6q-29 0 -70 24t-56 24q-24 0 -60 -47z" />
<glyph unicode="&#xd2;" horiz-adv-x="766" d="M47 295q0 48 10 99.5t36 109.5t65.5 103t104.5 74.5t146 29.5q160 0 243 -81.5t83 -225.5q0 -39 -7 -81.5t-23 -90.5t-44.5 -90.5t-67 -77.5t-95.5 -55.5t-125 -20.5q-160 0 -243 81.5t-83 225.5zM201 298q0 -182 167 -182q55 0 98.5 29t67 74t35.5 92t12 90 q0 182 -167 182q-55 0 -98.5 -29t-67 -74t-35.5 -92t-12 -90zM303 880h155l102 -138h-111z" />
<glyph unicode="&#xd3;" horiz-adv-x="766" d="M47 295q0 48 10 99.5t36 109.5t65.5 103t104.5 74.5t146 29.5q160 0 243 -81.5t83 -225.5q0 -39 -7 -81.5t-23 -90.5t-44.5 -90.5t-67 -77.5t-95.5 -55.5t-125 -20.5q-160 0 -243 81.5t-83 225.5zM201 298q0 -182 167 -182q55 0 98.5 29t67 74t35.5 92t12 90 q0 182 -167 182q-55 0 -98.5 -29t-67 -74t-35.5 -92t-12 -90zM357 742l145 138h173l-193 -138h-125z" />
<glyph unicode="&#xd4;" horiz-adv-x="766" d="M47 295q0 48 10 99.5t36 109.5t65.5 103t104.5 74.5t146 29.5q160 0 243 -81.5t83 -225.5q0 -39 -7 -81.5t-23 -90.5t-44.5 -90.5t-67 -77.5t-95.5 -55.5t-125 -20.5q-160 0 -243 81.5t-83 225.5zM201 298q0 -182 167 -182q55 0 98.5 29t67 74t35.5 92t12 90 q0 182 -167 182q-55 0 -98.5 -29t-67 -74t-35.5 -92t-12 -90zM287 742l128 138h141l80 -138h-92l-63 75l-88 -75h-106z" />
<glyph unicode="&#xd5;" horiz-adv-x="766" d="M47 295q0 48 10 99.5t36 109.5t65.5 103t104.5 74.5t146 29.5q160 0 243 -81.5t83 -225.5q0 -39 -7 -81.5t-23 -90.5t-44.5 -90.5t-67 -77.5t-95.5 -55.5t-125 -20.5q-160 0 -243 81.5t-83 225.5zM201 298q0 -182 167 -182q55 0 98.5 29t67 74t35.5 92t12 90 q0 182 -167 182q-55 0 -98.5 -29t-67 -74t-35.5 -92t-12 -90zM288 787q19 27 27.5 38t25 27.5t33 22.5t36.5 6q29 0 70 -24t56 -24q24 0 60 47l60 -39q-23 -34 -36 -50t-36 -30.5t-49 -14.5q-29 0 -70 24t-56 24q-26 0 -60 -47z" />
<glyph unicode="&#xd6;" horiz-adv-x="766" d="M47 295q0 48 10 99.5t36 109.5t65.5 103t104.5 74.5t146 29.5q160 0 243 -81.5t83 -225.5q0 -39 -7 -81.5t-23 -90.5t-44.5 -90.5t-67 -77.5t-95.5 -55.5t-125 -20.5q-160 0 -243 81.5t-83 225.5zM201 298q0 -182 167 -182q55 0 98.5 29t67 74t35.5 92t12 90 q0 182 -167 182q-55 0 -98.5 -29t-67 -74t-35.5 -92t-12 -90zM310 752l21 120h119l-21 -120h-119zM495 752l21 120h120l-20 -120h-121z" />
<glyph unicode="&#xd7;" d="M80 212l162 129l-113 125l87 74l115 -128l166 132l72 -84l-163 -130l113 -125l-87 -73l-116 127l-164 -131z" />
<glyph unicode="&#xd8;" horiz-adv-x="766" d="M7 0l96 101q-55 76 -55 194q0 39 7.5 81.5t23 90.5t44 90.5t66.5 77.5t95 55.5t125 20.5q134 0 215 -58l44 47h108l-96 -102q56 -76 56 -194q0 -48 -10 -99.5t-36 -109.5t-65.5 -103t-104.5 -74.5t-146 -29.5q-135 0 -216 58l-43 -46h-108zM202 298q0 -47 11 -80l313 332 q-41 33 -111 33q-55 0 -98.5 -29t-67 -74t-35.5 -92t-12 -90zM256 150q40 -34 113 -34q55 0 98.5 29t67 74t35.5 92t12 90q0 45 -12 81z" />
<glyph unicode="&#xd9;" horiz-adv-x="714" d="M66 301l70 399h151l-77 -430q-13 -73 9.5 -113t100.5 -40q79 0 117.5 40.5t51.5 112.5l77 430h149l-77 -436q-11 -61 -30.5 -107.5t-55.5 -86t-95 -60.5t-139 -21q-72 0 -124 15.5t-80 44t-43 67.5t-14 85.5t9 99.5zM275 880h157l102 -138h-111z" />
<glyph unicode="&#xda;" horiz-adv-x="714" d="M66 301l70 399h151l-77 -430q-13 -73 9.5 -113t100.5 -40q79 0 117.5 40.5t51.5 112.5l77 430h149l-77 -436q-11 -61 -30.5 -107.5t-55.5 -86t-95 -60.5t-139 -21q-72 0 -124 15.5t-80 44t-43 67.5t-14 85.5t9 99.5zM330 742l146 138h172l-193 -138h-125z" />
<glyph unicode="&#xdb;" horiz-adv-x="714" d="M66 301l70 399h151l-77 -430q-13 -73 9.5 -113t100.5 -40q79 0 117.5 40.5t51.5 112.5l77 430h149l-77 -436q-11 -61 -30.5 -107.5t-55.5 -86t-95 -60.5t-139 -21q-72 0 -124 15.5t-80 44t-43 67.5t-14 85.5t9 99.5zM260 742l129 138h140l80 -138h-92l-63 75l-88 -75 h-106z" />
<glyph unicode="&#xdc;" horiz-adv-x="714" d="M66 301l70 399h151l-77 -430q-13 -73 9.5 -113t100.5 -40q79 0 117.5 40.5t51.5 112.5l77 430h149l-77 -436q-11 -61 -30.5 -107.5t-55.5 -86t-95 -60.5t-139 -21q-72 0 -124 15.5t-80 44t-43 67.5t-14 85.5t9 99.5zM284 752l21 120h120l-22 -120h-119zM470 752l20 120 h120l-21 -120h-119z" />
<glyph unicode="&#xdd;" horiz-adv-x="656" d="M71 700h159l106 -299l210 299h175l-325 -423l-48 -277h-149l48 278zM300 742l145 138h173l-193 -138h-125z" />
<glyph unicode="&#xde;" horiz-adv-x="674" d="M22 0l123 700h150l-20 -112h111q270 0 270 -201q0 -101 -73.5 -176t-212.5 -75h-174l-24 -136h-150zM216 259h130q73 0 114.5 32.5t41.5 91.5q0 80 -117 80h-130z" />
<glyph unicode="&#xdf;" horiz-adv-x="715" d="M8 0l85 485q22 113 98 169.5t226 56.5q154 0 222 -63t50 -167l-2 -12l-73 -86q-26 16 -65.5 30t-70.5 14q-28 0 -47 -12.5t-19 -33.5q0 -8 2.5 -14t9 -11.5t11.5 -9t17 -8.5t18.5 -7t22.5 -7t23 -8q66 -23 105 -58.5t39 -99.5q0 -76 -57 -122.5t-150 -46.5q-68 0 -133 24 t-110 57l63 94q35 -24 87.5 -44.5t85.5 -20.5q26 0 46.5 13t20.5 33q0 11 -6.5 20t-24.5 18.5t-27 13t-38 13.5q-7 3 -11 4q-30 11 -50 21t-43 27.5t-35 44t-12 60.5q0 73 53 121t145 48q39 0 82 -10q-9 74 -131 74q-75 0 -121 -29.5t-59 -102.5l-84 -468h-143z" />
<glyph unicode="&#xe0;" horiz-adv-x="625" d="M27 184q0 156 70.5 254t182.5 98q85 0 169 -72l11 61h144l-93 -525h-144l11 64q-95 -75 -190 -75q-68 0 -114.5 47t-46.5 148zM175 200q0 -45 18.5 -70.5t53.5 -25.5q65 0 152 77l31 174q-59 65 -117 65q-63 0 -100.5 -65t-37.5 -155zM207 729h156l102 -138h-111z" />
<glyph unicode="&#xe1;" horiz-adv-x="625" d="M27 184q0 156 70.5 254t182.5 98q85 0 169 -72l11 61h144l-93 -525h-144l11 64q-95 -75 -190 -75q-68 0 -114.5 47t-46.5 148zM175 200q0 -45 18.5 -70.5t53.5 -25.5q65 0 152 77l31 174q-59 65 -117 65q-63 0 -100.5 -65t-37.5 -155zM252 591l145 138h173l-192 -138 h-126z" />
<glyph unicode="&#xe2;" horiz-adv-x="625" d="M27 184q0 156 70.5 254t182.5 98q85 0 169 -72l11 61h144l-93 -525h-144l11 64q-95 -75 -190 -75q-68 0 -114.5 47t-46.5 148zM175 200q0 -45 18.5 -70.5t53.5 -25.5q65 0 152 77l31 174q-59 65 -117 65q-63 0 -100.5 -65t-37.5 -155zM191 591l129 138h140l81 -138h-93 l-63 75l-88 -75h-106z" />
<glyph unicode="&#xe3;" horiz-adv-x="625" d="M27 184q0 156 70.5 254t182.5 98q85 0 169 -72l11 61h144l-93 -525h-144l11 64q-95 -75 -190 -75q-68 0 -114.5 47t-46.5 148zM175 200q0 -45 18.5 -70.5t53.5 -25.5q65 0 152 77l31 174q-59 65 -117 65q-63 0 -100.5 -65t-37.5 -155zM195 636q19 27 27.5 38t25 27.5 t33 22.5t36.5 6q29 0 70.5 -24t56.5 -24q23 0 59 47l61 -39q-19 -27 -27.5 -38.5t-25 -28t-32.5 -22.5t-37 -6q-29 0 -70 24t-56 24q-24 0 -60 -47z" />
<glyph unicode="&#xe4;" horiz-adv-x="625" d="M27 184q0 156 70.5 254t182.5 98q85 0 169 -72l11 61h144l-93 -525h-144l11 64q-95 -75 -190 -75q-68 0 -114.5 47t-46.5 148zM175 200q0 -45 18.5 -70.5t53.5 -25.5q65 0 152 77l31 174q-59 65 -117 65q-63 0 -100.5 -65t-37.5 -155zM220 601l20 120h121l-20 -120h-121z M406 601l21 120h118l-20 -120h-119z" />
<glyph unicode="&#xe5;" horiz-adv-x="625" d="M27 184q0 156 70.5 254t182.5 98q85 0 169 -72l11 61h144l-93 -525h-144l11 64q-95 -75 -190 -75q-68 0 -114.5 47t-46.5 148zM175 200q0 -45 18.5 -70.5t53.5 -25.5q65 0 152 77l31 174q-59 65 -117 65q-63 0 -100.5 -65t-37.5 -155zM274 693q0 47 33 79.5t79 32.5 t79 -32.5t33 -79.5t-33 -79.5t-79 -32.5t-79 32.5t-33 79.5zM343 693q0 -18 12.5 -30t30.5 -12t30.5 12t12.5 30t-12.5 30.5t-30.5 12.5t-30.5 -12.5t-12.5 -30.5z" />
<glyph unicode="&#xe6;" horiz-adv-x="945" d="M27 184q0 156 70.5 254t182.5 98q82 0 168 -72l11 61h144l-1 -6q49 17 108 17q95 0 151.5 -41.5t56.5 -109.5q0 -50 -23 -84.5t-67.5 -53t-99 -26t-128.5 -7.5h-53v-6q0 -112 95 -112q65 0 193 62l46 -100q-145 -69 -265 -69q-60 0 -104 19l-1 -8h-144l11 64 q-97 -75 -190 -75q-68 0 -114.5 47t-46.5 148zM175 200q0 -45 18.5 -70.5t53.5 -25.5q64 0 151 77l3 16v19q0 78 27 141q-57 63 -115 63q-63 0 -100.5 -65t-37.5 -155zM559 292h48q84 0 128.5 22t44.5 62q0 26 -20.5 41.5t-53.5 15.5q-53 0 -91 -40.5t-56 -100.5z" />
<glyph unicode="&#xe7;" horiz-adv-x="522" d="M26 209q0 155 80 241t187 86q48 0 98.5 -15.5t70.5 -25.5t64 -35l-66 -99q-1 0 -17 9t-22 12.5t-21.5 10.5t-26 10.5t-24 6.5t-25.5 3q-63 0 -106.5 -58t-43.5 -133q0 -52 23 -81t68 -29q11 0 25 3t25.5 6t28.5 10l25.5 10.5t25 11t20.5 9.5l48 -111q-132 -56 -209 -61 q19 -33 19 -68q0 -51 -34.5 -78t-88.5 -27q-56 0 -92 22l41 71q23 -12 48 -12q53 0 53 46q0 23 -12 49q-74 13 -118 67.5t-44 148.5z" />
<glyph unicode="&#xe8;" horiz-adv-x="568" d="M25 216q0 140 83.5 230t225.5 90q95 0 151.5 -41.5t56.5 -109.5q0 -50 -23 -84.5t-67.5 -53t-99 -26t-128.5 -7.5h-53v-6q0 -112 96 -112q60 0 193 62l45 -100q-145 -69 -265 -69q-101 0 -158 55.5t-57 171.5zM183 292h48q84 0 128.5 22t44.5 62q0 26 -20.5 41.5 t-53.5 15.5q-53 0 -91 -40.5t-56 -100.5zM194 729h157l102 -138h-111z" />
<glyph unicode="&#xe9;" horiz-adv-x="568" d="M25 216q0 140 83.5 230t225.5 90q95 0 151.5 -41.5t56.5 -109.5q0 -50 -23 -84.5t-67.5 -53t-99 -26t-128.5 -7.5h-53v-6q0 -112 96 -112q60 0 193 62l45 -100q-145 -69 -265 -69q-101 0 -158 55.5t-57 171.5zM183 292h48q84 0 128.5 22t44.5 62q0 26 -20.5 41.5 t-53.5 15.5q-53 0 -91 -40.5t-56 -100.5zM250 591l145 138h173l-193 -138h-125z" />
<glyph unicode="&#xea;" horiz-adv-x="568" d="M25 216q0 140 83.5 230t225.5 90q95 0 151.5 -41.5t56.5 -109.5q0 -50 -23 -84.5t-67.5 -53t-99 -26t-128.5 -7.5h-53v-6q0 -112 96 -112q60 0 193 62l45 -100q-145 -69 -265 -69q-101 0 -158 55.5t-57 171.5zM179 591l128 138h141l80 -138h-93l-62 75l-89 -75h-105z M183 292h48q84 0 128.5 22t44.5 62q0 26 -20.5 41.5t-53.5 15.5q-53 0 -91 -40.5t-56 -100.5z" />
<glyph unicode="&#xeb;" horiz-adv-x="568" d="M25 216q0 140 83.5 230t225.5 90q95 0 151.5 -41.5t56.5 -109.5q0 -50 -23 -84.5t-67.5 -53t-99 -26t-128.5 -7.5h-53v-6q0 -112 96 -112q60 0 193 62l45 -100q-145 -69 -265 -69q-101 0 -158 55.5t-57 171.5zM183 292h48q84 0 128.5 22t44.5 62q0 26 -20.5 41.5 t-53.5 15.5q-53 0 -91 -40.5t-56 -100.5zM203 601l20 120h121l-20 -120h-121zM389 601l21 120h120l-22 -120h-119z" />
<glyph unicode="&#xec;" horiz-adv-x="267" d="M8 0l93 525h144l-93 -525h-144zM26 729h156l102 -138h-110z" />
<glyph unicode="&#xed;" horiz-adv-x="267" d="M8 0l93 525h144l-93 -525h-144zM81 591l145 138h173l-193 -138h-125z" />
<glyph unicode="&#xee;" horiz-adv-x="267" d="M8 0l93 525h144l-93 -525h-144zM10 591l129 138h140l80 -138h-92l-63 75l-88 -75h-106z" />
<glyph unicode="&#xef;" horiz-adv-x="267" d="M8 0l93 525h144l-93 -525h-144zM34 601l21 120h120l-22 -120h-119zM220 601l21 120h120l-22 -120h-119z" />
<glyph unicode="&#xf0;" horiz-adv-x="635" d="M24 213q0 112 76.5 187.5t186.5 75.5q37 0 69.5 -9.5t51.5 -23t33 -27.5t19 -24l6 -9q-12 136 -114 182l-44 -41h-123l67 62h-2q-20 0 -42.5 -2t-35.5 -4l-12 -2l1 112q42 10 99 10q51 0 101 -13l45 42h122l-83 -77q74 -45 113.5 -127t39.5 -187q0 -158 -86 -253.5 t-234 -95.5q-118 0 -186 59.5t-68 164.5zM174 209q0 -49 26.5 -79t85.5 -30q77 0 115.5 47.5t38.5 108.5q0 49 -28 79t-85 30q-73 0 -113 -45.5t-40 -110.5z" />
<glyph unicode="&#xf1;" horiz-adv-x="619" d="M8 0l93 525h144l-11 -60q114 71 200 71q84 0 118.5 -49.5t19.5 -133.5l-62 -353h-145l61 338q16 86 -51 86q-37 0 -83 -21.5t-77 -47.5l-63 -355h-144zM192 636q23 34 36 49.5t36 30t49 14.5q29 0 70.5 -24t56.5 -24q25 0 59 47l61 -39q-19 -27 -27.5 -38.5t-25 -28 t-32.5 -22.5t-37 -6q-29 0 -70 24t-56 24q-24 0 -60 -47z" />
<glyph unicode="&#xf2;" horiz-adv-x="620" d="M27 227q0 132 76.5 220.5t211.5 88.5q124 0 194.5 -62.5t70.5 -175.5q0 -132 -76.5 -220.5t-210.5 -88.5q-125 0 -195.5 62.5t-70.5 175.5zM172 225q0 -125 117 -125q68 0 107 59.5t39 140.5q0 59 -29 92t-88 33q-68 0 -107 -59.5t-39 -140.5zM202 729h157l102 -138h-111 z" />
<glyph unicode="&#xf3;" horiz-adv-x="620" d="M27 227q0 132 76.5 220.5t211.5 88.5q124 0 194.5 -62.5t70.5 -175.5q0 -132 -76.5 -220.5t-210.5 -88.5q-125 0 -195.5 62.5t-70.5 175.5zM172 225q0 -125 117 -125q68 0 107 59.5t39 140.5q0 59 -29 92t-88 33q-68 0 -107 -59.5t-39 -140.5zM258 591l145 138h173 l-193 -138h-125z" />
<glyph unicode="&#xf4;" horiz-adv-x="620" d="M27 227q0 132 76.5 220.5t211.5 88.5q124 0 194.5 -62.5t70.5 -175.5q0 -132 -76.5 -220.5t-210.5 -88.5q-125 0 -195.5 62.5t-70.5 175.5zM172 225q0 -125 117 -125q68 0 107 59.5t39 140.5q0 59 -29 92t-88 33q-68 0 -107 -59.5t-39 -140.5zM187 591l129 138h140 l80 -138h-92l-63 75l-88 -75h-106z" />
<glyph unicode="&#xf5;" horiz-adv-x="620" d="M27 227q0 132 76.5 220.5t211.5 88.5q124 0 194.5 -62.5t70.5 -175.5q0 -132 -76.5 -220.5t-210.5 -88.5q-125 0 -195.5 62.5t-70.5 175.5zM172 225q0 -125 117 -125q68 0 107 59.5t39 140.5q0 59 -29 92t-88 33q-68 0 -107 -59.5t-39 -140.5zM187 618q1 2 11 19t12 20 t11.5 17t14 17.5t14 12.5t17 12t18.5 6t23 3q26 0 71 -20t65 -20q31 0 55 39l61 -22q-2 -3 -9 -15.5t-9 -16t-9 -14.5t-10 -14.5t-10 -12t-11.5 -12t-12.5 -9t-14.5 -7.5t-15.5 -4t-18 -2q-27 0 -72 20t-64 20q-31 0 -56 -39z" />
<glyph unicode="&#xf6;" horiz-adv-x="620" d="M27 227q0 132 76.5 220.5t211.5 88.5q124 0 194.5 -62.5t70.5 -175.5q0 -132 -76.5 -220.5t-210.5 -88.5q-125 0 -195.5 62.5t-70.5 175.5zM172 225q0 -125 117 -125q68 0 107 59.5t39 140.5q0 59 -29 92t-88 33q-68 0 -107 -59.5t-39 -140.5zM212 601l20 120h121 l-21 -120h-120zM398 601l21 120h120l-22 -120h-119z" />
<glyph unicode="&#xf7;" d="M60 279l18 109h511l-18 -109h-511zM219 142q-4 33 20.5 57t58.5 24q27 0 46.5 -17t21.5 -43q3 -33 -21 -57t-59 -24q-27 0 -46 17t-21 43zM282 506q-3 32 21 56t59 24q26 0 45.5 -17.5t21.5 -42.5q4 -33 -20.5 -57.5t-58.5 -24.5q-27 0 -46.5 18t-21.5 44z" />
<glyph unicode="&#xf8;" horiz-adv-x="621" d="M-2 0l76 77q-47 58 -47 150q0 132 76.5 220.5t211.5 88.5q103 0 169 -43l32 32h89l-73 -74q49 -60 49 -153q0 -132 -76.5 -220.5t-211.5 -88.5q-105 0 -172 44l-33 -33h-90zM172 225q0 -22 5 -44l218 221q-28 23 -77 23q-68 0 -107 -59.5t-39 -140.5zM210 124 q29 -24 80 -24q68 0 107 59.5t39 140.5q0 26 -6 47z" />
<glyph unicode="&#xf9;" horiz-adv-x="619" d="M34 172l63 353h144l-61 -338q-16 -86 52 -86q37 0 82.5 21t76.5 47l63 356h143l-93 -525h-143l10 60q-104 -71 -199 -71q-84 0 -118.5 49t-19.5 134zM199 729h157l101 -138h-111z" />
<glyph unicode="&#xfa;" horiz-adv-x="619" d="M34 172l63 353h144l-61 -338q-16 -86 52 -86q37 0 82.5 21t76.5 47l63 356h143l-93 -525h-143l10 60q-104 -71 -199 -71q-84 0 -118.5 49t-19.5 134zM255 591l145 138h172l-192 -138h-125z" />
<glyph unicode="&#xfb;" horiz-adv-x="619" d="M34 172l63 353h144l-61 -338q-16 -86 52 -86q37 0 82.5 21t76.5 47l63 356h143l-93 -525h-143l10 60q-104 -71 -199 -71q-84 0 -118.5 49t-19.5 134zM184 591l129 138h139l81 -138h-92l-63 75l-89 -75h-105z" />
<glyph unicode="&#xfc;" horiz-adv-x="619" d="M34 172l63 353h144l-61 -338q-16 -86 52 -86q37 0 82.5 21t76.5 47l63 356h143l-93 -525h-143l10 60q-104 -71 -199 -71q-84 0 -118.5 49t-19.5 134zM208 601l21 120h120l-20 -120h-121zM394 601l21 120h121l-21 -120h-121z" />
<glyph unicode="&#xfd;" horiz-adv-x="577" d="M-8 -113q41 14 57.5 20t41 18.5t40 27.5t31.5 38l-113 534h149l59 -359l186 359h160l-294 -525q-19 -34 -25.5 -44.5t-24.5 -38.5t-29.5 -38.5t-34 -30.5t-45 -30.5t-55 -22.5t-71.5 -20zM234 591l145 138h173l-192 -138h-126z" />
<glyph unicode="&#xfe;" horiz-adv-x="622" d="M-28 -204l165 933h144l-47 -262q91 69 180 69q72 0 120.5 -47t48.5 -148q0 -156 -69 -254t-180 -98q-87 0 -172 71l-46 -264h-144zM182 169q55 -64 119 -64q62 0 98.5 65t36.5 155q0 95 -80 95q-60 0 -142 -68z" />
<glyph unicode="&#xff;" horiz-adv-x="577" d="M-8 -113q41 14 57.5 20t41 18.5t40 27.5t31.5 38l-113 534h149l59 -359l186 359h160l-294 -525q-19 -34 -25.5 -44.5t-24.5 -38.5t-29.5 -38.5t-34 -30.5t-45 -30.5t-55 -22.5t-71.5 -20zM186 601l22 120h120l-21 -120h-121zM373 601l21 120h120l-22 -120h-119z" />
<glyph unicode="&#x152;" horiz-adv-x="1113" d="M48 295q0 48 10 99.5t36 109.5t65.5 103t104.5 74.5t146 29.5q144 0 227 -68l10 57h488l-20 -127h-339l-30 -161h278l-21 -124h-279l-30 -161h345l-21 -127h-494l3 20q-69 -32 -153 -32q-160 0 -243 81.5t-83 225.5zM202 298q0 -182 167 -182q55 0 98.5 29t67 74t35.5 92 t12 90q0 182 -167 182q-55 0 -98.5 -29t-67 -74t-35.5 -92t-12 -90z" />
<glyph unicode="&#x153;" horiz-adv-x="975" d="M27 227q0 132 76.5 220.5t211.5 88.5q142 0 211 -80q85 80 215 80q95 0 151.5 -41.5t56.5 -109.5q0 -50 -23 -84.5t-67.5 -53t-99 -26t-127.5 -7.5h-54v-6q0 -112 95 -112q62 0 193 62l45 -100q-145 -69 -264 -69q-112 0 -167 65q-75 -65 -187 -65q-125 0 -195.5 62.5 t-70.5 175.5zM172 225q0 -125 117 -125q68 0 107 59.5t39 140.5q0 59 -29 92t-88 33q-68 0 -107 -59.5t-39 -140.5zM590 292h48q83 0 127.5 22t44.5 62q0 26 -20.5 41.5t-53.5 15.5q-53 0 -90.5 -40.5t-55.5 -100.5z" />
<glyph unicode="&#x178;" horiz-adv-x="656" d="M71 700h159l106 -299l210 299h175l-325 -423l-48 -277h-149l48 278zM253 752l20 120h120l-20 -120h-120zM438 752l21 120h121l-21 -120h-121z" />
<glyph unicode="&#x2c6;" horiz-adv-x="295" d="M76 591l128 138h140l81 -138h-93l-62 75l-89 -75h-105z" />
<glyph unicode="&#x2dc;" horiz-adv-x="304" d="M83 636q19 27 27.5 38t25 27.5t33 22.5t36.5 6q29 0 70 -24t56 -24q24 0 60 47l60 -39q-23 -34 -36 -50t-36 -30.5t-49 -14.5q-29 0 -70 24t-56 24q-26 0 -60 -47z" />
<glyph unicode="&#x2000;" horiz-adv-x="478" />
<glyph unicode="&#x2001;" horiz-adv-x="956" />
<glyph unicode="&#x2002;" horiz-adv-x="478" />
<glyph unicode="&#x2003;" horiz-adv-x="956" />
<glyph unicode="&#x2004;" horiz-adv-x="318" />
<glyph unicode="&#x2005;" horiz-adv-x="239" />
<glyph unicode="&#x2006;" horiz-adv-x="159" />
<glyph unicode="&#x2007;" horiz-adv-x="159" />
<glyph unicode="&#x2008;" horiz-adv-x="119" />
<glyph unicode="&#x2009;" horiz-adv-x="191" />
<glyph unicode="&#x200a;" horiz-adv-x="53" />
<glyph unicode="&#x2010;" horiz-adv-x="431" d="M45 226l20 117h315l-20 -117h-315z" />
<glyph unicode="&#x2011;" horiz-adv-x="431" d="M45 226l20 117h315l-20 -117h-315z" />
<glyph unicode="&#x2012;" horiz-adv-x="431" d="M45 226l20 117h315l-20 -117h-315z" />
<glyph unicode="&#x2013;" horiz-adv-x="561" d="M45 227l20 115h443l-20 -115h-443z" />
<glyph unicode="&#x2014;" horiz-adv-x="666" d="M45 227l20 115h548l-19 -115h-549z" />
<glyph unicode="&#x2018;" horiz-adv-x="259" d="M73 395l20 183l146 142l32 -49l-90 -111h67l-27 -165h-148z" />
<glyph unicode="&#x2019;" horiz-adv-x="247" d="M70 424l89 111h-67l28 165h148l-20 -183l-146 -142z" />
<glyph unicode="&#x201a;" horiz-adv-x="264" d="M-17 -111l89 111h-67l28 165h148l-20 -183l-146 -142z" />
<glyph unicode="&#x201c;" horiz-adv-x="482" d="M73 395l20 183l146 142l32 -49l-90 -111h67l-27 -165h-148zM296 395l20 183l146 142l32 -49l-89 -111h67l-28 -165h-148z" />
<glyph unicode="&#x201d;" horiz-adv-x="471" d="M70 424l89 111h-67l28 165h148l-20 -183l-146 -142zM293 424l90 111h-67l28 165h147l-19 -183l-147 -142z" />
<glyph unicode="&#x201e;" horiz-adv-x="488" d="M-17 -111l89 111h-67l28 165h148l-20 -183l-146 -142zM206 -111l90 111h-67l28 165h147l-19 -183l-147 -142z" />
<glyph unicode="&#x2022;" horiz-adv-x="461" d="M69 285q0 66 45.5 112t111.5 46t112.5 -46.5t46.5 -111.5q0 -66 -46.5 -112t-112.5 -46t-111.5 46t-45.5 112z" />
<glyph unicode="&#x2026;" horiz-adv-x="746" d="M5 0l28 165h149l-27 -165h-150zM248 0l28 165h149l-28 -165h-149zM490 0l29 165h148l-28 -165h-149z" />
<glyph unicode="&#x202f;" horiz-adv-x="191" />
<glyph unicode="&#x2039;" horiz-adv-x="384" d="M17 228l14 87l340 212l-24 -145l-205 -122l160 -120l-21 -125z" />
<glyph unicode="&#x203a;" horiz-adv-x="383" d="M3 15l23 146l205 121l-159 120l20 125l264 -212l-14 -87z" />
<glyph unicode="&#x205f;" horiz-adv-x="239" />
<glyph unicode="&#x20ac;" horiz-adv-x="725" d="M30 235l13 78h56q1 32 8 69h-51l13 77h56q39 119 124.5 185.5t194.5 66.5q56 0 113.5 -18.5t91 -37.5t85.5 -53l-80 -105q-62 40 -106 59.5t-88 19.5q-54 0 -97.5 -31.5t-71.5 -85.5h233l-13 -77h-248q-9 -38 -10 -69h245l-14 -78h-229q16 -112 110 -112q77 0 219 77 l63 -118q-179 -93 -316 -93q-100 0 -162 61.5t-70 184.5h-69z" />
<glyph unicode="&#x2122;" horiz-adv-x="632" d="M116 651l7 49h214l-8 -49h-78l-30 -175h-60l31 175h-76zM328 476l39 224h62l47 -128l97 128h62l-38 -224h-60l24 137l-75 -100h-36l-39 104l-24 -141h-59z" />
<glyph unicode="&#xe000;" horiz-adv-x="525" d="M0 0v525h525v-525h-525z" />
</font>
</defs>
</svg>
