<?xml version="1.0" standalone="no"?>
<!DOCTYPE svg PUBLIC "-//W3C//DTD SVG 1.1//EN" "http://www.w3.org/Graphics/SVG/1.1/DTD/svg11.dtd" >
<svg xmlns="http://www.w3.org/2000/svg">
<metadata></metadata>
<defs>
<font id="verb_mediumregular" horiz-adv-x="622" >
<font-face units-per-em="1000" ascent="800" descent="-200" />
<missing-glyph horiz-adv-x="278" />
<glyph unicode="&#xfb01;" horiz-adv-x="616" d="M29 447v78h73v57q0 147 127 147q54 0 131 -29l-27 -76q-58 16 -81 16q-48 0 -48 -54v-61h138v-78h-138v-447h-102v447h-73zM434 620v106h112v-106h-112zM438 0v525h103v-525h-103z" />
<glyph unicode="&#xfb02;" horiz-adv-x="623" d="M29 447v78h73v57q0 147 127 147q54 0 131 -29l-27 -76q-58 16 -81 16q-48 0 -48 -54v-61h138v-78h-138v-447h-102v447h-73zM441 0v729h103v-729h-103z" />
<glyph unicode="&#xfb03;" horiz-adv-x="978" d="M29 447v78h73v57q0 147 129 147q67 0 163 -37l-31 -75q-81 23 -111 23q-48 0 -48 -54v-61h130v-78h-130v-447h-102v447h-73zM391 447v78h73v57q0 147 127 147q54 0 131 -29l-27 -76q-58 16 -81 16q-48 0 -48 -54v-61h138v-78h-138v-447h-102v447h-73zM796 620v106h112 v-106h-112zM800 0v525h103v-525h-103z" />
<glyph unicode="&#xfb04;" horiz-adv-x="985" d="M29 447v78h73v57q0 147 129 147q67 0 163 -37l-31 -75q-81 23 -111 23q-48 0 -48 -54v-61h130v-78h-130v-447h-102v447h-73zM391 447v78h73v57q0 147 127 147q54 0 131 -29l-27 -76q-58 16 -81 16q-48 0 -48 -54v-61h138v-78h-138v-447h-102v447h-73zM803 0v729h104v-729 h-104z" />
<glyph horiz-adv-x="1000" />
<glyph horiz-adv-x="1000" />
<glyph unicode="&#xd;" horiz-adv-x="1000" />
<glyph unicode=" "  horiz-adv-x="278" />
<glyph unicode="&#x09;" horiz-adv-x="278" />
<glyph unicode="&#xa0;" horiz-adv-x="278" />
<glyph unicode="!" horiz-adv-x="271" d="M73 700h125l-31 -485h-63zM79 0v128h114v-128h-114z" />
<glyph unicode="&#x22;" horiz-adv-x="417" d="M59 700h105l-18 -264h-69zM255 700h104l-18 -264h-68z" />
<glyph unicode="#" horiz-adv-x="748" d="M46 172v80h140l31 195h-129v81h141l27 172h83l-27 -172h178l27 172h83l-27 -172h129v-81h-141l-31 -195h129v-80h-141l-27 -172h-82l26 172h-178l-27 -172h-83l27 172h-128zM269 252h179l30 195h-178z" />
<glyph unicode="$" horiz-adv-x="626" d="M44 77l49 79q86 -52 184 -70v228l-22 8q-42 14 -70.5 27.5t-60.5 36.5t-48.5 56.5t-16.5 77.5q0 84 60 135t158 55v91h78v-95q106 -14 201 -63l-49 -79q-69 34 -152 50v-212l15 -5q34 -11 58.5 -21t55.5 -28.5t50.5 -39t33.5 -52.5t14 -70q0 -88 -64 -139.5t-163 -56.5 v-90h-78v93q-126 16 -233 84zM172 526q0 -37 26.5 -58.5t78.5 -39.5v191q-46 -5 -75.5 -28t-29.5 -65zM355 81q49 4 82 29t33 69q0 38 -28.5 62.5t-86.5 46.5v-207z" />
<glyph unicode="%" horiz-adv-x="1000" d="M41 523q0 90 49.5 139t134.5 49q86 0 136 -49t50 -139q0 -89 -50 -138t-136 -49q-85 0 -134.5 49t-49.5 138zM123 523q0 -57 27 -88t75 -31q50 0 77 31t27 88q0 58 -27 89t-77 31q-48 0 -75 -31t-27 -89zM273 0l366 700h85l-366 -700h-85zM587 176q0 90 49.5 139 t135.5 49t135.5 -49t49.5 -139t-49.5 -138.5t-135.5 -48.5t-135.5 48.5t-49.5 138.5zM669 176q0 -57 27 -88t76 -31t76 31t27 88q0 58 -27 89t-76 31t-76 -31t-27 -89z" />
<glyph unicode="&#x26;" horiz-adv-x="707" d="M66 173q0 66 38.5 112t108.5 91q-46 47 -71 87.5t-25 90.5q0 74 55 115.5t131 41.5t126 -42t50 -109q0 -58 -35.5 -102.5t-100.5 -90.5l158 -159q44 77 52 161h105q-16 -124 -89 -229l139 -140h-125l-73 73q-92 -84 -219 -84q-97 0 -161 50.5t-64 133.5zM168 179 q0 -41 32 -75t96 -34q86 0 151 67l-175 179q-50 -36 -77 -68t-27 -69zM213 551q0 -53 74 -127q47 31 72 61t25 68q0 33 -20.5 56.5t-61.5 23.5q-42 0 -65.5 -24t-23.5 -58z" />
<glyph unicode="'" horiz-adv-x="222" d="M59 700h105l-18 -264h-69z" />
<glyph unicode="(" horiz-adv-x="319" d="M74 59v577q0 51 3.5 74.5t21.5 50.5t56.5 44t107.5 34l28 -64q-78 -26 -94 -45.5t-16 -76.5v-610q0 -57 16 -76.5t94 -45.5l-28 -64q-46 12 -78 22.5t-53 25.5t-32.5 27t-17.5 35t-7 40.5t-1 51.5z" />
<glyph unicode=")" horiz-adv-x="319" d="M27 -79q42 14 63.5 23.5t32.5 25t12.5 28.5t1.5 45v610q0 32 -1.5 45t-12.5 28.5t-32.5 25t-63.5 23.5l30 64q55 -14 90 -29t55 -29t29 -39t11 -45t2 -61v-577q0 -34 -1 -51.5t-6.5 -40.5t-17 -35t-32.5 -27t-52.5 -25.5t-77.5 -22.5z" />
<glyph unicode="*" horiz-adv-x="481" d="M54 452l151 54l-150 56l45 78l124 -104l-28 156h90l-27 -155l123 102l45 -78l-149 -54l149 -56l-46 -77l-121 99l26 -152h-90l28 155l-124 -102z" />
<glyph unicode="+" d="M58 293v80h213v190h81v-190h213v-80h-213v-189h-81v189h-213z" />
<glyph unicode="," horiz-adv-x="253" d="M63 -106l57 106h-51v135h111l11 -146l-95 -132z" />
<glyph unicode="-" horiz-adv-x="435" d="M70 241v87h295v-87h-295z" />
<glyph unicode="." horiz-adv-x="251" d="M68 0v135h114v-135h-114z" />
<glyph unicode="/" horiz-adv-x="459" d="M22 -90l332 880h82l-331 -880h-83z" />
<glyph unicode="0" horiz-adv-x="665" d="M59 350q0 174 70 267.5t204 93.5t203 -93.5t69 -267.5t-69 -267.5t-203 -93.5t-204 93.5t-70 267.5zM168 350q0 -276 165 -276q164 0 164 276q0 275 -164 275q-165 0 -165 -275z" />
<glyph unicode="1" horiz-adv-x="384" d="M18 603l176 97h99v-700h-107v596l-124 -65z" />
<glyph unicode="2" horiz-adv-x="594" d="M46 0v60q0 42 13.5 79.5t31 63.5t52.5 56t57 46t67 45q37 24 51.5 34t41 30.5t37.5 34.5t20.5 34t9.5 40q0 43 -33 70t-92 27q-92 0 -187 -63l-50 71q121 83 248 83q103 0 162.5 -51t59.5 -133q0 -45 -17 -82.5t-52 -70.5t-64.5 -54t-78.5 -52q-16 -9 -23 -14 q-68 -44 -99 -78t-31 -85h366v-91h-490z" />
<glyph unicode="3" horiz-adv-x="600" d="M33 66l49 76q107 -62 202 -62q66 0 109 32.5t43 87.5q0 48 -36.5 79.5t-82 42.5t-95.5 11h-30v92h35q71 0 125 27.5t54 80.5q0 41 -31.5 64t-86.5 23q-86 0 -178 -58l-46 69q111 80 239 80q101 0 155.5 -47.5t54.5 -117.5q0 -52 -32.5 -94.5t-95.5 -65.5q70 -19 115 -69 t45 -118q0 -87 -62.5 -148.5t-185.5 -61.5q-81 0 -151 25t-113 52z" />
<glyph unicode="4" horiz-adv-x="645" d="M31 148v78l331 474h140v-461h107v-91h-107v-148h-107v148h-364zM143 239h252v369z" />
<glyph unicode="5" horiz-adv-x="589" d="M42 65l48 80q94 -63 180 -63q66 0 112.5 38.5t46.5 101.5q0 58 -41 98t-112 40q-68 0 -145 -42l-59 35l38 347h400v-91h-313l-15 -182q56 22 117 22q111 0 175 -65.5t64 -161.5t-67 -164.5t-188 -68.5q-120 0 -241 76z" />
<glyph unicode="6" horiz-adv-x="623" d="M56 283q0 101 30.5 183t83 135t121 81.5t145.5 28.5q25 0 49 -2.5t36 -5.5l12 -3l-25 -86q-32 8 -70 8q-92 0 -166.5 -60.5t-97.5 -184.5q67 72 180 72q103 0 163.5 -63t60.5 -158q0 -100 -68.5 -169.5t-183.5 -69.5q-67 0 -120 25t-85 67.5t-48.5 94t-16.5 107.5z M165 273q0 -85 42.5 -140t116.5 -55q70 0 108.5 44t38.5 103q0 58 -36.5 99.5t-106.5 41.5q-57 0 -101 -27.5t-62 -60.5v-5z" />
<glyph unicode="7" horiz-adv-x="517" d="M29 609v91h467v-82q-10 -13 -27.5 -36t-62 -93.5t-78 -140.5t-61.5 -166.5t-28 -181.5h-112q0 78 24.5 167.5t55 156t72.5 137.5t61 98t36 50h-347z" />
<glyph unicode="8" horiz-adv-x="636" d="M49 183q0 124 164 196q-122 62 -122 162q0 77 61.5 123.5t164.5 46.5t165 -46.5t62 -123.5q0 -101 -123 -162q166 -72 166 -196q0 -90 -74.5 -142t-195.5 -52q-120 0 -194 52t-74 142zM158 189q0 -52 45.5 -84t113.5 -32q69 0 114.5 32t45.5 84t-43.5 86t-116.5 62 q-73 -27 -116 -61.5t-43 -86.5zM196 532q0 -71 121 -115q33 12 56.5 24t44.5 36.5t21 54.5q0 40 -34 68.5t-88 28.5q-53 0 -87 -29t-34 -68z" />
<glyph unicode="9" horiz-adv-x="623" d="M44 472q0 100 69 169.5t184 69.5q131 0 200 -86.5t70 -207.5q0 -101 -30.5 -183t-83 -135t-121.5 -81.5t-146 -28.5q-25 0 -49 2.5t-36 5.5l-12 3l26 86q31 -8 70 -8q92 0 166 60t98 184q-71 -71 -181 -71q-102 0 -163 63t-61 158zM152 475q0 -58 36.5 -99.5t106.5 -41.5 q58 0 101.5 27.5t61.5 61.5v4q0 85 -42.5 140t-116.5 55q-70 0 -108.5 -44t-38.5 -103z" />
<glyph unicode=":" horiz-adv-x="259" d="M72 0v135h114v-135h-114zM72 332v135h114v-135h-114z" />
<glyph unicode=";" horiz-adv-x="270" d="M72 -106l57 106h-51v135h111l11 -146l-95 -132zM78 332v135h113v-135h-113z" />
<glyph unicode="&#x3c;" d="M44 297v74l506 208v-93l-395 -153l395 -153v-92z" />
<glyph unicode="=" d="M58 202v81h507v-81h-507zM58 386v80h507v-80h-507z" />
<glyph unicode="&#x3e;" d="M72 88v92l394 153l-394 153v93l505 -208v-74z" />
<glyph unicode="?" horiz-adv-x="522" d="M34 635q109 76 231 76q91 0 152.5 -46.5t61.5 -127.5q0 -148 -223 -207l-6 -115h-70l-8 173q103 22 151.5 51.5t48.5 83.5q0 44 -34 70.5t-88 26.5q-78 0 -168 -57zM158 0v128h113v-128h-113z" />
<glyph unicode="@" horiz-adv-x="966" d="M53 253q0 189 120.5 311t323.5 122q201 0 311 -119t111 -313q0 -122 -49.5 -200.5t-144.5 -78.5q-66 0 -95.5 36t-34.5 83q-78 -71 -167 -71q-63 0 -106.5 37t-43.5 111t44.5 112.5t112.5 38.5q23 0 50 -4t68 -12l41 -9v51q0 50 -20 71.5t-72 21.5q-67 0 -163 -40l-31 59 q116 46 206 46q79 0 119 -37t40 -118v-193q0 -30 1.5 -47.5t7.5 -38.5t20.5 -31t37.5 -10q49 0 90 55t41 170q0 169 -96 276.5t-279 107.5q-185 0 -289.5 -110.5t-104.5 -276.5t102 -276t267 -110q54 0 102 11t69 22l20 11l30 -37q-9 -6 -25.5 -15t-74 -23.5t-122.5 -14.5 q-186 0 -301.5 123t-115.5 309zM359 175q0 -44 25 -65.5t65 -21.5q73 0 145 67v96q-8 1 -36 6.5t-52 9t-44 3.5q-53 0 -78 -27t-25 -68z" />
<glyph unicode="A" horiz-adv-x="694" d="M20 0l268 700h117l269 -700h-117l-56 160h-309l-56 -160h-116zM222 247h249l-125 357z" />
<glyph unicode="B" horiz-adv-x="680" d="M89 0v700h256q120 0 184 -44t64 -127q0 -67 -38 -108.5t-80 -48.5q24 -3 48.5 -14t50 -31.5t42 -57t16.5 -82.5q0 -88 -61 -137.5t-179 -49.5h-303zM196 85h180q74 0 112 32t38 87q0 123 -181 123h-149v-242zM196 408h142q68 0 108.5 26t40.5 79q0 48 -36 75t-109 27 h-146v-207z" />
<glyph unicode="C" horiz-adv-x="650" d="M57 350q0 179 78.5 270t201.5 91q71 0 137 -27.5t142 -74.5l-54 -78q-135 83 -215 83q-81 0 -130 -70.5t-49 -193.5t49 -193.5t130 -70.5q80 0 215 83l54 -78q-76 -47 -142 -74.5t-137 -27.5q-123 0 -201.5 91t-78.5 270z" />
<glyph unicode="D" horiz-adv-x="711" d="M89 0v700h227q338 0 338 -350t-338 -350h-227zM196 92h112q122 0 179 60.5t57 197.5t-57 197.5t-179 60.5h-112v-516z" />
<glyph unicode="E" horiz-adv-x="606" d="M89 0v700h459v-92h-352v-213h290v-90h-290v-213h358v-92h-465z" />
<glyph unicode="F" horiz-adv-x="577" d="M89 0v700h459v-92h-352v-213h281v-91h-281v-304h-107z" />
<glyph unicode="G" horiz-adv-x="707" d="M57 350q0 179 79 270t203 91q127 0 291 -107l-54 -79q-47 28 -71.5 42t-71 30.5t-84.5 16.5q-82 0 -131.5 -70.5t-49.5 -193.5t48.5 -196t132.5 -73q85 0 189 95v125h-184v87h287v-388h-103v78q-104 -89 -208 -89q-117 0 -195 91.5t-78 269.5z" />
<glyph unicode="H" horiz-adv-x="719" d="M89 0v700h107v-288h326v288h108v-700h-108v322h-326v-322h-107z" />
<glyph unicode="I" horiz-adv-x="285" d="M89 0v700h107v-700h-107z" />
<glyph unicode="J" horiz-adv-x="286" d="M-28 -76q60 19 83.5 34t28.5 31t5 57v654h108v-649q0 -28 -0.5 -41t-2.5 -34t-7 -31t-14 -25t-22.5 -23t-33.5 -18.5t-46.5 -18.5t-62.5 -17z" />
<glyph unicode="K" horiz-adv-x="669" d="M89 0v700h107v-375l312 375h127l-284 -335l309 -365h-129l-244 290l-91 -109v-181h-107z" />
<glyph unicode="L" horiz-adv-x="561" d="M89 0v700h107v-608h341v-92h-448z" />
<glyph unicode="M" horiz-adv-x="848" d="M89 0v700h111l224 -466l223 466h112v-700h-107v526l-196 -409h-64l-196 408v-525h-107z" />
<glyph unicode="N" horiz-adv-x="735" d="M89 0v700h110l339 -541v541h108v-700h-110l-340 541v-541h-107z" />
<glyph unicode="O" horiz-adv-x="747" d="M56 350q0 77 17.5 141t54.5 114t99.5 78t145.5 28q163 0 240.5 -99.5t77.5 -261.5q0 -161 -77.5 -261t-240.5 -100q-162 0 -239.5 100t-77.5 261zM167 350q0 -268 206 -268q207 0 207 268q0 123 -49 195.5t-158 72.5t-157.5 -72.5t-48.5 -195.5z" />
<glyph unicode="P" horiz-adv-x="653" d="M89 0v700h263q267 0 267 -218t-267 -218h-156v-264h-107zM196 354h154q160 0 160 128q0 127 -160 127h-154v-255z" />
<glyph unicode="Q" horiz-adv-x="747" d="M56 350q0 77 17.5 141t54.5 114t99.5 78t145.5 28q163 0 240.5 -99.5t77.5 -261.5q0 -128 -49.5 -219.5t-151.5 -124.5l114 -91l-72 -74l-159 148q-162 0 -239.5 100t-77.5 261zM167 350q0 -268 206 -268q207 0 207 268q0 123 -49 195.5t-158 72.5t-157.5 -72.5 t-48.5 -195.5z" />
<glyph unicode="R" horiz-adv-x="692" d="M89 0v700h284q269 0 269 -206q0 -172 -186 -201l187 -293h-118l-177 288h-152v-288h-107zM196 375h172q164 0 164 119t-160 119h-176v-238z" />
<glyph unicode="S" horiz-adv-x="621" d="M41 77l49 79q51 -30 119.5 -53t123.5 -23q56 0 95 25.5t39 73.5q0 13 -3 24t-11 21t-15 18t-22 16t-25 13.5t-31 13.5t-33 12l-37.5 12.5t-38.5 13.5q-41 14 -69.5 27t-60.5 36t-48.5 56.5t-16.5 77.5q0 87 65 139t168 52q132 0 264 -68l-49 -79q-47 23 -106.5 39.5 t-103.5 16.5q-53 0 -89.5 -23.5t-36.5 -70.5q0 -19 8 -34t19 -25t33.5 -20.5t38.5 -16t49 -16.5l51 -17q34 -11 58.5 -21t55.5 -28.5t50.5 -39t33.5 -52.5t14 -70q0 -92 -69.5 -144.5t-174.5 -52.5q-77 0 -157 26.5t-137 61.5z" />
<glyph unicode="T" horiz-adv-x="583" d="M22 608v92h538v-92h-215v-608h-107v608h-216z" />
<glyph unicode="U" horiz-adv-x="709" d="M83 265v435h107v-441q0 -84 35.5 -130.5t129.5 -46.5t129 46.5t35 130.5v441h108v-435q0 -128 -61.5 -202t-210.5 -74q-78 0 -132.5 21t-84 60t-42.5 86.5t-13 108.5z" />
<glyph unicode="V" horiz-adv-x="691" d="M18 700h123l204 -587l205 587h122l-268 -700h-117z" />
<glyph unicode="W" horiz-adv-x="951" d="M28 700h121l135 -565l145 565h94l145 -565l136 565h121l-195 -700h-111l-143 547l-143 -547h-111z" />
<glyph unicode="X" horiz-adv-x="636" d="M16 0l239 350l-227 350h124l165 -285l166 285h124l-227 -350l239 -350h-128l-174 278l-173 -278h-128z" />
<glyph unicode="Y" horiz-adv-x="645" d="M14 700h121l188 -338l187 338h121l-255 -423v-277h-107v277z" />
<glyph unicode="Z" horiz-adv-x="627" d="M39 0v84l401 524h-379v92h516v-84l-402 -524h407v-92h-543z" />
<glyph unicode="[" horiz-adv-x="349" d="M81 -144v983h237v-67h-129v-848h129v-68h-237z" />
<glyph unicode="\" horiz-adv-x="459" d="M22 790h82l332 -880h-82z" />
<glyph unicode="]" horiz-adv-x="349" d="M30 -76h130v848h-130v67h237v-983h-237v68z" />
<glyph unicode="^" d="M68 340l189 360h105l190 -360h-113l-129 268l-130 -268h-112z" />
<glyph unicode="_" horiz-adv-x="708" d="M70 -79h569v-76h-569v76z" />
<glyph unicode="`" horiz-adv-x="221" d="M-17 729h130l124 -133h-85z" />
<glyph unicode="a" horiz-adv-x="583" d="M41 158q0 83 52.5 127t132.5 44q27 0 60 -4.5t78 -13.5t46 -9v53q0 53 -23 76.5t-82 23.5q-63 0 -194 -43l-35 74q141 50 245 50q97 0 144.5 -42.5t47.5 -138.5v-355h-103v67q-84 -78 -192 -78q-74 0 -125.5 43.5t-51.5 125.5zM146 165q0 -93 101 -93q83 0 163 70v103 q-115 21 -147 21q-61 0 -89 -27.5t-28 -73.5z" />
<glyph unicode="b" horiz-adv-x="610" d="M75 0v729h103v-269q86 76 182 76q91 0 146.5 -68.5t55.5 -205.5q0 -136 -55.5 -204.5t-146.5 -68.5q-97 0 -182 75v-64h-103zM178 152q69 -78 157 -78q60 0 91 49t31 139t-31 139.5t-91 49.5q-87 0 -157 -79v-220z" />
<glyph unicode="c" horiz-adv-x="522" d="M47 263q0 131 67 202t164 71q83 0 211 -67l-45 -77q-2 1 -17 9t-23.5 12.5t-25 11.5t-29 11t-29 7.5t-30.5 3.5q-60 0 -98.5 -50t-38.5 -134t38.5 -134.5t98.5 -50.5q14 0 30.5 3.5t29 7.5t29 11t25 11.5t23.5 12.5t17 9l45 -77q-122 -67 -211 -67q-97 0 -164 71t-67 203 z" />
<glyph unicode="d" horiz-adv-x="610" d="M48 262q0 137 55.5 205.5t146.5 68.5q98 0 182 -76v269h103v-729h-103v64q-85 -75 -182 -75q-91 0 -146.5 68.5t-55.5 204.5zM153 262q0 -90 31 -139t91 -49q86 0 157 78v220q-72 79 -157 79q-60 0 -91 -49.5t-31 -139.5z" />
<glyph unicode="e" horiz-adv-x="577" d="M47 262q0 130 68.5 202t181.5 72q111 0 171 -63t60 -166q0 -17 -2 -34.5t-4 -26.5l-1 -8h-367q5 -79 42 -124t97 -45q71 0 195 68l44 -66q-39 -23 -63.5 -35.5t-79.5 -29.5t-104 -17q-103 0 -170.5 70.5t-67.5 202.5zM154 300h272q1 80 -32.5 119.5t-96.5 39.5 q-61 0 -98 -42t-45 -117z" />
<glyph unicode="f" horiz-adv-x="363" d="M29 447v78h73v57q0 147 129 147q67 0 163 -37l-37 -75q-73 23 -105 23q-48 0 -48 -54v-61h138v-78h-138v-447h-102v447h-73z" />
<glyph unicode="g" horiz-adv-x="610" d="M48 262q0 137 55.5 205.5t146.5 68.5q98 0 182 -76v65h103v-546q0 -193 -209 -193q-118 0 -254 39l21 85q134 -39 216 -39q64 0 93.5 24t29.5 80v89q-85 -75 -182 -75q-91 0 -146.5 68.5t-55.5 204.5zM153 262q0 -90 31 -139t91 -49q86 0 157 78v220q-72 79 -157 79 q-60 0 -91 -49.5t-31 -139.5z" />
<glyph unicode="h" horiz-adv-x="613" d="M75 0v729h103v-274q115 81 212 81q152 0 152 -163v-373h-103v352q0 101 -83 101q-45 0 -95.5 -25.5t-82.5 -54.5v-373h-103z" />
<glyph unicode="i" horiz-adv-x="253" d="M71 620v106h112v-106h-112zM74 0v525h103v-525h-103z" />
<glyph unicode="j" horiz-adv-x="253" d="M-42 -140q46 15 68 24t34 25t13.5 29t1.5 47v540h104v-534q0 -32 -0.5 -46.5t-3.5 -37.5t-10.5 -33.5t-20.5 -26t-33.5 -24.5t-49.5 -19.5t-69 -20.5zM71 620v106h112v-106h-112z" />
<glyph unicode="k" horiz-adv-x="541" d="M75 0v729h103v-460l204 256h118l-178 -210l210 -315h-110l-162 240l-82 -97v-143h-103z" />
<glyph unicode="l" horiz-adv-x="260" d="M79 0v729h103v-729h-103z" />
<glyph unicode="m" horiz-adv-x="925" d="M75 0v525h103v-74q92 85 189 85q111 0 139 -95q36 35 89.5 65t110.5 30q148 0 148 -163v-373h-103v352q0 101 -79 101q-41 0 -83.5 -26t-73.5 -59v-368h-102v352q0 101 -80 101q-75 0 -155 -82v-371h-103z" />
<glyph unicode="n" horiz-adv-x="613" d="M75 0v525h103v-70q115 81 212 81q152 0 152 -163v-373h-103v352q0 101 -83 101q-45 0 -95.5 -25.5t-82.5 -54.5v-373h-103z" />
<glyph unicode="o" horiz-adv-x="605" d="M47 262q0 130 66 202t189 72t189 -72.5t66 -201.5t-66 -201t-189 -72t-189 72t-66 201zM152 262q0 -191 150 -191t150 191q0 192 -150 192t-150 -192z" />
<glyph unicode="p" horiz-adv-x="610" d="M75 -204v729h103v-65q84 76 182 76q91 0 146.5 -68.5t55.5 -205.5q0 -136 -55.5 -204.5t-146.5 -68.5q-97 0 -182 75v-268h-103zM178 152q69 -78 157 -78q60 0 91 49t31 139t-31 139.5t-91 49.5q-87 0 -157 -79v-220z" />
<glyph unicode="q" horiz-adv-x="610" d="M48 262q0 137 55.5 205.5t146.5 68.5q98 0 182 -76v65h103v-729h-103v268q-85 -75 -182 -75q-91 0 -146.5 68.5t-55.5 204.5zM153 262q0 -90 31 -139t91 -49q86 0 157 78v220q-72 79 -157 79q-60 0 -91 -49.5t-31 -139.5z" />
<glyph unicode="r" horiz-adv-x="398" d="M75 0v525h103v-111q5 13 16 29.5t33.5 40t61.5 37t87 10.5v-98q-50 0 -88.5 -17t-58.5 -41.5t-32.5 -49t-15.5 -41.5l-3 -17v-267h-103z" />
<glyph unicode="s" horiz-adv-x="519" d="M38 54l44 76q43 -23 99.5 -41t97.5 -18t70 17t29 46q0 25 -24.5 44t-46 26.5t-67.5 19.5q-9 3 -14 4q-37 10 -63.5 20.5t-55 28.5t-43.5 46t-15 65q0 68 52 108t139 40q107 0 219 -54l-44 -71q-98 44 -171 44q-41 0 -66.5 -16.5t-25.5 -45.5q0 -12 4 -22t14 -17.5t18 -13 t25 -11.5t25.5 -8.5t28.5 -8t25 -6.5q91 -23 140 -61.5t49 -105.5q0 -72 -55 -111t-142 -39q-125 0 -246 65z" />
<glyph unicode="t" horiz-adv-x="396" d="M31 447v78h73v132l102 20v-152h144v-78h-144v-314q0 -54 48 -54q35 0 94 26l38 -77q-81 -39 -153 -39q-129 0 -129 147v311h-73z" />
<glyph unicode="u" horiz-adv-x="613" d="M71 152v373h103v-352q0 -101 84 -101q44 0 94.5 25t82.5 54v374h103v-525h-103v70q-111 -81 -213 -81q-151 0 -151 163z" />
<glyph unicode="v" horiz-adv-x="565" d="M22 525h112l148 -419l149 419h113l-211 -525h-101z" />
<glyph unicode="w" horiz-adv-x="822" d="M27 525h110l110 -418l120 418h90l120 -418l110 418h109l-164 -525h-99l-121 402l-121 -402h-100z" />
<glyph unicode="x" horiz-adv-x="584" d="M14 0l216 264l-204 261h120l146 -204l146 204h121l-205 -261l217 -264h-125l-154 208l-153 -208h-125z" />
<glyph unicode="y" horiz-adv-x="565" d="M22 525h112l149 -403l148 403h113l-293 -729h-112l92 206z" />
<glyph unicode="z" horiz-adv-x="526" d="M40 0v76l310 363h-300v86h432v-76l-309 -363h309v-86h-442z" />
<glyph unicode="{" horiz-adv-x="394" d="M22 309v78q114 0 97 119l-13 93q-16 117 46 178.5t195 61.5h18v-66h-18q-153 0 -133 -161l12 -87q10 -78 -19 -120.5t-96 -56.5q67 -15 96 -57.5t19 -119.5l-12 -87q-20 -161 133 -161h18v-66h-18q-133 0 -195 61.5t-46 178.5l13 93q17 119 -97 119z" />
<glyph unicode="|" horiz-adv-x="244" d="M82 -123v941h79v-941h-79z" />
<glyph unicode="}" horiz-adv-x="394" d="M30 -77h19q153 0 131 161l-11 87q-10 77 18.5 119.5t95.5 57.5q-134 27 -114 177l11 87q10 70 -19 115.5t-112 45.5h-19v66h19q132 0 193.5 -61.5t45.5 -178.5l-12 -93q-17 -119 97 -119v-78q-113 0 -96 -119l12 -93q16 -117 -46 -178.5t-194 -61.5h-19v66z" />
<glyph unicode="~" d="M29 225q58 129 162 129q51 0 127 -37t115 -37q56 0 93 67l65 -27q-57 -128 -162 -128q-51 0 -127 37t-115 37q-26 0 -47.5 -13.5t-44.5 -53.5z" />
<glyph unicode="&#xa1;" horiz-adv-x="271" d="M73 0l30 485h64l31 -485h-125zM79 572v128h114v-128h-114z" />
<glyph unicode="&#xa2;" horiz-adv-x="560" d="M55 351q0 126 61.5 196t153.5 76v77h78v-83q67 -15 160 -67l-45 -76q-2 1 -26.5 14.5t-46 23t-42.5 15.5v-354q43 12 115 54l45 -76q-96 -54 -160 -67v-84h-78v77q-92 6 -153.5 77t-61.5 197zM161 351q0 -73 30 -122t79 -60v363q-50 -11 -79.5 -59.5t-29.5 -121.5z" />
<glyph unicode="&#xa3;" horiz-adv-x="564" d="M58 0v75q5 3 12.5 8t27.5 23t36 38t29.5 50.5t15.5 61.5h-110v68h100q-9 25 -32.5 62.5t-39.5 74.5t-16 78q0 78 54 125t147 47q46 0 94.5 -14t74.5 -26.5t66 -34.5l-50 -72q-105 56 -169 56q-52 0 -81 -27.5t-29 -68.5q0 -38 39 -101t48 -99h163v-68h-158 q-5 -52 -33 -98t-53 -67h311v-91h-447z" />
<glyph unicode="&#xa5;" horiz-adv-x="683" d="M33 700h121l188 -338l187 338h121l-205 -340h140v-67h-181l-9 -16v-50h190v-67h-190v-160h-107v160h-190v67h190v50l-10 16h-180v67h140z" />
<glyph unicode="&#xa6;" horiz-adv-x="246" d="M83 -123v413h79v-413h-79zM83 405v413h79v-413h-79z" />
<glyph unicode="&#xa7;" horiz-adv-x="558" d="M53 323q0 86 93 119q-73 43 -73 121q0 68 52.5 108t139.5 40q107 0 217 -54l-44 -71q-96 44 -172 44q-41 0 -66 -16t-25 -45q0 -9 2.5 -17t8.5 -15t11.5 -12.5t16 -10.5t17.5 -8t21 -7.5t21 -6t22.5 -6t21.5 -5.5q90 -24 139.5 -61t49.5 -103q0 -88 -94 -121 q73 -43 73 -120q0 -68 -52 -108t-139 -40q-108 0 -218 54l44 71q98 -44 172 -44q41 0 65.5 16.5t24.5 44.5q0 12 -4 22.5t-14.5 18.5t-18 13t-25 11t-24.5 8.5t-28.5 7.5t-25.5 6q-189 49 -189 166zM152 333q0 -19 11.5 -34.5t33 -25.5t39.5 -16.5t44 -13t34 -9.5 q43 5 68 24t25 47q0 7 -1.5 13.5t-10.5 19t-24.5 23t-47 22.5t-73.5 20l-6 1q-43 -4 -67.5 -23.5t-24.5 -47.5z" />
<glyph unicode="&#xa8;" horiz-adv-x="237" d="M-15 606v101h94v-101h-94zM158 606v101h93v-101h-93z" />
<glyph unicode="&#xa9;" horiz-adv-x="825" d="M56 350q0 157 95 259t262 102t261.5 -102t94.5 -259t-94.5 -259t-261.5 -102t-262 102t-95 259zM96 350q0 -141 84 -232t232 -91q149 0 233.5 91t84.5 232t-84.5 232t-233.5 91q-148 0 -232 -91t-84 -232zM232 349q0 104 50 161t124 57q79 0 167 -62l-31 -36 q-69 54 -134 54q-56 0 -90 -47.5t-34 -126.5q0 -78 34 -125t90 -47q64 0 134 52l31 -35q-88 -62 -167 -62q-74 0 -124 57t-50 160z" />
<glyph unicode="&#xaa;" horiz-adv-x="423" d="M49 481q0 49 33.5 75.5t85.5 26.5q33 0 113 -16v28q0 28 -14 41t-49 13q-38 0 -122 -24l-24 52q95 30 158 30q64 0 95 -27t31 -87v-208h-75v39q-52 -46 -119 -46q-48 0 -80.5 27t-32.5 76zM126 486q0 -49 59 -49q50 0 96 38v53q-63 12 -86 12q-69 0 -69 -54z" />
<glyph unicode="&#xab;" horiz-adv-x="685" d="M35 244v65l305 219v-101l-216 -151l216 -150v-100zM320 244v65l306 219v-101l-216 -151l216 -150v-100z" />
<glyph unicode="&#xac;" d="M18 293v80h581v-283h-88v203h-493z" />
<glyph unicode="&#xad;" horiz-adv-x="435" d="M70 241v87h295v-87h-295z" />
<glyph unicode="&#xae;" horiz-adv-x="503" d="M54 500q0 87 53 143.5t145 56.5t144.5 -56.5t52.5 -143.5t-52.5 -143.5t-144.5 -56.5t-145 56.5t-53 143.5zM90 500q0 -74 41.5 -120.5t120.5 -46.5t120 46.5t41 120.5t-41 120.5t-120 46.5t-120.5 -46.5t-41.5 -120.5zM178 402v201h93q31 0 49.5 -16t18.5 -42 q0 -20 -14 -35.5t-36 -20.5l47 -87h-37l-44 85h-44v-85h-33zM211 518h59q35 0 35 27q0 28 -33 28h-61v-55z" />
<glyph unicode="&#xaf;" horiz-adv-x="297" d="M0 621v66h297v-66h-297z" />
<glyph unicode="&#xb0;" horiz-adv-x="432" d="M46 531q0 70 50.5 120t120.5 50t120 -50t50 -120t-50 -120.5t-120 -50.5q-71 0 -121 50t-50 121zM111 531q0 -44 31 -75t75 -31t74.5 31t30.5 75q0 43 -31 74t-74 31q-44 0 -75 -30.5t-31 -74.5z" />
<glyph unicode="&#xb1;" d="M58 0v71h507v-71h-507zM58 300v80h210v154h82v-154h215v-80h-215v-155h-82v155h-210z" />
<glyph unicode="&#xb2;" horiz-adv-x="397" d="M35 385v39q0 31 10.5 56.5t34 47.5t42 35.5t52.5 34.5q69 43 85 61q15 17 15 36q0 23 -19.5 37.5t-54.5 14.5q-57 0 -117 -39l-36 51q84 53 163 53q67 0 105 -32t38 -82q0 -23 -10 -44.5t-20 -35t-36.5 -32t-36.5 -24.5t-43 -25q-41 -24 -60 -43t-19 -44h226v-65h-319z " />
<glyph unicode="&#xb3;" horiz-adv-x="397" d="M26 428l36 53q67 -38 129 -38q39 0 63.5 17.5t24.5 46.5q0 38 -40 54.5t-90 16.5h-21v65h24q42 0 75 14.5t33 43.5q0 22 -17.5 34t-49.5 12q-51 0 -114 -35l-32 49q11 9 29 19t54.5 21t73.5 11q65 0 100 -29t35 -72q0 -66 -78 -94q43 -12 70 -41.5t27 -69.5 q0 -53 -39.5 -90.5t-118.5 -37.5q-87 0 -174 50z" />
<glyph unicode="&#xb4;" horiz-adv-x="221" d="M-17 596l124 133h130l-168 -133h-86z" />
<glyph unicode="&#xb5;" horiz-adv-x="614" d="M82 -204v729h103v-352q0 -101 83 -101q45 0 95.5 25t82.5 54v374h103v-525h-103v70q-111 -81 -213 -81q-25 0 -48 5v-198h-103z" />
<glyph unicode="&#xb6;" horiz-adv-x="667" d="M36 477q0 111 67 167t191 56h89v-885h-91v438q-116 0 -186 57t-70 167zM484 -186v886h91v-886h-91z" />
<glyph unicode="&#xb7;" horiz-adv-x="254" d="M70 217v135h114v-135h-114z" />
<glyph unicode="&#xb8;" horiz-adv-x="176" d="M-6 -156l24 57q27 -13 50 -13q53 0 53 43q0 16 -7.5 33.5t-15.5 27.5l-7 10h50q41 -42 41 -92q0 -41 -29.5 -63t-76.5 -22q-43 0 -82 19z" />
<glyph unicode="&#xb9;" horiz-adv-x="267" d="M16 744l114 61h74v-420h-79v346l-77 -38z" />
<glyph unicode="&#xba;" horiz-adv-x="428" d="M49 542q0 78 42.5 121.5t122.5 43.5q79 0 121.5 -43.5t42.5 -121.5t-42.5 -121t-121.5 -43t-122 43.5t-43 120.5zM125 542q0 -105 89 -105q88 0 88 105q0 106 -88 106q-89 0 -89 -106z" />
<glyph unicode="&#xbb;" horiz-adv-x="685" d="M59 26v101l216 149l-216 151v100l306 -218v-65zM345 26v101l216 149l-216 151v100l305 -218v-65z" />
<glyph unicode="&#xbc;" horiz-adv-x="840" d="M29 639l114 61h74v-420h-79v346l-77 -38zM167 0l332 700h83l-332 -700h-83zM422 85v55l205 280h104v-271h68v-64h-68v-85h-79v85h-230zM503 149h149v208z" />
<glyph unicode="&#xbd;" horiz-adv-x="859" d="M29 639l114 61h74v-420h-79v346l-77 -38zM167 0l332 700h83l-332 -700h-83zM486 0v39q0 31 10.5 56.5t34 47.5t42 35.5t52.5 34.5q69 43 85 61q15 18 15 36q0 23 -19.5 37.5t-54.5 14.5q-57 0 -117 -39l-36 51q84 53 163 53q67 0 105 -32t38 -82q0 -27 -11.5 -50.5 t-32.5 -42t-42.5 -32.5t-48.5 -30q-7 -4 -11 -6q-40 -24 -59.5 -43t-19.5 -44h225v-65h-318z" />
<glyph unicode="&#xbe;" horiz-adv-x="946" d="M41 323l36 53q67 -38 129 -38q39 0 63.5 17.5t24.5 46.5q0 38 -40 54.5t-90 16.5h-21v65h24q42 0 75 14.5t33 43.5q0 46 -68 46q-51 0 -113 -35l-32 49q11 9 29 19t54.5 21t73.5 11q65 0 100 -29t35 -72q0 -66 -78 -94q43 -12 70 -42t27 -69q0 -53 -39.5 -90.5 t-118.5 -37.5q-91 0 -174 50zM276 0l332 700h83l-332 -700h-83zM530 85v55l206 280h103v-271h68v-64h-68v-85h-78v85h-231zM612 149h149v208z" />
<glyph unicode="&#xbf;" horiz-adv-x="521" d="M43 163q0 149 222 207l7 115h71l7 -173q-103 -22 -151 -51.5t-48 -83.5q0 -45 33 -71t88 -26q76 0 168 57l48 -73q-111 -75 -232 -75q-90 0 -151.5 46.5t-61.5 127.5zM250 572v128h114v-128h-114z" />
<glyph unicode="&#xc0;" horiz-adv-x="694" d="M20 0l268 700h117l269 -700h-117l-56 160h-309l-56 -160h-116zM179 880h130l124 -133h-85zM222 247h249l-125 357z" />
<glyph unicode="&#xc1;" horiz-adv-x="694" d="M20 0l268 700h117l269 -700h-117l-56 160h-309l-56 -160h-116zM222 247h249l-125 357zM261 747l123 133h130l-167 -133h-86z" />
<glyph unicode="&#xc2;" horiz-adv-x="694" d="M20 0l268 700h117l269 -700h-117l-56 160h-309l-56 -160h-116zM190 747l101 133h111l102 -133h-75l-82 82l-82 -82h-75zM222 247h249l-125 357z" />
<glyph unicode="&#xc3;" horiz-adv-x="694" d="M20 0l268 700h117l269 -700h-117l-56 160h-309l-56 -160h-116zM180 780q16 31 26.5 46.5t29.5 29.5t43 14q29 0 73 -24t58 -24q25 0 50 46l52 -23q-22 -45 -43.5 -68t-55.5 -23q-28 0 -72 24t-58 24q-13 0 -24 -9t-27 -37zM222 247h249l-125 357z" />
<glyph unicode="&#xc4;" horiz-adv-x="694" d="M20 0l268 700h117l269 -700h-117l-56 160h-309l-56 -160h-116zM214 759v100h94v-100h-94zM222 247h249l-125 357zM387 759v100h93v-100h-93z" />
<glyph unicode="&#xc5;" horiz-adv-x="694" d="M20 0l268 700h117l269 -700h-117l-56 160h-309l-56 -160h-116zM222 247h249l-125 357zM242 844q0 44 31 75.5t75 31.5t75.5 -31.5t31.5 -75.5t-31.5 -75.5t-75.5 -31.5t-75 31.5t-31 75.5zM296 844q0 -22 15 -37t37 -15t37 15t15 37t-15 37t-37 15t-37 -15t-15 -37z" />
<glyph unicode="&#xc6;" horiz-adv-x="1025" d="M-14 0l479 700h502v-92h-352v-213h291v-90h-291v-213h359v-92h-467v160h-288l-106 -160h-127zM278 249h229v345z" />
<glyph unicode="&#xc7;" horiz-adv-x="650" d="M57 350q0 179 78.5 270t201.5 91q71 0 137 -27.5t142 -74.5l-54 -78q-135 83 -215 83q-81 0 -130 -70.5t-49 -193.5t49 -193.5t130 -70.5q80 0 215 83l54 -78q-140 -89 -244 -100q32 -40 32 -81t-29.5 -63t-76.5 -22q-45 0 -82 19l23 57q27 -13 50 -13q53 0 53 43 q0 24 -20 59q-117 6 -191 96.5t-74 263.5z" />
<glyph unicode="&#xc8;" horiz-adv-x="606" d="M89 0v700h459v-92h-352v-213h290v-90h-290v-213h358v-92h-465zM155 880h129l124 -133h-86z" />
<glyph unicode="&#xc9;" horiz-adv-x="606" d="M89 0v700h459v-92h-352v-213h290v-90h-290v-213h358v-92h-465zM236 747l123 133h130l-168 -133h-85z" />
<glyph unicode="&#xca;" horiz-adv-x="606" d="M89 0v700h459v-92h-352v-213h290v-90h-290v-213h358v-92h-465zM165 747l101 133h110l102 -133h-75l-82 82l-81 -82h-75z" />
<glyph unicode="&#xcb;" horiz-adv-x="606" d="M89 0v700h459v-92h-352v-213h290v-90h-290v-213h358v-92h-465zM188 757v101h94v-101h-94zM361 757v101h93v-101h-93z" />
<glyph unicode="&#xcc;" horiz-adv-x="285" d="M-25 880h130l124 -133h-86zM89 0v700h107v-700h-107z" />
<glyph unicode="&#xcd;" horiz-adv-x="285" d="M57 747l124 133h130l-168 -133h-86zM89 0v700h108v-700h-108z" />
<glyph unicode="&#xce;" horiz-adv-x="285" d="M-14 747l102 133h110l102 -133h-75l-82 82l-81 -82h-76zM89 0v700h108v-700h-108z" />
<glyph unicode="&#xcf;" horiz-adv-x="285" d="M10 757v100h94v-100h-94zM89 0v700h108v-700h-108zM183 757v100h93v-100h-93z" />
<glyph unicode="&#xd0;" horiz-adv-x="720" d="M24 307v86h75v307h227q337 0 337 -350t-337 -350h-227v307h-75zM207 92h111q122 0 179 60.5t57 197.5t-57 197.5t-179 60.5h-111v-215h160v-86h-160v-215z" />
<glyph unicode="&#xd1;" horiz-adv-x="735" d="M89 0v700h110l339 -541v541h108v-700h-110l-340 541v-541h-107zM207 783q23 46 44 68.5t55 22.5q28 0 72 -24t58 -24q13 0 24 9t27 37l52 -24q-23 -46 -44 -68.5t-55 -22.5q-28 0 -73 24.5t-58 24.5q-25 0 -51 -46z" />
<glyph unicode="&#xd2;" horiz-adv-x="747" d="M56 350q0 77 17.5 141t54.5 114t99.5 78t145.5 28q163 0 240.5 -99.5t77.5 -261.5q0 -161 -77.5 -261t-240.5 -100q-162 0 -239.5 100t-77.5 261zM167 350q0 -268 206 -268q207 0 207 268q0 123 -49 195.5t-158 72.5t-157.5 -72.5t-48.5 -195.5zM206 880h130l123 -133 h-85z" />
<glyph unicode="&#xd3;" horiz-adv-x="747" d="M56 350q0 77 17.5 141t54.5 114t99.5 78t145.5 28q163 0 240.5 -99.5t77.5 -261.5q0 -161 -77.5 -261t-240.5 -100q-162 0 -239.5 100t-77.5 261zM167 350q0 -268 206 -268q207 0 207 268q0 123 -49 195.5t-158 72.5t-157.5 -72.5t-48.5 -195.5zM287 747l123 133h131 l-168 -133h-86z" />
<glyph unicode="&#xd4;" horiz-adv-x="747" d="M56 350q0 77 17.5 141t54.5 114t99.5 78t145.5 28q163 0 240.5 -99.5t77.5 -261.5q0 -161 -77.5 -261t-240.5 -100q-162 0 -239.5 100t-77.5 261zM167 350q0 -268 206 -268q207 0 207 268q0 123 -49 195.5t-158 72.5t-157.5 -72.5t-48.5 -195.5zM217 747l101 133h110 l102 -133h-75l-82 82l-81 -82h-75z" />
<glyph unicode="&#xd5;" horiz-adv-x="747" d="M56 350q0 77 17.5 141t54.5 114t99.5 78t145.5 28q163 0 240.5 -99.5t77.5 -261.5q0 -161 -77.5 -261t-240.5 -100q-162 0 -239.5 100t-77.5 261zM167 350q0 -268 206 -268q207 0 207 268q0 123 -49 195.5t-158 72.5t-157.5 -72.5t-48.5 -195.5zM207 780q23 45 44 67.5 t55 22.5q28 0 72 -24t58 -24q13 0 24 9t27 37l52 -23q-23 -46 -44 -68.5t-55 -22.5q-28 0 -73 24t-58 24t-24 -9t-27 -37z" />
<glyph unicode="&#xd6;" horiz-adv-x="747" d="M56 350q0 77 17.5 141t54.5 114t99.5 78t145.5 28q163 0 240.5 -99.5t77.5 -261.5q0 -161 -77.5 -261t-240.5 -100q-162 0 -239.5 100t-77.5 261zM167 350q0 -268 206 -268q207 0 207 268q0 123 -49 195.5t-158 72.5t-157.5 -72.5t-48.5 -195.5zM240 757v101h94v-101h-94 zM413 757v101h93v-101h-93z" />
<glyph unicode="&#xd7;" d="M102 469l58 59l150 -137l149 135l60 -58l-147 -133l148 -134l-59 -57l-150 135l-148 -134l-59 58l145 132z" />
<glyph unicode="&#xd8;" horiz-adv-x="745" d="M56 350q0 78 17.5 141.5t54 113.5t99 78t146.5 28q115 0 191 -54l33 43h82l-67 -88q78 -94 78 -262q0 -77 -17.5 -140.5t-54 -114t-99 -78.5t-146.5 -28q-118 0 -192 54l-32 -43h-81l66 87q-78 94 -78 263zM167 350q0 -108 35 -174l301 399q-51 43 -130 43 q-109 0 -157.5 -72.5t-48.5 -195.5zM243 124q48 -42 130 -42q109 0 158 72.5t49 195.5q0 106 -36 172z" />
<glyph unicode="&#xd9;" horiz-adv-x="709" d="M83 265v435h107v-441q0 -84 35.5 -130.5t129.5 -46.5t129 46.5t35 130.5v441h108v-435q0 -128 -61.5 -202t-210.5 -74q-78 0 -132.5 21t-84 60t-42.5 86.5t-13 108.5zM188 880h130l123 -133h-85z" />
<glyph unicode="&#xda;" horiz-adv-x="709" d="M83 265v435h107v-441q0 -84 35.5 -130.5t129.5 -46.5t129 46.5t35 130.5v441h108v-435q0 -128 -61.5 -202t-210.5 -74q-78 0 -132.5 21t-84 60t-42.5 86.5t-13 108.5zM269 747l123 133h131l-169 -133h-85z" />
<glyph unicode="&#xdb;" horiz-adv-x="709" d="M83 265v435h107v-441q0 -84 35.5 -130.5t129.5 -46.5t129 46.5t35 130.5v441h108v-435q0 -128 -61.5 -202t-210.5 -74q-78 0 -132.5 21t-84 60t-42.5 86.5t-13 108.5zM199 747l100 133h111l102 -133h-75l-82 82l-82 -82h-74z" />
<glyph unicode="&#xdc;" horiz-adv-x="709" d="M83 265v435h107v-441q0 -84 35.5 -130.5t129.5 -46.5t129 46.5t35 130.5v441h108v-435q0 -128 -61.5 -202t-210.5 -74q-78 0 -132.5 21t-84 60t-42.5 86.5t-13 108.5zM222 757v101h93v-101h-93zM394 757v101h94v-101h-94z" />
<glyph unicode="&#xdd;" horiz-adv-x="645" d="M14 700h121l188 -338l187 338h121l-255 -423v-277h-107v277zM237 747l123 133h131l-169 -133h-85z" />
<glyph unicode="&#xde;" horiz-adv-x="663" d="M89 0v700h107v-121h156q267 0 267 -217q0 -219 -267 -219h-156v-143h-107zM196 233h144q170 0 170 129q0 69 -44 98t-126 29h-144v-256z" />
<glyph unicode="&#xdf;" horiz-adv-x="667" d="M75 0v485q0 226 265 226t265 -225v-4l-57 -58q-70 35 -131 35q-34 0 -56 -18t-22 -47q0 -11 3.5 -20t7.5 -15.5t13 -13.5t15 -10.5t19.5 -8.5t20 -7t22 -7t20.5 -6q79 -24 123 -62.5t44 -104.5q0 -72 -48.5 -111t-128.5 -39q-113 0 -223 65l40 71q38 -23 87 -41t83 -18 q36 0 61.5 18t25.5 50q0 9 -2 17.5t-7.5 15.5t-10 12.5t-14.5 11t-15.5 9t-19 8.5t-19 7t-21 7t-20.5 6q-27 9 -45 16t-41.5 21t-37.5 29.5t-24 39.5t-10 54q0 68 46 108t124 40q45 0 92 -13q-10 56 -48 81t-111 25q-85 0 -123.5 -35t-38.5 -115v-479h-103z" />
<glyph unicode="&#xe0;" horiz-adv-x="583" d="M41 158q0 83 52.5 127t132.5 44q27 0 60 -4.5t78 -13.5t46 -9v53q0 53 -23 76.5t-82 23.5q-63 0 -194 -43l-35 74q141 50 245 50q97 0 144.5 -42.5t47.5 -138.5v-355h-103v67q-84 -78 -192 -78q-74 0 -125.5 43.5t-51.5 125.5zM128 729h130l124 -133h-87zM146 165 q0 -93 101 -93q83 0 163 70v103q-115 21 -147 21q-61 0 -89 -27.5t-28 -73.5z" />
<glyph unicode="&#xe1;" horiz-adv-x="583" d="M41 158q0 83 52.5 127t132.5 44q27 0 60 -4.5t78 -13.5t46 -9v53q0 53 -23 76.5t-82 23.5q-63 0 -194 -43l-35 74q141 50 245 50q97 0 144.5 -42.5t47.5 -138.5v-355h-103v67q-84 -78 -192 -78q-74 0 -125.5 43.5t-51.5 125.5zM146 165q0 -93 101 -93q83 0 163 70v103 q-115 21 -147 21q-61 0 -89 -27.5t-28 -73.5zM209 596l123 133h131l-168 -133h-86z" />
<glyph unicode="&#xe2;" horiz-adv-x="583" d="M41 158q0 83 52.5 127t132.5 44q27 0 60 -4.5t78 -13.5t46 -9v53q0 53 -23 76.5t-82 23.5q-63 0 -194 -43l-35 74q141 50 245 50q97 0 144.5 -42.5t47.5 -138.5v-355h-103v67q-84 -78 -192 -78q-74 0 -125.5 43.5t-51.5 125.5zM138 596l101 133h112l101 -133h-76l-82 82 l-81 -82h-75zM146 165q0 -93 101 -93q83 0 163 70v103q-115 21 -147 21q-61 0 -89 -27.5t-28 -73.5z" />
<glyph unicode="&#xe3;" horiz-adv-x="583" d="M41 158q0 83 52.5 127t132.5 44q27 0 60 -4.5t78 -13.5t46 -9v53q0 53 -23 76.5t-82 23.5q-63 0 -194 -43l-35 74q141 50 245 50q97 0 144.5 -42.5t47.5 -138.5v-355h-103v67q-84 -78 -192 -78q-74 0 -125.5 43.5t-51.5 125.5zM129 629q23 45 44 67.5t55 22.5 q28 0 72 -24t58 -24q13 0 24 9t27 37l52 -23q-23 -46 -44 -68.5t-55 -22.5q-28 0 -72.5 24t-58.5 24q-13 0 -24 -9t-27 -37zM146 165q0 -93 101 -93q83 0 163 70v103q-115 21 -147 21q-61 0 -89 -27.5t-28 -73.5z" />
<glyph unicode="&#xe4;" horiz-adv-x="583" d="M41 158q0 83 52.5 127t132.5 44q27 0 60 -4.5t78 -13.5t46 -9v53q0 53 -23 76.5t-82 23.5q-63 0 -194 -43l-35 74q141 50 245 50q97 0 144.5 -42.5t47.5 -138.5v-355h-103v67q-84 -78 -192 -78q-74 0 -125.5 43.5t-51.5 125.5zM146 165q0 -93 101 -93q83 0 163 70v103 q-115 21 -147 21q-61 0 -89 -27.5t-28 -73.5zM162 606v101h94v-101h-94zM334 606v101h94v-101h-94z" />
<glyph unicode="&#xe5;" horiz-adv-x="583" d="M41 158q0 83 52.5 127t132.5 44q27 0 60 -4.5t78 -13.5t46 -9v53q0 53 -23 76.5t-82 23.5q-63 0 -194 -43l-35 74q141 50 245 50q97 0 144.5 -42.5t47.5 -138.5v-355h-103v67q-84 -78 -192 -78q-74 0 -125.5 43.5t-51.5 125.5zM146 165q0 -93 101 -93q83 0 163 70v103 q-115 21 -147 21q-61 0 -89 -27.5t-28 -73.5zM189 693q0 44 31 75.5t75 31.5t75.5 -31.5t31.5 -75.5t-31.5 -75.5t-75.5 -31.5t-75 31.5t-31 75.5zM243 693q0 -22 15 -37t37 -15t37 15t15 37t-15 37t-37 15t-37 -15t-15 -37z" />
<glyph unicode="&#xe6;" horiz-adv-x="923" d="M41 158q0 83 52.5 127t132.5 44q51 0 168 -30q4 41 15 75q-3 42 -26.5 61.5t-77.5 19.5q-63 0 -194 -43l-35 74q141 50 245 50q111 0 157 -56q64 56 165 56q112 0 172 -63t60 -166q0 -17 -2 -34.5t-4 -26.5l-2 -8h-367q5 -80 41.5 -124.5t96.5 -44.5q69 0 196 68l43 -66 q-137 -82 -247 -82q-130 0 -194 102q-99 -102 -218 -102q-74 0 -125.5 43.5t-51.5 125.5zM146 165q0 -93 101 -93q82 0 163 73q-14 44 -17 95q-101 26 -130 26q-61 0 -89 -27.5t-28 -73.5zM500 300h271q4 159 -129 159q-61 0 -98 -42t-44 -117z" />
<glyph unicode="&#xe7;" horiz-adv-x="523" d="M47 263q0 131 67 202t164 71q83 0 211 -67l-45 -77q-2 1 -17 9t-23.5 12.5t-25 11.5t-29 11t-29 7.5t-30.5 3.5q-60 0 -98.5 -50t-38.5 -134t38.5 -134.5t98.5 -50.5q14 0 30.5 3.5t29 7.5t29 11t25 11.5t23.5 12.5t17 9l45 -77q-106 -59 -187 -66q30 -38 30 -80 q0 -41 -29 -63t-76 -22q-44 0 -82 19l24 57q26 -13 50 -13q53 0 53 43q0 26 -22 60q-87 10 -145 80t-58 192z" />
<glyph unicode="&#xe8;" horiz-adv-x="577" d="M47 262q0 130 68.5 202t181.5 72q111 0 171 -63t60 -166q0 -17 -2 -34.5t-4 -26.5l-1 -8h-367q5 -79 42 -124t97 -45q71 0 195 68l44 -66q-39 -23 -63.5 -35.5t-79.5 -29.5t-104 -17q-103 0 -170.5 70.5t-67.5 202.5zM131 729h131l123 -133h-86zM154 300h272 q1 80 -32.5 119.5t-96.5 39.5q-61 0 -98 -42t-45 -117z" />
<glyph unicode="&#xe9;" horiz-adv-x="577" d="M47 262q0 130 68.5 202t181.5 72q111 0 171 -63t60 -166q0 -17 -2 -34.5t-4 -26.5l-1 -8h-367q5 -79 42 -124t97 -45q71 0 195 68l44 -66q-39 -23 -63.5 -35.5t-79.5 -29.5t-104 -17q-103 0 -170.5 70.5t-67.5 202.5zM154 300h272q1 80 -32.5 119.5t-96.5 39.5 q-61 0 -98 -42t-45 -117zM213 596l122 133h132l-168 -133h-86z" />
<glyph unicode="&#xea;" horiz-adv-x="577" d="M47 262q0 130 68.5 202t181.5 72q111 0 171 -63t60 -166q0 -17 -2 -34.5t-4 -26.5l-1 -8h-367q5 -79 42 -124t97 -45q71 0 195 68l44 -66q-39 -23 -63.5 -35.5t-79.5 -29.5t-104 -17q-103 0 -170.5 70.5t-67.5 202.5zM142 596l101 133h111l102 -133h-76l-82 82l-81 -82 h-75zM154 300h272q1 80 -32.5 119.5t-96.5 39.5q-61 0 -98 -42t-45 -117z" />
<glyph unicode="&#xeb;" horiz-adv-x="577" d="M47 262q0 130 68.5 202t181.5 72q111 0 171 -63t60 -166q0 -17 -2 -34.5t-4 -26.5l-1 -8h-367q5 -79 42 -124t97 -45q71 0 195 68l44 -66q-39 -23 -63.5 -35.5t-79.5 -29.5t-104 -17q-103 0 -170.5 70.5t-67.5 202.5zM154 300h272q1 80 -32.5 119.5t-96.5 39.5 q-61 0 -98 -42t-45 -117zM166 606v101h94v-101h-94zM338 606v101h94v-101h-94z" />
<glyph unicode="&#xec;" horiz-adv-x="253" d="M-41 729h130l124 -133h-85zM75 0v525h104v-525h-104z" />
<glyph unicode="&#xed;" horiz-adv-x="253" d="M41 596l124 133h130l-168 -133h-86zM75 0v525h103v-525h-103z" />
<glyph unicode="&#xee;" horiz-adv-x="253" d="M-30 596l101 133h110l102 -133h-75l-82 82l-81 -82h-75zM75 0v525h103v-525h-103z" />
<glyph unicode="&#xef;" horiz-adv-x="253" d="M-7 606v101h94v-101h-94zM74 0v525h103v-525h-103zM165 606v101h94v-101h-94z" />
<glyph unicode="&#xf0;" horiz-adv-x="616" d="M48 232q0 110 64.5 177t167.5 67q35 0 66 -8t50.5 -19t33.5 -22t20 -19l6 -8q-15 62 -55.5 115.5t-101.5 80.5l-58 -51h-96l78 70q-18 2 -29 2q-20 0 -39.5 -2.5t-28.5 -4.5l-10 -2l-15 80q37 12 95 12q55 0 106 -14l49 43h98l-79 -70q93 -49 144.5 -148t51.5 -226 q0 -152 -71.5 -224t-189.5 -72q-119 0 -188 66t-69 177zM155 232q0 -73 39.5 -117t114.5 -44q74 0 113.5 43.5t39.5 118.5q0 74 -39 117.5t-114 43.5q-76 0 -115 -45t-39 -117z" />
<glyph unicode="&#xf1;" horiz-adv-x="613" d="M75 0v525h103v-70q115 81 212 81q152 0 152 -163v-373h-103v352q0 101 -83 101q-45 0 -95.5 -25.5t-82.5 -54.5v-373h-103zM141 622q16 31 26.5 47t29.5 30t43 14q28 0 73 -24t58 -24t24 9t27 37l51 -24q-22 -45 -43.5 -68t-55.5 -23q-28 0 -72 24.5t-58 24.5 q-25 0 -51 -46z" />
<glyph unicode="&#xf2;" horiz-adv-x="605" d="M47 262q0 130 66 202t189 72t189 -72.5t66 -201.5t-66 -201t-189 -72t-189 72t-66 201zM135 729h129l124 -133h-85zM152 262q0 -191 150 -191t150 191q0 192 -150 192t-150 -192z" />
<glyph unicode="&#xf3;" horiz-adv-x="605" d="M47 262q0 130 66 202t189 72t189 -72.5t66 -201.5t-66 -201t-189 -72t-189 72t-66 201zM152 262q0 -191 150 -191t150 191q0 192 -150 192t-150 -192zM216 596l123 133h130l-167 -133h-86z" />
<glyph unicode="&#xf4;" horiz-adv-x="605" d="M47 262q0 130 66 202t189 72t189 -72.5t66 -201.5t-66 -201t-189 -72t-189 72t-66 201zM146 596l101 133h110l102 -133h-75l-82 82l-81 -82h-75zM152 262q0 -191 150 -191t150 191q0 192 -150 192t-150 -192z" />
<glyph unicode="&#xf5;" horiz-adv-x="605" d="M47 262q0 130 66 202t189 72t189 -72.5t66 -201.5t-66 -201t-189 -72t-189 72t-66 201zM138 622q11 24 17.5 36t18 27.5t25.5 22t33 6.5q26 0 70.5 -19.5t62.5 -20.5q32 0 51 38l50 -17q-14 -31 -22.5 -46t-28 -30.5t-44.5 -15.5q-26 0 -70.5 20t-61.5 20q-32 0 -51 -38z M152 262q0 -191 150 -191t150 191q0 192 -150 192t-150 -192z" />
<glyph unicode="&#xf6;" horiz-adv-x="605" d="M47 262q0 130 66 202t189 72t189 -72.5t66 -201.5t-66 -201t-189 -72t-189 72t-66 201zM152 262q0 -191 150 -191t150 191q0 192 -150 192t-150 -192zM169 606v101h94v-101h-94zM342 606v101h93v-101h-93z" />
<glyph unicode="&#xf7;" d="M58 293v80h507v-80h-507zM248 160q0 25 19 42.5t45 17.5t45 -17.5t19 -42.5t-19 -42.5t-45 -17.5t-45 17.5t-19 42.5zM248 508q0 24 19 41.5t45 17.5t45 -17.5t19 -41.5q0 -25 -19 -43t-45 -18t-45 18t-19 43z" />
<glyph unicode="&#xf8;" horiz-adv-x="604" d="M46 262q0 129 66.5 201.5t189.5 72.5q89 0 149 -40l23 29h70l-51 -64q64 -72 64 -199q0 -129 -66 -201t-189 -72q-89 0 -151 39l-22 -28h-72l52 65q-63 72 -63 197zM152 262q0 -73 21 -116l221 279q-35 29 -92 29q-150 0 -150 -192zM208 100q35 -29 94 -29q150 0 150 191 q0 73 -23 118z" />
<glyph unicode="&#xf9;" horiz-adv-x="613" d="M71 152v373h103v-352q0 -101 84 -101q44 0 94.5 25t82.5 54v374h103v-525h-103v70q-111 -81 -213 -81q-151 0 -151 163zM137 729h130l124 -133h-86z" />
<glyph unicode="&#xfa;" horiz-adv-x="613" d="M71 152v373h103v-352q0 -101 84 -101q44 0 94.5 25t82.5 54v374h103v-525h-103v70q-111 -81 -213 -81q-151 0 -151 163zM218 596l123 133h131l-168 -133h-86z" />
<glyph unicode="&#xfb;" horiz-adv-x="613" d="M71 152v373h103v-352q0 -101 84 -101q44 0 94.5 25t82.5 54v374h103v-525h-103v70q-111 -81 -213 -81q-151 0 -151 163zM148 596l100 133h111l102 -133h-75l-82 82l-81 -82h-75z" />
<glyph unicode="&#xfc;" horiz-adv-x="613" d="M71 152v373h103v-352q0 -101 84 -101q44 0 94.5 25t82.5 54v374h103v-525h-103v70q-111 -81 -213 -81q-151 0 -151 163zM171 606v101h94v-101h-94zM344 606v101h94v-101h-94z" />
<glyph unicode="&#xfd;" horiz-adv-x="565" d="M22 525h112l149 -403l148 403h113l-293 -729h-112l92 206zM197 596l123 133h130l-167 -133h-86z" />
<glyph unicode="&#xfe;" horiz-adv-x="610" d="M75 -204v933h103v-269q84 76 182 76q91 0 146.5 -68.5t55.5 -205.5q0 -136 -55.5 -204.5t-146.5 -68.5q-97 0 -182 75v-268h-103zM178 152q69 -78 157 -78q60 0 91 49t31 139t-31 139.5t-91 49.5q-87 0 -157 -79v-220z" />
<glyph unicode="&#xff;" horiz-adv-x="565" d="M22 525h112l149 -403l148 403h113l-293 -729h-112l92 206zM150 606v101h94v-101h-94zM323 606v101h93v-101h-93z" />
<glyph unicode="&#x152;" horiz-adv-x="1099" d="M56 350q0 77 17.5 141t54.5 114t99.5 78t145.5 28q130 0 209 -68v57h460v-92h-353v-213h291v-90h-291v-213h358v-92h-465v57q-79 -68 -209 -68q-162 0 -239.5 100t-77.5 261zM167 350q0 -268 206 -268q207 0 207 268q0 123 -49 195.5t-158 72.5t-157.5 -72.5 t-48.5 -195.5z" />
<glyph unicode="&#x153;" horiz-adv-x="983" d="M47 262q0 130 66 202t189 72q138 0 203 -91q68 91 198 91q111 0 171 -63t60 -166q0 -17 -2 -34.5t-4 -26.5l-1 -8h-367q5 -80 41.5 -124.5t95.5 -44.5q74 0 196 68l44 -66q-140 -82 -247 -82q-120 0 -185 89q-66 -89 -203 -89q-123 0 -189 72t-66 201zM152 262 q0 -191 150 -191t150 191q0 192 -150 192t-150 -192zM560 300h272q1 159 -129 159q-62 0 -99 -42t-44 -117z" />
<glyph unicode="&#x178;" horiz-adv-x="645" d="M14 700h121l188 -338l187 338h121l-255 -423v-277h-107v277zM189 757v101h94v-101h-94zM363 757v101h93v-101h-93z" />
<glyph unicode="&#x2c6;" horiz-adv-x="277" d="M-18 596l101 133h110l102 -133h-75l-82 82l-81 -82h-75z" />
<glyph unicode="&#x2dc;" horiz-adv-x="292" d="M-20 629q16 31 26.5 46.5t29.5 29.5t43 14q28 0 72.5 -24t58.5 -24q25 0 50 46l52 -23q-22 -45 -43.5 -68t-55.5 -23q-28 0 -72.5 24t-58.5 24q-24 0 -50 -46z" />
<glyph unicode="&#x2000;" horiz-adv-x="475" />
<glyph unicode="&#x2001;" horiz-adv-x="951" />
<glyph unicode="&#x2002;" horiz-adv-x="475" />
<glyph unicode="&#x2003;" horiz-adv-x="951" />
<glyph unicode="&#x2004;" horiz-adv-x="317" />
<glyph unicode="&#x2005;" horiz-adv-x="237" />
<glyph unicode="&#x2006;" horiz-adv-x="158" />
<glyph unicode="&#x2007;" horiz-adv-x="158" />
<glyph unicode="&#x2008;" horiz-adv-x="118" />
<glyph unicode="&#x2009;" horiz-adv-x="190" />
<glyph unicode="&#x200a;" horiz-adv-x="52" />
<glyph unicode="&#x2010;" horiz-adv-x="435" d="M70 241v87h295v-87h-295z" />
<glyph unicode="&#x2011;" horiz-adv-x="435" d="M70 241v87h295v-87h-295z" />
<glyph unicode="&#x2012;" horiz-adv-x="435" d="M70 241v87h295v-87h-295z" />
<glyph unicode="&#x2013;" horiz-adv-x="566" d="M70 242v86h425v-86h-425z" />
<glyph unicode="&#x2014;" horiz-adv-x="672" d="M70 242v86h531v-86h-531z" />
<glyph unicode="&#x2018;" horiz-adv-x="246" d="M56 588l96 132l32 -37l-57 -106h52v-135h-112z" />
<glyph unicode="&#x2019;" horiz-adv-x="236" d="M60 459l57 106h-51v135h111l11 -146l-95 -132z" />
<glyph unicode="&#x201a;" horiz-adv-x="253" d="M63 -106l57 106h-51v135h111l11 -146l-95 -132z" />
<glyph unicode="&#x201c;" horiz-adv-x="444" d="M56 588l96 132l32 -37l-57 -106h52v-135h-112zM253 588l97 132l32 -37l-57 -106h51v-135h-112z" />
<glyph unicode="&#x201d;" horiz-adv-x="434" d="M60 459l57 106h-51v135h111l11 -146l-95 -132zM257 459l57 106h-51v135h112l11 -146l-96 -132z" />
<glyph unicode="&#x201e;" horiz-adv-x="450" d="M63 -106l57 106h-51v135h111l11 -146l-95 -132zM260 -106l57 106h-51v135h112l11 -146l-96 -132z" />
<glyph unicode="&#x2022;" horiz-adv-x="444" d="M83 284q0 58 40 99t98 41t98.5 -41t40.5 -99t-40.5 -98t-98.5 -40t-98 40t-40 98z" />
<glyph unicode="&#x2026;" horiz-adv-x="686" d="M68 0v135h114v-135h-114zM286 0v135h114v-135h-114zM503 0v135h114v-135h-114z" />
<glyph unicode="&#x202f;" horiz-adv-x="190" />
<glyph unicode="&#x2039;" horiz-adv-x="399" d="M35 244v65l305 219v-101l-216 -151l216 -150v-100z" />
<glyph unicode="&#x203a;" horiz-adv-x="399" d="M59 26v101l216 149l-216 151v100l306 -218v-65z" />
<glyph unicode="&#x205f;" horiz-adv-x="237" />
<glyph unicode="&#x20ac;" horiz-adv-x="718" d="M48 238v61h62q-2 32 -2 51q0 30 1 45h-61v62h68q22 126 95.5 190t176.5 64q116 0 279 -102l-54 -78q-135 83 -215 83q-62 0 -105.5 -41t-61.5 -116h266v-62h-276q-2 -15 -2 -45q0 -19 2 -51h276v-61h-265q19 -73 62.5 -112.5t103.5 -39.5q80 0 215 83l54 -78 q-163 -102 -279 -102q-102 0 -174.5 62.5t-96.5 186.5h-69z" />
<glyph unicode="&#x2122;" horiz-adv-x="649" d="M64 658v42h211v-42h-81v-182h-51v182h-79zM310 476v224h54l77 -137l79 137h53v-224h-51v150l-64 -113h-32l-66 116v-153h-50z" />
<glyph unicode="&#xe000;" horiz-adv-x="525" d="M0 0v525h525v-525h-525z" />
</font>
</defs>
</svg>
