<?xml version="1.0" standalone="no"?>
<!DOCTYPE svg PUBLIC "-//W3C//DTD SVG 1.1//EN" "http://www.w3.org/Graphics/SVG/1.1/DTD/svg11.dtd" >
<svg xmlns="http://www.w3.org/2000/svg">
<metadata></metadata>
<defs>
<font id="verb_semibolditalic" horiz-adv-x="630" >
<font-face units-per-em="1000" ascent="800" descent="-200" />
<missing-glyph horiz-adv-x="274" />
<glyph unicode="&#xfb01;" horiz-adv-x="632" d="M-97 -126q48 14 72 24.5t40 30t21 38t13 62.5l72 404h-70l16 92h70l8 42q14 84 49 123t103 39q59 0 144 -38l-44 -84q-48 15 -75 15q-43 0 -53 -53l-8 -44h133l-16 -92h-133l-70 -396q-20 -110 -38 -145q-29 -56 -111 -86q-38 -14 -96 -27zM387 0l93 525h124l-93 -525 h-124zM492 610l20 116h131l-19 -116h-132z" />
<glyph unicode="&#xfb02;" horiz-adv-x="638" d="M-97 -126q48 14 72 24.5t40 30t21 38t13 62.5l72 404h-70l16 92h70l8 42q14 84 49 123t103 39q59 0 144 -38l-44 -84q-48 15 -75 15q-43 0 -53 -53l-8 -44h133l-16 -92h-133l-70 -396q-20 -110 -38 -145q-29 -56 -111 -86q-38 -14 -96 -27zM390 0l129 729h124l-129 -729 h-124z" />
<glyph unicode="&#xfb03;" horiz-adv-x="1002" d="M-97 -126q48 14 72 24.5t40 30t21 38t13 62.5l72 404h-70l16 92h70l8 42q14 85 49 123.5t105 38.5q85 0 176 -47l-47 -81q-66 21 -106 21q-43 0 -53 -53l-8 -44h123l-16 -92h-123l-70 -396q-20 -110 -38 -145q-29 -56 -111 -86q-38 -14 -96 -27zM273 -126q48 14 72 24.5 t40 30t21 38t13 62.5l72 404h-70l16 92h70l8 42q14 84 49 123t103 39q59 0 144 -38l-44 -84q-47 15 -75 15q-43 0 -53 -53l-8 -44h133l-16 -92h-133l-70 -396q-20 -110 -38 -145q-29 -56 -111 -86q-38 -14 -96 -27zM757 0l93 525h124l-93 -525h-124zM862 610l20 116h131 l-19 -116h-132z" />
<glyph unicode="&#xfb04;" horiz-adv-x="1008" d="M-97 -126q48 14 72 24.5t40 30t21 38t13 62.5l72 404h-70l16 92h70l8 42q14 85 49 123.5t105 38.5q85 0 176 -47l-47 -81q-66 21 -106 21q-43 0 -53 -53l-8 -44h123l-16 -92h-123l-70 -396q-20 -110 -38 -145q-29 -56 -111 -86q-38 -14 -96 -27zM273 -126q48 14 72 24.5 t40 30t21 38t13 62.5l72 404h-70l16 92h70l8 42q14 84 49 123t103 39q59 0 144 -38l-44 -84q-47 15 -75 15q-43 0 -53 -53l-8 -44h133l-16 -92h-133l-70 -396q-20 -110 -38 -145q-29 -56 -111 -86q-38 -14 -96 -27zM760 0l129 729h124l-129 -729h-124z" />
<glyph horiz-adv-x="1000" />
<glyph horiz-adv-x="1000" />
<glyph unicode="&#xd;" horiz-adv-x="1000" />
<glyph unicode=" "  horiz-adv-x="274" />
<glyph unicode="&#x09;" horiz-adv-x="274" />
<glyph unicode="&#xa0;" horiz-adv-x="274" />
<glyph unicode="!" horiz-adv-x="276" d="M20 0l24 140h131l-23 -140h-132zM87 220l47 480h150l-122 -480h-75z" />
<glyph unicode="&#x22;" horiz-adv-x="424" d="M93 431l26 269h121l-68 -269h-79zM295 431l25 269h122l-69 -269h-78z" />
<glyph unicode="#" horiz-adv-x="738" d="M19 165l16 94h134l59 181h-119l16 95h134l55 165h99l-55 -165h160l55 165h98l-55 -165h121l-16 -95h-136l-60 -181h122l-16 -94h-137l-54 -165h-98l54 165h-159l-54 -165h-99l54 165h-119zM268 259h159l60 181h-160z" />
<glyph unicode="$" horiz-adv-x="638" d="M3 89l69 88q86 -53 169 -73l35 201l-24 10q-76 31 -118.5 73t-42.5 114q0 91 70.5 149.5t186.5 59.5l16 90h91l-18 -99q93 -19 194 -75l-68 -87q-68 38 -145 55l-33 -187l22 -9q80 -33 125.5 -76t45.5 -119q0 -95 -75 -154.5t-192 -60.5l-15 -89h-91l17 98 q-117 21 -219 91zM229 513q0 -27 17 -42.5t54 -30.5l29 161q-44 -6 -72 -28.5t-28 -59.5zM330 97q49 5 80 30t31 63q0 28 -20.5 46.5t-59.5 35.5z" />
<glyph unicode="%" horiz-adv-x="1000" d="M74 492q0 93 56.5 156t149.5 63q83 0 131.5 -42.5t48.5 -114.5q0 -93 -55.5 -155.5t-149.5 -62.5q-84 0 -132.5 42t-48.5 114zM171 500q0 -88 88 -88q47 0 76 41.5t29 92.5q0 89 -86 89q-49 0 -78 -42t-29 -93zM217 0l484 700h101l-485 -700h-100zM558 145q0 93 56.5 156 t149.5 63q83 0 131.5 -42.5t48.5 -114.5q0 -93 -55.5 -155.5t-149.5 -62.5q-84 0 -132.5 42t-48.5 114zM655 153q0 -88 88 -88q47 0 76 41.5t29 92.5q0 89 -86 89q-49 0 -78 -42t-29 -93z" />
<glyph unicode="&#x26;" horiz-adv-x="709" d="M36 161q0 72 47.5 122t132.5 98q-63 82 -63 153q0 81 59 129t146 48q80 0 130.5 -40t50.5 -106q0 -62 -45.5 -109t-126.5 -97l111 -134q48 63 78 144h125q-39 -127 -131 -231l116 -138h-134l-57 68q-104 -79 -226 -79q-96 0 -154.5 46.5t-58.5 125.5zM159 164 q0 -33 23.5 -57t72.5 -24q78 0 154 66l-130 156q-58 -36 -89 -69t-31 -72zM266 530q0 -46 41 -99q57 33 87 62t30 65q0 26 -17 44t-51 18q-42 0 -66 -26.5t-24 -63.5z" />
<glyph unicode="'" horiz-adv-x="223" d="M93 431l26 269h121l-68 -269h-79z" />
<glyph unicode="(" horiz-adv-x="321" d="M26 76l98 544q10 57 19 84.5t33.5 56t67.5 45t118 33.5l23 -77q-76 -24 -98 -45t-31 -73l-106 -593q-10 -58 1.5 -79t72.5 -44l-34 -71q-90 22 -129.5 50t-43 69t8.5 100z" />
<glyph unicode=")" horiz-adv-x="322" d="M-48 -66q77 24 98.5 45t30.5 72l107 593q10 59 -1 79.5t-73 44.5l34 71q89 -22 128.5 -50.5t43 -69t-8.5 -99.5l-97 -544q-7 -39 -12 -59.5t-15.5 -45.5t-25 -38t-40 -28.5t-60.5 -26t-86 -21.5z" />
<glyph unicode="*" horiz-adv-x="481" d="M79 492l159 21l-142 76l69 81l98 -128l-7 159l103 -18l-60 -147l135 86l36 -100l-155 -22l138 -75l-68 -80l-96 123l5 -155l-104 17l61 149l-136 -86z" />
<glyph unicode="+" d="M59 286l16 94h205l32 186h97l-32 -186h204l-15 -94h-206l-32 -186h-97l32 186h-204z" />
<glyph unicode="," horiz-adv-x="258" d="M-12 -109l82 109h-59l25 150h130l-17 -164l-133 -138z" />
<glyph unicode="-" horiz-adv-x="432" d="M52 234l18 101h304l-18 -101h-304z" />
<glyph unicode="." horiz-adv-x="255" d="M11 0l25 150h131l-25 -150h-131z" />
<glyph unicode="/" horiz-adv-x="476" d="M-42 -90l479 880h100l-479 -880h-100z" />
<glyph unicode="0" horiz-adv-x="680" d="M56 274q0 49 9 103t32 115t57.5 108.5t92.5 79t130 31.5t125.5 -24.5t83 -67t43 -91t13.5 -103.5q0 -49 -9 -103t-32 -115t-58 -108.5t-93 -79t-130 -31.5t-125 24.5t-82.5 67t-43 91t-13.5 103.5zM184 262q2 -172 136 -172q52 0 92.5 40t60.5 98.5t29.5 112.5t9.5 96 q0 172 -135 172q-42 0 -77 -27t-55.5 -67t-35 -89.5t-20 -90.5t-5.5 -73z" />
<glyph unicode="1" horiz-adv-x="393" d="M61 598l199 102h120l-123 -700h-129l103 570l-130 -63z" />
<glyph unicode="2" horiz-adv-x="599" d="M-12 0l11 64q5 29 13 54.5t23.5 48.5t26.5 39.5t36 37.5t36 31t44 30t42.5 26t47.5 28q119 69 151 98q41 37 40 76q-1 32 -27 51t-74 19q-89 0 -193 -64l-48 91q127 81 256 81q102 0 159 -48.5t57 -126.5q0 -47 -20 -87t-66 -76.5t-77 -56t-97 -55.5l-21 -12 q-77 -42 -107.5 -70.5t-39.5 -71.5h350l-17 -107h-506z" />
<glyph unicode="3" horiz-adv-x="607" d="M-13 82l65 82q111 -67 201 -67q72 0 114.5 32.5t42.5 82.5q0 57 -52.5 83t-131.5 26h-30l18 109h35q71 0 129.5 29t58.5 79q0 30 -24 47.5t-68 17.5q-85 0 -186 -58l-42 89q124 77 251 77q97 0 149.5 -43.5t52.5 -109.5q0 -56 -40 -103t-116 -75q55 -16 91 -62t36 -109 q0 -87 -70 -153.5t-206 -66.5q-144 0 -278 93z" />
<glyph unicode="4" horiz-adv-x="655" d="M-1 141l16 92l403 467h170l-79 -451h105l-18 -108h-106l-25 -141h-129l25 141h-362zM158 249h222l58 330z" />
<glyph unicode="5" horiz-adv-x="598" d="M-4 82l71 82q83 -65 173 -65q67 0 118 38t51 102q0 49 -31.5 79t-89.5 30q-60 0 -141 -43l-70 45l98 350h418l-18 -108h-310l-39 -154q50 15 98 15q103 0 160 -59.5t57 -149.5q0 -106 -78 -180.5t-211 -74.5q-134 0 -256 93z" />
<glyph unicode="6" horiz-adv-x="634" d="M47 247q0 194 130 329t323 135q33 0 62.5 -4.5t42.5 -8.5l13 -5l-47 -95q-28 7 -67 7q-99 0 -181.5 -57t-120.5 -157q70 59 169 59q98 0 155 -58t57 -144q0 -107 -74 -183t-201 -76q-124 0 -192.5 75.5t-68.5 182.5zM176 239q0 -60 33.5 -102.5t94.5 -42.5q70 0 110 44.5 t40 104.5q0 46 -30.5 77.5t-89.5 31.5q-51 0 -94 -26.5t-63 -56.5q-1 -10 -1 -30z" />
<glyph unicode="7" horiz-adv-x="520" d="M59 0q17 95 68 201t114 191.5t100 130.5t60 69h-325l17 108h476l-16 -99q-12 -13 -33 -35.5t-76.5 -91.5t-100.5 -137t-88.5 -161.5t-58.5 -175.5h-137z" />
<glyph unicode="8" horiz-adv-x="644" d="M22 171q0 136 197 214q-89 56 -89 142q0 82 69 133t182 51q104 0 164 -44t60 -116q0 -110 -152 -177q129 -66 129 -175q0 -94 -84.5 -152t-218.5 -58q-120 0 -188.5 48t-68.5 134zM154 182q0 -44 34 -69t92 -25q70 0 120.5 33t50.5 84q0 71 -118 125q-37 -12 -64.5 -24 t-56 -30t-43.5 -41.5t-15 -52.5zM254 515q0 -56 84 -92q139 43 139 111q0 33 -26 57t-71 24q-52 0 -89 -30t-37 -70z" />
<glyph unicode="9" horiz-adv-x="634" d="M33 6l47 95q28 -7 67 -7q99 0 181 57t120 157q-70 -58 -168 -58t-155 58t-57 144q0 106 74 182.5t201 76.5q124 0 192.5 -75.5t68.5 -182.5q0 -194 -130 -329t-323 -135q-33 0 -62.5 4t-42.5 9zM197 457q0 -46 30.5 -78t89.5 -32q50 0 93 26t64 56q0 5 0.5 15t0.5 16 q0 60 -33.5 102.5t-94.5 42.5q-70 0 -110 -44.5t-40 -103.5z" />
<glyph unicode=":" horiz-adv-x="266" d="M14 0l25 150h131l-25 -150h-131zM71 323l26 150h131l-25 -150h-132z" />
<glyph unicode=";" horiz-adv-x="276" d="M-5 -109l82 109h-59l25 150h130l-17 -164l-133 -138zM76 323l24 150h132l-25 -150h-131z" />
<glyph unicode="&#x3c;" d="M47 290l15 87l541 206l-18 -112l-400 -144l347 -143l-17 -100z" />
<glyph unicode="=" d="M42 194l16 94h506l-15 -94h-507zM75 380l15 95h506l-15 -95h-506z" />
<glyph unicode="&#x3e;" d="M38 84l18 112l400 143l-347 144l17 100l468 -206l-14 -87z" />
<glyph unicode="?" horiz-adv-x="528" d="M89 640q121 71 237 71q90 0 146.5 -43.5t56.5 -121.5q0 -91 -73.5 -145.5t-188.5 -77.5l-26 -103h-81l21 173q106 20 162.5 52t56.5 84q0 36 -25.5 55t-70.5 19q-67 0 -171 -56zM96 0l23 140h132l-24 -140h-131z" />
<glyph unicode="@" horiz-adv-x="957" d="M36 190q0 99 36 188.5t101.5 158t164.5 109t216 40.5q100 0 175 -31.5t117 -85t59 -121t8 -144.5q-6 -44 -15.5 -85t-29.5 -87.5t-45.5 -80t-66.5 -56t-90 -22.5q-37 0 -62.5 11.5t-36 31t-14.5 38t-3 38.5q-85 -69 -172 -69q-57 0 -94.5 37t-37.5 94q0 81 52 124.5 t128 43.5q42 0 160 -25q1 9 8 48q8 48 -7 68t-64 20q-66 0 -171 -41l-24 70q116 44 210 44q88 0 125 -40t22 -124l-32 -177q-14 -55 -7.5 -93t48.5 -38q53 0 104 76.5t63 193.5q4 50 0.5 97.5t-26 90.5t-57.5 75t-93 51t-133 19q-106 0 -194.5 -37t-146.5 -99t-90 -143 t-32 -170q0 -142 81.5 -230t224.5 -88q52 0 100.5 11t70.5 22l22 11l27 -41q-10 -6 -28.5 -14.5t-77 -23t-117.5 -14.5q-163 0 -259.5 103.5t-96.5 265.5zM343 165q0 -35 19.5 -52t52.5 -17q66 0 146 66q1 6 7 35.5t9 49.5q-84 18 -122 18q-58 0 -85 -29t-27 -71z" />
<glyph unicode="A" horiz-adv-x="695" d="M-38 0l386 700h142l140 -700h-136l-23 149h-285l-75 -149h-149zM238 252h217l-51 329z" />
<glyph unicode="B" horiz-adv-x="684" d="M29 0l123 700h262q109 0 170 -42.5t61 -115.5q0 -71 -49.5 -116.5t-103.5 -53.5q20 -3 40.5 -13t42 -28t35.5 -48.5t14 -68.5q0 -102 -69.5 -158t-194.5 -56h-331zM174 100h160q78 0 121 34.5t43 92.5q0 45 -35.5 69t-99.5 24h-149zM229 414h139q57 0 101.5 28t44.5 81 q0 76 -118 76h-133z" />
<glyph unicode="C" horiz-adv-x="652" d="M54 272q0 201 98.5 320t245.5 119q54 0 110 -19t85.5 -36.5t83.5 -53.5l-71 -90q-62 43 -106 63t-89 20q-98 0 -161.5 -91t-63.5 -223q0 -88 32.5 -132.5t90.5 -44.5q82 0 223 81l57 -101q-177 -95 -307 -95q-104 0 -166 70.5t-62 212.5z" />
<glyph unicode="D" horiz-adv-x="715" d="M29 0l123 700h206q161 0 241 -72t80 -201q0 -58 -12.5 -115t-42.5 -114t-74 -100.5t-113 -70.5t-153 -27h-255zM175 109h90q135 0 209.5 90t74.5 226q0 88 -52.5 126.5t-156.5 38.5h-78z" />
<glyph unicode="E" horiz-adv-x="607" d="M29 0l122 700h473l-18 -110h-344l-35 -186h283l-18 -108h-283l-34 -187h350l-18 -109h-478z" />
<glyph unicode="F" horiz-adv-x="581" d="M29 0l122 700h473l-18 -110h-344l-35 -187h273l-17 -107h-274l-52 -296h-128z" />
<glyph unicode="G" horiz-adv-x="708" d="M54 266q0 210 99.5 327.5t245.5 117.5q56 0 114.5 -19.5t94 -40t83.5 -54.5l-72 -89q-4 2 -19.5 12.5t-21.5 14t-20.5 12.5t-23 13t-22.5 11t-24.5 10t-24 7t-26 5.5t-25.5 1.5q-98 0 -161.5 -91t-63.5 -224q0 -181 126 -181q84 0 195 90l18 103h-172l17 102h294 l-69 -394h-122l13 75q-110 -86 -209 -86q-100 0 -162 70.5t-62 206.5z" />
<glyph unicode="H" horiz-adv-x="720" d="M29 0l123 700h128l-49 -279h299l49 279h129l-123 -700h-129l55 313h-299l-55 -313h-128z" />
<glyph unicode="I" horiz-adv-x="292" d="M29 0l123 700h128l-123 -700h-128z" />
<glyph unicode="J" horiz-adv-x="292" d="M-101 -65q85 24 107.5 44.5t31.5 71.5l115 649h128l-114 -643q-5 -31 -8 -44.5t-9 -36.5t-13 -33t-19.5 -26.5t-28 -25t-39 -20.5t-53.5 -20.5t-69 -17.5z" />
<glyph unicode="K" horiz-adv-x="675" d="M29 0l123 700h128l-60 -340l338 340h165l-339 -334l235 -366h-142l-180 281l-110 -108l-30 -173h-128z" />
<glyph unicode="L" horiz-adv-x="559" d="M29 0l123 700h128l-105 -593h333l-17 -107h-462z" />
<glyph unicode="M" horiz-adv-x="847" d="M29 0l123 700h132l127 -439l292 439h132l-123 -700h-129l84 478l-238 -361h-73l-111 384l-88 -501h-128z" />
<glyph unicode="N" horiz-adv-x="736" d="M29 0l123 700h131l221 -518l91 518h129l-123 -700h-131l-222 519l-91 -519h-128z" />
<glyph unicode="O" horiz-adv-x="760" d="M53 291q0 50 10.5 103t37 111t66 103t102.5 74t141 29q156 0 234.5 -81t79.5 -222q0 -50 -10.5 -103t-37 -111t-66 -103t-103 -74t-141.5 -29q-155 0 -233.5 81t-79.5 222zM186 294q0 -196 176 -196q48 0 87.5 21t65 53.5t43.5 74.5t25.5 81.5t7.5 76.5q0 196 -176 196 q-48 0 -87.5 -21t-65 -53.5t-43.5 -74.5t-25.5 -81.5t-7.5 -76.5z" />
<glyph unicode="P" horiz-adv-x="659" d="M29 0l123 700h252q126 0 193 -48.5t67 -147.5q0 -105 -75.5 -176.5t-211.5 -71.5h-174l-46 -256h-128zM221 362h137q79 0 126 36t47 103q0 91 -127 91h-142z" />
<glyph unicode="Q" horiz-adv-x="759" d="M53 291q0 50 10.5 103t37 111t66 103t102.5 74t141 29q156 0 234.5 -81t79.5 -222q0 -53 -13 -110.5t-40 -116.5t-77 -106.5t-116 -69.5l95 -90l-92 -80l-134 153q-146 5 -219.5 85.5t-74.5 217.5zM186 294q0 -196 176 -196q48 0 87.5 21t65 53.5t43.5 74.5t25.5 81.5 t7.5 76.5q0 196 -176 196q-48 0 -87.5 -21t-65 -53.5t-43.5 -74.5t-25.5 -81.5t-7.5 -76.5z" />
<glyph unicode="R" horiz-adv-x="694" d="M29 0l123 700h282q254 0 254 -186q0 -87 -59 -152t-163 -79l132 -283h-133l-122 280h-136l-50 -280h-128zM224 382h163q78 0 123 33.5t45 95.5q0 87 -131 87h-161z" />
<glyph unicode="S" d="M-1 89l69 88q135 -81 234 -81q58 0 96.5 26t38.5 68q0 20 -9.5 35t-30.5 27t-40 20t-53.5 21t-55.5 22q-76 31 -118.5 73t-42.5 114q0 92 71 150.5t187 58.5q133 0 282 -84l-68 -87q-45 26 -104 44.5t-105 18.5q-52 0 -88.5 -23.5t-36.5 -66.5q0 -18 7.5 -31t26 -23.5 t36 -17.5t51 -19.5t57.5 -22.5q80 -33 125.5 -76t45.5 -119q0 -95 -75 -155t-193 -60q-159 0 -307 100z" />
<glyph unicode="T" horiz-adv-x="582" d="M69 590l18 110h546l-18 -110h-209l-105 -590h-128l105 590h-209z" />
<glyph unicode="U" horiz-adv-x="709" d="M72 288l72 412h130l-78 -436q-7 -47 -4 -83.5t33.5 -59t88.5 -22.5q86 0 128.5 44t55.5 121l78 436h128l-78 -442q-10 -60 -30 -105.5t-55.5 -84t-92.5 -59t-135 -20.5q-85 0 -140 23t-78.5 63t-30 95t7.5 118z" />
<glyph unicode="V" horiz-adv-x="692" d="M80 700h142l88 -559l280 559h157l-385 -700h-142z" />
<glyph unicode="W" horiz-adv-x="952" d="M90 700h142l28 -524l227 524h112l38 -524l211 524h152l-316 -700h-129l-40 518l-226 -518h-130z" />
<glyph unicode="X" horiz-adv-x="641" d="M-43 0l296 350l-161 350h140l104 -272l197 272h158l-285 -349l174 -351h-144l-113 267l-203 -267h-163z" />
<glyph unicode="Y" horiz-adv-x="647" d="M76 700h136l116 -318l228 318h151l-327 -424l-47 -276h-129l49 279z" />
<glyph unicode="Z" horiz-adv-x="626" d="M-19 0l16 100l463 490h-352l18 110h524l-16 -99l-465 -492h381l-18 -109h-551z" />
<glyph unicode="[" horiz-adv-x="352" d="M-4 -144l173 983h254l-13 -77h-125l-147 -829h125l-13 -77h-254z" />
<glyph unicode="\" horiz-adv-x="463" d="M106 790h90l177 -880h-90z" />
<glyph unicode="]" horiz-adv-x="353" d="M-54 -144l13 77h125l147 829h-125l13 77h254l-173 -983h-254z" />
<glyph unicode="^" d="M72 333l251 367h127l124 -367h-128l-72 252l-159 -252h-143z" />
<glyph unicode="_" horiz-adv-x="705" d="M-18 -165l15 89h577l-15 -89h-577z" />
<glyph unicode="`" horiz-adv-x="234" d="M115 729h140l102 -135h-95z" />
<glyph unicode="a" horiz-adv-x="618" d="M32 181q0 156 69.5 255.5t180.5 99.5q83 0 172 -77l12 66h123l-93 -525h-123l12 70q-97 -81 -195 -81q-66 0 -112 46.5t-46 145.5zM159 194q0 -49 20 -77t58 -28q44 0 83 22.5t84 62.5l33 190q-60 71 -127 71q-69 0 -110 -71.5t-41 -169.5z" />
<glyph unicode="b" horiz-adv-x="615" d="M15 0l129 729h123l-47 -265q94 72 183 72q71 0 119.5 -46.5t48.5 -145.5q0 -157 -68 -256t-177 -99q-89 0 -177 76l-11 -65h-123zM166 160q65 -71 132 -71t107 72t40 169q0 50 -22.5 78t-65.5 28q-64 0 -155 -75z" />
<glyph unicode="c" horiz-adv-x="521" d="M31 208q0 154 80 241t186 87q18 0 37 -2.5t33.5 -5.5t32.5 -9.5t28.5 -10.5t27.5 -12.5t23.5 -12t22.5 -12.5t19 -11l-59 -85q-3 2 -19.5 11.5t-27.5 15t-28 13t-33.5 11.5t-31.5 4q-67 0 -115 -63t-48 -148q0 -58 25 -91t74 -33q15 0 32 3.5t36.5 11t31 12.5t32.5 15 t24 11l43 -95q-145 -64 -224 -64q-90 0 -146 57t-56 162z" />
<glyph unicode="d" horiz-adv-x="618" d="M32 181q0 156 69.5 255.5t180.5 99.5q83 0 172 -77l48 270h123l-129 -729h-123l12 70q-94 -81 -195 -81q-66 0 -112 46.5t-46 145.5zM159 194q0 -49 20 -77t58 -28q44 0 83 22.5t84 62.5l33 190q-60 71 -127 71q-69 0 -110 -71.5t-41 -169.5z" />
<glyph unicode="e" horiz-adv-x="565" d="M31 216q0 140 82.5 230t221.5 90q91 0 145 -40.5t54 -106.5q0 -93 -83 -132.5t-239 -39.5h-56v-8q0 -127 105 -127q63 0 195 65l40 -87q-146 -71 -256 -71q-98 0 -153.5 56t-55.5 171zM166 288h52q96 0 146 25t50 70q0 29 -23 46t-60 17q-60 0 -103 -45t-62 -113z" />
<glyph unicode="f" horiz-adv-x="372" d="M-97 -126q48 14 72 24.5t40 30t21 38t13 62.5l72 404h-70l16 92h70l8 42q14 85 49 123.5t105 38.5q85 0 176 -47l-55 -81q-60 21 -98 21q-43 0 -53 -53l-8 -44h133l-16 -92h-133l-70 -396q-20 -110 -38 -145q-29 -56 -111 -86q-38 -14 -96 -27z" />
<glyph unicode="g" horiz-adv-x="616" d="M-14 -174l41 100q124 -39 209 -39q115 0 133 96l15 85q-99 -79 -193 -79q-67 0 -113 46.5t-46 145.5q0 156 70 255.5t181 99.5q85 0 170 -76l12 65h123l-95 -537q-20 -115 -79.5 -158.5t-167.5 -43.5q-121 0 -260 40zM159 194q0 -50 20.5 -77.5t58.5 -27.5q43 0 81 21.5 t83 61.5l35 194q-63 69 -127 69q-68 0 -109.5 -72t-41.5 -169z" />
<glyph unicode="h" horiz-adv-x="613" d="M15 0l129 729h123l-48 -269q113 76 207 76q82 0 115.5 -48t18.5 -130l-63 -358h-124l62 345q16 93 -57 93q-41 0 -91.5 -23.5t-84.5 -50.5l-64 -364h-123z" />
<glyph unicode="i" horiz-adv-x="259" d="M15 0l93 525h123l-93 -525h-123zM119 610l20 116h131l-19 -116h-132z" />
<glyph unicode="j" horiz-adv-x="259" d="M-127 -126q62 19 89 34t35.5 31t14.5 54l95 532h124l-94 -523q-6 -35 -9.5 -50.5t-11 -40t-17 -36t-26 -28t-40 -26.5t-56.5 -21t-77 -21zM119 610l20 116h131l-19 -116h-132z" />
<glyph unicode="k" horiz-adv-x="549" d="M15 0l129 729h123l-76 -427l216 223h150l-218 -214l156 -311h-126l-114 228l-93 -91l-24 -137h-123z" />
<glyph unicode="l" horiz-adv-x="265" d="M18 0l129 729h123l-129 -729h-123z" />
<glyph unicode="m" horiz-adv-x="921" d="M15 0l93 525h123l-13 -70q100 81 186 81q115 0 132 -95q38 35 92.5 65t108.5 30q83 0 114 -47t18 -128l-64 -361h-124l62 345q18 93 -53 93q-69 0 -157 -81l-62 -357h-123l62 345q16 93 -54 93q-67 0 -155 -79l-63 -359h-123z" />
<glyph unicode="n" horiz-adv-x="613" d="M15 0l93 525h123l-12 -65q113 76 207 76q82 0 115.5 -48t18.5 -130l-63 -358h-124l62 345q16 93 -57 93q-41 0 -91.5 -23.5t-84.5 -50.5l-64 -364h-123z" />
<glyph unicode="o" horiz-adv-x="615" d="M32 223q0 133 76 223t206 90q121 0 188.5 -62t67.5 -173q0 -133 -75.5 -222.5t-206.5 -89.5q-120 0 -188 62t-68 172zM157 222q0 -137 129 -137q73 0 116.5 65t43.5 152q0 137 -129 137q-73 0 -116.5 -65t-43.5 -152z" />
<glyph unicode="p" horiz-adv-x="615" d="M-21 -204l129 729h123l-11 -61q94 72 183 72q71 0 119.5 -46.5t48.5 -145.5q0 -157 -68 -256t-177 -99q-89 0 -177 76l-47 -269h-123zM166 160q65 -71 132 -71t107 72t40 169q0 50 -22.5 78t-65.5 28q-64 0 -155 -75z" />
<glyph unicode="q" horiz-adv-x="618" d="M32 181q0 156 69.5 255.5t180.5 99.5q83 0 172 -77l12 66h123l-129 -729h-123l48 274q-97 -81 -195 -81q-66 0 -112 46.5t-46 145.5zM159 194q0 -49 20 -77t58 -28q44 0 83 22.5t84 62.5l33 190q-60 71 -127 71q-69 0 -110 -71.5t-41 -169.5z" />
<glyph unicode="r" horiz-adv-x="406" d="M15 0l93 525h123l-20 -111q8 14 22 30.5t40.5 39.5t67.5 36.5t87 10.5l-20 -117q-48 0 -88.5 -18t-65 -44t-41.5 -52.5t-24 -44.5l-7 -18l-44 -237h-123z" />
<glyph unicode="s" horiz-adv-x="525" d="M-7 66l59 82q109 -63 196 -63q40 0 66 16t26 43q0 9 -3 17t-10.5 14.5t-14.5 11t-21 9.5t-22.5 8t-27.5 8.5t-29 8.5q-33 10 -56 20.5t-48 27.5t-38 43t-13 60q0 73 58 118.5t152 45.5q62 0 125 -19t107 -44l-58 -80q-94 48 -169 48q-39 0 -64 -15.5t-25 -41.5 q0 -9 3 -16.5t10.5 -14t14.5 -11t20 -9t22 -7.5t25.5 -7.5t25.5 -7.5q37 -11 62 -22t50 -29t38 -44.5t13 -60.5q0 -76 -61 -121t-159 -45q-133 0 -254 77z" />
<glyph unicode="t" horiz-adv-x="399" d="M48 433l15 92h71l24 132l127 20l-28 -152h143l-16 -92h-143l-51 -285q-8 -51 35 -51q31 0 91 24l31 -97q-99 -35 -161 -35q-68 0 -99.5 43.5t-16.5 129.5l48 271h-70z" />
<glyph unicode="u" horiz-adv-x="613" d="M39 167l63 358h124l-62 -345q-16 -94 58 -94q40 0 91 23.5t83 50.5l65 365h123l-93 -525h-123l11 62q-112 -73 -206 -73q-82 0 -115 48t-19 130z" />
<glyph unicode="v" horiz-adv-x="567" d="M54 525h128l64 -399l204 399h139l-300 -525h-122z" />
<glyph unicode="w" horiz-adv-x="823" d="M59 525h128l28 -394l181 394h106l38 -391l165 391h135l-254 -525h-118l-43 373l-179 -373h-118z" />
<glyph unicode="x" horiz-adv-x="586" d="M-45 0l257 263l-153 262h132l99 -194l165 194h153l-246 -261l165 -264h-135l-105 197l-172 -197h-160z" />
<glyph unicode="y" horiz-adv-x="569" d="M-9 -124q55 19 79 29t50 31t48 55l-114 534h128l67 -383l203 383h138l-296 -525q-52 -91 -80 -121q-62 -69 -195 -100z" />
<glyph unicode="z" horiz-adv-x="535" d="M-18 0l15 88l348 334h-278l18 103h449l-14 -89l-349 -334h288l-18 -102h-459z" />
<glyph unicode="{" horiz-adv-x="391" d="M19 306l14 84q62 -1 88 33.5t28 82.5l4 98q5 120 71.5 177.5t199.5 57.5h37l-12 -75h-19q-76 0 -108.5 -39t-36.5 -104l-4 -92q-4 -88 -42.5 -129.5t-115.5 -53.5q141 -32 93 -188l-21 -69q-8 -25 -12 -45.5t-2 -42.5t12 -36.5t32.5 -24t56.5 -9.5h18l-12 -74h-18 q-124 0 -182 63.5t-22 179.5l27 90q37 116 -74 116z" />
<glyph unicode="|" horiz-adv-x="243" d="M0 -123l166 941h93l-166 -941h-93z" />
<glyph unicode="}" horiz-adv-x="391" d="M-54 -143l13 74h18q136 0 146 144l4 92q4 87 42 128.5t113 53.5q-138 32 -90 188l21 69q10 32 12.5 57t-3 49.5t-30 38t-66.5 13.5h-19l12 75h18q124 0 182 -63.5t22 -179.5l-27 -90q-19 -60 0 -88t76 -28l-15 -84q-63 0 -89 -34t-28 -82l-4 -98q-5 -120 -71 -177.5 t-199 -57.5h-38z" />
<glyph unicode="~" d="M15 222q41 70 85.5 104.5t99.5 34.5q52 0 123.5 -37.5t107.5 -37.5q49 0 99 70l75 -33q-41 -70 -85.5 -104.5t-99.5 -34.5q-52 0 -123.5 37.5t-107.5 37.5q-48 0 -98 -70z" />
<glyph unicode="&#xa1;" horiz-adv-x="277" d="M10 0l123 479h75l-48 -479h-150zM119 560l24 140h131l-23 -140h-132z" />
<glyph unicode="&#xa2;" horiz-adv-x="564" d="M57 296q0 154 80 241t186 87h4l14 76h92l-16 -91q51 -16 142 -70l-59 -83q-63 40 -101 53l-55 -316q34 11 108 45l43 -93q-105 -48 -170 -61l-15 -84h-92l13 78q-79 9 -126.5 65t-47.5 153zM185 307q0 -98 66 -119l57 323q-53 -18 -88 -75.5t-35 -128.5z" />
<glyph unicode="&#xa3;" horiz-adv-x="571" d="M2 0l15 88q5 2 13.5 6.5t31.5 20.5t41.5 33.5t37 45.5t25.5 58h-108l13 78h95q-2 10 -26 75.5t-24 109.5q0 89 59.5 142.5t162.5 53.5q52 0 104.5 -17.5t78.5 -33t65 -41.5l-66 -77q-98 61 -163 61q-53 0 -83.5 -28.5t-30.5 -70.5q0 -33 23 -87.5t27 -86.5h162l-14 -78 h-153q-24 -87 -105 -145h296l-17 -107h-460z" />
<glyph unicode="&#xa5;" horiz-adv-x="691" d="M71 152l13 76h183l9 51l-4 10h-177l12 76h133l-141 335h136l117 -318l227 318h151l-258 -335h132l-13 -76h-178l-10 -13l-8 -48h185l-14 -76h-184l-26 -152h-129l26 152h-182z" />
<glyph unicode="&#xa6;" horiz-adv-x="245" d="M1 -123l73 413h93l-73 -413h-93zM94 405l73 413h93l-73 -413h-93z" />
<glyph unicode="&#xa7;" horiz-adv-x="567" d="M19 -9l58 80q96 -48 171 -48q39 0 63.5 15.5t24.5 40.5q0 9 -3 16.5t-10 13.5t-14 10.5t-20 9.5t-21.5 7.5t-26 7.5t-26.5 8q-77 24 -120.5 58.5t-43.5 95.5q0 99 115 136q-52 40 -52 105q0 73 57.5 118.5t151.5 45.5q121 0 233 -63l-58 -80q-94 48 -169 48 q-40 0 -64.5 -15.5t-24.5 -41.5q0 -9 3 -16.5t10.5 -13.5t13.5 -10.5t19.5 -9.5t21.5 -7.5t26.5 -7.5t26.5 -8q76 -23 119 -57.5t43 -95.5q0 -100 -115 -137q53 -39 53 -106q0 -72 -57.5 -117t-151.5 -45q-122 0 -233 63zM172 325q0 -29 28.5 -44.5t87.5 -32.5q13 -3 19 -5 q0 -1 1 -1q45 6 69.5 26t24.5 46q0 10 -3 18t-11.5 15t-15 11.5t-22 10.5t-23.5 8.5t-28.5 8.5t-28.5 9q-47 -4 -72.5 -24t-25.5 -46z" />
<glyph unicode="&#xa8;" horiz-adv-x="247" d="M84 604l19 111h108l-18 -111h-109zM265 604l19 111h108l-21 -111h-106z" />
<glyph unicode="&#xa9;" horiz-adv-x="813" d="M59 313q0 167 102.5 282.5t279.5 115.5q152 0 241 -89.5t89 -234.5q0 -108 -43 -197t-132 -145t-208 -56q-151 0 -240 90t-89 234zM98 314q0 -127 78.5 -207t215.5 -80q156 0 248 103.5t92 255.5q0 127 -78.5 207t-215.5 80q-156 0 -248 -103.5t-92 -255.5zM230 302 q-5 122 54.5 193.5t147.5 71.5q78 0 160 -67l-32 -33q-67 56 -129 56q-66 0 -110 -62t-40 -155q2 -61 26 -95t68 -34q71 0 149 54l26 -37q-93 -62 -173 -62q-62 0 -103 44.5t-44 125.5z" />
<glyph unicode="&#xaa;" horiz-adv-x="435" d="M83 498q0 92 43.5 150.5t112.5 58.5q53 0 108 -45l7 38h87l-55 -315h-88l6 37q-59 -44 -119 -44q-43 0 -72.5 29t-29.5 91zM173 505q0 -57 46 -57q43 0 98 45l18 105q-37 39 -74 39q-40 0 -64 -39t-24 -93z" />
<glyph unicode="&#xab;" horiz-adv-x="683" d="M20 236l13 76l340 215l-21 -127l-224 -137l174 -134l-18 -109zM314 236l13 76l339 215l-21 -127l-223 -137l173 -134l-18 -109z" />
<glyph unicode="&#xac;" d="M18 286l16 94h580l-51 -290h-102l34 196h-477z" />
<glyph unicode="&#xad;" horiz-adv-x="432" d="M52 234l18 101h304l-18 -101h-304z" />
<glyph unicode="&#xae;" horiz-adv-x="491" d="M82 480q0 92 56.5 156t155.5 64q84 0 133 -49.5t49 -130.5q0 -92 -56.5 -156t-154.5 -64q-84 0 -133.5 49.5t-49.5 130.5zM116 481q0 -65 40.5 -106.5t110.5 -41.5q81 0 129 53.5t48 132.5q0 65 -41 106.5t-112 41.5q-81 0 -128 -53.5t-47 -132.5zM189 402l35 201h89 q28 0 44.5 -15t16.5 -37q0 -24 -17 -41t-45 -22l33 -86h-34l-31 85h-43l-15 -85h-33zM242 518h52q22 0 34.5 9.5t12.5 23.5q0 22 -29 22h-60z" />
<glyph unicode="&#xaf;" horiz-adv-x="305" d="M113 619l13 75h300l-13 -75h-300z" />
<glyph unicode="&#xb0;" horiz-adv-x="427" d="M78 527q0 72 51 123t122 51q72 0 123 -51t51 -123q0 -71 -51 -122t-123 -51q-71 0 -122 51t-51 122zM152 527q0 -41 29 -70t70 -29t70 29t29 70t-29 70t-70 29t-70 -29t-29 -70z" />
<glyph unicode="&#xb1;" d="M8 0l14 82h506l-13 -82h-507zM61 297l15 95h204l26 146h98l-26 -146h204l-15 -95h-206l-26 -147h-97l26 147h-203z" />
<glyph unicode="&#xb2;" horiz-adv-x="404" d="M48 385l7 41q6 34 20.5 60.5t43.5 49.5t46 33.5t58 33.5q8 5 22.5 13t21.5 12t18.5 10.5t17 10.5t13 9.5t11.5 10t7.5 9.5t5 10.5t1.5 10.5q-2 38 -59 38q-50 0 -122 -39l-34 63q86 51 167 51q66 0 103 -31t37 -79q0 -24 -12 -46.5t-24.5 -36.5t-43 -33.5t-44 -26.5 t-50.5 -26q-49 -25 -66.5 -39t-22.5 -34h218l-12 -75h-328z" />
<glyph unicode="&#xb3;" horiz-adv-x="398" d="M42 438l45 57q71 -42 130 -42q41 0 65.5 16.5t24.5 43.5q0 58 -114 58h-19l11 75h23q45 0 80 15t35 40q0 16 -14.5 26t-38.5 10q-53 0 -119 -36l-31 62q78 49 165 49q63 0 97 -27t34 -68q0 -69 -94 -105q34 -10 55.5 -37.5t21.5 -63.5q0 -53 -43.5 -93t-129.5 -40 q-90 0 -184 60z" />
<glyph unicode="&#xb4;" horiz-adv-x="235" d="M85 594l143 135h156l-191 -135h-108z" />
<glyph unicode="&#xb5;" horiz-adv-x="615" d="M-15 -204l129 729h124l-65 -366q-5 -73 61 -73q40 0 91 23.5t83 50.5l65 365h123l-93 -525h-123l11 62q-112 -73 -206 -73q-17 0 -41 4l-35 -197h-124z" />
<glyph unicode="&#xb6;" horiz-adv-x="685" d="M59 430q0 128 85 199t214 71h113l-156 -885h-106l76 422q-103 0 -164.5 49t-61.5 144zM408 -186l156 886h106l-156 -886h-106z" />
<glyph unicode="&#xb7;" horiz-adv-x="260" d="M49 210l25 150h131l-25 -150h-131z" />
<glyph unicode="&#xb8;" horiz-adv-x="178" d="M-35 -159l36 64q23 -12 49 -12q56 0 56 49q0 12 -4 27t-8 24l-4 9h56q26 -36 26 -80q0 -49 -33.5 -75t-86.5 -26q-51 0 -87 20z" />
<glyph unicode="&#xb9;" horiz-adv-x="252" d="M70 741l129 64h85l-74 -420h-91l61 330l-80 -37z" />
<glyph unicode="&#xba;" horiz-adv-x="425" d="M81 515q0 82 49 137t135 55q76 0 119 -36.5t43 -101.5q0 -81 -49.5 -136t-135.5 -55q-75 0 -118 36.5t-43 100.5zM168 520q0 -75 76 -75q45 0 70 37t25 82q0 75 -75 75q-45 0 -70.5 -36.5t-25.5 -82.5z" />
<glyph unicode="&#xbb;" horiz-adv-x="682" d="M6 20l21 127l223 136l-172 135l17 109l264 -215l-13 -76zM300 20l21 127l223 136l-173 135l18 109l263 -215l-12 -76z" />
<glyph unicode="&#xbc;" horiz-adv-x="859" d="M84 636l129 64h85l-74 -420h-91l61 330l-80 -37zM120 0l450 700h98l-450 -700h-98zM396 81l9 63l250 276h120l-47 -265h66l-11 -74h-68l-14 -81h-91l14 81h-228zM507 155h130l33 185z" />
<glyph unicode="&#xbd;" horiz-adv-x="882" d="M84 636l129 64h85l-74 -420h-91l61 330l-80 -37zM120 0l450 700h98l-450 -700h-98zM451 0l7 41q6 34 20.5 60.5t43 49.5t46 34t57.5 33q85 47 101 61q17 18 18 34q0 39 -59 39q-51 0 -122 -39l-34 63q83 51 166 51q67 0 103.5 -31t36.5 -79q0 -20 -6 -38t-22 -34.5 t-27.5 -27t-38.5 -26.5t-37.5 -21.5t-41.5 -21.5q-49 -25 -66.5 -39t-22.5 -34h217l-11 -75h-328z" />
<glyph unicode="&#xbe;" horiz-adv-x="963" d="M41 333l45 57q71 -42 130 -42q41 0 65.5 16.5t24.5 43.5q0 58 -114 58h-19l11 75h23q45 0 80 15t35 40q0 16 -14.5 26t-38.5 10q-53 0 -119 -36l-31 62q78 49 165 49q63 0 97 -27t34 -68q0 -69 -94 -105q34 -10 55.5 -37.5t21.5 -63.5q0 -53 -43.5 -93t-129.5 -40 q-90 0 -184 60zM227 0l450 700h99l-451 -700h-98zM503 81l9 63l250 276h120l-47 -265h66l-11 -74h-68l-14 -81h-91l14 81h-228zM615 155h129l33 185z" />
<glyph unicode="&#xbf;" horiz-adv-x="527" d="M17 153q0 48 21.5 86.5t59.5 65t82.5 44t98.5 28.5l27 102h80l-22 -173q-218 -40 -218 -136q0 -35 26 -54.5t70 -19.5q69 0 171 56l44 -92q-121 -71 -238 -71q-90 0 -146 43.5t-56 120.5zM295 560l24 140h131l-24 -140h-131z" />
<glyph unicode="&#xc0;" horiz-adv-x="695" d="M-38 0l386 700h142l140 -700h-136l-23 149h-285l-75 -149h-149zM238 252h217l-51 329zM278 880h139l102 -135h-95z" />
<glyph unicode="&#xc1;" horiz-adv-x="695" d="M-38 0l386 700h142l140 -700h-136l-23 149h-285l-75 -149h-149zM238 252h217l-51 329zM337 745l143 135h156l-191 -135h-108z" />
<glyph unicode="&#xc2;" horiz-adv-x="695" d="M-38 0l386 700h142l140 -700h-136l-23 149h-285l-75 -149h-149zM238 252h217l-51 329zM263 745l126 135h126l79 -135h-81l-66 78l-93 -78h-91z" />
<glyph unicode="&#xc3;" horiz-adv-x="695" d="M-38 0l386 700h142l140 -700h-136l-23 149h-285l-75 -149h-149zM238 252h217l-51 329zM264 786q22 32 34.5 47.5t33.5 28.5t46 13q29 0 69 -24t55 -24q23 0 59 47l54 -36q-22 -31 -34.5 -46.5t-33.5 -28.5t-46 -13q-29 0 -68.5 24t-54.5 24q-24 0 -60 -47z" />
<glyph unicode="&#xc4;" horiz-adv-x="695" d="M-38 0l386 700h142l140 -700h-136l-23 149h-285l-75 -149h-149zM238 252h217l-51 329zM285 755l20 111h107l-19 -111h-108zM466 755l19 111h108l-20 -111h-107z" />
<glyph unicode="&#xc5;" horiz-adv-x="695" d="M-38 0l386 700h142l140 -700h-136l-23 149h-285l-75 -149h-149zM238 252h217l-51 329zM337 844q0 45 31.5 77t77.5 32q45 0 77 -32t32 -77q0 -46 -32 -77.5t-77 -31.5q-46 0 -77.5 31.5t-31.5 77.5zM399 844q0 -20 13.5 -33.5t33.5 -13.5t33.5 13.5t13.5 33.5t-13.5 33.5 t-33.5 13.5t-33.5 -13.5t-13.5 -33.5z" />
<glyph unicode="&#xc6;" horiz-adv-x="1033" d="M-74 0l596 700h529l-18 -110h-344l-35 -186h284l-19 -108h-283l-35 -187h351l-18 -109h-478l26 149h-269l-122 -149h-165zM300 255h200l54 309z" />
<glyph unicode="&#xc7;" horiz-adv-x="654" d="M55 272q0 200 98.5 319.5t245.5 119.5q54 0 110 -19t86.5 -37t82.5 -53l-71 -90q-61 42 -105 62.5t-89 20.5q-98 0 -161.5 -91t-63.5 -223q0 -88 32.5 -132.5t90.5 -44.5q82 0 223 81l56 -101q-151 -82 -266 -93q20 -33 20 -69q0 -49 -33.5 -75t-86.5 -26q-51 0 -87 20 l36 64q23 -12 48 -12q57 0 57 49q0 22 -11 48q-98 5 -155 75t-57 207z" />
<glyph unicode="&#xc8;" horiz-adv-x="607" d="M29 0l122 700h473l-18 -110h-344l-35 -186h283l-18 -108h-283l-34 -187h350l-18 -109h-478zM248 880h140l103 -135h-96z" />
<glyph unicode="&#xc9;" horiz-adv-x="607" d="M29 0l122 700h473l-18 -110h-344l-35 -186h283l-18 -108h-283l-34 -187h350l-18 -109h-478zM304 745l143 135h154l-189 -135h-108z" />
<glyph unicode="&#xca;" horiz-adv-x="607" d="M29 0l122 700h473l-18 -110h-344l-35 -186h283l-18 -108h-283l-34 -187h350l-18 -109h-478zM233 745l128 135h124l79 -135h-80l-66 78l-92 -78h-93z" />
<glyph unicode="&#xcb;" horiz-adv-x="607" d="M29 0l122 700h473l-18 -110h-344l-35 -186h283l-18 -108h-283l-34 -187h350l-18 -109h-478zM257 755l19 111h109l-20 -111h-108zM438 755l19 111h108l-19 -111h-108z" />
<glyph unicode="&#xcc;" horiz-adv-x="292" d="M29 0l123 700h128l-123 -700h-128zM74 880h140l103 -135h-96z" />
<glyph unicode="&#xcd;" horiz-adv-x="292" d="M29 0l123 700h128l-123 -700h-128zM129 745l143 135h155l-190 -135h-108z" />
<glyph unicode="&#xce;" horiz-adv-x="292" d="M29 0l123 700h128l-123 -700h-128zM59 745l126 135h125l79 -135h-80l-66 78l-92 -78h-92z" />
<glyph unicode="&#xcf;" horiz-adv-x="292" d="M29 0l123 700h128l-123 -700h-128zM82 755l19 111h109l-20 -111h-108zM263 755l19 111h108l-20 -111h-107z" />
<glyph unicode="&#xd0;" horiz-adv-x="727" d="M21 299l16 102h74l52 299h207q160 0 241 -72t81 -201q0 -58 -12.5 -115t-42.5 -114t-74.5 -100.5t-113.5 -70.5t-153 -27h-255l52 299h-72zM188 109h90q134 0 208.5 90t74.5 226q0 88 -52.5 126.5t-156.5 38.5h-78l-34 -189h151l-16 -102h-153z" />
<glyph unicode="&#xd1;" horiz-adv-x="736" d="M29 0l123 700h131l221 -518l91 518h129l-123 -700h-131l-222 519l-91 -519h-128zM288 786q22 32 34.5 47.5t33.5 28.5t46 13q29 0 69 -24t55 -24q23 0 59 47l54 -36q-22 -31 -34.5 -46.5t-33.5 -28.5t-46 -13q-29 0 -68.5 24t-54.5 24q-24 0 -60 -47z" />
<glyph unicode="&#xd2;" horiz-adv-x="760" d="M53 291q0 50 10.5 103t37 111t66 103t102.5 74t141 29q156 0 234.5 -81t79.5 -222q0 -50 -10.5 -103t-37 -111t-66 -103t-103 -74t-141.5 -29q-155 0 -233.5 81t-79.5 222zM186 294q0 -196 176 -196q48 0 87.5 21t65 53.5t43.5 74.5t25.5 81.5t7.5 76.5q0 196 -176 196 q-48 0 -87.5 -21t-65 -53.5t-43.5 -74.5t-25.5 -81.5t-7.5 -76.5zM309 880h139l102 -135h-95z" />
<glyph unicode="&#xd3;" horiz-adv-x="760" d="M53 291q0 50 10.5 103t37 111t66 103t102.5 74t141 29q156 0 234.5 -81t79.5 -222q0 -50 -10.5 -103t-37 -111t-66 -103t-103 -74t-141.5 -29q-155 0 -233.5 81t-79.5 222zM186 294q0 -196 176 -196q48 0 87.5 21t65 53.5t43.5 74.5t25.5 81.5t7.5 76.5q0 196 -176 196 q-48 0 -87.5 -21t-65 -53.5t-43.5 -74.5t-25.5 -81.5t-7.5 -76.5zM363 745l143 135h156l-191 -135h-108z" />
<glyph unicode="&#xd4;" horiz-adv-x="760" d="M53 291q0 50 10.5 103t37 111t66 103t102.5 74t141 29q156 0 234.5 -81t79.5 -222q0 -50 -10.5 -103t-37 -111t-66 -103t-103 -74t-141.5 -29q-155 0 -233.5 81t-79.5 222zM186 294q0 -196 176 -196q48 0 87.5 21t65 53.5t43.5 74.5t25.5 81.5t7.5 76.5q0 196 -176 196 q-48 0 -87.5 -21t-65 -53.5t-43.5 -74.5t-25.5 -81.5t-7.5 -76.5zM294 745l126 135h126l79 -135h-81l-65 78l-92 -78h-93z" />
<glyph unicode="&#xd5;" horiz-adv-x="760" d="M53 291q0 50 10.5 103t37 111t66 103t102.5 74t141 29q156 0 234.5 -81t79.5 -222q0 -50 -10.5 -103t-37 -111t-66 -103t-103 -74t-141.5 -29q-155 0 -233.5 81t-79.5 222zM186 294q0 -196 176 -196q48 0 87.5 21t65 53.5t43.5 74.5t25.5 81.5t7.5 76.5q0 196 -176 196 q-48 0 -87.5 -21t-65 -53.5t-43.5 -74.5t-25.5 -81.5t-7.5 -76.5zM294 786q22 32 34.5 47.5t33.5 28.5t46 13q29 0 69 -24t55 -24q23 0 59 47l54 -36q-22 -31 -34.5 -46.5t-33.5 -28.5t-46 -13q-29 0 -68.5 24t-54.5 24q-24 0 -60 -47z" />
<glyph unicode="&#xd6;" horiz-adv-x="760" d="M53 291q0 50 10.5 103t37 111t66 103t102.5 74t141 29q156 0 234.5 -81t79.5 -222q0 -50 -10.5 -103t-37 -111t-66 -103t-103 -74t-141.5 -29q-155 0 -233.5 81t-79.5 222zM186 294q0 -196 176 -196q48 0 87.5 21t65 53.5t43.5 74.5t25.5 81.5t7.5 76.5q0 196 -176 196 q-48 0 -87.5 -21t-65 -53.5t-43.5 -74.5t-25.5 -81.5t-7.5 -76.5zM316 755l20 111h107l-19 -111h-108zM496 755l19 111h109l-20 -111h-108z" />
<glyph unicode="&#xd7;" d="M83 208l166 132l-117 129l75 63l119 -131l170 135l62 -73l-167 -133l117 -128l-75 -64l-119 131l-169 -134z" />
<glyph unicode="&#xd8;" horiz-adv-x="759" d="M13 0l93 99q-53 75 -53 192q0 50 10.5 103.5t37 111t65.5 102.5t102.5 74t141.5 29q131 0 210 -60l46 49h96l-93 -100q54 -75 54 -192q0 -50 -10.5 -103.5t-37 -111t-65.5 -102.5t-102.5 -74t-141.5 -29q-134 0 -212 60l-45 -48h-96zM185 294q0 -54 14 -95l338 362 q-45 40 -123 40q-48 0 -87.5 -21t-65 -53.5t-43.5 -74.5t-25.5 -81.5t-7.5 -76.5zM238 138q43 -40 124 -40q59 0 105 31t72 79.5t39 99t13 97.5q0 56 -15 96z" />
<glyph unicode="&#xd9;" horiz-adv-x="709" d="M73 288l72 412h130l-78 -436q-14 -78 9.5 -121.5t108.5 -43.5q86 0 128 44t56 121l77 436h129l-78 -442q-10 -60 -30.5 -105.5t-55.5 -84t-92.5 -59t-135.5 -20.5q-85 0 -140 23t-78.5 63t-29.5 95t8 118zM284 880h140l102 -135h-95z" />
<glyph unicode="&#xda;" horiz-adv-x="709" d="M73 288l72 412h130l-78 -436q-14 -78 9.5 -121.5t108.5 -43.5q86 0 128 44t56 121l77 436h129l-78 -442q-10 -60 -30.5 -105.5t-55.5 -84t-92.5 -59t-135.5 -20.5q-85 0 -140 23t-78.5 63t-29.5 95t8 118zM337 745l144 135h155l-190 -135h-109z" />
<glyph unicode="&#xdb;" horiz-adv-x="709" d="M73 288l72 412h130l-78 -436q-14 -78 9.5 -121.5t108.5 -43.5q86 0 128 44t56 121l77 436h129l-78 -442q-10 -60 -30.5 -105.5t-55.5 -84t-92.5 -59t-135.5 -20.5q-85 0 -140 23t-78.5 63t-29.5 95t8 118zM269 745l126 135h125l79 -135h-80l-66 78l-92 -78h-92z" />
<glyph unicode="&#xdc;" horiz-adv-x="709" d="M73 288l72 412h130l-78 -436q-14 -78 9.5 -121.5t108.5 -43.5q86 0 128 44t56 121l77 436h129l-78 -442q-10 -60 -30.5 -105.5t-55.5 -84t-92.5 -59t-135.5 -20.5q-85 0 -140 23t-78.5 63t-29.5 95t8 118zM292 755l19 111h108l-19 -111h-108zM473 755l19 111h107 l-20 -111h-106z" />
<glyph unicode="&#xdd;" horiz-adv-x="647" d="M76 700h136l117 -319l227 319h151l-325 -423l-49 -277h-128l49 277zM304 745l143 135h156l-191 -135h-108z" />
<glyph unicode="&#xde;" horiz-adv-x="668" d="M29 0l123 700h128l-20 -117h124q260 0 260 -196q0 -104 -75.5 -176t-211.5 -72h-175l-25 -139h-128zM200 246h139q79 0 125.5 35.5t46.5 102.5q0 92 -128 92h-141z" />
<glyph unicode="&#xdf;" horiz-adv-x="692" d="M15 0l86 488q21 115 95 169t214 54t206 -60t46 -168l-2 -12l-67 -72q-76 42 -132 42q-34 0 -56 -16t-22 -42q0 -9 2.5 -16.5t9 -13.5t11.5 -10t17 -9.5t18.5 -8t23 -8t23.5 -7.5q69 -24 106 -59t37 -96q0 -76 -57 -121t-145 -45q-65 0 -126 23t-104 55l55 81 q35 -24 85.5 -44t83.5 -20q32 0 57 16.5t25 42.5q0 19 -15.5 33.5t-33.5 22t-49 18.5q-4 1 -6.5 2t-5.5 2q-64 23 -100.5 55.5t-36.5 94.5q0 72 52 118.5t140 46.5q45 0 92 -13q-3 91 -135 91q-77 0 -124 -31t-61 -110l-84 -473h-123z" />
<glyph unicode="&#xe0;" horiz-adv-x="618" d="M32 181q0 156 69.5 255.5t180.5 99.5q83 0 172 -77l12 66h123l-93 -525h-123l12 70q-97 -81 -195 -81q-66 0 -112 46.5t-46 145.5zM159 194q0 -49 20 -77t58 -28q44 0 83 22.5t84 62.5l33 190q-60 71 -127 71q-69 0 -110 -71.5t-41 -169.5zM214 729h140l102 -135h-95z " />
<glyph unicode="&#xe1;" horiz-adv-x="618" d="M32 181q0 156 69.5 255.5t180.5 99.5q83 0 172 -77l12 66h123l-93 -525h-123l12 70q-97 -81 -195 -81q-66 0 -112 46.5t-46 145.5zM159 194q0 -49 20 -77t58 -28q44 0 83 22.5t84 62.5l33 190q-60 71 -127 71q-69 0 -110 -71.5t-41 -169.5zM256 594l143 135h155 l-189 -135h-109z" />
<glyph unicode="&#xe2;" horiz-adv-x="618" d="M32 181q0 156 69.5 255.5t180.5 99.5q83 0 172 -77l12 66h123l-93 -525h-123l12 70q-97 -81 -195 -81q-66 0 -112 46.5t-46 145.5zM159 194q0 -49 20 -77t58 -28q44 0 83 22.5t84 62.5l33 190q-60 71 -127 71q-69 0 -110 -71.5t-41 -169.5zM199 594l126 135h125l79 -135 h-81l-65 78l-92 -78h-92z" />
<glyph unicode="&#xe3;" horiz-adv-x="618" d="M32 181q0 156 69.5 255.5t180.5 99.5q83 0 172 -77l12 66h123l-93 -525h-123l12 70q-97 -81 -195 -81q-66 0 -112 46.5t-46 145.5zM159 194q0 -49 20 -77t58 -28q44 0 83 22.5t84 62.5l33 190q-60 71 -127 71q-69 0 -110 -71.5t-41 -169.5zM202 635q22 32 34.5 47.5 t33.5 28.5t46 13q29 0 68.5 -24t54.5 -24q25 0 59 47l54 -36q-22 -31 -34.5 -46.5t-33.5 -28.5t-46 -13q-29 0 -68.5 24t-54.5 24q-25 0 -59 -47z" />
<glyph unicode="&#xe4;" horiz-adv-x="618" d="M32 181q0 156 69.5 255.5t180.5 99.5q83 0 172 -77l12 66h123l-93 -525h-123l12 70q-97 -81 -195 -81q-66 0 -112 46.5t-46 145.5zM159 194q0 -49 20 -77t58 -28q44 0 83 22.5t84 62.5l33 190q-60 71 -127 71q-69 0 -110 -71.5t-41 -169.5zM226 604l19 111h108l-18 -111 h-109zM407 604l19 111h106l-18 -111h-107z" />
<glyph unicode="&#xe5;" horiz-adv-x="618" d="M32 181q0 156 69.5 255.5t180.5 99.5q83 0 172 -77l12 66h123l-93 -525h-123l12 70q-97 -81 -195 -81q-66 0 -112 46.5t-46 145.5zM159 194q0 -49 20 -77t58 -28q44 0 83 22.5t84 62.5l33 190q-60 71 -127 71q-69 0 -110 -71.5t-41 -169.5zM274 693q0 45 32 77t77 32 q46 0 78 -32t32 -77q0 -46 -32 -77.5t-78 -31.5q-45 0 -77 31.5t-32 77.5zM336 693q0 -20 13.5 -33.5t33.5 -13.5t34 13.5t14 33.5t-14 33.5t-34 13.5q-19 0 -33 -14t-14 -33z" />
<glyph unicode="&#xe6;" horiz-adv-x="940" d="M32 181q0 156 69.5 255.5t180.5 99.5q83 0 172 -77l12 66h123l-2 -11q57 22 121 22q91 0 145 -40.5t54 -106.5q0 -93 -83 -132.5t-239 -39.5h-55v-8q0 -127 104 -127q65 0 195 65l41 -87q-149 -71 -257 -71q-67 0 -114 25l-2 -14h-124l12 70q-97 -81 -195 -81 q-66 0 -112 46.5t-46 145.5zM159 194q0 -49 20 -77t58 -28q44 0 83 22.5t84 62.5l1 8q-1 11 -1 34q0 83 31 151q-61 68 -125 68q-69 0 -110 -71.5t-41 -169.5zM540 288h52q96 0 146 25t50 70q0 29 -23 46t-60 17q-60 0 -103 -45t-62 -113z" />
<glyph unicode="&#xe7;" horiz-adv-x="521" d="M31 208q0 154 80 241t186 87q18 0 37 -2.5t33.5 -5.5t32.5 -9.5t28.5 -10.5t27.5 -12.5t23.5 -12t22.5 -12.5t19 -11l-59 -85q-3 2 -19.5 11.5t-27.5 15t-28 13t-33.5 11.5t-31.5 4q-67 0 -115 -63t-48 -148q0 -58 25 -91t74 -33q15 0 32 3.5t36.5 11t31 12.5t32.5 15 t24 11l43 -95q-127 -58 -205 -63q19 -33 19 -68q0 -48 -33.5 -74.5t-85.5 -26.5t-88 20l36 64q23 -12 50 -12q55 0 55 49q0 24 -12 50q-74 12 -118 67.5t-44 148.5z" />
<glyph unicode="&#xe8;" horiz-adv-x="565" d="M31 216q0 140 82.5 230t221.5 90q91 0 145 -40.5t54 -106.5q0 -93 -83 -132.5t-239 -39.5h-56v-8q0 -127 105 -127q63 0 195 65l40 -87q-146 -71 -256 -71q-98 0 -153.5 56t-55.5 171zM166 288h52q96 0 146 25t50 70q0 29 -23 46t-60 17q-60 0 -103 -45t-62 -113z M202 729h140l102 -135h-95z" />
<glyph unicode="&#xe9;" horiz-adv-x="565" d="M31 216q0 140 82.5 230t221.5 90q91 0 145 -40.5t54 -106.5q0 -93 -83 -132.5t-239 -39.5h-56v-8q0 -127 105 -127q63 0 195 65l40 -87q-146 -71 -256 -71q-98 0 -153.5 56t-55.5 171zM166 288h52q96 0 146 25t50 70q0 29 -23 46t-60 17q-60 0 -103 -45t-62 -113z M257 594l144 135h154l-189 -135h-109z" />
<glyph unicode="&#xea;" horiz-adv-x="565" d="M31 216q0 140 82.5 230t221.5 90q91 0 145 -40.5t54 -106.5q0 -93 -83 -132.5t-239 -39.5h-56v-8q0 -127 105 -127q63 0 195 65l40 -87q-146 -71 -256 -71q-98 0 -153.5 56t-55.5 171zM166 288h52q96 0 146 25t50 70q0 29 -23 46t-60 17q-60 0 -103 -45t-62 -113z M187 594l126 135h126l79 -135h-81l-65 78l-92 -78h-93z" />
<glyph unicode="&#xeb;" horiz-adv-x="565" d="M31 216q0 140 82.5 230t221.5 90q91 0 145 -40.5t54 -106.5q0 -93 -83 -132.5t-239 -39.5h-56v-8q0 -127 105 -127q63 0 195 65l40 -87q-146 -71 -256 -71q-98 0 -153.5 56t-55.5 171zM166 288h52q96 0 146 25t50 70q0 29 -23 46t-60 17q-60 0 -103 -45t-62 -113z M210 604l20 111h108l-19 -111h-109zM391 604l20 111h107l-20 -111h-107z" />
<glyph unicode="&#xec;" horiz-adv-x="259" d="M15 0l93 525h123l-93 -525h-123zM31 729h140l103 -135h-95z" />
<glyph unicode="&#xed;" horiz-adv-x="259" d="M15 0l93 525h123l-93 -525h-123zM86 594l143 135h155l-190 -135h-108z" />
<glyph unicode="&#xee;" horiz-adv-x="259" d="M15 0l93 525h123l-93 -525h-123zM16 594l127 135h125l79 -135h-81l-65 78l-92 -78h-93z" />
<glyph unicode="&#xef;" horiz-adv-x="259" d="M15 0l93 525h123l-93 -525h-123zM39 604l20 111h108l-20 -111h-108zM220 604l20 111h107l-20 -111h-107z" />
<glyph unicode="&#xf0;" horiz-adv-x="628" d="M29 209q0 114 76.5 190.5t187.5 76.5q37 0 69 -9.5t51.5 -23.5t33 -28t19.5 -23l5 -10q-4 66 -33 119t-83 79l-51 -45h-112l76 66h-14q-20 0 -41.5 -2t-33.5 -4l-12 -2v97q40 10 95 10q54 0 104 -14l50 43h111l-88 -76q71 -45 108.5 -125.5t37.5 -187.5 q0 -160 -84 -255.5t-228 -95.5q-113 0 -178.5 58t-65.5 162zM158 205q0 -54 29 -87t92 -33q84 0 127 53.5t43 121.5q0 54 -31 86.5t-92 32.5q-79 0 -123.5 -51t-44.5 -123z" />
<glyph unicode="&#xf1;" horiz-adv-x="613" d="M15 0l93 525h123l-12 -65q113 76 207 76q82 0 115.5 -48t18.5 -130l-63 -358h-124l62 345q16 93 -57 93q-41 0 -91.5 -23.5t-84.5 -50.5l-64 -364h-123zM197 635q22 32 34.5 47.5t33.5 28.5t46 13q29 0 69 -24t55 -24q23 0 59 47l54 -36q-22 -31 -34.5 -46.5t-33.5 -28.5 t-46 -13q-29 0 -68.5 24t-54.5 24q-24 0 -60 -47z" />
<glyph unicode="&#xf2;" horiz-adv-x="615" d="M32 223q0 133 76 223t206 90q121 0 188.5 -62t67.5 -173q0 -133 -75.5 -222.5t-206.5 -89.5q-120 0 -188 62t-68 172zM157 222q0 -137 129 -137q73 0 116.5 65t43.5 152q0 137 -129 137q-73 0 -116.5 -65t-43.5 -152zM210 729h140l102 -135h-95z" />
<glyph unicode="&#xf3;" horiz-adv-x="615" d="M32 223q0 133 76 223t206 90q121 0 188.5 -62t67.5 -173q0 -133 -75.5 -222.5t-206.5 -89.5q-120 0 -188 62t-68 172zM157 222q0 -137 129 -137q73 0 116.5 65t43.5 152q0 137 -129 137q-73 0 -116.5 -65t-43.5 -152zM265 594l143 135h155l-190 -135h-108z" />
<glyph unicode="&#xf4;" horiz-adv-x="615" d="M32 223q0 133 76 223t206 90q121 0 188.5 -62t67.5 -173q0 -133 -75.5 -222.5t-206.5 -89.5q-120 0 -188 62t-68 172zM157 222q0 -137 129 -137q73 0 116.5 65t43.5 152q0 137 -129 137q-73 0 -116.5 -65t-43.5 -152zM195 594l126 135h125l79 -135h-80l-66 78l-92 -78 h-92z" />
<glyph unicode="&#xf5;" horiz-adv-x="615" d="M32 223q0 133 76 223t206 90q121 0 188.5 -62t67.5 -173q0 -133 -75.5 -222.5t-206.5 -89.5q-120 0 -188 62t-68 172zM157 222q0 -137 129 -137q73 0 116.5 65t43.5 152q0 137 -129 137q-73 0 -116.5 -65t-43.5 -152zM193 620q37 61 55 77q26 23 60 23q25 0 68.5 -20.5 t62.5 -20.5q30 0 55 40l55 -21q-36 -60 -54 -76q-26 -23 -59 -23q-26 0 -69 20t-62 20q-31 0 -56 -39z" />
<glyph unicode="&#xf6;" horiz-adv-x="615" d="M32 223q0 133 76 223t206 90q121 0 188.5 -62t67.5 -173q0 -133 -75.5 -222.5t-206.5 -89.5q-120 0 -188 62t-68 172zM157 222q0 -137 129 -137q73 0 116.5 65t43.5 152q0 137 -129 137q-73 0 -116.5 -65t-43.5 -152zM219 604l19 111h108l-19 -111h-108zM399 604l20 111 h107l-20 -111h-107z" />
<glyph unicode="&#xf7;" d="M60 286l16 94h506l-15 -94h-507zM221 146q-3 30 20 52.5t55 22.5q25 0 42.5 -16t19.5 -40q3 -30 -19.5 -52t-54.5 -22q-25 0 -43 16t-20 39zM283 502q-3 30 20 52t55 22q25 0 43 -16t20 -39q3 -30 -20 -52.5t-54 -22.5q-25 0 -43.5 16t-20.5 40z" />
<glyph unicode="&#xf8;" horiz-adv-x="616" d="M4 0l73 75q-44 58 -44 148q0 134 75.5 223.5t206.5 89.5q100 0 167 -45l33 34h81l-72 -74q47 -59 47 -150q0 -133 -76 -222.5t-206 -89.5q-105 0 -169 45l-33 -34h-83zM157 222q0 -30 8 -57l240 247q-33 27 -88 27q-73 0 -116.5 -65t-43.5 -152zM197 113q31 -28 89 -28 q73 0 116.5 65t43.5 152q0 34 -9 59z" />
<glyph unicode="&#xf9;" horiz-adv-x="613" d="M40 167l63 358h123l-61 -345q-18 -94 57 -94q40 0 90 23.5t84 50.5l65 365h124l-93 -525h-124l11 62q-112 -73 -205 -73q-82 0 -115.5 48t-18.5 130zM205 729h140l102 -135h-95z" />
<glyph unicode="&#xfa;" horiz-adv-x="613" d="M40 167l63 358h123l-61 -345q-18 -94 57 -94q40 0 90 23.5t84 50.5l65 365h124l-93 -525h-124l11 62q-112 -73 -205 -73q-82 0 -115.5 48t-18.5 130zM260 594l143 135h155l-189 -135h-109z" />
<glyph unicode="&#xfb;" horiz-adv-x="613" d="M40 167l63 358h123l-61 -345q-18 -94 57 -94q40 0 90 23.5t84 50.5l65 365h124l-93 -525h-124l11 62q-112 -73 -205 -73q-82 0 -115.5 48t-18.5 130zM190 594l127 135h125l79 -135h-80l-66 78l-92 -78h-93z" />
<glyph unicode="&#xfc;" horiz-adv-x="613" d="M40 167l63 358h123l-61 -345q-18 -94 57 -94q40 0 90 23.5t84 50.5l65 365h124l-93 -525h-124l11 62q-112 -73 -205 -73q-82 0 -115.5 48t-18.5 130zM214 604l19 111h109l-19 -111h-109zM395 604l19 111h108l-19 -111h-108z" />
<glyph unicode="&#xfd;" horiz-adv-x="569" d="M-9 -124q77 26 111 47t66 70l-114 532h128l67 -382l203 382h138l-296 -525q-20 -35 -26.5 -45.5t-24.5 -38t-28.5 -37.5t-32 -29t-43 -29t-52.5 -21.5t-68 -20.5zM239 594l143 135h155l-190 -135h-108z" />
<glyph unicode="&#xfe;" horiz-adv-x="615" d="M-21 -204l165 933h123l-47 -265q94 72 183 72q71 0 119.5 -46.5t48.5 -145.5q0 -157 -68 -256t-177 -99q-89 0 -177 76l-47 -269h-123zM166 160q65 -71 132 -71t107 72t40 169q0 50 -22.5 78t-65.5 28q-64 0 -155 -75z" />
<glyph unicode="&#xff;" horiz-adv-x="569" d="M-9 -124q77 26 111 47t66 70l-114 532h128l67 -382l203 382h138l-296 -525q-20 -35 -26.5 -45.5t-24.5 -38t-28.5 -37.5t-32 -29t-43 -29t-52.5 -21.5t-68 -20.5zM191 604l20 111h109l-20 -111h-109zM372 604l20 111h108l-20 -111h-108z" />
<glyph unicode="&#x152;" horiz-adv-x="1110" d="M53 291q0 50 10.5 103t37 111t66 103t102.5 74t141 29q151 0 233 -80l12 69h472l-17 -110h-344l-35 -186h283l-17 -108h-284l-34 -187h349l-18 -109h-477l6 33q-76 -45 -173 -45q-155 0 -233.5 81t-79.5 222zM186 294q0 -196 176 -196q48 0 87.5 21t65 53.5t43.5 74.5 t25.5 81.5t7.5 76.5q0 196 -176 196q-48 0 -87.5 -21t-65 -53.5t-43.5 -74.5t-25.5 -81.5t-7.5 -76.5z" />
<glyph unicode="&#x153;" horiz-adv-x="975" d="M32 223q0 133 76 223t206 90q144 0 212 -88q83 88 220 88q92 0 145.5 -40.5t53.5 -106.5q0 -93 -83 -132.5t-238 -39.5h-57v-8q0 -127 105 -127q64 0 194 65l41 -87q-149 -71 -256 -71q-116 0 -170 75q-75 -75 -193 -75q-120 0 -188 62t-68 172zM157 222q0 -137 129 -137 q73 0 116.5 65t43.5 152q0 137 -129 137q-73 0 -116.5 -65t-43.5 -152zM577 288h53q95 0 145 25t50 70q0 29 -23 46t-60 17q-60 0 -103 -45t-62 -113z" />
<glyph unicode="&#x178;" horiz-adv-x="647" d="M76 700h136l117 -319l227 319h151l-325 -423l-49 -277h-128l49 277zM258 755l19 111h108l-20 -111h-107zM437 755l20 111h108l-19 -111h-109z" />
<glyph unicode="&#x2c6;" horiz-adv-x="289" d="M83 594l126 135h126l79 -135h-81l-65 78l-92 -78h-93z" />
<glyph unicode="&#x2dc;" horiz-adv-x="300" d="M89 635q22 32 34.5 47.5t33.5 28.5t46 13q29 0 69 -24t55 -24q23 0 59 47l54 -36q-22 -31 -34.5 -46.5t-33.5 -28.5t-46 -13q-29 0 -68.5 24t-54.5 24q-24 0 -60 -47z" />
<glyph unicode="&#x2000;" horiz-adv-x="476" />
<glyph unicode="&#x2001;" horiz-adv-x="953" />
<glyph unicode="&#x2002;" horiz-adv-x="476" />
<glyph unicode="&#x2003;" horiz-adv-x="953" />
<glyph unicode="&#x2004;" horiz-adv-x="317" />
<glyph unicode="&#x2005;" horiz-adv-x="238" />
<glyph unicode="&#x2006;" horiz-adv-x="158" />
<glyph unicode="&#x2007;" horiz-adv-x="158" />
<glyph unicode="&#x2008;" horiz-adv-x="119" />
<glyph unicode="&#x2009;" horiz-adv-x="190" />
<glyph unicode="&#x200a;" horiz-adv-x="52" />
<glyph unicode="&#x2010;" horiz-adv-x="432" d="M52 234l18 101h304l-18 -101h-304z" />
<glyph unicode="&#x2011;" horiz-adv-x="432" d="M52 234l18 101h304l-18 -101h-304z" />
<glyph unicode="&#x2012;" horiz-adv-x="432" d="M52 234l18 101h304l-18 -101h-304z" />
<glyph unicode="&#x2013;" horiz-adv-x="561" d="M52 234l18 101h433l-18 -101h-433z" />
<glyph unicode="&#x2014;" horiz-adv-x="666" d="M52 234l18 101h537l-17 -101h-538z" />
<glyph unicode="&#x2018;" horiz-adv-x="252" d="M82 418l17 165l133 137l29 -43l-83 -109h59l-24 -150h-131z" />
<glyph unicode="&#x2019;" horiz-adv-x="241" d="M78 441l82 109h-59l25 150h131l-17 -165l-133 -137z" />
<glyph unicode="&#x201a;" horiz-adv-x="258" d="M-12 -109l82 109h-59l25 150h130l-17 -165l-132 -137z" />
<glyph unicode="&#x201c;" horiz-adv-x="461" d="M82 418l17 165l133 137l29 -43l-83 -109h59l-24 -150h-131zM292 418l17 165l132 137l29 -43l-81 -109h59l-26 -150h-130z" />
<glyph unicode="&#x201d;" horiz-adv-x="451" d="M78 441l82 109h-59l25 150h131l-17 -165l-133 -137zM288 441l82 109h-59l26 150h129l-16 -165l-133 -137z" />
<glyph unicode="&#x201e;" horiz-adv-x="467" d="M-12 -109l82 109h-59l25 150h130l-17 -165l-132 -137zM197 -109l83 109h-59l25 150h130l-17 -165l-133 -137z" />
<glyph unicode="&#x2022;" horiz-adv-x="452" d="M74 284q0 62 43 105.5t105 43.5t105.5 -43.5t43.5 -105.5t-43.5 -105t-105.5 -43t-105 43t-43 105z" />
<glyph unicode="&#x2026;" horiz-adv-x="714" d="M11 0l25 150h131l-25 -150h-131zM240 0l26 150h131l-25 -150h-132zM469 0l26 150h131l-26 -150h-131z" />
<glyph unicode="&#x202f;" horiz-adv-x="190" />
<glyph unicode="&#x2039;" horiz-adv-x="390" d="M20 236l13 76l340 215l-21 -127l-224 -137l174 -134l-18 -109z" />
<glyph unicode="&#x203a;" horiz-adv-x="389" d="M6 20l21 127l223 136l-172 135l17 109l264 -215l-13 -76z" />
<glyph unicode="&#x205f;" horiz-adv-x="238" />
<glyph unicode="&#x20ac;" horiz-adv-x="719" d="M33 236l12 70h57q2 43 9 82h-51l12 70h56q39 119 124 186t192 67q55 0 110.5 -18.5t87.5 -37.5t81 -53l-70 -90q-61 43 -105 63t-90 20q-60 0 -108.5 -37t-78.5 -100h251l-12 -70h-264q-9 -39 -12 -82h261l-13 -70h-246q8 -66 39.5 -99t81.5 -33q82 0 223 81l56 -101 q-175 -95 -307 -95q-98 0 -158.5 61t-68.5 186h-69z" />
<glyph unicode="&#x2122;" horiz-adv-x="637" d="M120 655l7 45h211l-6 -45h-79l-32 -179h-55l32 179h-78zM332 476l39 224h58l49 -132l100 132h58l-39 -224h-55l25 142l-79 -105h-35l-41 111l-25 -148h-55z" />
<glyph unicode="&#xe000;" horiz-adv-x="525" d="M0 0v525h525v-525h-525z" />
</font>
</defs>
</svg>
