<?xml version="1.0" standalone="no"?>
<!DOCTYPE svg PUBLIC "-//W3C//DTD SVG 1.1//EN" "http://www.w3.org/Graphics/SVG/1.1/DTD/svg11.dtd" >
<svg xmlns="http://www.w3.org/2000/svg">
<metadata></metadata>
<defs>
<font id="verb_semiboldregular" horiz-adv-x="630" >
<font-face units-per-em="1000" ascent="800" descent="-200" />
<missing-glyph horiz-adv-x="274" />
<glyph unicode="&#xfb01;" horiz-adv-x="633" d="M25 433v92h73v42q0 162 138 162q56 0 137 -31l-31 -91q-51 15 -75 15q-22 0 -34.5 -10.5t-12.5 -40.5v-46h135v-92h-135v-433h-122v433h-73zM438 610v116h132v-116h-132zM441 0v525h124v-525h-124z" />
<glyph unicode="&#xfb02;" horiz-adv-x="639" d="M25 433v92h73v42q0 162 138 162q56 0 137 -31l-31 -91q-51 15 -75 15q-22 0 -34.5 -10.5t-12.5 -40.5v-46h135v-92h-135v-433h-122v433h-73zM444 0v729h124v-729h-124z" />
<glyph unicode="&#xfb03;" horiz-adv-x="1004" d="M25 433v92h73v42q0 162 140 162q71 0 170 -39l-34 -89q-84 21 -107 21q-22 0 -34.5 -10.5t-12.5 -40.5v-46h125v-92h-125v-433h-122v433h-73zM396 433v92h72v42q0 162 139 162q58 0 136 -31l-30 -91q-51 15 -76 15q-21 0 -33.5 -10.5t-12.5 -40.5v-46h134v-92h-134v-433 h-123v433h-72zM808 610v116h132v-116h-132zM812 0v525h123v-525h-123z" />
<glyph unicode="&#xfb04;" horiz-adv-x="1010" d="M25 433v92h73v42q0 162 140 162q71 0 170 -39l-34 -89q-84 21 -107 21q-22 0 -34.5 -10.5t-12.5 -40.5v-46h125v-92h-125v-433h-122v433h-73zM396 433v92h72v42q0 162 139 162q58 0 136 -31l-30 -91q-51 15 -76 15q-21 0 -33.5 -10.5t-12.5 -40.5v-46h134v-92h-134v-433 h-123v433h-72zM815 0v729h123v-729h-123z" />
<glyph horiz-adv-x="1000" />
<glyph horiz-adv-x="1000" />
<glyph unicode="&#xd;" horiz-adv-x="1000" />
<glyph unicode=" "  horiz-adv-x="274" />
<glyph unicode="&#x09;" horiz-adv-x="274" />
<glyph unicode="&#xa0;" horiz-adv-x="274" />
<glyph unicode="!" horiz-adv-x="277" d="M63 700h150l-37 -480h-75zM73 0v140h131v-140h-131z" />
<glyph unicode="&#x22;" horiz-adv-x="427" d="M51 700h121l-21 -269h-79zM254 700h121l-22 -269h-78z" />
<glyph unicode="#" horiz-adv-x="743" d="M42 165v94h137l28 181h-123v95h138l26 165h96l-26 -165h164l26 165h97l-26 -165h123v-95h-137l-28 -181h123v-94h-138l-25 -165h-97l25 165h-164l-25 -165h-97l25 165h-122zM276 259h164l28 181h-164z" />
<glyph unicode="$" horiz-adv-x="637" d="M40 80l58 93q81 -48 178 -69v200q-7 2 -32 11q-39 14 -67 27.5t-58.5 36.5t-47 57.5t-16.5 77.5q0 84 60 137.5t161 58.5v91h92v-96q110 -16 204 -64l-58 -94q-68 32 -146 48v-186l27 -9q41 -14 69.5 -27.5t62.5 -38t52 -61t18 -82.5q0 -88 -63.5 -142t-165.5 -59v-90 h-92v95q-130 18 -236 85zM190 522q0 -31 21 -49t65 -34v162q-86 -13 -86 -79zM368 98q41 5 67.5 26.5t26.5 57.5q0 31 -23.5 51.5t-70.5 38.5v-174z" />
<glyph unicode="%" horiz-adv-x="1004" d="M37 523q0 89 50.5 138.5t138.5 49.5q89 0 139.5 -49.5t50.5 -138.5t-50.5 -138t-139.5 -49q-88 0 -138.5 49.5t-50.5 137.5zM132 523q0 -53 24.5 -81t69.5 -28t70 28t25 81t-25 81.5t-70 28.5t-69.5 -28.5t-24.5 -81.5zM270 0l364 700h99l-364 -700h-99zM588 176 q0 89 50 138.5t139 49.5q88 0 139 -49.5t51 -138.5t-51 -138t-139 -49q-89 0 -139 49t-50 138zM683 176q0 -53 24.5 -81t69.5 -28t70 28t25 81t-25 81.5t-70 28.5t-69.5 -28.5t-24.5 -81.5z" />
<glyph unicode="&#x26;" horiz-adv-x="715" d="M60 175q0 64 38.5 109.5t106.5 89.5q-45 45 -69.5 85.5t-24.5 89.5q0 75 57 118.5t139 43.5t134 -43.5t52 -111.5q0 -56 -35.5 -101t-99.5 -91l142 -142q42 71 48 147h124q-18 -125 -92 -227l142 -142h-145l-67 67q-93 -78 -220 -78q-99 0 -164.5 51.5t-65.5 134.5z M183 180q0 -37 29 -67t86 -30q74 0 139 58l-162 164q-45 -34 -68.5 -63t-23.5 -62zM224 545q0 -48 68 -116q89 61 89 118q0 30 -19 51.5t-57 21.5t-59.5 -22t-21.5 -53z" />
<glyph unicode="'" horiz-adv-x="224" d="M51 700h121l-21 -269h-79z" />
<glyph unicode="(" horiz-adv-x="325" d="M67 76v544q0 32 1 48.5t4.5 39.5t11.5 35t22.5 27.5t36.5 26t53 21.5t74 21l33 -73q-40 -14 -61 -24t-31.5 -25t-12.5 -28.5t-2 -44.5v-593q0 -31 2 -44.5t12.5 -28.5t31.5 -25t61 -23l-33 -73q-43 10 -74 21t-53 21t-36.5 26t-22.5 28t-11.5 35t-4.5 39.5t-1 48.5z" />
<glyph unicode=")" horiz-adv-x="325" d="M22 -70q40 13 61 23t31.5 25t12.5 28.5t2 44.5v593q0 31 -2 44.5t-12.5 28.5t-31.5 25t-61 24l34 73q43 -10 74 -21t53 -21.5t36 -26t22 -27.5t11.5 -35t4.5 -39.5t1 -48.5v-544q0 -37 -1 -56t-7 -44t-18.5 -38.5t-35 -29.5t-56.5 -27.5t-84 -23.5z" />
<glyph unicode="*" horiz-adv-x="479" d="M47 455l154 48l-153 51l53 91l120 -109l-34 156h105l-33 -156l119 108l52 -91l-149 -49l149 -50l-53 -91l-117 104l32 -152h-105l34 156l-121 -107z" />
<glyph unicode="+" d="M59 286v94h208v186h95v-186h208v-94h-208v-186h-95v186h-208z" />
<glyph unicode="," horiz-adv-x="259" d="M58 -109l63 109h-59v150h130l11 -165l-109 -137z" />
<glyph unicode="-" horiz-adv-x="435" d="M64 234v101h306v-101h-306z" />
<glyph unicode="." horiz-adv-x="257" d="M63 0v150h131v-150h-131z" />
<glyph unicode="/" horiz-adv-x="468" d="M21 -90l330 880h96l-330 -880h-96z" />
<glyph unicode="0" horiz-adv-x="672" d="M53 350q0 173 72.5 267t210.5 94t210 -94t72 -267t-72.5 -267t-210.5 -94t-210 94t-72 267zM183 350q0 -260 152 -260q153 0 153 260t-152 260q-153 0 -153 -260z" />
<glyph unicode="1" horiz-adv-x="399" d="M12 598l182 102h121v-700h-129v578l-123 -65z" />
<glyph unicode="2" horiz-adv-x="603" d="M40 0v64q0 42 13.5 79.5t31.5 64t51.5 56t58 47t65.5 44.5q95 62 117 83q42 39 42 79q0 38 -30 62t-85 24q-87 0 -186 -64l-59 84q125 88 261 88q107 0 167.5 -52.5t60.5 -136.5q0 -37 -14 -71t-29.5 -55.5t-52.5 -51t-53.5 -40.5t-63.5 -39q-13 -8 -19 -12 q-64 -40 -94 -71t-30 -75h357v-107h-509z" />
<glyph unicode="3" horiz-adv-x="607" d="M27 71l58 89q112 -63 204 -63q62 0 101 28.5t39 77.5q0 34 -20 58.5t-53 36.5t-66 17.5t-68 5.5h-30v109h35q68 0 119.5 23.5t51.5 73.5q0 35 -28 55.5t-78 20.5q-85 0 -179 -58l-54 81q110 85 253 85q104 0 159.5 -48t55.5 -119q0 -53 -31.5 -94t-91.5 -64 q68 -18 111.5 -68.5t43.5 -116.5q0 -88 -63.5 -150t-190.5 -62q-147 0 -278 82z" />
<glyph unicode="4" horiz-adv-x="660" d="M27 141v92l325 467h169v-451h107v-108h-107v-141h-128v141h-366zM160 249h233v343z" />
<glyph unicode="5" horiz-adv-x="597" d="M36 70l57 94q97 -65 182 -65q61 0 103.5 34.5t42.5 90.5q0 53 -37.5 88.5t-104.5 35.5q-66 0 -141 -40l-71 42l38 350h419v-108h-314l-11 -158q51 19 109 19q114 0 179 -66t65 -162q0 -99 -68 -167.5t-193 -68.5q-129 0 -255 81z" />
<glyph unicode="6" horiz-adv-x="629" d="M50 285q-1 196 112.5 311t282.5 115q26 0 51.5 -2.5t37.5 -5.5l12 -3l-30 -102q-31 7 -69 7q-88 0 -159.5 -53.5t-96.5 -167.5q68 66 175 66q102 0 163.5 -62t61.5 -158q0 -101 -71.5 -171t-189.5 -70q-136 0 -207.5 86.5t-72.5 209.5zM180 272q0 -80 40.5 -129 t106.5 -49q65 0 100 39.5t35 92.5q0 52 -34 89t-98 37q-53 0 -93 -24.5t-57 -54.5v-1z" />
<glyph unicode="7" horiz-adv-x="525" d="M27 592v108h480v-99q-10 -13 -27.5 -35.5t-61.5 -91.5t-78 -137t-61.5 -161.5t-27.5 -175.5h-133q0 75 24.5 162t55 152.5t71.5 133.5t60.5 95.5t35.5 48.5h-338z" />
<glyph unicode="8" horiz-adv-x="643" d="M43 185q0 71 44 117t117 78q-118 62 -118 160q0 77 63.5 124t171.5 47q109 0 172.5 -47t63.5 -124q0 -98 -118 -160q73 -32 117 -78t44 -117q0 -91 -76 -143.5t-203 -52.5t-202.5 52.5t-75.5 143.5zM174 194q0 -48 41.5 -77t105.5 -29q65 0 107 29t42 77q0 47 -40 78.5 t-109 58.5q-68 -27 -107.5 -59t-39.5 -78zM212 528q0 -64 110 -105q31 12 52 23.5t39.5 33t18.5 48.5q0 35 -31 61t-80 26q-48 0 -78.5 -26t-30.5 -61z" />
<glyph unicode="9" horiz-adv-x="629" d="M38 470q0 101 71 171t190 70q136 0 207.5 -87t71.5 -209q1 -196 -112.5 -311t-282.5 -115q-26 0 -51 2.5t-37 5.5l-12 3l30 101q31 -7 69 -7q87 0 158 53.5t96 166.5q-69 -64 -173 -64q-102 0 -163.5 62t-61.5 158zM166 474q0 -53 34.5 -90t97.5 -37q52 0 92 24t58 54v3 q0 79 -40.5 128t-105.5 49q-66 0 -101 -39t-35 -92z" />
<glyph unicode=":" horiz-adv-x="266" d="M67 0v150h131v-150h-131zM67 323v150h131v-150h-131z" />
<glyph unicode=";" horiz-adv-x="276" d="M67 -109l63 109h-59v150h130l11 -164l-109 -138zM71 323v150h131v-150h-131z" />
<glyph unicode="&#x3c;" d="M45 290v87l510 206v-108l-379 -142l379 -143v-106z" />
<glyph unicode="=" d="M59 194v94h511v-94h-511zM59 380v95h511v-95h-511z" />
<glyph unicode="&#x3e;" d="M74 84v106l378 143l-378 142v108l509 -206v-87z" />
<glyph unicode="?" horiz-adv-x="531" d="M31 634q121 77 239 77q95 0 158 -48t63 -130q0 -152 -227 -210l-7 -103h-80l-8 170q102 22 147.5 48.5t45.5 75.5q0 40 -30 64.5t-81 24.5q-77 0 -164 -56zM152 0v140h130v-140h-130z" />
<glyph unicode="@" horiz-adv-x="961" d="M48 253q0 189 121 311t326 122q202 0 313 -119t112 -313q-1 -123 -50 -202t-148 -79q-68 0 -99 36.5t-36 82.5q-75 -69 -166 -69q-64 0 -108 38t-44 110q0 74 45.5 112.5t114.5 38.5q23 0 51.5 -4t64 -11t41.5 -8v46q0 48 -19 68t-69 20q-70 0 -164 -40l-34 67 q115 46 213 46q83 0 124 -38.5t41 -121.5v-181q0 -32 1.5 -50t7 -39.5t19.5 -31.5t36 -10q48 0 87.5 55t39.5 167q0 168 -96 274.5t-279 106.5q-124 0 -215 -52.5t-135 -138.5t-44 -193q0 -166 101.5 -274.5t266.5 -108.5q54 0 101.5 11t68.5 21l21 11l31 -40 q-9 -6 -25.5 -14.5t-75 -23t-123.5 -14.5q-186 0 -302 122.5t-116 309.5zM364 177q0 -41 23 -61t61 -20q68 0 138 63v89q-102 17 -125 17q-50 0 -73.5 -24.5t-23.5 -63.5z" />
<glyph unicode="A" horiz-adv-x="701" d="M14 0l266 700h141l265 -700h-139l-51 149h-292l-50 -149h-140zM238 252h224l-112 332z" />
<glyph unicode="B" horiz-adv-x="686" d="M82 0v700h269q125 0 190 -44t65 -127q0 -66 -37.5 -107.5t-79.5 -48.5q18 -3 37 -10t40.5 -22t38.5 -34.5t28 -50.5t11 -68q0 -89 -62 -138.5t-185 -49.5h-315zM210 100h165q71 0 106.5 29t35.5 79q0 112 -168 112h-139v-220zM210 414h131q64 0 101 23.5t37 71.5 q0 90 -134 90h-135v-185z" />
<glyph unicode="C" horiz-adv-x="652" d="M50 350q0 178 79.5 269.5t205.5 91.5q73 0 140.5 -27t147.5 -75l-62 -94q-135 80 -213 80q-76 0 -120.5 -65.5t-44.5 -179.5t44.5 -180t120.5 -66q78 0 213 80l62 -94q-79 -48 -146.5 -74.5t-141.5 -26.5q-126 0 -205.5 91.5t-79.5 269.5z" />
<glyph unicode="D" horiz-adv-x="716" d="M82 0v700h239q169 0 256.5 -84t87.5 -266t-87.5 -266t-256.5 -84h-239zM211 109h99q116 0 170.5 55.5t54.5 185.5t-54.5 185t-170.5 55h-99v-481z" />
<glyph unicode="E" horiz-adv-x="611" d="M82 0v700h476v-110h-348v-186h286v-108h-286v-187h353v-109h-481z" />
<glyph unicode="F" horiz-adv-x="583" d="M82 0v700h476v-110h-348v-187h277v-107h-277v-296h-128z" />
<glyph unicode="G" horiz-adv-x="709" d="M50 349q0 179 80.5 270.5t207.5 91.5q78 0 149 -28.5t151 -77.5l-62 -94q-46 26 -73.5 40.5t-71.5 29t-80 14.5q-78 0 -123 -65.5t-45 -179.5q0 -115 44 -183t123 -68t176 86v107h-175v102h297v-394h-122v74q-97 -85 -201 -85q-118 0 -196.5 92t-78.5 268z" />
<glyph unicode="H" horiz-adv-x="724" d="M82 0v700h128v-279h303v279h129v-700h-129v313h-303v-313h-128z" />
<glyph unicode="I" horiz-adv-x="292" d="M82 0v700h128v-700h-128z" />
<glyph unicode="J" horiz-adv-x="293" d="M-35 -71q37 12 57.5 21.5t34 17.5t18.5 22t6 24.5t1 36.5v649h128v-643q0 -30 -0.5 -44t-3 -37t-7.5 -33.5t-14.5 -26.5t-24 -24.5t-36 -20.5t-50.5 -20.5t-67 -17.5z" />
<glyph unicode="K" horiz-adv-x="681" d="M82 0v700h128v-356l294 356h152l-283 -334l303 -366h-153l-227 275l-86 -102v-173h-128z" />
<glyph unicode="L" horiz-adv-x="567" d="M82 0v700h128v-591h337v-109h-465z" />
<glyph unicode="M" horiz-adv-x="853" d="M82 0v700h132l212 -444l212 444h133v-700h-129v492l-179 -375h-73l-180 376v-493h-128z" />
<glyph unicode="N" horiz-adv-x="740" d="M82 0v700h131l316 -509v509h129v-700h-131l-317 510v-510h-128z" />
<glyph unicode="O" horiz-adv-x="753" d="M50 350q0 78 18.5 141.5t56 114t102 78t150.5 27.5q167 0 247 -99.5t80 -261.5q0 -77 -18.5 -141t-56.5 -114t-102 -78t-150 -28t-150.5 28t-102 78t-56 114t-18.5 141zM183 350q0 -115 46 -183t148 -68t148 68t46 183q0 250 -194 250t-194 -250z" />
<glyph unicode="P" horiz-adv-x="660" d="M82 0v700h276q273 0 273 -223q0 -221 -273 -221h-148v-256h-128zM210 362h143q148 0 148 115t-148 115h-143v-230z" />
<glyph unicode="Q" horiz-adv-x="753" d="M50 350q0 78 18.5 141.5t56 114t102 78t150.5 27.5q167 0 247 -99.5t80 -261.5q0 -123 -47 -212.5t-144 -126.5l112 -88l-85 -88l-163 154q-86 0 -150.5 28t-102 78t-56 114t-18.5 141zM183 350q0 -115 46 -183t148 -68t148 68t46 183q0 250 -194 250t-194 -250z" />
<glyph unicode="R" horiz-adv-x="698" d="M82 0v700h297q275 0 275 -210q0 -171 -181 -203l182 -287h-140l-171 280h-134v-280h-128zM210 382h162q151 0 151 108t-148 108h-165v-216z" />
<glyph unicode="S" horiz-adv-x="629" d="M35 80l58 93q52 -30 122 -53.5t123 -23.5q50 0 85 22.5t35 63.5q0 17 -8.5 32t-20.5 24.5t-36 20.5t-42.5 17.5t-53.5 18.5t-57 20q-39 13 -67.5 27t-58.5 37t-46.5 57.5t-16.5 77.5q0 89 66 143t176 54q137 0 275 -70l-58 -94q-48 23 -108 39.5t-103 16.5 q-48 0 -80.5 -20.5t-32.5 -60.5q0 -21 9.5 -36t32 -26.5t42.5 -19t58 -19.5t62 -21q41 -14 70 -28t62.5 -38t51.5 -60.5t18 -82.5q0 -92 -70 -147t-181 -55q-81 0 -164 27.5t-142 63.5z" />
<glyph unicode="T" horiz-adv-x="590" d="M20 590v110h551v-110h-210v-590h-129v590h-212z" />
<glyph unicode="U" horiz-adv-x="714" d="M75 273v427h128v-436q0 -78 33 -121.5t121 -43.5q87 0 119.5 43.5t32.5 121.5v436h129v-427q0 -63 -13 -111.5t-43.5 -89t-87 -62t-137.5 -21.5q-82 0 -138.5 21.5t-87 62t-43.5 89t-13 111.5z" />
<glyph unicode="V" horiz-adv-x="699" d="M13 700h148l189 -563l188 563h148l-266 -700h-141z" />
<glyph unicode="W" horiz-adv-x="961" d="M22 700h146l122 -533l136 533h108l136 -532l124 532h146l-196 -700h-129l-135 516l-134 -516h-130z" />
<glyph unicode="X" horiz-adv-x="648" d="M10 0l237 351l-225 349h148l153 -273l153 273h149l-225 -349l237 -351h-153l-161 265l-160 -265h-153z" />
<glyph unicode="Y" horiz-adv-x="654" d="M9 700h145l173 -318l173 318h145l-255 -424l1 -276h-129v279z" />
<glyph unicode="Z" horiz-adv-x="633" d="M35 0v100l385 490h-362v110h528v-99l-387 -492h392v-109h-556z" />
<glyph unicode="[" horiz-adv-x="355" d="M75 -144v983h254v-77h-126v-829h126v-77h-254z" />
<glyph unicode="\" horiz-adv-x="468" d="M21 790h95l330 -880h-95z" />
<glyph unicode="]" horiz-adv-x="355" d="M26 -67h126v829h-126v77h255v-983h-255v77z" />
<glyph unicode="^" d="M62 333l188 367h126l190 -367h-135l-118 255l-118 -255h-133z" />
<glyph unicode="_" horiz-adv-x="709" d="M64 -76h581v-89h-581v89z" />
<glyph unicode="`" horiz-adv-x="227" d="M-22 729h147l124 -135h-101z" />
<glyph unicode="a" horiz-adv-x="590" d="M35 159q0 82 53 126t135 44q21 0 49.5 -3.5t47.5 -6.5t48 -9t34 -7v47q0 49 -21.5 70t-77.5 21q-58 0 -193 -41l-40 86q148 50 254 50q104 0 153 -44t49 -145v-347h-124v64q-83 -75 -188 -75q-76 0 -127.5 45t-51.5 125zM160 169q0 -42 24.5 -62.5t66.5 -20.5 q79 0 151 64v89q-101 19 -135 19q-54 0 -80.5 -24t-26.5 -65z" />
<glyph unicode="b" horiz-adv-x="617" d="M68 0v729h124v-266q85 73 179 73q91 0 147 -69t56 -205q0 -135 -56 -204t-147 -69q-97 0 -179 72v-61h-124zM192 162q62 -73 145 -73q111 0 111 173t-111 173q-82 0 -145 -73v-200z" />
<glyph unicode="c" horiz-adv-x="522" d="M41 263q0 132 68 202.5t167 70.5q90 0 219 -66l-52 -91q-3 2 -21.5 11t-30 14t-30 12t-35.5 10.5t-33 3.5q-56 0 -90.5 -45.5t-34.5 -121.5t34.5 -122t90.5 -46q48 0 150 51l52 -92q-133 -65 -218 -65q-99 0 -167.5 70.5t-68.5 203.5z" />
<glyph unicode="d" horiz-adv-x="617" d="M43 262q0 136 55.5 205t147.5 69q94 0 179 -73v266h124v-729h-124v61q-84 -72 -179 -72q-92 0 -147.5 69t-55.5 204zM169 262q0 -173 111 -173q82 0 145 73v200q-65 73 -145 73q-111 0 -111 -173z" />
<glyph unicode="e" horiz-adv-x="580" d="M41 261q0 130 69 202.5t187 72.5q115 0 176.5 -63.5t61.5 -166.5q0 -18 -1.5 -36t-3.5 -27l-2 -9h-360q6 -72 39 -112t88 -40q71 0 194 67l50 -79q-146 -81 -255 -81q-106 0 -174.5 69.5t-68.5 202.5zM169 304h245q1 142 -117 142q-56 0 -88.5 -37t-39.5 -105z" />
<glyph unicode="f" horiz-adv-x="373" d="M25 433v92h72v42q0 162 141 162q71 0 170 -39l-43 -89q-76 21 -99 21q-21 0 -33.5 -10.5t-12.5 -40.5v-46h134v-92h-134v-433h-123v433h-72z" />
<glyph unicode="g" horiz-adv-x="617" d="M43 262q0 136 55.5 205t147.5 69q94 0 179 -73v62h124v-537q0 -202 -218 -202q-126 0 -264 40l25 102q137 -41 217 -41q62 0 89 22.5t27 73.5v78q-84 -72 -179 -72q-92 0 -147.5 69t-55.5 204zM169 262q0 -173 111 -173q82 0 145 73v200q-65 73 -145 73q-111 0 -111 -173 z" />
<glyph unicode="h" horiz-adv-x="619" d="M68 0v729h124v-271q108 78 208 78q154 0 154 -164v-372h-123v345q0 93 -76 93q-41 0 -88 -23t-75 -50v-365h-124z" />
<glyph unicode="i" horiz-adv-x="260" d="M65 610v116h132v-116h-132zM69 0v525h123v-525h-123z" />
<glyph unicode="j" horiz-adv-x="260" d="M-49 -131q46 15 68 24.5t34 25.5t13.5 28.5t1.5 46.5v531h123v-523q0 -40 -1 -58t-6.5 -44.5t-17.5 -39.5t-34 -29.5t-56.5 -28t-84.5 -23.5zM63 610v116h132v-116h-132z" />
<glyph unicode="k" horiz-adv-x="555" d="M68 0v729h124v-440l187 236h141l-177 -210l208 -315h-130l-153 227l-76 -91v-136h-124z" />
<glyph unicode="l" horiz-adv-x="266" d="M71 0v729h124v-729h-124z" />
<glyph unicode="m" horiz-adv-x="929" d="M68 0v525h124v-71q89 82 184 82q112 0 141 -93q35 35 87 64t109 29q152 0 152 -164v-372h-124v345q0 93 -71 93q-37 0 -76.5 -24t-66.5 -55v-359h-122v345q0 93 -72 93q-70 0 -141 -75v-363h-124z" />
<glyph unicode="n" horiz-adv-x="619" d="M68 0v525h124v-67q108 78 208 78q154 0 154 -164v-372h-123v345q0 93 -76 93q-41 0 -88 -23t-75 -50v-365h-124z" />
<glyph unicode="o" horiz-adv-x="610" d="M41 262q0 130 68 202t195 72t195.5 -72.5t68.5 -201.5q0 -130 -68.5 -201.5t-195.5 -71.5t-195 72t-68 201zM166 262q0 -177 138 -177t138 177t-138 177t-138 -177z" />
<glyph unicode="p" horiz-adv-x="617" d="M68 -204v729h124v-62q83 73 179 73q91 0 147 -69t56 -205q0 -135 -56 -204t-147 -69q-97 0 -179 72v-265h-124zM192 162q62 -73 145 -73q111 0 111 173t-111 173q-82 0 -145 -73v-200z" />
<glyph unicode="q" horiz-adv-x="617" d="M43 262q0 136 55.5 205t147.5 69q94 0 179 -73v62h124v-729h-124v265q-84 -72 -179 -72q-92 0 -147.5 69t-55.5 204zM169 262q0 -173 111 -173q82 0 145 73v200q-65 73 -145 73q-111 0 -111 -173z" />
<glyph unicode="r" horiz-adv-x="409" d="M68 0v525h124v-111q5 14 16.5 30.5t33.5 39.5t61 36.5t86 10.5v-117q-36 0 -66.5 -9t-50 -24t-35 -32.5t-24 -35.5t-13.5 -33t-6 -24l-2 -9v-247h-124z" />
<glyph unicode="s" horiz-adv-x="526" d="M32 55l51 89q43 -23 101.5 -41t99.5 -18q37 0 61 14.5t24 39.5q0 8 -2.5 15t-8.5 13t-12 10.5t-16.5 9.5t-18 8t-21.5 7t-22 6t-23.5 6t-22.5 6q-37 10 -64 21t-55.5 29.5t-44 47t-15.5 65.5q0 70 53 111.5t145 41.5q114 0 230 -56l-51 -82q-100 43 -173 43 q-37 0 -58.5 -14t-21.5 -38q0 -8 2.5 -15t7.5 -12.5t10.5 -10t15 -9t17 -7.5t20 -6.5t20.5 -5.5t22.5 -5.5t22.5 -5.5q89 -23 139 -62t50 -108q0 -72 -56 -112.5t-149 -40.5q-67 0 -137.5 20t-119.5 46z" />
<glyph unicode="t" horiz-adv-x="408" d="M28 433v92h72v132l123 20v-152h143v-92h-143v-285q0 -30 12.5 -40.5t33.5 -10.5q25 0 89 24l44 -92q-92 -40 -161 -40q-141 0 -141 162v282h-72z" />
<glyph unicode="u" horiz-adv-x="619" d="M64 153v372h123v-345q0 -94 76 -94q40 0 86.5 23t76.5 51v365h124v-525h-124v66q-113 -77 -209 -77q-153 0 -153 164z" />
<glyph unicode="v" horiz-adv-x="573" d="M16 525h133l136 -398l137 398h134l-209 -525h-122z" />
<glyph unicode="w" horiz-adv-x="830" d="M21 525h131l98 -397l112 397h105l112 -397l99 397h131l-164 -525h-117l-113 378l-113 -378h-118z" />
<glyph unicode="x" horiz-adv-x="593" d="M8 0l213 263l-201 262h142l134 -193l134 193h143l-202 -261l213 -264h-147l-141 197l-140 -197h-148z" />
<glyph unicode="y" horiz-adv-x="574" d="M17 525h134l136 -378l136 378h135l-291 -729h-134l91 206z" />
<glyph unicode="z" horiz-adv-x="540" d="M36 0v88l299 334h-289v103h453v-89l-300 -334h300v-102h-463z" />
<glyph unicode="{" horiz-adv-x="394" d="M16 306v84q112 0 96 116l-13 93q-16 118 50 179t201 61h18v-75h-18q-141 0 -121 -152l11 -83q10 -81 -21.5 -124t-104.5 -57q73 -14 104.5 -57t21.5 -124l-11 -83q-20 -153 121 -153h18v-74h-18q-136 0 -201.5 61t-49.5 179l13 93q16 116 -96 116z" />
<glyph unicode="|" horiz-adv-x="244" d="M75 -123v941h93v-941h-93z" />
<glyph unicode="}" horiz-adv-x="394" d="M26 -69h18q53 0 83 23.5t36.5 55.5t0.5 74l-10 83q-10 81 21 123.5t104 57.5q-73 14 -104 57t-21 124l10 83q6 28 2 55.5t-15.5 49t-38.5 34.5t-68 13h-18v75h18q135 0 200.5 -61t49.5 -179l-13 -93q-15 -116 97 -116v-84q-112 0 -96 -116l13 -93q16 -118 -50 -179 t-201 -61h-18v74z" />
<glyph unicode="~" d="M26 222q62 139 170 139q52 0 127 -37t114 -37q26 0 47.5 14t43.5 53l75 -31q-59 -139 -170 -139q-49 0 -125.5 37t-115.5 37q-25 0 -46 -13.5t-44 -53.5z" />
<glyph unicode="&#xa1;" horiz-adv-x="277" d="M63 0l37 479h76l37 -479h-150zM73 560v140h131v-140h-131z" />
<glyph unicode="&#xa2;" horiz-adv-x="561" d="M49 351q0 125 62 195.5t155 76.5v77h91v-85q64 -15 158 -63l-53 -91q-79 40 -105 47v-316q29 9 105 47l53 -91q-94 -48 -158 -63v-85h-91v77q-94 7 -155.5 77t-61.5 197zM176 351q0 -63 24 -106t66 -57v324q-42 -13 -66 -55.5t-24 -105.5z" />
<glyph unicode="&#xa3;" horiz-adv-x="572" d="M53 0v88q4 2 11.5 6.5t27 20.5t35 33.5t29 45.5t16.5 58h-108v78h95q-9 21 -32.5 58.5t-37.5 72.5t-14 76q0 80 55 127t151 47q49 0 100 -14.5t78.5 -28.5t67.5 -37l-58 -84q-102 56 -166 56q-47 0 -73 -24t-26 -60t37 -96t46 -93h162v-78h-156q-6 -47 -31 -86.5 t-48 -58.5h302v-107h-463z" />
<glyph unicode="&#xa5;" horiz-adv-x="696" d="M30 700h145l173 -318l173 318h145l-202 -335h133v-76h-178l-8 -14v-47h186v-76h-186l1 -152h-129v152h-185v76h185v51l-6 10h-179v76h133z" />
<glyph unicode="&#xa6;" horiz-adv-x="246" d="M76 -123v413h93v-413h-93zM76 405v413h93v-413h-93z" />
<glyph unicode="&#xa7;" horiz-adv-x="565" d="M47 318q0 84 88 120q-69 45 -69 120q0 70 53.5 111.5t145.5 41.5q113 0 229 -56l-51 -82q-98 43 -174 43q-37 0 -58.5 -14t-21.5 -37q0 -11 4 -19.5t13.5 -15.5t18 -12t24 -10t25 -7.5t28.5 -7t27 -6.5q189 -48 189 -167q0 -85 -91 -120q70 -45 70 -121q0 -69 -53 -110 t-144 -41q-113 0 -230 55l51 82q100 -43 174 -43q37 0 58 14t21 38q0 10 -4 19t-13.5 16t-17 11.5t-24 10t-25 8t-28.5 7t-27 6.5q-89 23 -138.5 61t-49.5 105zM165 332q0 -49 136 -84q5 -2 9 -3l8 -2q39 5 60 22.5t21 41.5q0 9 -2.5 16.5t-9 14t-13 12t-18 10.5t-19 8.5 t-22.5 8t-23 6.5l-24 6t-23 6q-39 -6 -59.5 -23t-20.5 -40z" />
<glyph unicode="&#xa8;" horiz-adv-x="242" d="M-20 604v107h105v-107h-105zM157 604v107h105v-107h-105z" />
<glyph unicode="&#xa9;" horiz-adv-x="813" d="M50 350q0 157 95 259t262 102t261.5 -102t94.5 -259t-94.5 -259t-261.5 -102t-262 102t-95 259zM90 350q0 -141 84 -232t232 -91q149 0 233.5 91t84.5 232t-84.5 232t-233.5 91q-148 0 -232 -91t-84 -232zM226 349q0 104 50 161t124 57q79 0 167 -62l-31 -36 q-69 54 -134 54q-56 0 -90 -47.5t-34 -126.5q0 -78 34 -125t90 -47q64 0 134 52l31 -35q-88 -62 -167 -62q-74 0 -124 57t-50 160z" />
<glyph unicode="&#xaa;" horiz-adv-x="422" d="M42 481q0 48 34 75t87 27q38 0 110 -15v24q0 26 -13.5 37.5t-46.5 11.5q-41 0 -121 -24l-28 60q96 30 164 30q69 0 100.5 -27.5t31.5 -91.5v-203h-87v37q-50 -44 -117 -44q-49 0 -81.5 28t-32.5 75zM131 488q0 -43 53 -43q46 0 89 35v45q-50 10 -80 10q-62 0 -62 -47z " />
<glyph unicode="&#xab;" horiz-adv-x="683" d="M32 236v76l305 215v-118l-200 -136l200 -135v-118zM323 236v76l305 215v-118l-201 -136l201 -135v-118z" />
<glyph unicode="&#xac;" d="M18 286v94h584v-290h-102v196h-482z" />
<glyph unicode="&#xad;" horiz-adv-x="435" d="M64 234v101h306v-101h-306z" />
<glyph unicode="&#xae;" horiz-adv-x="492" d="M48 500q0 87 53 143.5t145 56.5t144.5 -56.5t52.5 -143.5t-52.5 -143.5t-144.5 -56.5t-145 56.5t-53 143.5zM84 500q0 -74 41.5 -120.5t120.5 -46.5t120 46.5t41 120.5t-41 120.5t-120 46.5t-120.5 -46.5t-41.5 -120.5zM172 402v201h93q31 0 49.5 -16t18.5 -42 q0 -20 -14 -35.5t-36 -20.5l47 -87h-37l-44 85h-44v-85h-33zM205 518h59q35 0 35 27q0 28 -33 28h-61v-55z" />
<glyph unicode="&#xaf;" horiz-adv-x="302" d="M0 619v75h302v-75h-302z" />
<glyph unicode="&#xb0;" horiz-adv-x="427" d="M40 527q0 72 51 123t122 51q72 0 123 -51t51 -123q0 -71 -51 -122t-123 -51q-71 0 -122 51t-51 122zM114 527q0 -41 29 -70t70 -29t70 29t29 70t-29 70t-70 29t-70 -29t-29 -70z" />
<glyph unicode="&#xb1;" d="M59 0v82h511v-82h-511zM59 297v95h206v146h96v-146h209v-95h-209v-147h-96v147h-206z" />
<glyph unicode="&#xb2;" horiz-adv-x="401" d="M31 385v41q0 58 36.5 97t101.5 78q6 3 17.5 10.5t17 10.5t15 9.5t14 10t11.5 9t10.5 10t7 9.5t5 10.5t1.5 11.5q0 20 -17.5 32.5t-49.5 12.5q-53 0 -117 -39l-41 58q85 56 170 56q70 0 108.5 -33t38.5 -84q0 -28 -10.5 -51t-34 -42.5t-40 -30.5t-48.5 -29q-8 -4 -11 -6 q-39 -22 -57.5 -38.5t-18.5 -37.5h220v-75h-329z" />
<glyph unicode="&#xb3;" horiz-adv-x="401" d="M22 430l41 62q69 -39 130 -39q36 0 58.5 15t22.5 41q0 62 -126 62h-20v75h23q41 0 72.5 12t31.5 39q0 40 -61 40q-54 0 -114 -36l-37 57q71 54 165 54q68 0 103 -29t35 -73q0 -65 -75 -93q42 -12 68.5 -41.5t26.5 -68.5q0 -53 -40 -91t-122 -38q-92 0 -182 52z" />
<glyph unicode="&#xb4;" horiz-adv-x="227" d="M-22 594l124 135h147l-170 -135h-101z" />
<glyph unicode="&#xb5;" horiz-adv-x="621" d="M75 -204v729h123v-345q0 -94 76 -94q40 0 86.5 23t76.5 51v365h124v-525h-124v66q-113 -77 -209 -77q-12 0 -30 2v-195h-123z" />
<glyph unicode="&#xb6;" horiz-adv-x="689" d="M33 469q0 116 69.5 173.5t196.5 57.5h104v-885h-106v422q-118 0 -191 58.5t-73 173.5zM496 -186v886h107v-886h-107z" />
<glyph unicode="&#xb7;" horiz-adv-x="260" d="M64 210v150h131v-150h-131z" />
<glyph unicode="&#xb8;" horiz-adv-x="179" d="M-8 -159l27 65q26 -13 49 -13q51 0 51 40q0 15 -7.5 32.5t-15.5 26.5l-7 10h58q40 -43 40 -93q0 -43 -31 -65.5t-79 -22.5q-46 0 -85 20z" />
<glyph unicode="&#xb9;" horiz-adv-x="276" d="M11 741l118 64h86v-420h-91v336l-76 -39z" />
<glyph unicode="&#xba;" horiz-adv-x="425" d="M43 542q0 79 43.5 122t125.5 43t126 -43.5t44 -121.5t-44 -121t-126 -43q-81 0 -125 43t-44 121zM131 542q0 -97 81 -97q82 0 82 97t-82 97q-81 0 -81 -97z" />
<glyph unicode="&#xbb;" horiz-adv-x="683" d="M56 20v119l201 134l-201 136v118l305 -215v-76zM347 20v119l200 134l-200 136v118l305 -215v-76z" />
<glyph unicode="&#xbc;" horiz-adv-x="864" d="M27 636l118 64h86v-420h-91v336l-76 -39zM173 0l331 700h97l-331 -700h-97zM435 81v63l201 276h121v-265h67v-74h-67v-81h-92v81h-230zM528 155h137v193z" />
<glyph unicode="&#xbd;" horiz-adv-x="878" d="M27 636l118 64h86v-420h-91v336l-76 -39zM173 0l331 700h97l-331 -700h-97zM497 0v41q0 40 22.5 75t48 54.5t68.5 45.5l15 9q30 18 44 27.5t26.5 24.5t12.5 30q0 20 -17.5 32.5t-49.5 12.5q-50 0 -117 -39l-41 58q88 56 170 56q70 0 108.5 -33t38.5 -84q0 -24 -10 -45.5 t-20 -34.5t-36 -31.5t-36 -24t-42 -23.5q-39 -22 -57.5 -38.5t-18.5 -37.5h221v-75h-330z" />
<glyph unicode="&#xbe;" horiz-adv-x="963" d="M37 325l41 62q69 -39 130 -39q36 0 58.5 15t22.5 41q0 62 -126 62h-20v75h23q41 0 72.5 12t31.5 39q0 40 -61 40q-54 0 -114 -36l-37 57q71 54 165 54q68 0 103 -29t35 -73q0 -65 -75 -93q42 -12 68.5 -41.5t26.5 -68.5q0 -53 -40 -91t-122 -38q-92 0 -182 52zM277 0 l330 700h97l-330 -700h-97zM537 81v63l203 276h120v-265h67v-74h-67v-81h-91v81h-232zM632 155h137v193z" />
<glyph unicode="&#xbf;" horiz-adv-x="529" d="M40 167q0 85 61.5 134t164.5 76l7 102h82l8 -170q-103 -21 -148.5 -47.5t-45.5 -76.5q0 -40 30.5 -64.5t81.5 -24.5q70 0 164 56l54 -86q-114 -77 -238 -77q-95 0 -158 47.5t-63 130.5zM248 560v140h132v-140h-132z" />
<glyph unicode="&#xc0;" horiz-adv-x="701" d="M14 0l266 700h141l265 -700h-139l-51 149h-292l-50 -149h-140zM173 880h147l124 -135h-101zM238 252h224l-112 332z" />
<glyph unicode="&#xc1;" horiz-adv-x="701" d="M14 0l266 700h141l265 -700h-139l-51 149h-292l-50 -149h-140zM238 252h224l-112 332zM256 745l124 135h148l-169 -135h-103z" />
<glyph unicode="&#xc2;" horiz-adv-x="701" d="M14 0l266 700h141l265 -700h-139l-51 149h-292l-50 -149h-140zM184 745l103 135h126l104 -135h-88l-79 78l-78 -78h-88zM238 252h224l-112 332z" />
<glyph unicode="&#xc3;" horiz-adv-x="701" d="M14 0l266 700h141l265 -700h-139l-51 149h-292l-50 -149h-140zM175 779q17 33 27.5 50t31.5 32.5t46 15.5q29 0 75 -24t60 -24q25 0 51 46l58 -28q-23 -48 -46 -72.5t-59 -24.5q-29 0 -75 24t-60 24q-25 0 -51 -46zM238 252h224l-112 332z" />
<glyph unicode="&#xc4;" horiz-adv-x="701" d="M14 0l266 700h141l265 -700h-139l-51 149h-292l-50 -149h-140zM210 757v108h105v-108h-105zM238 252h224l-112 332zM387 757v108h104v-108h-104z" />
<glyph unicode="&#xc5;" horiz-adv-x="701" d="M14 0l266 700h141l265 -700h-139l-51 149h-292l-50 -149h-140zM238 252h224l-112 332zM242 844q0 45 32 77t77 32q46 0 78 -32t32 -77q0 -46 -32 -77.5t-78 -31.5q-45 0 -77 31.5t-32 77.5zM304 844q0 -20 13.5 -33.5t33.5 -13.5t34 13.5t14 33.5t-14 33.5t-34 13.5 q-19 0 -33 -13.5t-14 -33.5z" />
<glyph unicode="&#xc6;" horiz-adv-x="1043" d="M-20 0l478 700h532v-110h-348v-186h287v-108h-287v-187h354v-109h-482v149h-283l-97 -149h-154zM301 255h213v325z" />
<glyph unicode="&#xc7;" horiz-adv-x="652" d="M50 350q0 178 79.5 269.5t205.5 91.5q73 0 140.5 -27t147.5 -75l-62 -94q-135 80 -213 80q-76 0 -120.5 -65.5t-44.5 -179.5t44.5 -180t120.5 -66q78 0 213 80l62 -94q-147 -88 -248 -99q31 -42 31 -82q0 -43 -30.5 -65.5t-78.5 -22.5t-85 20l25 65q29 -13 49 -13 q51 0 51 40q0 26 -19 57q-119 6 -193.5 97t-74.5 263z" />
<glyph unicode="&#xc8;" horiz-adv-x="611" d="M82 0v700h476v-110h-348v-186h286v-108h-286v-187h353v-109h-481zM146 880h147l124 -135h-102z" />
<glyph unicode="&#xc9;" horiz-adv-x="611" d="M82 0v700h476v-110h-348v-186h286v-108h-286v-187h353v-109h-481zM229 745l124 135h148l-170 -135h-102z" />
<glyph unicode="&#xca;" horiz-adv-x="611" d="M82 0v700h476v-110h-348v-186h286v-108h-286v-187h353v-109h-481zM156 745l104 135h125l104 -135h-88l-79 78l-78 -78h-88z" />
<glyph unicode="&#xcb;" horiz-adv-x="611" d="M82 0v700h476v-110h-348v-186h286v-108h-286v-187h353v-109h-481zM182 755v107h105v-107h-105zM359 755v107h104v-107h-104z" />
<glyph unicode="&#xcc;" horiz-adv-x="292" d="M-32 880h147l124 -135h-101zM81 0v700h129v-700h-129z" />
<glyph unicode="&#xcd;" horiz-adv-x="292" d="M53 745l124 135h147l-170 -135h-101zM82 0v700h128v-700h-128z" />
<glyph unicode="&#xce;" horiz-adv-x="292" d="M-20 745l103 135h125l104 -135h-87l-79 78l-79 -78h-87zM82 0v700h128v-700h-128z" />
<glyph unicode="&#xcf;" horiz-adv-x="292" d="M5 754v107h105v-107h-105zM82 0v700h128v-700h-128zM182 754v107h105v-107h-105z" />
<glyph unicode="&#xd0;" horiz-adv-x="728" d="M20 299v102h75v299h238q169 0 256.5 -84t87.5 -266t-87.5 -266t-256.5 -84h-238v299h-75zM224 109h99q116 0 170.5 55.5t54.5 185.5t-54.5 185t-170.5 55h-99v-189h152v-102h-152v-190z" />
<glyph unicode="&#xd1;" horiz-adv-x="740" d="M82 0v700h131l316 -509v509h129v-700h-131l-317 510v-510h-128zM200 784q14 26 21 38t20.5 29t29 24t34.5 7q29 0 75.5 -24t59.5 -24q25 0 51 46l59 -28q-12 -24 -20 -37.5t-21 -29.5t-29 -23t-35 -7q-29 0 -75.5 24t-59.5 24q-25 0 -51 -46z" />
<glyph unicode="&#xd2;" horiz-adv-x="753" d="M50 350q0 78 18.5 141.5t56 114t102 78t150.5 27.5q167 0 247 -99.5t80 -261.5q0 -77 -18.5 -141t-56.5 -114t-102 -78t-150 -28t-150.5 28t-102 78t-56 114t-18.5 141zM183 350q0 -115 46 -183t148 -68t148 68t46 183q0 250 -194 250t-194 -250zM199 880h147l125 -135 h-102z" />
<glyph unicode="&#xd3;" horiz-adv-x="753" d="M50 350q0 78 18.5 141.5t56 114t102 78t150.5 27.5q167 0 247 -99.5t80 -261.5q0 -77 -18.5 -141t-56.5 -114t-102 -78t-150 -28t-150.5 28t-102 78t-56 114t-18.5 141zM183 350q0 -115 46 -183t148 -68t148 68t46 183q0 250 -194 250t-194 -250zM283 745l124 135h147 l-169 -135h-102z" />
<glyph unicode="&#xd4;" horiz-adv-x="753" d="M50 350q0 78 18.5 141.5t56 114t102 78t150.5 27.5q167 0 247 -99.5t80 -261.5q0 -77 -18.5 -141t-56.5 -114t-102 -78t-150 -28t-150.5 28t-102 78t-56 114t-18.5 141zM183 350q0 -115 46 -183t148 -68t148 68t46 183q0 250 -194 250t-194 -250zM211 745l103 135h125 l104 -135h-87l-79 78l-79 -78h-87z" />
<glyph unicode="&#xd5;" horiz-adv-x="753" d="M50 350q0 78 18.5 141.5t56 114t102 78t150.5 27.5q167 0 247 -99.5t80 -261.5q0 -77 -18.5 -141t-56.5 -114t-102 -78t-150 -28t-150.5 28t-102 78t-56 114t-18.5 141zM183 350q0 -115 46 -183t148 -68t148 68t46 183q0 250 -194 250t-194 -250zM201 779q14 26 21 38 t20.5 29t29 24t34.5 7q29 0 75.5 -24t59.5 -24q25 0 51 46l59 -28q-12 -24 -20 -37.5t-21 -29.5t-29 -23t-35 -7q-29 0 -75.5 24t-59.5 24q-25 0 -51 -46z" />
<glyph unicode="&#xd6;" horiz-adv-x="753" d="M50 350q0 78 18.5 141.5t56 114t102 78t150.5 27.5q167 0 247 -99.5t80 -261.5q0 -77 -18.5 -141t-56.5 -114t-102 -78t-150 -28t-150.5 28t-102 78t-56 114t-18.5 141zM183 350q0 -115 46 -183t148 -68t148 68t46 183q0 250 -194 250t-194 -250zM236 755v107h105v-107 h-105zM413 755v107h105v-107h-105z" />
<glyph unicode="&#xd7;" d="M99 466l69 69l146 -134l145 133l70 -69l-142 -130l143 -130l-69 -69l-147 133l-144 -132l-70 69l142 129z" />
<glyph unicode="&#xd8;" horiz-adv-x="752" d="M49 350q0 78 18.5 141.5t56 114t102 78t150.5 27.5q114 0 191 -50l30 39h95l-69 -89q80 -94 80 -261q0 -77 -18.5 -141t-56.5 -114t-102 -78t-150 -28q-116 0 -191 50l-30 -39h-94l68 88q-80 94 -80 262zM182 350q0 -97 29 -155l282 369q-45 36 -117 36q-194 0 -194 -250 zM258 135q45 -36 118 -36q102 0 148 68t46 183q0 92 -29 153z" />
<glyph unicode="&#xd9;" horiz-adv-x="714" d="M75 273v427h128v-436q0 -78 33 -121.5t121 -43.5q87 0 119.5 43.5t32.5 121.5v436h129v-427q0 -63 -13 -111.5t-43.5 -89t-87 -62t-137.5 -21.5q-82 0 -138.5 21.5t-87 62t-43.5 89t-13 111.5zM179 880h147l125 -135h-102z" />
<glyph unicode="&#xda;" horiz-adv-x="714" d="M75 273v427h128v-436q0 -78 33 -121.5t121 -43.5q87 0 119.5 43.5t32.5 121.5v436h129v-427q0 -63 -13 -111.5t-43.5 -89t-87 -62t-137.5 -21.5q-82 0 -138.5 21.5t-87 62t-43.5 89t-13 111.5zM263 745l124 135h147l-170 -135h-101z" />
<glyph unicode="&#xdb;" horiz-adv-x="713" d="M75 273v427h128v-436q0 -78 33 -121.5t121 -43.5q87 0 119.5 43.5t32.5 121.5v436h129v-427q0 -63 -13 -111.5t-43.5 -89t-87 -62t-137.5 -21.5q-82 0 -138.5 21.5t-87 62t-43.5 89t-13 111.5zM191 745l102 135h126l104 -135h-87l-79 78l-80 -78h-86z" />
<glyph unicode="&#xdc;" horiz-adv-x="714" d="M75 273v427h128v-436q0 -78 33 -121.5t121 -43.5q87 0 119.5 43.5t32.5 121.5v436h129v-427q0 -63 -13 -111.5t-43.5 -89t-87 -62t-137.5 -21.5q-82 0 -138.5 21.5t-87 62t-43.5 89t-13 111.5zM216 755v107h104v-107h-104zM393 755v107h104v-107h-104z" />
<glyph unicode="&#xdd;" horiz-adv-x="654" d="M9 700h145l173 -318l173 318h145l-255 -424l1 -276h-129v279zM233 745l124 135h148l-170 -135h-102z" />
<glyph unicode="&#xde;" horiz-adv-x="669" d="M82 0v700h128v-117h148q273 0 273 -221q0 -223 -273 -223h-148v-139h-128zM210 246h129q80 0 121 26t41 90q0 63 -41 88.5t-121 25.5h-129v-230z" />
<glyph unicode="&#xdf;" horiz-adv-x="689" d="M68 0v483q0 110 70 169t212 59q282 0 282 -226v-5l-59 -70q-75 36 -136 36q-30 0 -49 -15t-19 -41q0 -10 3 -19t11 -16t14 -11.5t20.5 -9.5t20.5 -7.5t25 -7.5t24 -7q77 -24 122.5 -63t45.5 -107q0 -73 -49.5 -113t-134.5 -40q-61 0 -126 20t-109 46l46 83 q36 -22 88 -40.5t84 -18.5q33 0 54.5 15.5t21.5 41.5q0 9 -3 17.5t-7 14.5t-13 12t-15 9.5t-19.5 8.5t-20.5 7.5t-23.5 7.5t-22.5 7q-35 12 -57.5 22t-49 29t-40 47.5t-13.5 65.5q0 69 47 110.5t130 41.5q34 0 81 -9q-11 45 -47.5 66t-106.5 21q-87 0 -122.5 -33.5 t-35.5 -107.5v-473h-124z" />
<glyph unicode="&#xe0;" horiz-adv-x="590" d="M35 159q0 82 53 126t135 44q21 0 49.5 -3.5t47.5 -6.5t48 -9t34 -7v47q0 49 -21.5 70t-77.5 21q-58 0 -193 -41l-40 86q148 50 254 50q104 0 153 -44t49 -145v-347h-124v64q-83 -75 -188 -75q-76 0 -127.5 45t-51.5 125zM121 729h147l125 -135h-103zM160 169 q0 -42 24.5 -62.5t66.5 -20.5q79 0 151 64v89q-101 19 -135 19q-54 0 -80.5 -24t-26.5 -65z" />
<glyph unicode="&#xe1;" horiz-adv-x="590" d="M35 159q0 82 53 126t135 44q21 0 49.5 -3.5t47.5 -6.5t48 -9t34 -7v47q0 49 -21.5 70t-77.5 21q-58 0 -193 -41l-40 86q148 50 254 50q104 0 153 -44t49 -145v-347h-124v64q-83 -75 -188 -75q-76 0 -127.5 45t-51.5 125zM160 169q0 -42 24.5 -62.5t66.5 -20.5 q79 0 151 64v89q-101 19 -135 19q-54 0 -80.5 -24t-26.5 -65zM205 594l124 135h147l-170 -135h-101z" />
<glyph unicode="&#xe2;" horiz-adv-x="589" d="M35 159q0 82 53 126t135 44q21 0 49.5 -3.5t47.5 -6.5t48 -9t34 -7v47q0 49 -21.5 70t-77.5 21q-58 0 -193 -41l-40 86q148 50 254 50q104 0 153 -44t49 -145v-347h-124v64q-83 -75 -188 -75q-76 0 -127.5 45t-51.5 125zM132 594l103 135h126l103 -135h-87l-79 78 l-79 -78h-87zM160 169q0 -42 24.5 -62.5t66.5 -20.5q79 0 151 64v89q-101 19 -135 19q-54 0 -80.5 -24t-26.5 -65z" />
<glyph unicode="&#xe3;" horiz-adv-x="590" d="M35 159q0 82 53 126t135 44q21 0 49.5 -3.5t47.5 -6.5t48 -9t34 -7v47q0 49 -21.5 70t-77.5 21q-58 0 -193 -41l-40 86q148 50 254 50q104 0 153 -44t49 -145v-347h-124v64q-83 -75 -188 -75q-76 0 -127.5 45t-51.5 125zM123 628q14 26 21 38t20.5 29t29 24t34.5 7 q29 0 75.5 -24t59.5 -24q25 0 51 46l59 -28q-12 -24 -20 -37.5t-21 -29.5t-29 -23t-35 -7q-29 0 -75.5 24t-59.5 24q-25 0 -51 -46zM160 169q0 -42 24.5 -62.5t66.5 -20.5q79 0 151 64v89q-101 19 -135 19q-54 0 -80.5 -24t-26.5 -65z" />
<glyph unicode="&#xe4;" horiz-adv-x="590" d="M35 159q0 82 53 126t135 44q21 0 49.5 -3.5t47.5 -6.5t48 -9t34 -7v47q0 49 -21.5 70t-77.5 21q-58 0 -193 -41l-40 86q148 50 254 50q104 0 153 -44t49 -145v-347h-124v64q-83 -75 -188 -75q-76 0 -127.5 45t-51.5 125zM157 604v107h105v-107h-105zM160 169 q0 -42 24.5 -62.5t66.5 -20.5q79 0 151 64v89q-101 19 -135 19q-54 0 -80.5 -24t-26.5 -65zM334 604v107h105v-107h-105z" />
<glyph unicode="&#xe5;" horiz-adv-x="590" d="M35 159q0 82 53 126t135 44q21 0 49.5 -3.5t47.5 -6.5t48 -9t34 -7v47q0 49 -21.5 70t-77.5 21q-58 0 -193 -41l-40 86q148 50 254 50q104 0 153 -44t49 -145v-347h-124v64q-83 -75 -188 -75q-76 0 -127.5 45t-51.5 125zM160 169q0 -42 24.5 -62.5t66.5 -20.5 q79 0 151 64v89q-101 19 -135 19q-54 0 -80.5 -24t-26.5 -65zM189 693q0 45 32 77t77 32q46 0 78 -32t32 -77q0 -46 -32 -77.5t-78 -31.5q-45 0 -77 31.5t-32 77.5zM251 693q0 -20 13.5 -33.5t33.5 -13.5t34 13.5t14 33.5t-14 33.5t-34 13.5t-33.5 -14t-13.5 -33z" />
<glyph unicode="&#xe6;" horiz-adv-x="925" d="M35 159q0 82 53 126t135 44q52 0 166 -27q3 35 12 65q-3 39 -25 56.5t-73 17.5q-58 0 -193 -41l-40 86q148 50 254 50q110 0 158 -49q64 49 161 49q115 0 177 -63.5t62 -166.5q0 -18 -2 -36t-4 -27l-2 -9h-360q6 -72 39 -112t88 -40q70 0 195 67l49 -79 q-143 -81 -255 -81q-135 0 -200 102q-96 -102 -216 -102q-76 0 -127.5 45t-51.5 125zM160 169q0 -42 24.5 -62.5t66.5 -20.5q78 0 151 65q-11 34 -14 84q-95 23 -121 23q-54 0 -80.5 -24t-26.5 -65zM515 304h245q1 142 -117 142q-56 0 -88.5 -37t-39.5 -105z" />
<glyph unicode="&#xe7;" horiz-adv-x="524" d="M42 263q0 132 68 202.5t167 70.5q90 0 219 -66l-52 -91q-3 2 -21.5 11t-30 14t-30 12t-35.5 10.5t-33 3.5q-56 0 -90.5 -45.5t-34.5 -121.5t34.5 -122t90.5 -46q48 0 150 51l52 -92q-115 -56 -192 -64q31 -39 31 -81q0 -43 -30.5 -65.5t-78.5 -22.5q-46 0 -85 20l26 65 q27 -13 49 -13q51 0 51 40q0 24 -21 58q-89 11 -146.5 80.5t-57.5 191.5z" />
<glyph unicode="&#xe8;" horiz-adv-x="580" d="M41 261q0 130 69 202.5t187 72.5q115 0 176.5 -63.5t61.5 -166.5q0 -18 -1.5 -36t-3.5 -27l-2 -9h-360q6 -72 39 -112t88 -40q71 0 194 67l50 -79q-146 -81 -255 -81q-106 0 -174.5 69.5t-68.5 202.5zM121 729h148l124 -135h-102zM169 304h245q1 142 -117 142 q-56 0 -88.5 -37t-39.5 -105z" />
<glyph unicode="&#xe9;" horiz-adv-x="580" d="M41 261q0 130 69 202.5t187 72.5q115 0 176.5 -63.5t61.5 -166.5q0 -18 -1.5 -36t-3.5 -27l-2 -9h-360q6 -72 39 -112t88 -40q71 0 194 67l50 -79q-146 -81 -255 -81q-106 0 -174.5 69.5t-68.5 202.5zM169 304h245q1 142 -117 142q-56 0 -88.5 -37t-39.5 -105zM206 594 l123 135h148l-170 -135h-101z" />
<glyph unicode="&#xea;" horiz-adv-x="580" d="M41 261q0 130 69 202.5t187 72.5q115 0 176.5 -63.5t61.5 -166.5q0 -18 -1.5 -36t-3.5 -27l-2 -9h-360q6 -72 39 -112t88 -40q71 0 194 67l50 -79q-146 -81 -255 -81q-106 0 -174.5 69.5t-68.5 202.5zM133 594l103 135h125l104 -135h-87l-79 78l-79 -78h-87zM169 304h245 q1 142 -117 142q-56 0 -88.5 -37t-39.5 -105z" />
<glyph unicode="&#xeb;" horiz-adv-x="580" d="M41 261q0 130 69 202.5t187 72.5q115 0 176.5 -63.5t61.5 -166.5q0 -18 -1.5 -36t-3.5 -27l-2 -9h-360q6 -72 39 -112t88 -40q71 0 194 67l50 -79q-146 -81 -255 -81q-106 0 -174.5 69.5t-68.5 202.5zM158 604v107h105v-107h-105zM169 304h245q1 142 -117 142 q-56 0 -88.5 -37t-39.5 -105zM335 604v107h105v-107h-105z" />
<glyph unicode="&#xec;" horiz-adv-x="260" d="M-48 729h147l124 -135h-101zM68 0v525h123v-525h-123z" />
<glyph unicode="&#xed;" horiz-adv-x="260" d="M37 594l124 135h147l-170 -135h-101zM68 0v525h124v-525h-124z" />
<glyph unicode="&#xee;" horiz-adv-x="260" d="M-36 594l103 135h125l104 -135h-87l-79 78l-79 -78h-87zM68 0v525h124v-525h-124z" />
<glyph unicode="&#xef;" horiz-adv-x="260" d="M-11 604v107h105v-107h-105zM68 0v525h123v-525h-123zM166 604v107h104v-107h-104z" />
<glyph unicode="&#xf0;" horiz-adv-x="623" d="M42 232q0 109 65.5 176.5t168.5 67.5q34 0 64.5 -7.5t49.5 -18t32.5 -21.5t19.5 -19l6 -7q-15 58 -54.5 106t-98.5 72l-50 -48h-108l70 67q-5 1 -16 1q-21 0 -41 -2t-30 -4l-9 -2l-17 95q39 12 100 12q56 0 104 -12l43 41h109l-74 -71q96 -49 149 -147.5t53 -223.5 q0 -150 -73.5 -224t-198.5 -74q-123 0 -193.5 65.5t-70.5 177.5zM170 232q0 -65 35.5 -106t106.5 -41q70 0 106 40.5t36 106.5q0 67 -35.5 107t-106.5 40t-106.5 -41t-35.5 -106z" />
<glyph unicode="&#xf1;" horiz-adv-x="619" d="M68 0v525h124v-67q108 78 208 78q154 0 154 -164v-372h-123v345q0 93 -76 93q-41 0 -88 -23t-75 -50v-365h-124zM135 623q14 26 21 38t20.5 29t29 24t34.5 7q29 0 75.5 -24t59.5 -24q25 0 51 46l59 -28q-12 -24 -20 -37.5t-21 -29.5t-29 -23t-35 -7q-29 0 -75.5 24 t-59.5 24q-25 0 -51 -46z" />
<glyph unicode="&#xf2;" horiz-adv-x="610" d="M41 262q0 130 68 202t195 72t195.5 -72.5t68.5 -201.5q0 -130 -68.5 -201.5t-195.5 -71.5t-195 72t-68 201zM127 729h147l124 -135h-101zM166 262q0 -177 138 -177t138 177t-138 177t-138 -177z" />
<glyph unicode="&#xf3;" horiz-adv-x="610" d="M41 262q0 130 68 202t195 72t195.5 -72.5t68.5 -201.5q0 -130 -68.5 -201.5t-195.5 -71.5t-195 72t-68 201zM166 262q0 -177 138 -177t138 177t-138 177t-138 -177zM210 594l124 135h148l-169 -135h-103z" />
<glyph unicode="&#xf4;" horiz-adv-x="610" d="M41 262q0 130 68 202t195 72t195.5 -72.5t68.5 -201.5q0 -130 -68.5 -201.5t-195.5 -71.5t-195 72t-68 201zM138 594l104 135h125l104 -135h-88l-79 78l-78 -78h-88zM166 262q0 -177 138 -177t138 177t-138 177t-138 -177z" />
<glyph unicode="&#xf5;" horiz-adv-x="610" d="M41 262q0 130 68 202t195 72t195.5 -72.5t68.5 -201.5q0 -130 -68.5 -201.5t-195.5 -71.5t-195 72t-68 201zM132 619q11 25 17.5 38t18.5 30t28 24.5t36 7.5q26 0 71.5 -19.5t65.5 -20.5q33 0 51 38l57 -19q-1 -3 -4 -9q-11 -22 -17 -33.5t-18.5 -27t-27.5 -22.5t-35 -7 t-44 8.5t-42.5 17t-37 13t-35 -4t-28.5 -33.5zM166 262q0 -84 34 -130.5t104 -46.5q138 0 138 177t-138 177q-70 0 -104 -46.5t-34 -130.5z" />
<glyph unicode="&#xf6;" horiz-adv-x="610" d="M41 262q0 130 68 202t195 72t195.5 -72.5t68.5 -201.5q0 -130 -68.5 -201.5t-195.5 -71.5t-195 72t-68 201zM164 604v107h105v-107h-105zM166 262q0 -177 138 -177t138 177t-138 177t-138 -177zM341 604v107h104v-107h-104z" />
<glyph unicode="&#xf7;" d="M59 286v94h511v-94h-511zM246 156q0 27 20 46t49 19q28 0 48.5 -19t20.5 -46t-20.5 -46t-48.5 -19q-29 0 -49 19t-20 46zM246 511q0 27 20.5 46t48.5 19t48.5 -19t20.5 -46t-20.5 -46t-48.5 -19t-48.5 19t-20.5 46z" />
<glyph unicode="&#xf8;" horiz-adv-x="609" d="M41 262q0 130 68 202t195 72q88 0 150 -37l21 26h78l-52 -64q67 -72 67 -199q0 -130 -68.5 -201.5t-195.5 -71.5q-89 0 -152 37l-21 -26h-79l53 65q-64 72 -64 197zM166 262q0 -61 16 -100l204 253q-34 24 -82 24q-138 0 -138 -177zM220 111q32 -26 84 -26q138 0 138 177 q0 61 -18 103z" />
<glyph unicode="&#xf9;" horiz-adv-x="619" d="M64 153v372h123v-345q0 -94 76 -94q40 0 86.5 23t76.5 51v365h124v-525h-124v66q-113 -77 -209 -77q-153 0 -153 164zM129 729h147l124 -135h-101z" />
<glyph unicode="&#xfa;" horiz-adv-x="619" d="M64 153v372h123v-345q0 -94 76 -94q40 0 86.5 23t76.5 51v365h124v-525h-124v66q-113 -77 -209 -77q-153 0 -153 164zM212 594l124 135h148l-169 -135h-103z" />
<glyph unicode="&#xfb;" horiz-adv-x="619" d="M64 153v372h123v-345q0 -94 76 -94q40 0 86.5 23t76.5 51v365h124v-525h-124v66q-113 -77 -209 -77q-153 0 -153 164zM140 594l103 135h126l104 -135h-88l-79 78l-78 -78h-88z" />
<glyph unicode="&#xfc;" horiz-adv-x="619" d="M64 153v372h123v-345q0 -94 76 -94q40 0 86.5 23t76.5 51v365h124v-525h-124v66q-113 -77 -209 -77q-153 0 -153 164zM166 604v107h105v-107h-105zM343 604v107h104v-107h-104z" />
<glyph unicode="&#xfd;" horiz-adv-x="574" d="M17 525h134l136 -378l136 378h135l-291 -729h-134l91 206zM193 594l124 135h148l-169 -135h-103z" />
<glyph unicode="&#xfe;" horiz-adv-x="617" d="M68 -204v933h124v-266q83 73 179 73q91 0 147 -69t56 -205q0 -135 -56 -204t-147 -69q-97 0 -179 72v-265h-124zM192 162q62 -73 145 -73q111 0 111 173t-111 173q-82 0 -145 -73v-200z" />
<glyph unicode="&#xff;" horiz-adv-x="574" d="M17 525h134l136 -378l136 378h135l-291 -729h-134l91 206zM147 604v107h105v-107h-105zM324 604v107h104v-107h-104z" />
<glyph unicode="&#x152;" horiz-adv-x="1102" d="M50 350q0 78 18.5 141.5t56 114t102 78t150.5 27.5q118 0 196 -53v42h476v-110h-347v-186h285v-108h-285v-187h353v-109h-482v42q-78 -53 -196 -53q-86 0 -150.5 28t-102 78t-56 114t-18.5 141zM183 350q0 -115 46 -183t148 -68t148 68t46 183q0 250 -194 250t-194 -250z " />
<glyph unicode="&#x153;" horiz-adv-x="982" d="M41 262q0 130 68 202t195 72q131 0 201 -79q70 79 194 79q115 0 177 -63.5t62 -166.5q0 -18 -2 -36t-4 -27l-2 -9h-360q6 -73 38.5 -112.5t88.5 -39.5q72 0 195 67l48 -79q-139 -81 -253 -81q-115 0 -182 77q-69 -77 -201 -77q-127 0 -195 72t-68 201zM166 262 q0 -177 138 -177t138 177t-138 177t-138 -177zM571 304h245q1 142 -117 142q-56 0 -88.5 -37t-39.5 -105z" />
<glyph unicode="&#x178;" horiz-adv-x="654" d="M9 700h145l173 -318l173 318h145l-255 -424l1 -276h-129v279zM186 755v107h105v-107h-105zM364 755v107h103v-107h-103z" />
<glyph unicode="&#x2c6;" horiz-adv-x="283" d="M-25 594l104 135h125l104 -135h-88l-79 78l-78 -78h-88z" />
<glyph unicode="&#x2dc;" horiz-adv-x="296" d="M-27 628q14 26 21 38t20.5 29t29 24t34.5 7q29 0 75.5 -24t59.5 -24q25 0 51 46l59 -28q-12 -24 -20 -37.5t-21 -29.5t-29 -23t-35 -7q-29 0 -75.5 24t-59.5 24q-25 0 -51 -46z" />
<glyph unicode="&#x2000;" horiz-adv-x="476" />
<glyph unicode="&#x2001;" horiz-adv-x="953" />
<glyph unicode="&#x2002;" horiz-adv-x="476" />
<glyph unicode="&#x2003;" horiz-adv-x="953" />
<glyph unicode="&#x2004;" horiz-adv-x="317" />
<glyph unicode="&#x2005;" horiz-adv-x="238" />
<glyph unicode="&#x2006;" horiz-adv-x="158" />
<glyph unicode="&#x2007;" horiz-adv-x="158" />
<glyph unicode="&#x2008;" horiz-adv-x="119" />
<glyph unicode="&#x2009;" horiz-adv-x="190" />
<glyph unicode="&#x200a;" horiz-adv-x="52" />
<glyph unicode="&#x2010;" horiz-adv-x="435" d="M64 234v101h306v-101h-306z" />
<glyph unicode="&#x2011;" horiz-adv-x="435" d="M64 234v101h306v-101h-306z" />
<glyph unicode="&#x2012;" horiz-adv-x="435" d="M64 234v101h306v-101h-306z" />
<glyph unicode="&#x2013;" horiz-adv-x="565" d="M65 234v101h436v-101h-436z" />
<glyph unicode="&#x2014;" horiz-adv-x="672" d="M65 234v101h542v-101h-542z" />
<glyph unicode="&#x2018;" horiz-adv-x="253" d="M51 583l109 137l36 -43l-64 -109h59v-150h-129z" />
<glyph unicode="&#x2019;" horiz-adv-x="242" d="M54 441l63 109h-59v150h130l11 -165l-109 -137z" />
<glyph unicode="&#x201a;" horiz-adv-x="259" d="M58 -109l63 109h-59v150h130l11 -165l-109 -137z" />
<glyph unicode="&#x201c;" horiz-adv-x="464" d="M51 583l109 137l36 -43l-64 -109h59v-150h-129zM261 583l110 137l36 -43l-63 -109h59v-150h-131z" />
<glyph unicode="&#x201d;" horiz-adv-x="453" d="M54 441l63 109h-59v150h130l11 -165l-109 -137zM264 441l64 109h-59v150h130l11 -165l-110 -137z" />
<glyph unicode="&#x201e;" horiz-adv-x="471" d="M58 -109l63 109h-59v150h130l11 -165l-109 -137zM268 -109l64 109h-59v150h130l11 -165l-110 -137z" />
<glyph unicode="&#x2022;" horiz-adv-x="452" d="M77 284q0 62 43 105.5t105 43.5t105.5 -43.5t43.5 -105.5t-43.5 -105t-105.5 -43q-61 0 -104.5 43t-43.5 105z" />
<glyph unicode="&#x2026;" horiz-adv-x="718" d="M63 0v150h131v-150h-131zM293 0v150h132v-150h-132zM524 0v150h131v-150h-131z" />
<glyph unicode="&#x202f;" horiz-adv-x="190" />
<glyph unicode="&#x2039;" horiz-adv-x="393" d="M32 236v76l305 215v-118l-200 -136l200 -135v-118z" />
<glyph unicode="&#x203a;" horiz-adv-x="393" d="M56 20v119l201 134l-201 136v118l305 -215v-76z" />
<glyph unicode="&#x205f;" horiz-adv-x="238" />
<glyph unicode="&#x20ac;" horiz-adv-x="722" d="M44 236v70h61q-1 14 -1 44q0 25 1 38h-61v70h69q22 125 96.5 189t179.5 64q73 0 140.5 -27t147.5 -75l-62 -94q-135 80 -213 80q-56 0 -95.5 -35.5t-56.5 -101.5h248v-70h-260q-1 -12 -1 -38q0 -30 2 -44h259v-70h-247q19 -63 58 -97.5t93 -34.5q78 0 213 80l62 -94 q-79 -47 -147 -74t-141 -27q-104 0 -177.5 62t-97.5 185h-70z" />
<glyph unicode="&#x2122;" horiz-adv-x="643" d="M60 655v45h214v-45h-80v-179h-55v179h-79zM306 476v224h58l76 -133l75 133h58v-224h-55v144l-61 -107h-34l-62 109v-146h-55z" />
<glyph unicode="&#xe000;" horiz-adv-x="525" d="M0 0v525h525v-525h-525z" />
</font>
</defs>
</svg>
